<svg width="50" height="50" viewBox="0 0 50 50" fill="none" xmlns="http://www.w3.org/2000/svg">
<path d="M47.8556 37.5354C43.3806 33.0604 43.6741 33.3439 43.5481 33.2509L31.7027 24.5052L36.2979 19.9104C39.9925 21.2269 44.1754 20.3167 46.9905 17.5016C50.0575 14.4346 50.8626 9.74565 48.9938 5.83383C48.5583 4.9224 47.3504 4.71596 46.637 5.42953L42.8488 9.21772C42.2779 9.78861 41.3491 9.78871 40.7778 9.21772C40.2054 8.64535 40.2054 7.71918 40.7778 7.14682L44.5661 3.35854C45.2803 2.64438 45.0726 1.43676 44.1618 1.0018C40.25 -0.866953 35.5611 -0.0618746 32.494 3.00502C29.6782 5.82084 28.7691 10.0039 30.0852 13.6975L24.7856 18.9966C23.7066 18.1574 25.1304 19.5909 14.9678 8.81488L16.0332 7.74955C16.707 7.07582 16.5666 5.9477 15.7511 5.45844L7.90798 0.752481C5.85202 -0.481113 3.2322 -0.158652 1.53679 1.53676C-0.158523 3.23207 -0.481082 5.85209 0.752512 7.90795L5.45847 15.7512C5.94851 16.5682 7.07712 16.7057 7.74958 16.0332L8.75427 15.0286C18.8642 25.7488 17.5336 24.2926 18.3328 25.3203C18.3517 25.3446 18.3728 25.3661 18.3929 25.3889L13.6936 30.0878C10.0003 28.7717 5.81687 29.6808 3.00124 32.4966C-0.0657499 35.5636 -0.870828 40.2525 0.99802 44.1644C1.43366 45.0759 2.64128 45.2822 3.35486 44.5687L7.14304 40.7804C7.71423 40.2094 8.64304 40.2096 9.21403 40.7804C9.7864 41.3528 9.7864 42.2789 9.21403 42.8513L5.42566 46.6396C4.7114 47.3538 4.91921 48.5614 5.82995 48.9964C7.23601 49.6681 8.74206 49.9944 10.2376 49.9944C12.9026 49.9943 15.5331 48.9578 17.4977 46.9932C20.3135 44.1774 21.2226 39.9943 19.9065 36.3006L23.9198 32.2876L33.2639 43.6431C33.335 43.7292 33.1005 43.4892 37.2797 47.6684C38.801 49.1898 40.8237 49.9785 42.8127 49.9785C44.272 49.9785 45.7134 49.5535 46.924 48.6817C50.6184 46.0208 51.054 40.7334 47.8556 37.5354ZM9.85046 11.9222C9.28279 11.3204 8.33112 11.3098 7.74958 11.8914L7.00476 12.6362L3.26384 6.40111C2.72302 5.49975 2.86433 4.35102 3.60769 3.60766C4.35105 2.8642 5.49978 2.72299 6.40105 3.26381L12.6361 7.00482L11.8913 7.74945C11.3312 8.30951 11.3179 9.21342 11.8614 9.78959C23.5384 22.1713 21.7015 20.3081 22.6984 21.0835L20.476 23.3057C19.708 22.318 21.4914 24.2658 9.85046 11.9222ZM17.1441 34.921C16.7052 35.3599 16.5907 36.0277 16.8583 36.5877C18.1931 39.3819 17.6177 42.7312 15.4268 44.9221C14.0231 46.3258 12.1442 47.0664 10.2401 47.0663C9.89763 47.0663 9.55446 47.0423 9.21296 46.9939L11.2848 44.922C13.0017 43.2052 13.002 40.4262 11.2848 38.7092C9.57204 36.9963 6.78484 36.9964 5.07204 38.7092L3.00017 40.7811C2.68298 38.5413 3.41599 36.2235 5.07204 34.5674C7.26306 32.3763 10.6123 31.8012 13.4064 33.1359C13.9664 33.4034 14.6341 33.289 15.0731 32.85L32.8475 15.0769C33.2864 14.638 33.4009 13.9703 33.1335 13.4102C31.7986 10.6162 32.374 7.26674 34.5649 5.07582C36.2213 3.41957 38.5389 2.68666 40.7786 3.00395L38.7067 5.07582C37.8769 5.90551 37.4199 7.00883 37.4199 8.18227C37.4199 9.3557 37.8769 10.4588 38.7067 11.2887C40.4195 13.0016 43.2067 13.0015 44.9195 11.2887L46.9914 9.21684C47.3086 11.4566 46.5756 13.7745 44.9195 15.4305C42.7285 17.6215 39.3792 18.1968 36.585 16.8621C36.0253 16.5946 35.3574 16.709 34.9184 17.1479L17.1441 34.921ZM25.9943 30.2132L29.6085 26.5994L33.292 29.3189L28.8911 33.7198C25.8989 30.0836 26.0856 30.3028 25.9943 30.2132ZM45.2123 46.3052C43.5043 47.5353 40.9842 47.2313 39.3504 45.5975L35.4801 41.7274L30.7606 35.9919L35.6745 31.0781L41.7204 35.5418L45.7846 39.6062C47.6424 41.4639 47.523 44.641 45.2123 46.3052Z" fill="url(#paint0_linear)"/>
<path d="M43.6886 41.4261L37.831 35.5686C37.2593 34.9967 36.332 34.9967 35.7601 35.5686C35.1883 36.1404 35.1883 37.0676 35.7601 37.6395L41.6177 43.497C42.1894 44.0687 43.1167 44.0688 43.6886 43.497C44.2604 42.9251 44.2604 41.9979 43.6886 41.4261Z" fill="url(#paint1_linear)"/>
<defs>
<linearGradient id="paint0_linear" x1="2.69236" y1="49.9944" x2="49.9913" y2="4.22493" gradientUnits="userSpaceOnUse">
<stop stop-color="#FF9933"/>
<stop offset="1" stop-color="#FFC633"/>
</linearGradient>
<linearGradient id="paint1_linear" x1="35.8043" y1="43.9258" x2="44.1174" y2="35.8831" gradientUnits="userSpaceOnUse">
<stop stop-color="#FF9933"/>
<stop offset="1" stop-color="#FFC633"/>
</linearGradient>
</defs>
</svg>
