<svg width="50" height="50" viewBox="0 0 50 50" fill="none" xmlns="http://www.w3.org/2000/svg">
<g clip-path="url(#clip0)">
<path d="M0.280972 42.4855L0.280879 42.4855L0.280972 42.4855ZM45.2186 34.1242V34.1617L45.2362 34.1947L49.5796 42.3399C49.5797 42.3402 49.5799 42.3404 49.58 42.3407C50.3821 43.8882 49.2819 45.4938 47.8745 45.382L47.8746 45.3815H47.8626H2.01856C0.627053 45.3815 -0.337453 43.877 0.411307 42.5596L0.412536 42.5573L4.54208 34.9933L4.56042 34.9597V34.9214V6.63815C4.56042 5.51989 5.47962 4.61094 6.4752 4.61094H43.3038C44.4116 4.61094 45.2186 5.51969 45.2186 6.52571V34.1242ZM8.64218 8.55292H8.49218V8.70292V32.9282V33.0782H8.64218H41.239H41.389V32.9282V8.70292V8.55292H41.239H8.64218ZM5.36186 41.2184L5.34392 41.2517V41.2895V41.2998V41.4498H5.49392H44.3873H44.6382L44.5194 41.2288L42.24 36.9868L42.1975 36.9078H42.1079H7.77334H7.68376L7.64128 36.9866L5.36186 41.2184Z" fill="url(#paint0_linear)" stroke="white" stroke-width="0.3"/>
<path d="M21.0305 24.4511L21.1348 24.5489L21.2375 24.4493L32.54 13.484C33.3545 12.7676 34.5576 12.7759 35.2621 13.4762C35.9693 14.2925 35.9587 15.5073 35.2666 16.2005C35.2663 16.2008 35.266 16.201 35.2657 16.2013L22.4394 28.5881L22.4394 28.5881L22.4363 28.5912C22.2441 28.788 21.8655 29.0198 21.3963 29.0841C20.9345 29.1474 20.3803 29.0493 19.8218 28.5836L14.8265 23.9152L14.8265 23.9151L14.8226 23.9116C14.0251 23.2173 14.0147 22.0053 14.7248 21.1896C15.4184 20.3928 16.6291 20.3818 17.4447 21.0901L21.0305 24.4511Z" fill="url(#paint1_linear)" stroke="white" stroke-width="0.3"/>
</g>
<defs>
<linearGradient id="paint0_linear" x1="2.69226" y1="45.5376" x2="41.0642" y2="0.348903" gradientUnits="userSpaceOnUse">
<stop stop-color="#FF9933"/>
<stop offset="1" stop-color="#FFC633"/>
</linearGradient>
<linearGradient id="paint1_linear" x1="15.2359" y1="29.2514" x2="30.3289" y2="9.83087" gradientUnits="userSpaceOnUse">
<stop stop-color="#FF9933"/>
<stop offset="1" stop-color="#FFC633"/>
</linearGradient>
<clipPath id="clip0">
<rect width="50" height="50" fill="white"/>
</clipPath>
</defs>
</svg>
