<svg width="50" height="50" viewBox="0 0 50 50" fill="none" xmlns="http://www.w3.org/2000/svg">
<path d="M17.6781 37.0094V33.3031H29.3922V37.0094H17.6781Z" fill="url(#paint0_linear)" stroke="white" stroke-width="0.2"/>
<path d="M17.6781 29.1969V25.4906H40.1344V29.1969H17.6781Z" fill="url(#paint1_linear)" stroke="white" stroke-width="0.2"/>
<path d="M42.0875 7.8125V7.9125H42.1875H44.1406C47.3163 7.9125 49.9 10.4962 49.9 13.6719V36.008L36.0745 49.9H13.6719C10.4962 49.9 7.9125 47.3163 7.9125 44.1406V42.1875V42.0875H7.8125H5.85938C2.68374 42.0875 0.1 39.5038 0.1 36.3281V5.85938C0.1 2.68374 2.68374 0.1 5.85938 0.1H36.3281C39.5038 0.1 42.0875 2.68374 42.0875 5.85938V7.8125ZM7.8125 38.3812H7.9125V38.2812V13.6719C7.9125 10.4962 10.4962 7.9125 13.6719 7.9125H38.2812H38.3812V7.8125V5.85938C38.3812 4.72719 37.4603 3.80625 36.3281 3.80625H5.85938C4.72719 3.80625 3.80625 4.72719 3.80625 5.85938V36.3281C3.80625 37.4603 4.72719 38.3812 5.85938 38.3812H7.8125ZM37.1939 43.279V43.5212L37.3647 43.3495L43.4184 37.2667L43.5882 37.0962H43.3476H39.247C38.1148 37.0962 37.1939 38.0171 37.1939 39.1493V43.279ZM46.0938 33.3899H46.1937V33.2899V13.6719C46.1937 12.5397 45.2728 11.6187 44.1406 11.6187H13.6719C12.5397 11.6187 11.6187 12.5397 11.6187 13.6719V44.1406C11.6187 45.2728 12.5397 46.1937 13.6719 46.1937H33.3876H33.4876V46.0938V39.1493C33.4876 35.9737 36.0713 33.3899 39.247 33.3899H46.0938Z" fill="url(#paint2_linear)" stroke="white" stroke-width="0.2"/>
<path d="M17.6781 21.3844V17.6781H40.1344V21.3844H17.6781Z" fill="url(#paint3_linear)" stroke="white" stroke-width="0.2"/>
<defs>
<linearGradient id="paint0_linear" x1="18.2197" y1="37.1094" x2="20.4678" y2="30.4754" gradientUnits="userSpaceOnUse">
<stop stop-color="#FF9933"/>
<stop offset="1" stop-color="#FFC633"/>
</linearGradient>
<linearGradient id="paint1_linear" x1="18.7981" y1="29.2969" x2="20.0755" y2="22.1287" gradientUnits="userSpaceOnUse">
<stop stop-color="#FF9933"/>
<stop offset="1" stop-color="#FFC633"/>
</linearGradient>
<linearGradient id="paint2_linear" x1="2.69231" y1="50" x2="50" y2="4.23077" gradientUnits="userSpaceOnUse">
<stop stop-color="#FF9933"/>
<stop offset="1" stop-color="#FFC633"/>
</linearGradient>
<linearGradient id="paint3_linear" x1="18.7981" y1="21.4844" x2="20.0755" y2="14.3162" gradientUnits="userSpaceOnUse">
<stop stop-color="#FF9933"/>
<stop offset="1" stop-color="#FFC633"/>
</linearGradient>
</defs>
</svg>
