<svg width="50" height="50" viewBox="0 0 50 50" fill="none" xmlns="http://www.w3.org/2000/svg">
<g clip-path="url(#clip0)">
<path d="M8.40999 12.35H8.57758H41.4224H41.59L41.5714 12.5166L38.0736 43.9964C38.0736 43.9964 38.0735 43.9965 38.0735 43.9965M8.40999 12.35L35.8539 45.8333C36.3667 45.8338 36.8617 45.6449 37.2438 45.3028C37.6259 44.9608 37.8683 44.4897 37.9245 43.9799L38.0735 43.9965M8.40999 12.35L8.4285 12.5166L11.9264 43.9967L8.40999 12.35ZM38.0735 43.9965C38.0133 44.543 37.7535 45.0479 37.3438 45.4146C36.9342 45.7813 36.4036 45.9838 35.8537 45.9833L38.0735 43.9965ZM14.1461 50H35.8539C37.3924 50.0014 38.8773 49.4348 40.0237 48.4087C41.1701 47.3826 41.8974 45.9694 42.0659 44.4401L14.1461 50ZM4.3854 12.35H2.23331V8.48333H16.6666H16.8166V8.33333V6.25017C16.8185 4.63286 17.4617 3.08231 18.6053 1.9387C19.749 0.795094 21.2995 0.151816 22.9168 0.15L27.0832 0.15C28.7005 0.151837 30.251 0.795113 31.3946 1.9387C32.5382 3.08231 33.1815 4.63286 33.1833 6.25017V8.33333V8.48333H33.3333H47.7666V12.35H45.6146H45.4803L45.4655 12.4834L41.9168 44.4235L41.9168 44.4237C41.7523 45.9162 41.0426 47.2955 39.9237 48.2969C38.8048 49.2983 37.3556 49.8514 35.854 49.85H35.8539H14.1461H14.1459C12.6444 49.8514 11.1952 49.2984 10.0763 48.297C8.95747 47.2956 8.24771 45.9164 8.08319 44.4239L8.08318 44.4238L4.53448 12.4834L4.51965 12.35H4.3854ZM20.6833 6.24983V6.25V8.33333V8.48333H20.8333H29.1666H29.3166V8.33333V6.25V6.24983C29.316 5.65776 29.0805 5.09014 28.6618 4.67148C28.2432 4.25283 27.6755 4.01733 27.0835 4.01667H27.0833H22.9166H22.9165C22.3244 4.01733 21.7568 4.25283 21.3381 4.67148C20.9195 5.09014 20.684 5.65776 20.6833 6.24983Z" fill="black"/>
<path d="M8.40999 12.35H8.57758H41.4224H41.59L41.5714 12.5166L38.0736 43.9964C38.0736 43.9964 38.0735 43.9965 38.0735 43.9965M8.40999 12.35L35.8539 45.8333C36.3667 45.8338 36.8617 45.6449 37.2438 45.3028C37.6259 44.9608 37.8683 44.4897 37.9245 43.9799L38.0735 43.9965M8.40999 12.35L8.4285 12.5166L11.9264 43.9967L8.40999 12.35ZM38.0735 43.9965C38.0133 44.543 37.7535 45.0479 37.3438 45.4146C36.9342 45.7813 36.4036 45.9838 35.8537 45.9833L38.0735 43.9965ZM14.1461 50H35.8539C37.3924 50.0014 38.8773 49.4348 40.0237 48.4087C41.1701 47.3826 41.8974 45.9694 42.0659 44.4401L14.1461 50ZM4.3854 12.35H2.23331V8.48333H16.6666H16.8166V8.33333V6.25017C16.8185 4.63286 17.4617 3.08231 18.6053 1.9387C19.749 0.795094 21.2995 0.151816 22.9168 0.15L27.0832 0.15C28.7005 0.151837 30.251 0.795113 31.3946 1.9387C32.5382 3.08231 33.1815 4.63286 33.1833 6.25017V8.33333V8.48333H33.3333H47.7666V12.35H45.6146H45.4803L45.4655 12.4834L41.9168 44.4235L41.9168 44.4237C41.7523 45.9162 41.0426 47.2955 39.9237 48.2969C38.8048 49.2983 37.3556 49.8514 35.854 49.85H35.8539H14.1461H14.1459C12.6444 49.8514 11.1952 49.2984 10.0763 48.297C8.95747 47.2956 8.24771 45.9164 8.08319 44.4239L8.08318 44.4238L4.53448 12.4834L4.51965 12.35H4.3854ZM20.6833 6.24983V6.25V8.33333V8.48333H20.8333H29.1666H29.3166V8.33333V6.25V6.24983C29.316 5.65776 29.0805 5.09014 28.6618 4.67148C28.2432 4.25283 27.6755 4.01733 27.0835 4.01667H27.0833H22.9166H22.9165C22.3244 4.01733 21.7568 4.25283 21.3381 4.67148C20.9195 5.09014 20.684 5.65776 20.6833 6.24983Z" fill="url(#paint0_linear)"/>
<path d="M8.40999 12.35H8.57758H41.4224H41.59L41.5714 12.5166L38.0736 43.9964C38.0736 43.9964 38.0735 43.9965 38.0735 43.9965M8.40999 12.35L35.8539 45.8333C36.3667 45.8338 36.8617 45.6449 37.2438 45.3028C37.6259 44.9608 37.8683 44.4897 37.9245 43.9799L38.0735 43.9965M8.40999 12.35L8.4285 12.5166L11.9264 43.9967L8.40999 12.35ZM38.0735 43.9965C38.0133 44.543 37.7535 45.0479 37.3438 45.4146C36.9342 45.7813 36.4036 45.9838 35.8537 45.9833L38.0735 43.9965ZM14.1461 50H35.8539C37.3924 50.0014 38.8773 49.4348 40.0237 48.4087C41.1701 47.3826 41.8974 45.9694 42.0659 44.4401L14.1461 50ZM4.3854 12.35H2.23331V8.48333H16.6666H16.8166V8.33333V6.25017C16.8185 4.63286 17.4617 3.08231 18.6053 1.9387C19.749 0.795094 21.2995 0.151816 22.9168 0.15L27.0832 0.15C28.7005 0.151837 30.251 0.795113 31.3946 1.9387C32.5382 3.08231 33.1815 4.63286 33.1833 6.25017V8.33333V8.48333H33.3333H47.7666V12.35H45.6146H45.4803L45.4655 12.4834L41.9168 44.4235L41.9168 44.4237C41.7523 45.9162 41.0426 47.2955 39.9237 48.2969C38.8048 49.2983 37.3556 49.8514 35.854 49.85H35.8539H14.1461H14.1459C12.6444 49.8514 11.1952 49.2984 10.0763 48.297C8.95747 47.2956 8.24771 45.9164 8.08319 44.4239L8.08318 44.4238L4.53448 12.4834L4.51965 12.35H4.3854ZM20.6833 6.24983V6.25V8.33333V8.48333H20.8333H29.1666H29.3166V8.33333V6.25V6.24983C29.316 5.65776 29.0805 5.09014 28.6618 4.67148C28.2432 4.25283 27.6755 4.01733 27.0835 4.01667H27.0833H22.9166H22.9165C22.3244 4.01733 21.7568 4.25283 21.3381 4.67148C20.9195 5.09014 20.684 5.65776 20.6833 6.24983Z" stroke="white" stroke-width="0.3"/>
<path d="M23.0666 16.816H26.9333V41.516H23.0666V16.816Z" fill="black"/>
<path d="M23.0666 16.816H26.9333V41.516H23.0666V16.816Z" fill="url(#paint1_linear)"/>
<path d="M23.0666 16.816H26.9333V41.516H23.0666V16.816Z" stroke="white" stroke-width="0.3"/>
<path d="M31.4297 41.3444L33.487 16.6319L37.3422 16.9528L35.2849 41.6654L31.4297 41.3444Z" fill="black"/>
<path d="M31.4297 41.3444L33.487 16.6319L37.3422 16.9528L35.2849 41.6654L31.4297 41.3444Z" fill="url(#paint2_linear)"/>
<path d="M31.4297 41.3444L33.487 16.6319L37.3422 16.9528L35.2849 41.6654L31.4297 41.3444Z" stroke="white" stroke-width="0.3"/>
<path d="M12.6745 16.9847L16.5297 16.6638L18.587 41.3762L14.7318 41.6972L12.6745 16.9847Z" fill="black"/>
<path d="M12.6745 16.9847L16.5297 16.6638L18.587 41.3762L14.7318 41.6972L12.6745 16.9847Z" fill="url(#paint3_linear)"/>
<path d="M12.6745 16.9847L16.5297 16.6638L18.587 41.3762L14.7318 41.6972L12.6745 16.9847Z" stroke="white" stroke-width="0.3"/>
</g>
<defs>
<linearGradient id="paint0_linear" x1="4.55126" y1="50" x2="51.5456" y2="8.32276" gradientUnits="userSpaceOnUse">
<stop stop-color="#FF9933"/>
<stop offset="1" stop-color="#FFC633"/>
</linearGradient>
<linearGradient id="paint1_linear" x1="23.141" y1="41.666" x2="30.58" y2="40.4665" gradientUnits="userSpaceOnUse">
<stop stop-color="#FF9933"/>
<stop offset="1" stop-color="#FFC633"/>
</linearGradient>
<linearGradient id="paint2_linear" x1="35.534" y1="40.4805" x2="28.0031" y2="38.5329" gradientUnits="userSpaceOnUse">
<stop stop-color="#FF9933"/>
<stop offset="1" stop-color="#FFC633"/>
</linearGradient>
<linearGradient id="paint3_linear" x1="14.8185" y1="41.8405" x2="22.1372" y2="40.031" gradientUnits="userSpaceOnUse">
<stop stop-color="#FF9933"/>
<stop offset="1" stop-color="#FFC633"/>
</linearGradient>
<clipPath id="clip0">
<rect width="50" height="50" fill="white"/>
</clipPath>
</defs>
</svg>
