<svg width="50" height="50" viewBox="0 0 50 50" fill="none" xmlns="http://www.w3.org/2000/svg">
<path d="M47.8557 37.5355C43.3807 33.0605 43.6742 33.344 43.5482 33.2511L31.7028 24.5054L36.298 19.9105C39.9925 21.227 44.1754 20.3169 46.9906 17.5018C50.0576 14.4348 50.8626 9.7458 48.9939 5.83398C48.5583 4.92256 47.3504 4.71611 46.637 5.42968L42.8489 9.21787C42.278 9.78877 41.3492 9.78886 40.7779 9.21787C40.2055 8.6455 40.2055 7.71933 40.7779 7.14697L44.5661 3.35869C45.2804 2.64453 45.0727 1.43691 44.1618 1.00195C40.25 -0.8668 35.5612 -0.061722 32.4941 3.00517C29.6783 5.82099 28.7692 10.0041 30.0853 13.6977L24.7857 18.9968C23.7067 18.1575 25.1305 19.591 14.9679 8.81504L16.0332 7.7497C16.7071 7.07597 16.5666 5.94785 15.7512 5.45859L7.90804 0.752634C5.85208 -0.48096 3.23226 -0.158499 1.53685 1.53691C-0.158462 3.23222 -0.481021 5.85224 0.752573 7.9081L5.45853 15.7514C5.94857 16.5684 7.07718 16.7059 7.74964 16.0334L8.75433 15.0287C18.8643 25.7489 17.5336 24.2928 18.3328 25.3204C18.3518 25.3447 18.3729 25.3662 18.393 25.3891L13.6937 30.088C10.0003 28.7719 5.81693 29.681 3.0013 32.4968C-0.0656889 35.5638 -0.870767 40.2526 0.998081 44.1646C1.43373 45.0761 2.64134 45.2823 3.35492 44.5688L7.1431 40.7806C7.71429 40.2096 8.6431 40.2098 9.2141 40.7806C9.78646 41.3529 9.78646 42.2791 9.2141 42.8515L5.42572 46.6397C4.71146 47.3539 4.91927 48.5615 5.83001 48.9966C7.23607 49.6683 8.74212 49.9945 10.2376 49.9945C12.9027 49.9944 15.5331 48.9579 17.4978 46.9934C20.3136 44.1775 21.2227 39.9944 19.9066 36.3008L23.9199 32.2878L33.264 43.6433C33.3351 43.7294 33.1005 43.4894 37.2797 47.6686C38.8011 49.1899 40.8238 49.9786 42.8127 49.9786C44.2721 49.9786 45.7134 49.5536 46.9241 48.6818C50.6185 46.021 51.054 40.7336 47.8557 37.5355ZM9.85052 11.9224C9.28285 11.3205 8.33119 11.31 7.74964 11.8916L7.00482 12.6363L3.2639 6.40127C2.72308 5.4999 2.86439 4.35117 3.60775 3.60781C4.35111 2.86435 5.49984 2.72314 6.40111 3.26396L12.6362 7.00498L11.8913 7.74961C11.3313 8.30966 11.318 9.21357 11.8615 9.78974C23.5384 22.1715 21.7016 20.3083 22.6985 21.0837L20.4761 23.3059C19.708 22.3182 21.4914 24.2659 9.85052 11.9224ZM17.1442 34.9212C16.7053 35.3601 16.5908 36.0278 16.8583 36.5879C18.1932 39.382 17.6178 42.7313 15.4269 44.9223C14.0232 46.326 12.1443 47.0666 10.2402 47.0664C9.89769 47.0664 9.55453 47.0425 9.21302 46.994L11.2849 44.9222C13.0018 43.2054 13.0021 40.4264 11.2849 38.7094C9.5721 36.9965 6.7849 36.9966 5.0721 38.7094L3.00023 40.7812C2.68304 38.5415 3.41605 36.2236 5.0721 34.5676C7.26312 32.3765 10.6123 31.8014 13.4065 33.136C13.9664 33.4035 14.6341 33.2892 15.0732 32.8502L32.8476 15.077C33.2865 14.6382 33.401 13.9704 33.1335 13.4103C31.7987 10.6163 32.3741 7.26689 34.565 5.07597C36.2213 3.41972 38.539 2.68681 40.7786 3.0041L38.7068 5.07597C37.877 5.90566 37.42 7.00898 37.42 8.18242C37.42 9.35586 37.877 10.459 38.7068 11.2889C40.4196 13.0018 43.2068 13.0017 44.9196 11.2889L46.9914 9.21699C47.3086 11.4567 46.5756 13.7746 44.9196 15.4307C42.7285 17.6217 39.3792 18.197 36.5851 16.8622C36.0253 16.5947 35.3575 16.7092 34.9185 17.148L17.1442 34.9212ZM25.9944 30.2134L29.6085 26.5995L33.292 29.319L28.8911 33.7199C25.899 30.0838 26.0857 30.3029 25.9944 30.2134ZM45.2123 46.3054C43.5043 47.5354 40.9842 47.2314 39.3504 45.5977L35.4802 41.7275L30.7607 35.9921L35.6745 31.0782L41.7204 35.542L45.7847 39.6063C47.6424 41.4641 47.5231 44.6411 45.2123 46.3054Z" fill="url(#paint0_linear)"/>
<path d="M43.6886 41.4258L37.8311 35.5682C37.2593 34.9964 36.3321 34.9964 35.7602 35.5682C35.1883 36.1401 35.1883 37.0673 35.7602 37.6391L41.6177 43.4967C42.1895 44.0684 43.1167 44.0685 43.6886 43.4967C44.2605 42.9248 44.2605 41.9976 43.6886 41.4258Z" fill="url(#paint1_linear)"/>
<defs>
<linearGradient id="paint0_linear" x1="2.69242" y1="49.9945" x2="49.9914" y2="4.22509" gradientUnits="userSpaceOnUse">
<stop stop-color="#FF9933"/>
<stop offset="1" stop-color="#FFC633"/>
</linearGradient>
<linearGradient id="paint1_linear" x1="35.8044" y1="43.9255" x2="44.1175" y2="35.8827" gradientUnits="userSpaceOnUse">
<stop stop-color="#FF9933"/>
<stop offset="1" stop-color="#FFC633"/>
</linearGradient>
</defs>
</svg>
