<svg width="14" height="9" viewBox="0 0 14 9" fill="none" xmlns="http://www.w3.org/2000/svg">
<path d="M2.15 0.612493L7 5.46249L11.85 0.612493C11.9657 0.496766 12.1031 0.404966 12.2543 0.342335C12.4055 0.279704 12.5676 0.247467 12.7312 0.247467C12.8949 0.247467 13.057 0.279704 13.2082 0.342335C13.3594 0.404966 13.4968 0.496766 13.6125 0.612493C13.7282 0.72822 13.82 0.865609 13.8827 1.01681C13.9453 1.16802 13.9775 1.33008 13.9775 1.49374C13.9775 1.65741 13.9453 1.81947 13.8827 1.97067C13.82 2.12188 13.7282 2.25927 13.6125 2.37499L7.875 8.11249C7.75936 8.22837 7.622 8.32031 7.47078 8.38303C7.31956 8.44576 7.15746 8.47805 6.99375 8.47805C6.83004 8.47805 6.66794 8.44576 6.51672 8.38303C6.3655 8.32031 6.22814 8.22837 6.1125 8.11249L0.375 2.37499C0.25912 2.25935 0.167186 2.12199 0.104459 1.97077C0.0417323 1.81956 0.00944519 1.65745 0.00944519 1.49374C0.00944519 1.33003 0.0417323 1.16793 0.104459 1.01671C0.167186 0.865496 0.25912 0.728135 0.375 0.612493C0.8625 0.137493 1.6625 0.124993 2.15 0.612493Z" fill="white"/>
</svg>
