<svg width="24" height="25" viewBox="0 0 24 25" fill="none" xmlns="http://www.w3.org/2000/svg">
<g clip-path="url(#clip0)">
<path d="M24 12.5C24 5.87075 18.6248 0.5 12 0.5C5.37075 0.5 0 5.87075 0 12.5C0 18.488 4.38675 23.453 10.125 24.3522V15.9695H7.07775V12.5007H10.125V9.8555C10.125 6.84875 11.9138 5.18825 14.6558 5.18825C15.969 5.18825 17.3438 5.42225 17.3438 5.42225V8.375H15.828C14.34 8.375 13.875 9.30125 13.875 10.25V12.5H17.2028L16.668 15.9688H13.875V24.3515C19.6087 23.4522 24 18.4872 24 12.4992V12.5Z" fill="white"/>
</g>
<defs>
<clipPath id="clip0">
<rect width="24" height="24" fill="white" transform="translate(0 0.5)"/>
</clipPath>
</defs>
</svg>
