<svg width="26" height="30" viewBox="0 0 26 30" fill="none" xmlns="http://www.w3.org/2000/svg">
<path d="M17.6287 0H5.57946C3.81912 0 2.38645 1.43367 2.38645 3.19295V14.9999H2.07453C1.36407 14.9999 0.787949 15.5756 0.787949 16.2866V24.0896C0.787949 24.8006 1.36407 25.3762 2.07453 25.3762H2.38645V26.807C2.38645 28.5682 3.81912 29.9999 5.5794 29.9999H22.0199C23.7792 29.9999 25.2119 28.5681 25.2119 26.807V7.55687L17.6287 0ZM2.91646 17.3584C3.36614 17.2869 3.95197 17.2466 4.5704 17.2466C5.59807 17.2466 6.26447 17.431 6.78664 17.8242C7.34857 18.242 7.70156 18.9089 7.70156 19.8641C7.70156 20.8996 7.32449 21.6144 6.80232 22.0558C6.23255 22.5293 5.36523 22.754 4.30564 22.754C3.67122 22.754 3.22154 22.7138 2.91652 22.6736V17.3584H2.91646ZM22.02 28.0445H5.57946C4.89781 28.0445 4.34279 27.4895 4.34279 26.807V25.3762H19.6688C20.3793 25.3762 20.9555 24.8006 20.9555 24.0896V16.2866C20.9555 15.5756 20.3794 14.9999 19.6688 14.9999H4.34279V3.19295C4.34279 2.51236 4.89781 1.95734 5.57946 1.95734L16.8971 1.94551V6.12892C16.8971 7.35085 17.8886 8.34324 19.1113 8.34324L23.2095 8.33148L23.2556 26.8069C23.2557 27.4895 22.7015 28.0445 22.02 28.0445ZM8.25852 20.0326C8.25852 18.4107 9.29415 17.1986 10.8921 17.1986C12.5543 17.1986 13.4614 18.443 13.4614 19.9365C13.4614 21.7105 12.3856 22.7863 10.8038 22.7863C9.19808 22.7863 8.25852 21.5743 8.25852 20.0326ZM17.0373 21.7665C17.4065 21.7665 17.8159 21.686 18.0571 21.5899L18.2415 22.5451C18.0169 22.6579 17.511 22.7785 16.853 22.7785C14.9819 22.7785 14.0184 21.6144 14.0184 20.0729C14.0184 18.2263 15.3354 17.1986 16.973 17.1986C17.6075 17.1986 18.089 17.3271 18.3057 17.4389L18.0571 18.4107C17.808 18.3057 17.4628 18.2097 17.0294 18.2097C16.0576 18.2097 15.303 18.7961 15.303 20.0003C15.3031 21.0839 15.9453 21.7665 17.0373 21.7665Z" fill="white"/>
</svg>
