<svg width="16" height="16" viewBox="0 0 16 16" fill="none" xmlns="http://www.w3.org/2000/svg">
<path d="M7.51883 0.888672C6.24539 0.888672 4.93178 1.09025 3.6151 1.48795C3.23579 1.60236 2.08221 1.95103 1.66068 3.09238C1.2446 4.2201 1.84319 5.15273 2.28004 5.83407C2.52927 6.22291 2.81222 6.66352 2.81222 6.97031C2.81222 7.48854 2.02875 8.56384 1.51019 9.27548C0.566686 10.5707 -0.503477 12.0379 0.259903 13.5395C0.968465 14.9329 2.68828 15.1109 4.10711 15.1109C10.332 15.1109 15.9998 11.3491 15.9998 7.21853C15.9998 4.17482 12.758 0.888672 7.51883 0.888672ZM5.61821 11.614C5.60901 12.3611 5.00226 12.9648 4.25284 12.9648C3.49797 12.9648 2.88611 12.3526 2.88611 11.5977C2.88611 10.8421 3.49797 10.2299 4.25284 10.2299C4.48505 10.2299 4.70024 10.2939 4.89194 10.3954C5.323 10.6252 5.61957 11.0733 5.61957 11.596C5.61923 11.6035 5.61821 11.6093 5.61821 11.614ZM5.79186 5.13536C5.50312 4.88476 5.31687 4.5194 5.31687 4.10706C5.31687 3.35183 5.92907 2.73996 6.68394 2.73996C7.43915 2.73996 8.05101 3.35183 8.05101 4.10706C8.05101 4.17686 8.04046 4.2436 8.03024 4.31102C7.93116 4.96852 7.36935 5.47416 6.68394 5.47416C6.34107 5.47416 6.0319 5.34341 5.79186 5.13536ZM8.3864 11.9433C7.90154 11.9433 7.47797 11.6893 7.2352 11.3086C7.10036 11.0965 7.01899 10.8465 7.01899 10.5765C7.01899 9.82164 7.63153 9.20942 8.38708 9.20942C9.05955 9.20942 9.61523 9.69667 9.72895 10.3365C9.74291 10.4148 9.75278 10.4951 9.75278 10.5765C9.75313 11.3311 9.14194 11.9433 8.3864 11.9433ZM9.35884 4.50953C9.35169 4.4513 9.34113 4.3941 9.34113 4.33383C9.34113 3.70221 9.77185 3.1758 10.3541 3.01917C10.4675 2.98852 10.5849 2.96707 10.7082 2.96707C11.2445 2.96707 11.7041 3.27897 11.9278 3.72877C12.0198 3.91195 12.0749 4.11557 12.0749 4.33383C12.0749 4.8061 11.8362 5.22219 11.4719 5.46769C11.2537 5.61512 10.9911 5.70093 10.7085 5.70093C10.0133 5.70093 9.446 5.18065 9.35884 4.50953ZM11.4883 9.78691C11.2581 9.78691 11.0439 9.72425 10.8539 9.62381C10.4212 9.39397 10.1226 8.94417 10.1226 8.42015C10.1226 7.66492 10.7344 7.05237 11.4893 7.05237C11.9176 7.05237 12.2949 7.25326 12.5462 7.56107C12.7375 7.79601 12.8574 8.09293 12.8574 8.41947C12.8553 9.17469 12.2435 9.78691 11.4883 9.78691Z" fill="#0C3E70"/>
</svg>
