<svg width="24" height="23" viewBox="0 0 24 23" fill="none" xmlns="http://www.w3.org/2000/svg">
<g>
<path d="M20.2207 0H2.9707C1.3851 0 0.0957031 1.2894 0.0957031 2.875V20.125C0.0957031 21.7106 1.3851 23 2.9707 23H20.2207C21.8063 23 23.0957 21.7106 23.0957 20.125V2.875C23.0957 1.2894 21.8063 0 20.2207 0ZM2.9707 1.91667H20.2207C20.7492 1.91667 21.179 2.34647 21.179 2.875V9.66569L18.0233 6.50993C17.6489 6.13581 17.0425 6.13581 16.6681 6.50993L9.91862 13.2594L7.48161 10.8224C7.10726 10.4483 6.50081 10.4483 6.12646 10.8224L2.01237 14.9365V2.875C2.01237 2.34647 2.44217 1.91667 2.9707 1.91667ZM20.2207 21.0833H2.9707C2.44217 21.0833 2.01237 20.6535 2.01237 20.125V17.6468L6.80404 12.8551L12.3556 18.4063C12.543 18.5941 12.7878 18.6875 13.0332 18.6875C13.2786 18.6875 13.5234 18.5941 13.7108 18.4067C14.0849 18.0324 14.0849 17.4259 13.7108 17.0516L11.2738 14.6146L17.3457 8.54311L21.179 12.3764V20.125C21.179 20.6535 20.7492 21.0833 20.2207 21.0833Z" fill="#0C3E70"/>
<path d="M7.76302 5.74967C7.76302 6.80815 6.90483 7.66634 5.84635 7.66634C4.78788 7.66634 3.92969 6.80815 3.92969 5.74967C3.92969 4.6912 4.78788 3.83301 5.84635 3.83301C6.90483 3.83301 7.76302 4.6912 7.76302 5.74967Z" fill="#0C3E70"/>
</g>
<defs>
<clipPath id="clip0">
<rect width="23" height="23" fill="white" transform="translate(0.0957031)"/>
</clipPath>
</defs>
</svg>
