<svg width="24" height="25" viewBox="0 0 24 25" fill="none" xmlns="http://www.w3.org/2000/svg">
<g clip-path="url(#clip0)">
<path d="M23.7666 10.1498H22.8V10.1H12V14.9H18.7818C17.7924 17.6942 15.1338 19.7 12 19.7C8.0238 19.7 4.8 16.4762 4.8 12.5C4.8 8.5238 8.0238 5.3 12 5.3C13.8354 5.3 15.5052 5.9924 16.7766 7.1234L20.1708 3.7292C18.0276 1.7318 15.1608 0.5 12 0.5C5.373 0.5 0 5.873 0 12.5C0 19.127 5.373 24.5 12 24.5C18.627 24.5 24 19.127 24 12.5C24 11.6954 23.9172 10.91 23.7666 10.1498Z" fill="#FFC107"/>
<path d="M1.38379 6.9146L5.32639 9.806C6.39319 7.1648 8.97679 5.3 12.0002 5.3C13.8356 5.3 15.5054 5.9924 16.7768 7.1234L20.171 3.7292C18.0278 1.7318 15.161 0.5 12.0002 0.5C7.39099 0.5 3.39379 3.1022 1.38379 6.9146Z" fill="#FF3D00"/>
<path d="M11.9994 24.5C15.099 24.5 17.9154 23.3138 20.0448 21.3848L16.3308 18.242C15.0855 19.189 13.5639 19.7012 11.9994 19.7C8.87821 19.7 6.22801 17.7098 5.22961 14.9324L1.31641 17.9474C3.30241 21.8336 7.33561 24.5 11.9994 24.5Z" fill="#4CAF50"/>
<path d="M23.7666 10.1498H22.8V10.1H12V14.9H18.7818C18.3085 16.2298 17.456 17.3919 16.3296 18.2426L16.3314 18.2414L20.0454 21.3842C19.7826 21.623 24 18.5 24 12.5C24 11.6954 23.9172 10.91 23.7666 10.1498Z" fill="#1976D2"/>
</g>
<defs>
<clipPath id="clip0">
<rect width="24" height="24" fill="white" transform="translate(0 0.5)"/>
</clipPath>
</defs>
</svg>
