<svg width="20" height="18" viewBox="0 0 20 18" fill="none" xmlns="http://www.w3.org/2000/svg">
    <path d="M19.9599 2.80818C19.2114 3.13725 18.4185 3.35457 17.6068 3.45318C18.4625 2.93962 19.103 2.1334 19.4099 1.18381C18.6006 1.65319 17.7197 1.98657 16.8024 2.17068C16.1856 1.5116 15.3684 1.07451 14.4778 0.927245C13.5872 0.779979 12.6729 0.930764 11.8767 1.35621C11.0805 1.78165 10.447 2.45796 10.0744 3.28021C9.70186 4.10247 9.61108 5.02469 9.81617 5.90381C6.40805 5.74443 3.3868 4.10693 1.36617 1.63318C0.998344 2.25874 0.805969 2.97189 0.809297 3.69756C0.808796 4.37216 0.974887 5.03645 1.29282 5.63143C1.61076 6.22641 2.0707 6.73368 2.6318 7.10818C1.98156 7.08853 1.34549 6.91344 0.776797 6.59756V6.64693C0.776598 7.59382 1.1038 8.51166 1.70296 9.24488C2.30211 9.9781 3.13635 10.4816 4.0643 10.6701C3.71279 10.764 3.35063 10.8121 2.9868 10.8132C2.72367 10.8132 2.47242 10.7876 2.2218 10.7413C2.48588 11.5561 2.99743 12.2684 3.68524 12.7788C4.37305 13.2893 5.20291 13.5727 6.0593 13.5894C4.6083 14.7258 2.81791 15.3422 0.974922 15.3401C0.648488 15.3414 0.322273 15.323 -0.00195312 15.2851C1.8781 16.4897 4.06453 17.1292 6.29742 17.1276C13.8393 17.1276 17.9605 10.8807 17.9605 5.47068C17.9605 5.29818 17.9605 5.12256 17.9474 4.94631C18.7536 4.36853 19.4484 3.6494 19.998 2.82381L19.9599 2.80818Z" fill="#22C3F7"/>
</svg>
