<svg width="20" height="14" viewBox="0 0 20 14" fill="none" xmlns="http://www.w3.org/2000/svg">
    <path d="M7.9375 9.58233L13.3437 6.79789L7.9375 3.99011V9.58233Z" fill="white"/>
    <path opacity="0.12" d="M7.9375 3.99011L12.6797 7.14011L13.3437 6.79789L7.9375 3.99011Z" fill="#420000"/>
    <path d="M19.7891 3.01778C19.7891 3.01778 19.5939 1.64889 18.9926 1.04222C18.2351 0.248889 17.3838 0.248889 16.9855 0.202222C14.1977 0 10.0039 0 10.0039 0H9.99609C9.99609 0 5.80242 0 2.99883 0.202222C2.60836 0.248889 1.75711 0.248889 0.991797 1.04222C0.398281 1.64889 0.203047 3.01778 0.203047 3.01778C0.203047 3.01778 0 4.63556 0 6.24556V7.75444C0 9.36444 0.203047 10.9744 0.203047 10.9744C0.203047 10.9744 0.398281 12.3433 0.999609 12.95C1.75711 13.7433 2.75672 13.72 3.20188 13.7978C4.80281 13.9533 9.99609 14 9.99609 14C9.99609 14 14.1976 13.9922 16.9934 13.79C17.3838 13.7433 18.2351 13.7433 19.0004 12.95C19.6017 12.3433 19.797 10.9744 19.797 10.9744C19.797 10.9744 20 9.36444 20 7.75444V6.24556C19.9922 4.63556 19.7891 3.01778 19.7891 3.01778ZM7.93445 9.58222V3.99L13.3385 6.79778L7.93437 9.58222H7.93445Z" fill="url(#paint0_linear)"/>
    <defs>
        <linearGradient id="paint0_linear" x1="9.996" y1="0" x2="9.996" y2="14.0042" gradientUnits="userSpaceOnUse">
            <stop stop-color="#E52D27"/>
            <stop offset="1" stop-color="#BF171D"/>
        </linearGradient>
    </defs>
</svg>
