<svg width="294" height="47" viewBox="0 0 294 47" fill="none" xmlns="http://www.w3.org/2000/svg">
    <rect width="47" height="47" rx="5" fill="#C4C4C4"/>
    <rect width="47" height="47" rx="5" fill="url(#paint0_linear)"/>
    <path d="M11.3604 23.1609H12.1805C12.9469 23.1609 13.5204 23.0137 13.901 22.7193C14.2815 22.4197 14.4718 21.986 14.4718 21.4183C14.4718 20.8453 14.311 20.4221 13.9894 20.1487C13.6732 19.8754 13.1747 19.7387 12.494 19.7387H11.3604V23.1609ZM16.9882 21.3315C16.9882 22.5722 16.5915 23.521 15.7983 24.1781C15.0104 24.8352 13.8876 25.1638 12.4297 25.1638H11.3604V29.2641H8.86816V17.7358H12.6227C14.0483 17.7358 15.131 18.0381 15.8707 18.6426C16.6157 19.2419 16.9882 20.1382 16.9882 21.3315Z" fill="white"/>
    <path d="M28.9591 23.3896C28.9591 25.2873 28.4071 26.7408 27.303 27.7502C26.2042 28.7595 24.6151 29.2641 22.5355 29.2641H19.2071V17.7358H22.8973C24.8161 17.7358 26.3061 18.2326 27.3673 19.2262C28.4285 20.2197 28.9591 21.6075 28.9591 23.3896ZM26.3704 23.4527C26.3704 20.9767 25.2555 19.7387 23.0259 19.7387H21.6994V27.2455H22.7686C25.1698 27.2455 26.3704 25.9812 26.3704 23.4527Z" fill="white"/>
    <path d="M33.8472 29.2641H31.3951V17.7358H38.1323V19.7387H33.8472V22.7115H37.8349V24.7064H33.8472V29.2641Z" fill="white"/>
    <g clip-path="url(#clip0)">
        <path d="M31.5635 12.8427C31.2302 13.0443 30.8046 12.8044 30.8046 12.4149V10.4803H10.4805C9.59004 10.4803 8.86816 9.7584 8.86816 8.86792V8.86792C8.86816 7.97745 9.59004 7.25557 10.4805 7.25557H30.8046V5.32092C30.8046 4.93144 31.2302 4.6915 31.5635 4.89314L37.4253 8.44014C37.7469 8.6347 37.7469 9.10114 37.4253 9.2957L31.5635 12.8427Z" fill="white"/>
    </g>
    <g clip-path="url(#clip1)">
        <path d="M15.4365 34.1573C15.7698 33.9557 16.1954 34.1956 16.1954 34.5851L16.1954 36.5197L36.5195 36.5197C37.41 36.5197 38.1318 37.2416 38.1318 38.1321V38.1321C38.1318 39.0226 37.41 39.7444 36.5195 39.7444L16.1954 39.7444L16.1954 41.6791C16.1954 42.0686 15.7698 42.3085 15.4365 42.1069L9.57465 38.5599C9.25312 38.3653 9.25312 37.8989 9.57465 37.7043L15.4365 34.1573Z" fill="white"/>
    </g>
    <path d="M70.631 31.7608H67V14.2751H76.9762V17.313H70.631V21.8219H76.5357V24.8478H70.631V31.7608Z" fill="#0C3E70"/>
    <path d="M84.0714 22.0372H85.2619C86.4286 22.0372 87.2897 21.8419 87.8452 21.4512C88.4008 21.0605 88.6786 20.4465 88.6786 19.6093C88.6786 18.7801 88.3929 18.19 87.8214 17.8392C87.2579 17.4884 86.381 17.313 85.1905 17.313H84.0714V22.0372ZM84.0714 25.0512V31.7608H80.381V14.2751H85.4524C87.8175 14.2751 89.5675 14.7096 90.7024 15.5787C91.8373 16.4399 92.4048 17.7515 92.4048 19.5136C92.4048 20.5422 92.123 21.4591 91.5595 22.2645C90.996 23.0618 90.1984 23.6877 89.1667 24.1422C91.7857 28.0731 93.4921 30.6126 94.2857 31.7608H90.1905L86.0357 25.0512H84.0714Z" fill="#0C3E70"/>
    <path d="M106.5 31.7608H96.4762V14.2751H106.5V17.313H100.167V21.1522H106.06V24.19H100.167V28.699H106.5V31.7608Z" fill="#0C3E70"/>
    <path d="M120.167 31.7608H110.143V14.2751H120.167V17.313H113.833V21.1522H119.726V24.19H113.833V28.699H120.167V31.7608Z" fill="#0C3E70"/>
    <path d="M137.202 17.1096C135.813 17.1096 134.738 17.6359 133.976 18.6884C133.214 19.7329 132.833 21.192 132.833 23.0658C132.833 26.9648 134.29 28.9143 137.202 28.9143C138.425 28.9143 139.905 28.6073 141.643 27.9934V31.103C140.214 31.701 138.619 32 136.857 32C134.325 32 132.389 31.2306 131.048 29.6917C129.706 28.1449 129.036 25.9282 129.036 23.0419C129.036 21.2239 129.365 19.6332 130.024 18.2698C130.683 16.8983 131.627 15.8498 132.857 15.1243C134.095 14.3907 135.544 14.0239 137.202 14.0239C138.893 14.0239 140.591 14.4346 142.298 15.2558L141.107 18.2698C140.456 17.9588 139.802 17.6877 139.143 17.4565C138.484 17.2252 137.837 17.1096 137.202 17.1096Z" fill="#0C3E70"/>
    <path d="M161.155 22.994C161.155 25.8884 160.44 28.113 159.012 29.6678C157.583 31.2226 155.536 32 152.869 32C150.202 32 148.155 31.2226 146.726 29.6678C145.298 28.113 144.583 25.8804 144.583 22.9701C144.583 20.0598 145.298 17.8392 146.726 16.3083C148.163 14.7694 150.218 14 152.893 14C155.567 14 157.611 14.7734 159.024 16.3203C160.444 17.8671 161.155 20.0917 161.155 22.994ZM148.452 22.994C148.452 24.9475 148.821 26.4186 149.56 27.4073C150.298 28.396 151.401 28.8904 152.869 28.8904C155.814 28.8904 157.286 26.9249 157.286 22.994C157.286 19.0551 155.821 17.0857 152.893 17.0857C151.425 17.0857 150.317 17.5841 149.571 18.5807C148.825 19.5694 148.452 21.0405 148.452 22.994Z" fill="#0C3E70"/>
    <path d="M180.202 31.7608H175.512L167.94 18.5329H167.833C167.984 20.8691 168.06 22.5355 168.06 23.5322V31.7608H164.762V14.2751H169.417L176.976 27.3714H177.06C176.94 25.099 176.881 23.4924 176.881 22.5515V14.2751H180.202V31.7608Z" fill="#0C3E70"/>
    <path d="M194.524 14.2751H198.25L192.333 31.7608H188.31L182.405 14.2751H186.131L189.405 24.6804C189.587 25.2944 189.774 26.012 189.964 26.8332C190.163 27.6465 190.286 28.2126 190.333 28.5316C190.421 27.798 190.718 26.5143 191.226 24.6804L194.524 14.2751Z" fill="#0C3E70"/>
    <path d="M210.476 31.7608H200.452V14.2751H210.476V17.313H204.143V21.1522H210.036V24.19H204.143V28.699H210.476V31.7608Z" fill="#0C3E70"/>
    <path d="M217.81 22.0372H219C220.167 22.0372 221.028 21.8419 221.583 21.4512C222.139 21.0605 222.417 20.4465 222.417 19.6093C222.417 18.7801 222.131 18.19 221.56 17.8392C220.996 17.4884 220.119 17.313 218.929 17.313H217.81V22.0372ZM217.81 25.0512V31.7608H214.119V14.2751H219.19C221.556 14.2751 223.306 14.7096 224.44 15.5787C225.575 16.4399 226.143 17.7515 226.143 19.5136C226.143 20.5422 225.861 21.4591 225.298 22.2645C224.734 23.0618 223.937 23.6877 222.905 24.1422C225.524 28.0731 227.23 30.6126 228.024 31.7608H223.929L219.774 25.0512H217.81Z" fill="#0C3E70"/>
    <path d="M236.929 31.7608H233.238V17.3608H228.512V14.2751H241.655V17.3608H236.929V31.7608Z" fill="#0C3E70"/>
    <path d="M254.357 22.5037H255.571C256.706 22.5037 257.556 22.2804 258.119 21.8339C258.683 21.3794 258.964 20.7216 258.964 19.8605C258.964 18.9914 258.726 18.3495 258.25 17.9349C257.782 17.5203 257.044 17.313 256.036 17.313H254.357V22.5037ZM262.69 19.7289C262.69 21.6106 262.103 23.0498 260.929 24.0465C259.762 25.0432 258.099 25.5415 255.94 25.5415H254.357V31.7608H250.667V14.2751H256.226C258.337 14.2751 259.94 14.7336 261.036 15.6505C262.139 16.5595 262.69 17.9189 262.69 19.7289Z" fill="#0C3E70"/>
    <path d="M280.417 22.8505C280.417 25.7289 279.599 27.9336 277.964 29.4645C276.337 30.9953 273.984 31.7608 270.905 31.7608H265.976V14.2751H271.44C274.282 14.2751 276.488 15.0286 278.06 16.5355C279.631 18.0425 280.417 20.1475 280.417 22.8505ZM276.583 22.9462C276.583 19.1907 274.933 17.313 271.631 17.313H269.667V28.699H271.25C274.806 28.699 276.583 26.7814 276.583 22.9462Z" fill="#0C3E70"/>
    <path d="M287.655 31.7608H284.024V14.2751H294V17.313H287.655V21.8219H293.56V24.8478H287.655V31.7608Z" fill="#0C3E70"/>
    <defs>
        <linearGradient id="paint0_linear" x1="4.27273" y1="23.5" x2="47" y2="23.5" gradientUnits="userSpaceOnUse">
            <stop stop-color="#1CD995"/>
            <stop offset="1" stop-color="#42E666"/>
        </linearGradient>
        <clipPath id="clip0">
            <rect width="29.2642" height="8.86792" fill="white" transform="translate(8.86816 4.43396)"/>
        </clipPath>
        <clipPath id="clip1">
            <rect width="29.2642" height="8.86792" fill="white" transform="translate(38.1318 42.566) rotate(-180)"/>
        </clipPath>
    </defs>
</svg>