<svg width="112" height="31" viewBox="0 0 112 31" fill="none" xmlns="http://www.w3.org/2000/svg">
<path d="M41.7388 6.33997H35.5616C35.3571 6.33983 35.1593 6.41566 35.0038 6.55379C34.8483 6.69192 34.7453 6.88327 34.7135 7.09336L32.2152 23.5675C32.2037 23.644 32.2083 23.7221 32.2286 23.7965C32.2489 23.8709 32.2845 23.9399 32.3329 23.9986C32.3813 24.0574 32.4414 24.1045 32.509 24.1368C32.5766 24.1691 32.6502 24.1857 32.7246 24.1856H35.6736C35.8782 24.1857 36.0762 24.1098 36.2317 23.9714C36.3872 23.8331 36.4901 23.6416 36.5217 23.4313L37.1955 18.988C37.2272 18.7779 37.3299 18.5864 37.4853 18.4481C37.6406 18.3098 37.8383 18.2338 38.0428 18.2336H39.9983C44.0673 18.2336 46.4157 16.1858 47.029 12.1276C47.3054 10.3521 47.0407 8.95712 46.2413 7.98015C45.3634 6.90736 43.8063 6.33997 41.7388 6.33997ZM42.4514 12.3568C42.1136 14.6621 40.4201 14.6621 38.7825 14.6621H37.8504L38.5043 10.3568C38.5235 10.2309 38.5852 10.1161 38.6784 10.0333C38.7716 9.95048 38.8902 9.90497 39.0128 9.90497H39.4401C40.5555 9.90497 41.6078 9.90497 42.1515 10.5663C42.4758 10.9608 42.5752 11.547 42.4514 12.3568ZM60.2034 12.2826H57.2453C57.1227 12.2826 57.0042 12.3281 56.9109 12.4109C56.8177 12.4938 56.756 12.6085 56.7368 12.7344L56.6059 13.5949L56.399 13.283C55.7586 12.3164 54.3306 11.9932 52.9053 11.9932C49.6366 11.9932 46.8447 14.5681 46.301 18.1801C46.0183 19.9818 46.4202 21.7047 47.4029 22.9062C48.3043 24.0109 49.5941 24.4712 51.1287 24.4712C53.7625 24.4712 55.223 22.7098 55.223 22.7098L55.0912 23.5647C55.0794 23.6411 55.0837 23.7193 55.1038 23.7938C55.1239 23.8683 55.1593 23.9375 55.2076 23.9964C55.2558 24.0553 55.3158 24.1027 55.3833 24.1352C55.4508 24.1677 55.5243 24.1846 55.5988 24.1847H58.2633C58.4679 24.1848 58.6658 24.1088 58.8214 23.9705C58.9769 23.8322 59.0797 23.6406 59.1114 23.4304L60.7101 12.9007C60.7219 12.8244 60.7176 12.7464 60.6975 12.6721C60.6775 12.5977 60.6422 12.5287 60.594 12.47C60.5458 12.4112 60.4859 12.364 60.4185 12.3316C60.3511 12.2993 60.2777 12.2825 60.2034 12.2826ZM56.0802 18.2703C55.7948 20.0279 54.4535 21.2078 52.7428 21.2078C51.8838 21.2078 51.1973 20.9212 50.7566 20.3783C50.3194 19.8391 50.1532 19.0716 50.2923 18.2167C50.5588 16.4741 51.9226 15.2558 53.6072 15.2558C54.4472 15.2558 55.13 15.546 55.5798 16.0937C56.0305 16.647 56.2093 17.4192 56.0802 18.2703ZM75.9575 12.2826H72.985C72.8448 12.2828 72.7068 12.3186 72.5829 12.3869C72.459 12.4551 72.353 12.5538 72.2741 12.6743L68.1744 18.9551L66.4366 12.9195C66.3832 12.7354 66.2743 12.5741 66.126 12.4594C65.9776 12.3447 65.7977 12.2827 65.6128 12.2826H62.6918C62.6098 12.2823 62.5289 12.3025 62.4559 12.3413C62.383 12.3802 62.3199 12.4366 62.2721 12.5059C62.2243 12.5752 62.1931 12.6553 62.1811 12.7397C62.1691 12.824 62.1767 12.9102 62.2031 12.9909L65.4773 22.9841L62.3992 27.5036C62.3444 27.5837 62.312 27.6779 62.3054 27.776C62.2987 27.874 62.3182 27.972 62.3615 28.0594C62.4049 28.1467 62.4705 28.2199 62.5513 28.271C62.632 28.3221 62.7247 28.3491 62.8192 28.349H65.7881C65.9267 28.3492 66.0633 28.3145 66.1861 28.2477C66.309 28.1809 66.4145 28.0842 66.4935 27.9658L76.3802 13.1233C76.4338 13.043 76.4652 12.949 76.4711 12.8514C76.4769 12.7539 76.457 12.6565 76.4135 12.5699C76.3699 12.4833 76.3044 12.4107 76.224 12.3601C76.1436 12.3094 76.0515 12.2826 75.9575 12.2826Z" fill="#253B80"/>
<path d="M85.7995 6.33993H79.6214C79.4171 6.34002 79.2195 6.41595 79.0641 6.55406C78.9088 6.69217 78.806 6.88339 78.7742 7.09332L76.2759 23.5675C76.2642 23.6438 76.2687 23.7218 76.2888 23.7962C76.309 23.8705 76.3444 23.9395 76.3927 23.9982C76.4409 24.057 76.5008 24.1042 76.5683 24.1365C76.6358 24.1688 76.7092 24.1856 76.7835 24.1856H79.9538C80.0968 24.1854 80.2351 24.1321 80.3437 24.0353C80.4523 23.9385 80.5242 23.8046 80.5463 23.6577L81.2553 18.9879C81.287 18.7778 81.3897 18.5864 81.5451 18.4481C81.7004 18.3098 81.8981 18.2337 82.1026 18.2336H84.0572C88.1271 18.2336 90.4746 16.1857 91.0888 12.1275C91.3661 10.3521 91.0996 8.95708 90.3002 7.98011C89.4232 6.90732 87.867 6.33993 85.7995 6.33993ZM86.5121 12.3567C86.1752 14.662 84.4817 14.662 82.8432 14.662H81.912L82.5668 10.3568C82.5856 10.2308 82.6471 10.116 82.7402 10.0331C82.8333 9.95025 82.9519 9.90477 83.0744 9.90493H83.5017C84.6162 9.90493 85.6694 9.90493 86.2131 10.5663C86.5374 10.9608 86.6359 11.547 86.5121 12.3567ZM104.263 12.2825H101.307C101.184 12.2822 101.066 12.3276 100.973 12.4105C100.879 12.4934 100.818 12.6083 100.799 12.7344L100.668 13.5949L100.461 13.283C99.8202 12.3164 98.3932 11.9932 96.9679 11.9932C93.6991 11.9932 90.9081 14.5681 90.3644 18.1801C90.0826 19.9818 90.4827 21.7047 91.4654 22.9061C92.3686 24.0109 93.6566 24.4712 95.1912 24.4712C97.825 24.4712 99.2855 22.7098 99.2855 22.7098L99.1537 23.5647C99.1419 23.6412 99.1462 23.7196 99.1664 23.7942C99.1866 23.8689 99.2222 23.9381 99.2706 23.9971C99.3191 24.056 99.3793 24.1033 99.447 24.1357C99.5148 24.1681 99.5885 24.1848 99.6631 24.1847H102.327C102.531 24.1845 102.729 24.1085 102.884 23.9702C103.04 23.8319 103.142 23.6404 103.174 23.4303L104.774 12.9007C104.785 12.8242 104.78 12.746 104.76 12.6716C104.739 12.5972 104.704 12.5282 104.655 12.4695C104.607 12.4108 104.546 12.3637 104.479 12.3314C104.411 12.2991 104.338 12.2824 104.263 12.2825ZM100.14 18.2702C99.8564 20.0278 98.5133 21.2077 96.8026 21.2077C95.9454 21.2077 95.2571 20.9212 94.8164 20.3782C94.3792 19.839 94.2148 19.0715 94.3521 18.2167C94.6204 16.4741 95.9824 15.2557 97.667 15.2557C98.507 15.2557 99.1898 15.546 99.6396 16.0937C100.092 16.647 100.271 17.4191 100.14 18.2702ZM107.751 6.79178L105.215 23.5675C105.204 23.6438 105.208 23.7218 105.228 23.7962C105.248 23.8705 105.284 23.9395 105.332 23.9982C105.38 24.057 105.44 24.1042 105.508 24.1365C105.575 24.1688 105.649 24.1856 105.723 24.1856H108.272C108.695 24.1856 109.055 23.8662 109.12 23.4313L111.62 6.95805C111.632 6.88169 111.627 6.80362 111.607 6.72921C111.587 6.6548 111.551 6.58582 111.503 6.52699C111.455 6.46817 111.395 6.42091 111.328 6.38845C111.26 6.356 111.187 6.33913 111.112 6.33899H108.258C108.136 6.33944 108.017 6.38525 107.924 6.46822C107.831 6.55119 107.77 6.66589 107.751 6.79178Z" fill="#179BD7"/>
<path d="M6.56252 27.3871L7.03491 24.2664L5.98265 24.241H0.958008L4.44988 1.21368C4.46027 1.14332 4.49463 1.07919 4.54669 1.03297C4.59875 0.98676 4.66505 0.961543 4.73349 0.961918H13.2057C16.0184 0.961918 17.9594 1.57065 18.9728 2.77213C19.4479 3.33577 19.7505 3.92477 19.8968 4.57295C20.0504 5.25307 20.0531 6.06565 19.9032 7.05671L19.8923 7.12904V7.76407L20.3674 8.04401C20.7301 8.23512 21.0561 8.49364 21.3294 8.8068C21.7358 9.28871 21.9987 9.90119 22.1097 10.6273C22.2245 11.3742 22.1865 12.2628 21.9987 13.2689C21.7819 14.4263 21.4314 15.4342 20.9581 16.259C20.5405 16.9979 19.9791 17.6378 19.3097 18.1378C18.6811 18.6019 17.9341 18.9541 17.0896 19.1796C16.2713 19.4013 15.3383 19.5131 14.3149 19.5131H13.6556C13.1841 19.5131 12.7261 19.6897 12.3667 20.0063C12.0077 20.3262 11.7695 20.7683 11.6947 21.2538L11.645 21.5346L10.8104 27.0348L10.7725 27.2368C10.7625 27.3006 10.7454 27.3326 10.7201 27.3542C10.6956 27.375 10.665 27.3866 10.6334 27.3871H6.56252Z" fill="#253B80"/>
<path d="M20.8179 7.20239C20.7926 7.37054 20.7637 7.54245 20.7312 7.71906C19.6139 13.6852 15.7915 15.7462 10.9095 15.7462H8.42385C7.82682 15.7462 7.32372 16.1971 7.23069 16.8096L5.95804 25.204L5.59765 27.5835C5.5833 27.6779 5.58878 27.7744 5.61372 27.8663C5.63866 27.9583 5.68247 28.0436 5.74213 28.1162C5.80179 28.1889 5.87588 28.2473 5.95931 28.2873C6.04274 28.3273 6.13352 28.3481 6.2254 28.3482H10.634C11.1561 28.3482 11.5996 27.9536 11.6818 27.4182L11.7251 27.1852L12.5552 21.7066L12.6085 21.406C12.6898 20.8687 13.1342 20.4742 13.6562 20.4742H14.3156C18.5869 20.4742 21.9307 18.6705 22.908 13.4512C23.3162 11.2709 23.1049 9.45036 22.0246 8.16997C21.6822 7.77388 21.2733 7.446 20.8179 7.20239Z" fill="#179BD7"/>
<path d="M19.6489 6.7176C19.2922 6.61026 18.9293 6.52649 18.5623 6.46678C17.8373 6.3509 17.1046 6.2953 16.3711 6.30051H9.7306C9.47788 6.3003 9.23343 6.39414 9.04144 6.56505C8.84944 6.73596 8.72257 6.97267 8.68376 7.23238L7.27111 16.538L7.23047 16.8095C7.27448 16.5133 7.41898 16.2432 7.63783 16.0481C7.85667 15.8531 8.13542 15.746 8.42363 15.7461H10.9093C15.7912 15.7461 19.6137 13.6841 20.731 7.71899C20.7644 7.54238 20.7924 7.37048 20.8177 7.20232C20.5229 7.04153 20.2156 6.90672 19.8991 6.79932C19.8161 6.77069 19.7327 6.74345 19.6489 6.7176Z" fill="#222D65"/>
<path d="M8.68353 7.23239C8.72201 6.9726 8.84882 6.73578 9.04091 6.56496C9.233 6.39413 9.47763 6.30064 9.73037 6.30145H16.3709C17.1576 6.30145 17.8919 6.355 18.5621 6.46773C19.0156 6.54186 19.4629 6.65273 19.8998 6.79933C20.2295 6.913 20.5357 7.04733 20.8184 7.20233C21.1508 4.99758 20.8157 3.49642 19.6695 2.13712C18.4059 0.640667 16.1252 0 13.2069 0H4.73463C4.1385 0 3.62998 0.450909 3.53785 1.06433L0.00895071 24.3284C-0.00748634 24.4364 -0.0012326 24.5469 0.0272817 24.6521C0.0557961 24.7574 0.105894 24.855 0.17413 24.9382C0.242366 25.0214 0.32712 25.0882 0.422563 25.1341C0.518005 25.18 0.621871 25.2038 0.727015 25.2039H5.9576L7.27089 16.538L8.68353 7.23239Z" fill="#253B80"/>
</svg>
