<svg width="21" height="20" viewBox="0 0 21 20" fill="none" xmlns="http://www.w3.org/2000/svg">
<path fill-rule="evenodd" clip-rule="evenodd" d="M0.487978 0.508814C0.800524 0.196362 1.22437 0.0208363 1.66631 0.0208363C2.10825 0.0208363 2.5321 0.196362 2.84464 0.508814L9.99964 7.66381L17.1546 0.508814C17.3084 0.34963 17.4923 0.22266 17.6956 0.135311C17.899 0.0479631 18.1177 0.00198596 18.339 6.29284e-05C18.5603 -0.0018601 18.7797 0.0403091 18.9846 0.124111C19.1894 0.207912 19.3755 0.331667 19.532 0.488155C19.6885 0.644643 19.8122 0.83073 19.896 1.03556C19.9798 1.24038 20.022 1.45985 20.0201 1.68115C20.0181 1.90245 19.9722 2.12115 19.8848 2.32449C19.7975 2.52783 19.6705 2.71174 19.5113 2.86548L12.3563 10.0205L19.5113 17.1755C19.8149 17.4898 19.9829 17.9108 19.9791 18.3478C19.9753 18.7848 19.8 19.2028 19.491 19.5118C19.182 19.8209 18.764 19.9961 18.327 19.9999C17.89 20.0037 17.469 19.8357 17.1546 19.5321L9.99964 12.3771L2.84464 19.5321C2.53031 19.8357 2.1093 20.0037 1.67231 19.9999C1.23531 19.9961 0.817293 19.8209 0.50828 19.5118C0.199266 19.2028 0.0239843 18.7848 0.0201869 18.3478C0.0163895 17.9108 0.184381 17.4898 0.487978 17.1755L7.64298 10.0205L0.487978 2.86548C0.175526 2.55293 0 2.12909 0 1.68715C0 1.24521 0.175526 0.82136 0.487978 0.508814Z" fill="#E1E1E1"/>
</svg>
