<svg width="42" height="49" viewBox="0 0 42 49" fill="none" xmlns="http://www.w3.org/2000/svg">
<path d="M40.6495 18.7181L24.081 2.14969C22.3683 0.436805 19.581 0.436707 17.868 2.14969C16.3281 3.68944 16.1955 6.03777 17.3326 7.71462L17.3096 7.82995C16.115 13.8031 13.2069 19.2371 8.89944 23.5445L1.29994 31.144C-0.417053 32.8611 -0.417345 35.64 1.29994 37.357L5.44192 41.499C7.15881 43.216 9.93791 43.2161 11.655 41.499L12.6905 40.4635L19.9392 47.7121C21.6561 49.4292 24.4351 49.4293 26.1521 47.7121C27.8651 45.9992 27.8651 43.212 26.1521 41.4991L23.0456 38.3926L24.0811 37.357C25.7981 35.6402 25.7983 32.8613 24.0811 31.1441L23.3774 30.4403C26.8392 28.0165 30.7708 26.3291 34.9693 25.4894L35.0861 25.4661C36.8003 26.6234 39.1431 26.4373 40.6495 24.931H40.6496C42.3623 23.2182 42.3623 20.4311 40.6495 18.7181ZM9.584 39.428C9.01174 40.0002 8.08518 40.0003 7.51291 39.4279L3.37093 35.286C2.79857 34.7135 2.79857 33.7873 3.37093 33.215L10.6195 25.9663L16.8325 32.1794C16.1233 32.8886 10.3107 38.7013 9.584 39.428ZM24.081 43.57C24.6519 44.1409 24.6519 45.07 24.081 45.641C23.5102 46.2119 22.581 46.2119 22.0101 45.641L14.7614 38.3924L16.8325 36.3214L24.081 43.57ZM18.9035 34.2504C19.3438 33.8102 20.0027 33.1359 21.0428 32.2476L22.0101 33.215C22.5824 33.7873 22.5824 34.7135 22.0101 35.286L20.9745 36.3215L18.9035 34.2504ZM18.9657 30.1707L12.628 23.833C16.0244 19.9113 18.4566 15.2819 19.7579 10.2526L32.5462 23.0409C27.5169 24.342 22.8876 26.7743 18.9657 30.1707ZM38.5782 22.8599C38.0058 23.4322 37.0796 23.4322 36.5072 22.8599L19.939 6.29168C19.3666 5.71922 19.3666 4.79305 19.939 4.22068C20.5113 3.64832 21.4377 3.64832 22.0101 4.22068L38.5782 20.7888C39.1491 21.3598 39.1491 22.2888 38.5782 22.8599Z" fill="black"/>
<path d="M40.6495 18.7181L24.081 2.14969C22.3683 0.436805 19.581 0.436707 17.868 2.14969C16.3281 3.68944 16.1955 6.03777 17.3326 7.71462L17.3096 7.82995C16.115 13.8031 13.2069 19.2371 8.89944 23.5445L1.29994 31.144C-0.417053 32.8611 -0.417345 35.64 1.29994 37.357L5.44192 41.499C7.15881 43.216 9.93791 43.2161 11.655 41.499L12.6905 40.4635L19.9392 47.7121C21.6561 49.4292 24.4351 49.4293 26.1521 47.7121C27.8651 45.9992 27.8651 43.212 26.1521 41.4991L23.0456 38.3926L24.0811 37.357C25.7981 35.6402 25.7983 32.8613 24.0811 31.1441L23.3774 30.4403C26.8392 28.0165 30.7708 26.3291 34.9693 25.4894L35.0861 25.4661C36.8003 26.6234 39.1431 26.4373 40.6495 24.931H40.6496C42.3623 23.2182 42.3623 20.4311 40.6495 18.7181ZM9.584 39.428C9.01174 40.0002 8.08518 40.0003 7.51291 39.4279L3.37093 35.286C2.79857 34.7135 2.79857 33.7873 3.37093 33.215L10.6195 25.9663L16.8325 32.1794C16.1233 32.8886 10.3107 38.7013 9.584 39.428ZM24.081 43.57C24.6519 44.1409 24.6519 45.07 24.081 45.641C23.5102 46.2119 22.581 46.2119 22.0101 45.641L14.7614 38.3924L16.8325 36.3214L24.081 43.57ZM18.9035 34.2504C19.3438 33.8102 20.0027 33.1359 21.0428 32.2476L22.0101 33.215C22.5824 33.7873 22.5824 34.7135 22.0101 35.286L20.9745 36.3215L18.9035 34.2504ZM18.9657 30.1707L12.628 23.833C16.0244 19.9113 18.4566 15.2819 19.7579 10.2526L32.5462 23.0409C27.5169 24.342 22.8876 26.7743 18.9657 30.1707ZM38.5782 22.8599C38.0058 23.4322 37.0796 23.4322 36.5072 22.8599L19.939 6.29168C19.3666 5.71922 19.3666 4.79305 19.939 4.22068C20.5113 3.64832 21.4377 3.64832 22.0101 4.22068L38.5782 20.7888C39.1491 21.3598 39.1491 22.2888 38.5782 22.8599Z" fill="url(#paint0_linear)"/>
<defs>
<linearGradient id="paint0_linear" x1="2.26942" y1="49" x2="47.1772" y2="11.1605" gradientUnits="userSpaceOnUse">
<stop stop-color="#FF9933"/>
<stop offset="1" stop-color="#FFC633"/>
</linearGradient>
</defs>
</svg>
