<svg width="16" height="16" viewBox="0 0 16 16" fill="none" xmlns="http://www.w3.org/2000/svg">
<g clip-path="url(#clip0)">
<path d="M15.8049 7.19593L9.80835 1.19941C9.38863 0.779685 8.67095 1.07695 8.67095 1.67054V4.33871C4.8547 4.49734 1.48862 7.0958 0.421861 10.7938C0.0656297 12.0282 -0.0232563 13.0441 0.00482119 14.1375C0.00835039 14.2659 0.00925611 14.3029 0.00925611 14.3299C0.00925611 15.0069 0.901832 15.2524 1.2481 14.6706C1.99039 13.4234 2.83346 12.4597 3.75705 11.7474C5.42677 10.4596 7.16514 10.0866 8.67092 10.2372V13.6636C8.67092 14.2572 9.3886 14.5544 9.80832 14.1347L15.8048 8.1382C16.0651 7.87801 16.0651 7.45612 15.8049 7.19593ZM10.0035 12.0551V9.66591C10.0035 9.36068 9.79608 9.09449 9.50013 9.01984C9.41905 8.99939 9.28438 8.97259 9.10167 8.94704C7.21433 8.68298 5.02175 9.08908 2.94324 10.6922C2.43194 11.0865 1.94504 11.5448 1.48509 12.0696L1.49527 12.0163C1.54839 11.7427 1.61642 11.4602 1.70215 11.1632C2.65316 7.86642 5.76336 5.59114 9.20755 5.66538C9.26576 5.66641 9.28725 5.66688 9.3142 5.66782C9.69095 5.68081 10.0035 5.37892 10.0035 5.00192V3.27908L14.3914 7.66707L10.0035 12.0551Z" fill="black"/>
</g>
<defs>
<clipPath id="clip0">
<rect width="16" height="16" fill="white"/>
</clipPath>
</defs>
</svg>
