<svg width="20" height="21" viewBox="0 0 20 21" fill="none" xmlns="http://www.w3.org/2000/svg">
<g clip-path="url(#clip0)">
<path d="M8.80758 0.5C3.95121 0.5 0 4.45121 0 9.30758C0 14.1642 3.95121 18.1152 8.80758 18.1152C13.6642 18.1152 17.6152 14.1642 17.6152 9.30758C17.6152 4.45121 13.6642 0.5 8.80758 0.5ZM8.80758 16.4892C4.8477 16.4892 1.62602 13.2675 1.62602 9.30762C1.62602 5.34773 4.8477 2.12602 8.80758 2.12602C12.7675 2.12602 15.9891 5.3477 15.9891 9.30758C15.9891 13.2675 12.7675 16.4892 8.80758 16.4892Z" fill="#ABABAB"/>
<path d="M19.7618 19.1119L15.1006 14.4506C14.783 14.133 14.2686 14.133 13.951 14.4506C13.6334 14.768 13.6334 15.2829 13.951 15.6002L18.6122 20.2615C18.771 20.4203 18.9789 20.4997 19.187 20.4997C19.3949 20.4997 19.603 20.4203 19.7618 20.2615C20.0795 19.9441 20.0795 19.4292 19.7618 19.1119Z" fill="#ABABAB"/>
</g>
<defs>
<clipPath id="clip0">
<rect width="20" height="20" fill="white" transform="translate(0 0.5)"/>
</clipPath>
</defs>
</svg>
