<svg width="1440" height="249" viewBox="0 0 1440 249" fill="none" xmlns="http://www.w3.org/2000/svg">
<g clip-path="url(#clip0)">
<rect width="1440" height="699" fill="#F5F5F5"/>
<g opacity="0.7">
<path d="M12.721 47.4331H11.2243V49.025H12.721V47.4331Z" fill="#E4E4E4"/>
<path d="M21.7261 27H18.9687H10.0314H7.27385C4.39843 27 2.05914 29.3393 2.05914 32.2147V46.7853C2.05914 49.6607 4.39843 52 7.27385 52H10.9874H18.2108H21.7261C24.6014 52 26.9408 49.6607 26.9408 46.7853V32.2147C26.9408 29.3393 24.6015 27 21.7261 27ZM18.9687 28.9102C19.8827 28.9102 20.6261 29.5178 20.6261 30.2646V38.1004C20.6261 38.8473 19.8826 39.4549 18.9687 39.4549H10.0314C9.11737 39.4549 8.37384 38.8473 8.37384 38.1004V30.2646C8.37384 29.5178 9.11743 28.9102 10.0314 28.9102H18.9687ZM10.9874 50.0898C10.5889 50.0898 10.2646 49.7655 10.2646 49.367V47.4525C10.2646 47.054 10.5889 46.7298 10.9874 46.7298H18.2109C18.6094 46.7298 18.9337 47.054 18.9337 47.4525V49.367C18.9337 49.7655 18.6094 50.0898 18.2109 50.0898H10.9874ZM25.0306 46.7853C25.0306 48.6074 23.5482 50.0898 21.7261 50.0898H20.7422C20.8079 49.8599 20.8439 49.6177 20.8439 49.367V47.4525C20.8439 46.0007 19.6627 44.8195 18.2109 44.8195H10.9874C9.53552 44.8195 8.35435 46.0007 8.35435 47.4525V49.367C8.35435 49.6177 8.39033 49.86 8.45604 50.0898H7.27385C5.45174 50.0898 3.96939 48.6074 3.96939 46.7853V32.2147C3.96939 30.5649 5.18475 29.1937 6.76713 28.9491C6.57254 29.3518 6.46359 29.7967 6.46359 30.2646V38.1004C6.46359 39.9006 8.06412 41.3651 10.0314 41.3651H18.9687C20.936 41.3651 22.5364 39.9006 22.5364 38.1004V30.2646C22.5364 29.7967 22.4274 29.3519 22.2328 28.9491C23.8152 29.1937 25.0306 30.5649 25.0306 32.2147V46.7853Z" fill="#E4E4E4"/>
</g>
<g opacity="0.7" clip-path="url(#clip1)">
<path d="M330.589 43.1875H321.214C320.697 43.1875 320.277 43.6072 320.277 44.125C320.277 44.6428 320.697 45.0625 321.214 45.0625H330.589C331.107 45.0625 331.527 44.6428 331.527 44.125C331.527 43.6072 331.107 43.1875 330.589 43.1875Z" fill="#E4E4E4"/>
<path d="M330.589 47.875H321.214C320.697 47.875 320.277 48.2947 320.277 48.8125C320.277 49.3303 320.697 49.75 321.214 49.75H330.589C331.107 49.75 331.527 49.3303 331.527 48.8125C331.527 48.2947 331.107 47.875 330.589 47.875Z" fill="#E4E4E4"/>
<path d="M337.777 36.9375H314.652C314.134 36.9375 313.714 37.3572 313.714 37.875V54.75C313.714 55.2678 314.134 55.6875 314.652 55.6875H323.719L329.408 59.8797C329.573 60.0009 329.768 60.0625 329.964 60.0625C330.109 60.0625 330.254 60.0294 330.387 59.9619C330.703 59.8022 330.902 59.4788 330.902 59.125V55.6875H337.777C338.295 55.6875 338.714 55.2678 338.714 54.75V37.875C338.714 37.3572 338.295 36.9375 337.777 36.9375ZM336.839 53.8125H329.964C329.447 53.8125 329.027 54.2322 329.027 54.75V57.2697L324.583 53.9953C324.422 53.8766 324.227 53.8125 324.027 53.8125H315.589V38.8125H336.839V53.8125Z" fill="#E4E4E4"/>
</g>
<g opacity="0.7" clip-path="url(#clip2)">
<path d="M1253.88 35.1875H1244.5C1243.98 35.1875 1243.56 35.6072 1243.56 36.125C1243.56 36.6428 1243.98 37.0625 1244.5 37.0625H1253.88C1254.39 37.0625 1254.81 36.6428 1254.81 36.125C1254.81 35.6072 1254.39 35.1875 1253.88 35.1875Z" fill="#E4E4E4"/>
<path d="M1253.88 39.875H1244.5C1243.98 39.875 1243.56 40.2947 1243.56 40.8125C1243.56 41.3303 1243.98 41.75 1244.5 41.75H1253.88C1254.39 41.75 1254.81 41.3303 1254.81 40.8125C1254.81 40.2947 1254.39 39.875 1253.88 39.875Z" fill="#E4E4E4"/>
<path d="M1261.06 28.9375H1237.94C1237.42 28.9375 1237 29.3572 1237 29.875V46.75C1237 47.2678 1237.42 47.6875 1237.94 47.6875H1247L1252.69 51.8797C1252.86 52.0009 1253.05 52.0625 1253.25 52.0625C1253.39 52.0625 1253.54 52.0294 1253.67 51.9619C1253.99 51.8022 1254.19 51.4788 1254.19 51.125V47.6875H1261.06C1261.58 47.6875 1262 47.2678 1262 46.75V29.875C1262 29.3572 1261.58 28.9375 1261.06 28.9375ZM1260.12 45.8125H1253.25C1252.73 45.8125 1252.31 46.2322 1252.31 46.75V49.2697L1247.87 45.9953C1247.71 45.8766 1247.51 45.8125 1247.31 45.8125H1238.88V30.8125H1260.12V45.8125Z" fill="#E4E4E4"/>
</g>
<g opacity="0.7">
<path d="M528.793 53.0842C528.793 52.669 528.505 52.4214 527.996 52.4214C527.789 52.4214 527.648 52.4419 527.575 52.4615V53.7936C527.662 53.8132 527.769 53.8197 527.916 53.8197C528.458 53.8197 528.793 53.546 528.793 53.0842Z" fill="#E4E4E4"/>
<path d="M531.939 52.4355C531.712 52.4355 531.565 52.4552 531.478 52.4756V55.4258C531.565 55.4462 531.705 55.4462 531.832 55.4462C532.756 55.4527 533.358 54.9444 533.358 53.8673C533.365 52.9307 532.816 52.4355 531.939 52.4355Z" fill="#E4E4E4"/>
<path d="M537.786 37H527.745C526.278 37 525.084 38.1947 525.084 39.6608V49.4999H524.824C524.232 49.4999 523.752 49.9796 523.752 50.5722V57.0747C523.752 57.6672 524.232 58.1468 524.824 58.1468H525.084V59.3392C525.084 60.8068 526.278 61.9999 527.745 61.9999H541.445C542.911 61.9999 544.105 60.8068 544.105 59.3392V43.2974L537.786 37ZM526.565 51.7457C526.879 51.6926 527.321 51.6525 527.943 51.6525C528.572 51.6525 529.02 51.7726 529.321 52.0137C529.609 52.2409 529.803 52.616 529.803 53.0573C529.803 53.4986 529.656 53.8737 529.388 54.1279C529.04 54.4556 528.525 54.6027 527.923 54.6027C527.789 54.6027 527.669 54.596 527.575 54.583V56.1954H526.565V51.7457ZM541.445 60.3704H527.745C527.177 60.3704 526.714 59.9079 526.714 59.3392V58.1468H539.486C540.078 58.1468 540.558 57.6672 540.558 57.0747V50.5722C540.558 49.9796 540.078 49.4999 539.486 49.4999H526.714V39.6608C526.714 39.0936 527.177 38.6311 527.745 38.6311L537.176 38.6213V42.1074C537.176 43.1257 538.002 43.9527 539.021 43.9527L542.436 43.9429L542.475 59.3391C542.475 59.9079 542.013 60.3704 541.445 60.3704ZM530.454 56.175V51.7457C530.829 51.686 531.317 51.6525 531.832 51.6525C532.689 51.6525 533.244 51.8062 533.679 52.1338C534.148 52.482 534.442 53.0369 534.442 53.8336C534.442 54.6966 534.127 55.2924 533.692 55.66C533.217 56.0547 532.495 56.2419 531.612 56.2419C531.083 56.2419 530.708 56.2084 530.454 56.175ZM537.756 53.5526V54.382H536.137V56.1954H535.113V51.686H537.87V52.522H536.137V53.5526H537.756Z" fill="#E4E4E4"/>
</g>
<g opacity="0.7" clip-path="url(#clip3)">
<path d="M728.018 45.1875H718.643C718.125 45.1875 717.705 45.6072 717.705 46.125C717.705 46.6428 718.125 47.0625 718.643 47.0625H728.018C728.536 47.0625 728.955 46.6428 728.955 46.125C728.955 45.6072 728.536 45.1875 728.018 45.1875Z" fill="#E4E4E4"/>
<path d="M728.018 49.875H718.643C718.125 49.875 717.705 50.2947 717.705 50.8125C717.705 51.3303 718.125 51.75 718.643 51.75H728.018C728.536 51.75 728.955 51.3303 728.955 50.8125C728.955 50.2947 728.536 49.875 728.018 49.875Z" fill="#E4E4E4"/>
<path d="M735.205 38.9375H712.08C711.563 38.9375 711.143 39.3572 711.143 39.875V56.75C711.143 57.2678 711.563 57.6875 712.08 57.6875H721.147L726.837 61.8797C727.001 62.0009 727.196 62.0625 727.393 62.0625C727.537 62.0625 727.682 62.0294 727.816 61.9619C728.131 61.8022 728.33 61.4788 728.33 61.125V57.6875H735.205C735.723 57.6875 736.143 57.2678 736.143 56.75V39.875C736.143 39.3572 735.723 38.9375 735.205 38.9375ZM734.268 55.8125H727.393C726.875 55.8125 726.455 56.2322 726.455 56.75V59.2697L722.012 55.9953C721.85 55.8766 721.656 55.8125 721.455 55.8125H713.018V40.8125H734.268V55.8125Z" fill="#E4E4E4"/>
</g>
<g opacity="0.7">
<path d="M998.221 80.0842C998.221 79.669 997.933 79.4214 997.425 79.4214C997.217 79.4214 997.077 79.4419 997.003 79.4615V80.7936C997.09 80.8132 997.197 80.8197 997.345 80.8197C997.887 80.8197 998.221 80.546 998.221 80.0842Z" fill="#E4E4E4"/>
<path d="M1001.37 79.4355C1001.14 79.4355 1000.99 79.4552 1000.91 79.4756V82.4258C1000.99 82.4462 1001.13 82.4462 1001.26 82.4462C1002.18 82.4527 1002.79 81.9444 1002.79 80.8673C1002.79 79.9307 1002.24 79.4355 1001.37 79.4355Z" fill="#E4E4E4"/>
<path d="M1007.21 64H997.173C995.706 64 994.513 65.1947 994.513 66.6608V76.4999H994.253C993.661 76.4999 993.18 76.9796 993.18 77.5722V84.0747C993.18 84.6672 993.661 85.1468 994.253 85.1468H994.513V86.3392C994.513 87.8068 995.706 88.9999 997.173 88.9999H1010.87C1012.34 88.9999 1013.53 87.8068 1013.53 86.3392V70.2974L1007.21 64ZM995.993 78.7457C996.307 78.6926 996.749 78.6525 997.371 78.6525C998 78.6525 998.448 78.7726 998.75 79.0137C999.037 79.2409 999.231 79.616 999.231 80.0573C999.231 80.4986 999.084 80.8737 998.817 81.1279C998.469 81.4556 997.954 81.6027 997.351 81.6027C997.217 81.6027 997.097 81.596 997.003 81.583V83.1954H995.993V78.7457ZM1010.87 87.3704H997.173C996.605 87.3704 996.143 86.9079 996.143 86.3392V85.1468H1008.91C1009.51 85.1468 1009.99 84.6672 1009.99 84.0747V77.5722C1009.99 76.9796 1009.51 76.4999 1008.91 76.4999H996.143V66.6608C996.143 66.0936 996.605 65.6311 997.173 65.6311L1006.6 65.6213V69.1074C1006.6 70.1257 1007.43 70.9527 1008.45 70.9527L1011.87 70.9429L1011.9 86.3391C1011.9 86.9079 1011.44 87.3704 1010.87 87.3704ZM999.883 83.175V78.7457C1000.26 78.686 1000.75 78.6525 1001.26 78.6525C1002.12 78.6525 1002.67 78.8062 1003.11 79.1338C1003.58 79.482 1003.87 80.0369 1003.87 80.8336C1003.87 81.6966 1003.56 82.2924 1003.12 82.66C1002.65 83.0547 1001.92 83.2419 1001.04 83.2419C1000.51 83.2419 1000.14 83.2084 999.883 83.175ZM1007.18 80.5526V81.382H1005.57V83.1954H1004.54V78.686H1007.3V79.522H1005.57V80.5526H1007.18Z" fill="#E4E4E4"/>
</g>
<g opacity="0.7">
<path d="M1109.94 74.0842C1109.94 73.669 1109.65 73.4214 1109.14 73.4214C1108.93 73.4214 1108.79 73.4419 1108.72 73.4615V74.7936C1108.8 74.8132 1108.91 74.8197 1109.06 74.8197C1109.6 74.8197 1109.94 74.546 1109.94 74.0842Z" fill="#E4E4E4"/>
<path d="M1113.08 73.4355C1112.85 73.4355 1112.71 73.4552 1112.62 73.4756V76.4258C1112.71 76.4462 1112.85 76.4462 1112.98 76.4462C1113.9 76.4527 1114.5 75.9444 1114.5 74.8673C1114.51 73.9307 1113.96 73.4355 1113.08 73.4355Z" fill="#E4E4E4"/>
<path d="M1118.93 58H1108.89C1107.42 58 1106.23 59.1947 1106.23 60.6608V70.4999H1105.97C1105.37 70.4999 1104.89 70.9796 1104.89 71.5722V78.0747C1104.89 78.6672 1105.37 79.1468 1105.97 79.1468H1106.23V80.3392C1106.23 81.8068 1107.42 82.9999 1108.89 82.9999H1122.59C1124.05 82.9999 1125.25 81.8068 1125.25 80.3392V64.2974L1118.93 58ZM1107.71 72.7457C1108.02 72.6926 1108.46 72.6525 1109.09 72.6525C1109.71 72.6525 1110.16 72.7726 1110.46 73.0137C1110.75 73.2409 1110.95 73.616 1110.95 74.0573C1110.95 74.4986 1110.8 74.8737 1110.53 75.1279C1110.18 75.4556 1109.67 75.6027 1109.07 75.6027C1108.93 75.6027 1108.81 75.596 1108.72 75.583V77.1954H1107.71V72.7457ZM1122.59 81.3704H1108.89C1108.32 81.3704 1107.86 80.9079 1107.86 80.3392V79.1468H1120.63C1121.22 79.1468 1121.7 78.6672 1121.7 78.0747V71.5722C1121.7 70.9796 1121.22 70.4999 1120.63 70.4999H1107.86V60.6608C1107.86 60.0936 1108.32 59.6311 1108.89 59.6311L1118.32 59.6213V63.1074C1118.32 64.1257 1119.15 64.9527 1120.16 64.9527L1123.58 64.9429L1123.62 80.3391C1123.62 80.9079 1123.16 81.3704 1122.59 81.3704ZM1111.6 77.175V72.7457C1111.97 72.686 1112.46 72.6525 1112.98 72.6525C1113.83 72.6525 1114.39 72.8062 1114.82 73.1338C1115.29 73.482 1115.58 74.0369 1115.58 74.8336C1115.58 75.6966 1115.27 76.2924 1114.84 76.66C1114.36 77.0547 1113.64 77.2419 1112.75 77.2419C1112.23 77.2419 1111.85 77.2084 1111.6 77.175ZM1118.9 74.5526V75.382H1117.28V77.1954H1116.26V72.686H1119.01V73.522H1117.28V74.5526H1118.9Z" fill="#E4E4E4"/>
</g>
<g opacity="0.7" clip-path="url(#clip4)">
<path d="M1378.29 28.6406V40.3594H1403.29V28.6406H1378.29ZM1401.33 38.4062H1380.24V30.5938H1382.09V32.9375H1384.05V30.5938H1386V34.8906H1387.95V30.5938H1389.81V32.9375H1391.76V30.5938H1393.62V34.8906H1395.57V30.5938H1397.52V32.9375H1399.48V30.5938H1401.33V38.4062Z" fill="#E4E4E4"/>
</g>
<g opacity="0.7" clip-path="url(#clip5)">
<path d="M92.0225 101.922H70.9287V103.875H92.0225V101.922Z" fill="#E4E4E4"/>
<path d="M85.2585 91.9334H85.2585C84.7783 91.8599 84.4297 91.454 84.4297 90.9681V88.2585C85.7672 87.326 86.5948 85.8006 86.626 84.1496C86.6792 81.3354 84.435 78.992 81.6233 78.9257C80.2308 78.8936 78.9138 79.4105 77.9179 80.3832C76.9217 81.3562 76.373 82.6589 76.373 84.0513C76.373 85.7436 77.2018 87.3066 78.5703 88.2589V90.9681C78.5703 91.454 78.2217 91.8599 77.7415 91.9334L69 93.2714V99.9692H94V93.2714L85.2585 91.9334ZM92.0469 98.0161H70.9531V94.9483L78.037 93.8641C78.7287 93.7582 79.3607 93.4075 79.8166 92.8766C80.2724 92.3457 80.5234 91.6679 80.5234 90.9681V87.1283L80.0072 86.8523C78.9703 86.2982 78.3262 85.2249 78.3262 84.0513C78.3262 83.1893 78.6658 82.3829 79.2826 81.7805C79.8991 81.1784 80.7156 80.8574 81.5772 80.8783C83.3172 80.9193 84.7062 82.3702 84.6732 84.1126C84.6516 85.2602 84.0077 86.31 82.9928 86.8523L82.4766 87.1282V90.9681C82.4766 91.6678 82.7276 92.3456 83.1834 92.8766C83.6393 93.4075 84.2713 93.7582 84.963 93.8641L92.0469 94.9483V98.0161Z" fill="#E4E4E4"/>
</g>
<g opacity="0.7">
<path d="M1350.02 107.022H1328.93V108.976H1350.02V107.022Z" fill="#E4E4E4"/>
<path d="M1343.26 97.0335H1343.26C1342.78 96.96 1342.43 96.554 1342.43 96.0682V93.3586C1343.77 92.4261 1344.59 90.9007 1344.63 89.2497C1344.68 86.4355 1342.43 84.0921 1339.62 84.0258C1338.23 83.9937 1336.91 84.5106 1335.92 85.4833C1334.92 86.4563 1334.37 87.759 1334.37 89.1514C1334.37 90.8437 1335.2 92.4067 1336.57 93.359V96.0682C1336.57 96.554 1336.22 96.96 1335.74 97.0335L1327 98.3715V105.069H1352V98.3715L1343.26 97.0335ZM1350.05 103.116H1328.95V100.048L1336.04 98.9642C1336.73 98.8583 1337.36 98.5076 1337.82 97.9767C1338.27 97.4458 1338.52 96.768 1338.52 96.0682V92.2284L1338.01 91.9524C1336.97 91.3983 1336.33 90.325 1336.33 89.1514C1336.33 88.2894 1336.67 87.483 1337.28 86.8806C1337.9 86.2785 1338.72 85.9575 1339.58 85.9784C1341.32 86.0194 1342.71 87.4703 1342.67 89.2127C1342.65 90.3603 1342.01 91.4101 1340.99 91.9524L1340.48 92.2283V96.0682C1340.48 96.7679 1340.73 97.4457 1341.18 97.9767C1341.64 98.5076 1342.27 98.8583 1342.96 98.9642L1350.05 100.048V103.116Z" fill="#E4E4E4"/>
</g>
<g opacity="0.7" clip-path="url(#clip6)">
<path d="M512.241 126.224V128.177H516.001V136.576H517.954V128.177H521.616V126.224H512.241Z" fill="#E4E4E4"/>
<path d="M508.335 118.9H504.429V122.806H508.335V118.9Z" fill="#E4E4E4"/>
<path d="M529.429 118.9H525.522V122.806H529.429V118.9Z" fill="#E4E4E4"/>
<path d="M519.858 120.853H517.905V122.806H519.858V120.853Z" fill="#E4E4E4"/>
<path d="M523.667 120.853H521.714V122.806H523.667V120.853Z" fill="#E4E4E4"/>
<path d="M516.05 120.853H514.097V122.806H516.05V120.853Z" fill="#E4E4E4"/>
<path d="M512.241 120.853H510.288V122.806H512.241V120.853Z" fill="#E4E4E4"/>
<path d="M529.429 139.994H525.522V143.9H529.429V139.994Z" fill="#E4E4E4"/>
<path d="M527.475 132.376H525.522V134.33H527.475V132.376Z" fill="#E4E4E4"/>
<path d="M527.475 136.185H525.522V138.138H527.475V136.185Z" fill="#E4E4E4"/>
<path d="M527.475 128.568H525.522V130.521H527.475V128.568Z" fill="#E4E4E4"/>
<path d="M527.475 124.759H525.522V126.712H527.475V124.759Z" fill="#E4E4E4"/>
<path d="M508.335 139.994H504.429V143.9H508.335V139.994Z" fill="#E4E4E4"/>
<path d="M508.335 132.376H506.382V134.33H508.335V132.376Z" fill="#E4E4E4"/>
<path d="M508.335 136.185H506.382V138.138H508.335V136.185Z" fill="#E4E4E4"/>
<path d="M508.335 128.568H506.382V130.521H508.335V128.568Z" fill="#E4E4E4"/>
<path d="M508.335 124.759H506.382V126.712H508.335V124.759Z" fill="#E4E4E4"/>
<path d="M519.858 139.994H517.905V141.947H519.858V139.994Z" fill="#E4E4E4"/>
<path d="M523.667 139.994H521.714V141.947H523.667V139.994Z" fill="#E4E4E4"/>
<path d="M516.05 139.994H514.097V141.947H516.05V139.994Z" fill="#E4E4E4"/>
<path d="M512.241 139.994H510.288V141.947H512.241V139.994Z" fill="#E4E4E4"/>
</g>
<g opacity="0.7" clip-path="url(#clip7)">
<path d="M803.631 80.7266H781.654C780.821 80.7266 780.143 81.4046 780.143 82.2381V98.5622C780.143 99.3956 780.821 100.074 781.654 100.074H803.631C804.465 100.074 805.143 99.3956 805.143 98.5622V82.2381C805.143 81.4046 804.465 80.7266 803.631 80.7266ZM803.329 98.2598H781.957V82.5404H803.329V98.2598H803.329Z" fill="#E4E4E4"/>
<path d="M786.703 84.3843C784.753 84.3843 783.166 85.971 783.166 87.9211C783.166 89.8712 784.752 91.458 786.703 91.458C788.653 91.458 790.24 89.8715 790.24 87.9211C790.24 85.971 788.653 84.3843 786.703 84.3843ZM786.703 89.6442C785.753 89.6442 784.98 88.8712 784.98 87.9211C784.98 86.971 785.753 86.198 786.703 86.198C787.653 86.198 788.426 86.971 788.426 87.9211C788.426 88.8712 787.653 89.6442 786.703 89.6442Z" fill="#E4E4E4"/>
<path d="M791.899 90.9308C791.546 90.7101 791.088 90.7584 790.789 91.0472L783.05 98.5139L784.309 99.8192L791.539 92.8443L794.807 94.8872L795.769 93.3491L791.899 90.9308Z" fill="#E4E4E4"/>
<path d="M799.133 90.1222C798.768 89.7906 798.205 89.8111 797.866 90.1672L789.825 98.6013L791.138 99.8531L798.568 92.0599L803.595 96.6331L804.816 95.2914L799.133 90.1222Z" fill="#E4E4E4"/>
</g>
<g opacity="0.7" clip-path="url(#clip8)">
<path d="M849.951 92.562V91.3413C849.951 89.9951 848.856 88.8999 847.51 88.8999H831.299C829.952 88.8999 828.857 89.9951 828.857 91.3413V95.7358C828.857 97.082 829.952 98.1772 831.299 98.1772H847.51C848.856 98.1772 849.951 97.082 849.951 95.7358V94.5151H851.904V99.3355L838.402 105.022L838.396 105.024C837.318 105.487 836.621 106.544 836.621 107.717V113.9H842.187V105.547L853.857 100.632V92.562H849.951ZM847.998 95.7358C847.998 96.0051 847.779 96.2241 847.51 96.2241H831.299C831.029 96.2241 830.81 96.0051 830.81 95.7358V91.3413C830.81 91.0721 831.029 90.853 831.299 90.853H847.51C847.779 90.853 847.998 91.0721 847.998 91.3413V95.7358ZM840.234 111.947H838.574V107.717C838.574 107.327 838.805 106.975 839.164 106.82L840.234 106.37V111.947Z" fill="#E4E4E4"/>
</g>
<g opacity="0.7" clip-path="url(#clip9)">
<path d="M1176.57 129.447V125.541H1172.67V127.494H1168.76V122.806H1170.71V118.9H1166.81V120.853H1155.48V118.9H1151.57V122.806H1153.52V133.353H1151.57V137.259H1155.48V135.306H1159.38V139.994H1157.43V143.9H1161.34V141.947H1172.67V143.9H1176.57V139.994H1174.57V129.447H1176.57ZM1157.48 125.541V129.447H1159.38V133.353H1155.48V122.806H1166.81V127.494H1161.39V125.541H1157.48ZM1172.62 139.994H1161.34V129.447H1161.39H1172.62V139.994Z" fill="#E4E4E4"/>
</g>
<g opacity="0.7">
<path d="M1241.53 105.084C1241.53 104.669 1241.25 104.421 1240.74 104.421C1240.53 104.421 1240.39 104.442 1240.32 104.461V105.794C1240.4 105.813 1240.51 105.82 1240.66 105.82C1241.2 105.82 1241.53 105.546 1241.53 105.084Z" fill="#E4E4E4"/>
<path d="M1251.36 89H1241.32C1239.85 89 1238.66 90.1947 1238.66 91.6608V101.5H1238.4C1237.8 101.5 1237.32 101.98 1237.32 102.572V109.075C1237.32 109.667 1237.8 110.147 1238.4 110.147H1238.66V111.339C1238.66 112.807 1239.85 114 1241.32 114H1255.02C1256.48 114 1257.68 112.807 1257.68 111.339V95.2974L1251.36 89ZM1239.31 103.746C1239.62 103.693 1240.06 103.653 1240.68 103.653C1241.31 103.653 1241.76 103.773 1242.06 104.014C1242.35 104.241 1242.54 104.616 1242.54 105.057C1242.54 105.499 1242.4 105.874 1242.13 106.128C1241.78 106.456 1241.27 106.603 1240.66 106.603C1240.53 106.603 1240.41 106.596 1240.32 106.583V108.195H1239.31V103.746ZM1255.02 112.37H1241.32C1240.75 112.37 1240.29 111.908 1240.29 111.339V110.147H1253.06C1253.65 110.147 1254.13 109.667 1254.13 109.075V102.572C1254.13 101.98 1253.65 101.5 1253.06 101.5H1240.29V91.6608C1240.29 91.0936 1240.75 90.6311 1241.32 90.6311L1250.75 90.6213V94.1074C1250.75 95.1257 1251.57 95.9527 1252.59 95.9527L1256.01 95.9429L1256.05 111.339C1256.05 111.908 1255.58 112.37 1255.02 112.37ZM1245.99 105.004V103.686H1246.93V108.195H1245.86L1244.9 106.456C1244.63 105.974 1244.33 105.391 1244.11 104.864L1244.09 104.87C1244.12 105.465 1244.13 106.101 1244.13 106.837V108.195H1243.2V103.686H1244.39L1245.32 105.338C1245.59 105.813 1245.86 106.375 1246.06 106.884H1246.08C1246.01 106.289 1245.99 105.679 1245.99 105.004ZM1250.1 107.419C1250.33 107.419 1250.52 107.392 1250.6 107.352V106.409H1249.9V105.613H1251.58V107.988C1251.27 108.095 1250.67 108.242 1250.08 108.242C1249.25 108.242 1248.66 108.034 1248.24 107.633C1247.83 107.245 1247.6 106.657 1247.61 105.994C1247.61 104.495 1248.7 103.639 1250.18 103.639C1250.77 103.639 1251.21 103.752 1251.43 103.86L1251.22 104.676C1250.97 104.569 1250.67 104.482 1250.17 104.482C1249.32 104.482 1248.68 104.963 1248.68 105.941C1248.68 106.871 1249.26 107.419 1250.1 107.419Z" fill="#E4E4E4"/>
</g>
<g opacity="0.7">
<path d="M205 214.641V226.359H230V214.641H205ZM228.047 224.406H206.953V216.594H208.809V218.938H210.762V216.594H212.715V220.891H214.668V216.594H216.523V218.938H218.477V216.594H220.332V220.891H222.285V216.594H224.238V218.938H226.191V216.594H228.047V224.406Z" fill="#E4E4E4"/>
</g>
<g opacity="0.7" clip-path="url(#clip10)">
<path d="M610.963 158.884C610.963 158.469 610.675 158.221 610.167 158.221C609.959 158.221 609.819 158.242 609.745 158.261V159.593C609.832 159.613 609.939 159.619 610.086 159.619C610.628 159.619 610.963 159.346 610.963 158.884Z" fill="#E4E4E4"/>
<path d="M620.786 142.8H610.745C609.278 142.8 608.084 143.995 608.084 145.461V155.3H607.824C607.232 155.3 606.752 155.779 606.752 156.372V162.874C606.752 163.467 607.232 163.947 607.824 163.947H608.084V165.139C608.084 166.607 609.278 167.8 610.745 167.8H624.445C625.911 167.8 627.105 166.607 627.105 165.139V149.097L620.786 142.8ZM608.735 157.545C609.049 157.492 609.49 157.452 610.113 157.452C610.742 157.452 611.19 157.572 611.492 157.813C611.779 158.041 611.973 158.416 611.973 158.857C611.973 159.298 611.826 159.674 611.559 159.928C611.21 160.255 610.695 160.402 610.093 160.402C609.959 160.402 609.838 160.396 609.745 160.383V161.995H608.735V157.545ZM624.445 166.17H610.745C610.177 166.17 609.714 165.708 609.714 165.139V163.947H622.486C623.078 163.947 623.558 163.467 623.558 162.874V156.372C623.558 155.779 623.078 155.3 622.486 155.3H609.714V145.461C609.714 144.893 610.177 144.431 610.745 144.431L620.176 144.421V147.907C620.176 148.926 621.002 149.753 622.021 149.753L625.436 149.743L625.475 165.139C625.475 165.708 625.013 166.17 624.445 166.17ZM615.422 158.804V157.486H616.358V161.995H615.288L614.324 160.255C614.056 159.774 613.762 159.191 613.541 158.663L613.522 158.67C613.548 159.265 613.562 159.901 613.562 160.637V161.995H612.624V157.486H613.816L614.752 159.138C615.02 159.613 615.288 160.175 615.489 160.684H615.508C615.441 160.089 615.422 159.479 615.422 158.804ZM619.525 161.219C619.759 161.219 619.946 161.192 620.027 161.152V160.209H619.331V159.413H621.011V161.788C620.696 161.895 620.1 162.042 619.505 162.042C618.682 162.042 618.087 161.834 617.671 161.433C617.257 161.045 617.029 160.456 617.036 159.794C617.043 158.295 618.133 157.438 619.612 157.438C620.194 157.438 620.643 157.552 620.863 157.66L620.649 158.475C620.402 158.368 620.094 158.282 619.598 158.282C618.749 158.282 618.107 158.763 618.107 159.74C618.107 160.67 618.689 161.219 619.525 161.219Z" fill="#E4E4E4"/>
</g>
<g opacity="0.7" clip-path="url(#clip11)">
<path d="M624.677 223.884C624.677 223.469 624.39 223.221 623.881 223.221C623.674 223.221 623.533 223.242 623.459 223.261V224.593C623.546 224.613 623.653 224.619 623.8 224.619C624.342 224.619 624.677 224.346 624.677 223.884Z" fill="#E4E4E4"/>
<path d="M634.5 207.8H624.459C622.992 207.8 621.798 208.995 621.798 210.461V220.3H621.538C620.946 220.3 620.466 220.779 620.466 221.372V227.874C620.466 228.467 620.946 228.947 621.538 228.947H621.798V230.139C621.798 231.607 622.992 232.8 624.459 232.8H638.159C639.625 232.8 640.819 231.607 640.819 230.139V214.097L634.5 207.8ZM622.449 222.545C622.763 222.492 623.205 222.452 623.827 222.452C624.456 222.452 624.904 222.572 625.206 222.813C625.493 223.041 625.687 223.416 625.687 223.857C625.687 224.298 625.54 224.674 625.273 224.928C624.925 225.255 624.409 225.402 623.808 225.402C623.674 225.402 623.553 225.396 623.459 225.383V226.995H622.449V222.545ZM638.159 231.17H624.459C623.891 231.17 623.428 230.708 623.428 230.139V228.947H636.2C636.792 228.947 637.272 228.467 637.272 227.874V221.372C637.272 220.779 636.792 220.3 636.2 220.3H623.428V210.461C623.428 209.893 623.891 209.431 624.459 209.431L633.89 209.421V212.907C633.89 213.926 634.717 214.753 635.736 214.753L639.151 214.743L639.189 230.139C639.189 230.708 638.727 231.17 638.159 231.17ZM629.136 223.804V222.486H630.072V226.995H629.002L628.038 225.255C627.77 224.774 627.476 224.191 627.255 223.663L627.236 223.67C627.262 224.265 627.276 224.901 627.276 225.637V226.995H626.339V222.486H627.53L628.467 224.138C628.735 224.613 629.002 225.175 629.203 225.684H629.222C629.155 225.089 629.136 224.479 629.136 223.804ZM633.239 226.219C633.473 226.219 633.661 226.192 633.741 226.152V225.209H633.045V224.413H634.725V226.788C634.41 226.895 633.814 227.042 633.219 227.042C632.397 227.042 631.801 226.834 631.386 226.433C630.971 226.045 630.743 225.456 630.751 224.794C630.757 223.295 631.847 222.438 633.327 222.438C633.908 222.438 634.357 222.552 634.578 222.66L634.364 223.475C634.116 223.368 633.808 223.282 633.313 223.282C632.464 223.282 631.821 223.763 631.821 224.74C631.821 225.67 632.403 226.219 633.239 226.219Z" fill="#E4E4E4"/>
</g>
<g opacity="0.7" clip-path="url(#clip12)">
<path d="M991.998 153.251L986.396 147.657C985.255 146.517 983.397 146.517 982.255 147.658L968.717 161.207C968.162 161.761 967.857 162.497 967.857 163.281C967.857 164.064 968.163 164.801 968.718 165.354L974.321 170.945C974.891 171.514 975.64 171.798 976.389 171.798C977.139 171.798 977.889 171.513 978.46 170.943L991.998 157.397C992.552 156.844 992.857 156.107 992.857 155.324C992.857 154.541 992.552 153.804 991.998 153.251ZM977.08 169.562C976.699 169.941 976.08 169.942 975.7 169.562L970.097 163.971C969.912 163.787 969.81 163.541 969.81 163.28C969.81 163.019 969.912 162.774 970.097 162.588L970.834 161.851L977.817 168.824L977.08 169.562ZM979.198 167.443L972.215 160.469L976.527 156.154L983.51 163.127L979.198 167.443ZM990.617 156.016L984.89 161.746L977.907 154.772L983.636 149.039C983.826 148.849 984.076 148.754 984.326 148.754C984.576 148.754 984.826 148.849 985.016 149.039L990.618 154.633C990.802 154.818 990.904 155.063 990.904 155.324C990.904 155.585 990.802 155.831 990.617 156.016Z" fill="#E4E4E4"/>
</g>
<g opacity="0.7" clip-path="url(#clip13)">
<path d="M156.14 36.4511L150.539 30.8572C149.397 29.7174 147.54 29.7174 146.398 30.858L132.859 44.4074C132.305 44.9611 132 45.6975 132 46.481C132 47.2645 132.306 48.0008 132.86 48.5541L138.464 54.1452C139.034 54.7142 139.783 54.9987 140.532 54.9987C141.282 54.9987 142.032 54.7135 142.603 54.1433L156.14 40.5972C156.695 40.0437 157 39.3075 157 38.5242C157 37.7408 156.695 37.0047 156.14 36.4511ZM141.222 52.762C140.842 53.1417 140.223 53.1419 139.843 52.7625L134.24 47.1716C134.055 46.9871 133.953 46.7416 133.953 46.4805C133.953 46.2193 134.055 45.9738 134.24 45.7886L134.977 45.0513L141.96 52.0242L141.222 52.762ZM143.34 50.6427L136.358 43.6696L140.669 39.3543L147.653 46.3277L143.34 50.6427ZM154.76 39.2159L149.033 44.9461L142.05 37.9727L147.779 32.2393C147.969 32.0493 148.219 31.9543 148.469 31.9543C148.719 31.9543 148.969 32.0493 149.159 32.2393L154.76 37.8332C154.945 38.0177 155.047 38.2631 155.047 38.5242C155.047 38.7853 154.945 39.0307 154.76 39.2159Z" fill="#E4E4E4"/>
</g>
<g opacity="0.7" clip-path="url(#clip14)">
<path d="M1128.06 202.626H1106.08C1105.25 202.626 1104.57 203.305 1104.57 204.138V220.462C1104.57 221.296 1105.25 221.974 1106.08 221.974H1128.06C1128.89 221.974 1129.57 221.295 1129.57 220.462V204.138C1129.57 203.305 1128.89 202.626 1128.06 202.626ZM1127.76 220.16H1106.39V204.44H1127.76V220.16H1127.76Z" fill="#E4E4E4"/>
<path d="M1111.13 206.284C1109.18 206.284 1107.59 207.871 1107.59 209.821C1107.59 211.771 1109.18 213.358 1111.13 213.358C1113.08 213.358 1114.67 211.771 1114.67 209.821C1114.67 207.871 1113.08 206.284 1111.13 206.284ZM1111.13 211.544C1110.18 211.544 1109.41 210.771 1109.41 209.821C1109.41 208.871 1110.18 208.098 1111.13 208.098C1112.08 208.098 1112.85 208.871 1112.85 209.821C1112.85 210.771 1112.08 211.544 1111.13 211.544Z" fill="#E4E4E4"/>
<path d="M1116.33 212.831C1115.98 212.61 1115.52 212.658 1115.22 212.947L1107.48 220.414L1108.74 221.719L1115.97 214.744L1119.24 216.787L1120.2 215.249L1116.33 212.831Z" fill="#E4E4E4"/>
<path d="M1123.56 212.022C1123.2 211.69 1122.63 211.711 1122.29 212.067L1114.25 220.501L1115.57 221.753L1123 213.96L1128.02 218.533L1129.24 217.191L1123.56 212.022Z" fill="#E4E4E4"/>
</g>
<g opacity="0.7" clip-path="url(#clip15)">
<path d="M1261.1 180.124V182.077H1264.86V190.476H1266.81V182.077H1270.47V180.124H1261.1Z" fill="#E4E4E4"/>
<path d="M1257.19 172.8H1253.29V176.706H1257.19V172.8Z" fill="#E4E4E4"/>
<path d="M1278.29 172.8H1274.38V176.706H1278.29V172.8Z" fill="#E4E4E4"/>
<path d="M1268.72 174.753H1266.76V176.706H1268.72V174.753Z" fill="#E4E4E4"/>
<path d="M1272.52 174.753H1270.57V176.706H1272.52V174.753Z" fill="#E4E4E4"/>
<path d="M1264.91 174.753H1262.95V176.706H1264.91V174.753Z" fill="#E4E4E4"/>
<path d="M1261.1 174.753H1259.15V176.706H1261.1V174.753Z" fill="#E4E4E4"/>
<path d="M1278.29 193.894H1274.38V197.8H1278.29V193.894Z" fill="#E4E4E4"/>
<path d="M1276.33 186.276H1274.38V188.229H1276.33V186.276Z" fill="#E4E4E4"/>
<path d="M1276.33 190.085H1274.38V192.038H1276.33V190.085Z" fill="#E4E4E4"/>
<path d="M1276.33 182.468H1274.38V184.421H1276.33V182.468Z" fill="#E4E4E4"/>
<path d="M1276.33 178.659H1274.38V180.612H1276.33V178.659Z" fill="#E4E4E4"/>
<path d="M1257.19 193.894H1253.29V197.8H1257.19V193.894Z" fill="#E4E4E4"/>
<path d="M1257.19 186.276H1255.24V188.229H1257.19V186.276Z" fill="#E4E4E4"/>
<path d="M1257.19 190.085H1255.24V192.038H1257.19V190.085Z" fill="#E4E4E4"/>
<path d="M1257.19 182.468H1255.24V184.421H1257.19V182.468Z" fill="#E4E4E4"/>
<path d="M1257.19 178.659H1255.24V180.612H1257.19V178.659Z" fill="#E4E4E4"/>
<path d="M1268.72 193.894H1266.76V195.847H1268.72V193.894Z" fill="#E4E4E4"/>
<path d="M1272.52 193.894H1270.57V195.847H1272.52V193.894Z" fill="#E4E4E4"/>
<path d="M1264.91 193.894H1262.95V195.847H1264.91V193.894Z" fill="#E4E4E4"/>
<path d="M1261.1 193.894H1259.15V195.847H1261.1V193.894Z" fill="#E4E4E4"/>
</g>
<g opacity="0.7">
<path d="M41.8125 165.324V167.277H45.5723V175.676H47.5254V167.277H51.1875V165.324H41.8125Z" fill="#E4E4E4"/>
<path d="M37.9062 158H34V161.906H37.9062V158Z" fill="#E4E4E4"/>
<path d="M59 158H55.0938V161.906H59V158Z" fill="#E4E4E4"/>
<path d="M49.4297 159.953H47.4766V161.906H49.4297V159.953Z" fill="#E4E4E4"/>
<path d="M53.2383 159.953H51.2852V161.906H53.2383V159.953Z" fill="#E4E4E4"/>
<path d="M45.6211 159.953H43.668V161.906H45.6211V159.953Z" fill="#E4E4E4"/>
<path d="M41.8125 159.953H39.8594V161.906H41.8125V159.953Z" fill="#E4E4E4"/>
<path d="M59 179.094H55.0938V183H59V179.094Z" fill="#E4E4E4"/>
<path d="M57.0469 171.477H55.0938V173.43H57.0469V171.477Z" fill="#E4E4E4"/>
<path d="M57.0469 175.285H55.0938V177.238H57.0469V175.285Z" fill="#E4E4E4"/>
<path d="M57.0469 167.668H55.0938V169.621H57.0469V167.668Z" fill="#E4E4E4"/>
<path d="M57.0469 163.859H55.0938V165.812H57.0469V163.859Z" fill="#E4E4E4"/>
<path d="M37.9062 179.094H34V183H37.9062V179.094Z" fill="#E4E4E4"/>
<path d="M37.9062 171.477H35.9531V173.43H37.9062V171.477Z" fill="#E4E4E4"/>
<path d="M37.9062 175.285H35.9531V177.238H37.9062V175.285Z" fill="#E4E4E4"/>
<path d="M37.9062 167.668H35.9531V169.621H37.9062V167.668Z" fill="#E4E4E4"/>
<path d="M37.9062 163.859H35.9531V165.812H37.9062V163.859Z" fill="#E4E4E4"/>
<path d="M49.4297 179.094H47.4766V181.047H49.4297V179.094Z" fill="#E4E4E4"/>
<path d="M53.2383 179.094H51.2852V181.047H53.2383V179.094Z" fill="#E4E4E4"/>
<path d="M45.6211 179.094H43.668V181.047H45.6211V179.094Z" fill="#E4E4E4"/>
<path d="M41.8125 179.094H39.8594V181.047H41.8125V179.094Z" fill="#E4E4E4"/>
</g>
<g opacity="0.7" clip-path="url(#clip16)">
<path d="M85.5343 236.784C85.5343 236.369 85.2467 236.122 84.7383 236.122C84.5307 236.122 84.3902 236.142 84.3166 236.162V237.494C84.4033 237.513 84.5103 237.52 84.6574 237.52C85.1992 237.52 85.5343 237.246 85.5343 236.784Z" fill="#E4E4E4"/>
<path d="M95.3571 220.7H85.3162C83.8492 220.7 82.6553 221.895 82.6553 223.361V233.2H82.3954C81.8029 233.2 81.3232 233.68 81.3232 234.272V240.775C81.3232 241.367 81.8029 241.847 82.3954 241.847H82.6553V243.039C82.6553 244.507 83.8492 245.7 85.3162 245.7H99.0165C100.483 245.7 101.677 244.507 101.677 243.039V226.998L95.3571 220.7ZM83.3066 235.446C83.6204 235.393 84.0617 235.353 84.6844 235.353C85.3136 235.353 85.7615 235.473 86.0631 235.714C86.3507 235.941 86.5444 236.316 86.5444 236.758C86.5444 237.199 86.3973 237.574 86.13 237.828C85.7819 238.156 85.2662 238.303 84.6648 238.303C84.5308 238.303 84.4098 238.296 84.3166 238.283V239.896H83.3066V235.446ZM99.0165 244.071H85.3162C84.7482 244.071 84.2856 243.608 84.2856 243.039V241.847H97.057C97.6495 241.847 98.1291 241.367 98.1291 240.775V234.272C98.1291 233.68 97.6495 233.2 97.057 233.2H84.2856V223.361C84.2856 222.794 84.7482 222.331 85.3162 222.331L94.7476 222.321V225.808C94.7476 226.826 95.5738 227.653 96.5928 227.653L100.008 227.643L100.046 243.039C100.046 243.608 99.5846 244.071 99.0165 244.071ZM89.9929 236.704V235.386H90.9295V239.896H89.859L88.8955 238.156C88.6275 237.674 88.3332 237.092 88.1127 236.564L88.093 236.57C88.1192 237.165 88.1331 237.801 88.1331 238.537V239.896H87.1957V235.386H88.3872L89.3237 237.039C89.5918 237.513 89.859 238.076 90.06 238.584H90.0797C90.0126 237.989 89.9929 237.379 89.9929 236.704ZM94.0962 239.119C94.3307 239.119 94.5179 239.092 94.598 239.052V238.109H93.9025V237.313H95.582V239.688C95.2673 239.795 94.6715 239.942 94.0766 239.942C93.2537 239.942 92.658 239.735 92.2428 239.333C91.8285 238.945 91.6004 238.357 91.6078 237.694C91.6143 236.195 92.7046 235.339 94.1837 235.339C94.7656 235.339 95.2142 235.452 95.4349 235.56L95.2208 236.376C94.9732 236.269 94.6651 236.182 94.1698 236.182C93.3207 236.182 92.6783 236.664 92.6783 237.641C92.6783 238.571 93.2601 239.119 94.0962 239.119Z" fill="#E4E4E4"/>
</g>
<g opacity="0.7">
<path d="M1343.53 192.084C1343.53 191.669 1343.25 191.421 1342.74 191.421C1342.53 191.421 1342.39 191.442 1342.32 191.461V192.794C1342.4 192.813 1342.51 192.82 1342.66 192.82C1343.2 192.82 1343.53 192.546 1343.53 192.084Z" fill="#E4E4E4"/>
<path d="M1353.36 176H1343.32C1341.85 176 1340.66 177.195 1340.66 178.661V188.5H1340.4C1339.8 188.5 1339.32 188.98 1339.32 189.572V196.075C1339.32 196.667 1339.8 197.147 1340.4 197.147H1340.66V198.339C1340.66 199.807 1341.85 201 1343.32 201H1357.02C1358.48 201 1359.68 199.807 1359.68 198.339V182.297L1353.36 176ZM1341.31 190.746C1341.62 190.693 1342.06 190.653 1342.68 190.653C1343.31 190.653 1343.76 190.773 1344.06 191.014C1344.35 191.241 1344.54 191.616 1344.54 192.057C1344.54 192.499 1344.4 192.874 1344.13 193.128C1343.78 193.456 1343.27 193.603 1342.66 193.603C1342.53 193.603 1342.41 193.596 1342.32 193.583V195.195H1341.31V190.746ZM1357.02 199.37H1343.32C1342.75 199.37 1342.29 198.908 1342.29 198.339V197.147H1355.06C1355.65 197.147 1356.13 196.667 1356.13 196.075V189.572C1356.13 188.98 1355.65 188.5 1355.06 188.5H1342.29V178.661C1342.29 178.094 1342.75 177.631 1343.32 177.631L1352.75 177.621V181.107C1352.75 182.126 1353.57 182.953 1354.59 182.953L1358.01 182.943L1358.05 198.339C1358.05 198.908 1357.58 199.37 1357.02 199.37ZM1347.99 192.004V190.686H1348.93V195.195H1347.86L1346.9 193.456C1346.63 192.974 1346.33 192.391 1346.11 191.864L1346.09 191.87C1346.12 192.465 1346.13 193.101 1346.13 193.837V195.195H1345.2V190.686H1346.39L1347.32 192.338C1347.59 192.813 1347.86 193.375 1348.06 193.884H1348.08C1348.01 193.289 1347.99 192.679 1347.99 192.004ZM1352.1 194.419C1352.33 194.419 1352.52 194.392 1352.6 194.352V193.409H1351.9V192.613H1353.58V194.988C1353.27 195.095 1352.67 195.242 1352.08 195.242C1351.25 195.242 1350.66 195.034 1350.24 194.633C1349.83 194.245 1349.6 193.657 1349.61 192.994C1349.61 191.495 1350.7 190.639 1352.18 190.639C1352.77 190.639 1353.21 190.752 1353.43 190.86L1353.22 191.676C1352.97 191.569 1352.67 191.482 1352.17 191.482C1351.32 191.482 1350.68 191.963 1350.68 192.941C1350.68 193.871 1351.26 194.419 1352.1 194.419Z" fill="#E4E4E4"/>
</g>
<g opacity="0.7">
<path d="M139.364 152.084C139.364 151.669 139.076 151.421 138.568 151.421C138.36 151.421 138.22 151.442 138.146 151.461V152.794C138.233 152.813 138.34 152.82 138.488 152.82C139.03 152.82 139.364 152.546 139.364 152.084Z" fill="#E4E4E4"/>
<path d="M142.511 151.436C142.283 151.436 142.136 151.455 142.049 151.476V154.426C142.136 154.446 142.277 154.446 142.404 154.446C143.327 154.453 143.93 153.944 143.93 152.867C143.936 151.931 143.387 151.436 142.511 151.436Z" fill="#E4E4E4"/>
<path d="M148.357 136H138.316C136.849 136 135.655 137.195 135.655 138.661V148.5H135.395C134.803 148.5 134.323 148.98 134.323 149.572V156.075C134.323 156.667 134.803 157.147 135.395 157.147H135.655V158.339C135.655 159.807 136.849 161 138.316 161H152.017C153.483 161 154.677 159.807 154.677 158.339V142.297L148.357 136ZM137.136 150.746C137.45 150.693 137.892 150.653 138.514 150.653C139.143 150.653 139.591 150.773 139.892 151.014C140.18 151.241 140.374 151.616 140.374 152.057C140.374 152.499 140.227 152.874 139.96 153.128C139.611 153.456 139.097 153.603 138.494 153.603C138.36 153.603 138.24 153.596 138.146 153.583V155.195H137.136V150.746ZM152.017 159.37H138.316C137.748 159.37 137.286 158.908 137.286 158.339V157.147H150.057C150.649 157.147 151.13 156.667 151.13 156.075V149.572C151.13 148.98 150.649 148.5 150.057 148.5H137.286V138.661C137.286 138.094 137.748 137.631 138.316 137.631L147.748 137.621V141.107C147.748 142.126 148.574 142.953 149.593 142.953L153.008 142.943L153.046 158.339C153.046 158.908 152.585 159.37 152.017 159.37ZM141.026 155.175V150.746C141.4 150.686 141.889 150.653 142.404 150.653C143.26 150.653 143.816 150.806 144.251 151.134C144.719 151.482 145.013 152.037 145.013 152.834C145.013 153.697 144.699 154.292 144.264 154.66C143.789 155.055 143.066 155.242 142.183 155.242C141.654 155.242 141.28 155.208 141.026 155.175ZM148.328 152.553V153.382H146.708V155.195H145.685V150.686H148.441V151.522H146.708V152.553H148.328Z" fill="#E4E4E4"/>
</g>
<g opacity="0.7" clip-path="url(#clip17)">
<path d="M667.076 213.543L667.045 213.515C666.47 212.99 665.724 212.7 664.945 212.7C664.072 212.7 663.233 213.07 662.645 213.714L651.513 225.902C651.411 226.013 651.334 226.144 651.287 226.287L649.978 230.211C649.826 230.664 649.902 231.166 650.181 231.553C650.462 231.942 650.914 232.175 651.391 232.175H651.391C651.597 232.175 651.799 232.133 651.99 232.049L655.78 230.391C655.918 230.331 656.041 230.242 656.143 230.131L667.275 217.944C668.433 216.676 668.344 214.702 667.076 213.543ZM652.486 229.486L653.254 227.183L653.318 227.112L654.774 228.442L654.709 228.513L652.486 229.486ZM665.688 216.494L656.224 226.855L654.768 225.525L664.232 215.164C664.417 214.962 664.67 214.85 664.945 214.85C665.186 214.85 665.417 214.94 665.596 215.103L665.626 215.13C666.019 215.489 666.047 216.101 665.688 216.494Z" fill="#E4E4E4"/>
<path d="M664.916 222.617C664.322 222.617 663.841 223.098 663.841 223.692V232.817C663.841 234.324 662.615 235.55 661.108 235.55H648.08C646.573 235.55 645.347 234.324 645.347 232.817V219.895C645.347 218.388 646.573 217.162 648.08 217.162H657.509C658.103 217.162 658.584 216.681 658.584 216.087C658.584 215.493 658.103 215.012 657.509 215.012H648.08C645.388 215.012 643.197 217.203 643.197 219.895V232.817C643.197 235.509 645.388 237.7 648.08 237.7H661.107C663.8 237.7 665.991 235.509 665.991 232.817V223.692C665.991 223.098 665.51 222.617 664.916 222.617Z" fill="#E4E4E4"/>
</g>
<g opacity="0.7" clip-path="url(#clip18)">
<path d="M995.346 234.527H973.369C972.535 234.527 971.857 235.205 971.857 236.038V252.362C971.857 253.196 972.535 253.874 973.369 253.874H995.346C996.179 253.874 996.857 253.196 996.857 252.362V236.038C996.857 235.205 996.179 234.527 995.346 234.527ZM995.043 252.06H973.671V236.341H995.043V252.06H995.043Z" fill="#E4E4E4"/>
<path d="M978.417 238.185C976.467 238.185 974.88 239.771 974.88 241.721C974.88 243.672 976.467 245.258 978.417 245.258C980.367 245.258 981.954 243.672 981.954 241.721C981.954 239.771 980.367 238.185 978.417 238.185ZM978.417 243.445C977.467 243.445 976.694 242.672 976.694 241.721C976.694 240.771 977.467 239.998 978.417 239.998C979.367 239.998 980.14 240.771 980.14 241.721C980.14 242.672 979.367 243.445 978.417 243.445Z" fill="#E4E4E4"/>
<path d="M983.614 244.731C983.261 244.51 982.803 244.559 982.503 244.847L974.764 252.314L976.024 253.619L983.253 246.645L986.522 248.687L987.483 247.149L983.614 244.731Z" fill="#E4E4E4"/>
<path d="M990.847 243.923C990.482 243.591 989.92 243.611 989.581 243.968L981.54 252.402L982.852 253.653L990.282 245.86L995.31 250.433L996.53 249.092L990.847 243.923Z" fill="#E4E4E4"/>
</g>
<g opacity="0.7" clip-path="url(#clip19)">
<path d="M1438.77 237.527H1416.8C1415.96 237.527 1415.29 238.205 1415.29 239.038V255.362C1415.29 256.196 1415.96 256.874 1416.8 256.874H1438.77C1439.61 256.874 1440.29 256.196 1440.29 255.362V239.038C1440.29 238.205 1439.61 237.527 1438.77 237.527ZM1438.47 255.06H1417.1V239.341H1438.47V255.06H1438.47Z" fill="#E4E4E4"/>
<path d="M1421.85 241.185C1419.9 241.185 1418.31 242.771 1418.31 244.721C1418.31 246.672 1419.9 248.258 1421.85 248.258C1423.8 248.258 1425.38 246.672 1425.38 244.721C1425.38 242.771 1423.8 241.185 1421.85 241.185ZM1421.85 246.445C1420.9 246.445 1420.12 245.672 1420.12 244.721C1420.12 243.771 1420.9 242.998 1421.85 242.998C1422.8 242.998 1423.57 243.771 1423.57 244.721C1423.57 245.672 1422.8 246.445 1421.85 246.445Z" fill="#E4E4E4"/>
<path d="M1427.04 247.731C1426.69 247.51 1426.23 247.559 1425.93 247.847L1418.19 255.314L1419.45 256.619L1426.68 249.645L1429.95 251.687L1430.91 250.149L1427.04 247.731Z" fill="#E4E4E4"/>
<path d="M1434.28 246.923C1433.91 246.591 1433.35 246.611 1433.01 246.968L1424.97 255.402L1426.28 256.653L1433.71 248.86L1438.74 253.433L1439.96 252.092L1434.28 246.923Z" fill="#E4E4E4"/>
</g>
<g opacity="0.7">
<path d="M254.489 98.8267H232.511C231.678 98.8267 231 99.5047 231 100.338V116.662C231 117.496 231.678 118.174 232.511 118.174H254.488C255.322 118.174 256 117.496 256 116.662V100.338C256 99.5047 255.322 98.8267 254.489 98.8267ZM254.186 116.36H232.814V100.64H254.186V116.36H254.186Z" fill="#E4E4E4"/>
<path d="M237.56 102.484C235.61 102.484 234.023 104.071 234.023 106.021C234.023 107.971 235.609 109.558 237.56 109.558C239.51 109.558 241.097 107.972 241.097 106.021C241.097 104.071 239.51 102.484 237.56 102.484ZM237.56 107.744C236.61 107.744 235.837 106.971 235.837 106.021C235.837 105.071 236.61 104.298 237.56 104.298C238.51 104.298 239.283 105.071 239.283 106.021C239.283 106.971 238.51 107.744 237.56 107.744Z" fill="#E4E4E4"/>
<path d="M242.756 109.031C242.404 108.81 241.946 108.859 241.646 109.147L233.907 116.614L235.167 117.919L242.396 110.944L245.665 112.987L246.626 111.449L242.756 109.031Z" fill="#E4E4E4"/>
<path d="M249.99 108.222C249.625 107.891 249.063 107.911 248.723 108.267L240.682 116.701L241.995 117.953L249.425 110.16L254.453 114.733L255.673 113.392L249.99 108.222Z" fill="#E4E4E4"/>
</g>
<g opacity="0.7">
<path d="M358.464 149.001L354.542 152.931L341.99 157.72L339 173.999L355.284 171.064L360.062 158.471L364 154.525L358.464 149.001ZM353.85 169.338L343.099 171.276L348.756 165.583C349.127 165.758 349.541 165.856 349.978 165.856C351.566 165.856 352.858 164.564 352.858 162.976C352.858 161.388 351.566 160.096 349.978 160.096C348.39 160.096 347.098 161.388 347.098 162.976C347.098 163.415 347.197 163.831 347.374 164.204L341.744 169.87L343.712 159.153L354.831 154.911L358.091 158.162L353.85 169.338ZM349.051 162.976C349.051 162.465 349.467 162.049 349.978 162.049C350.49 162.049 350.906 162.465 350.906 162.976C350.906 163.488 350.49 163.904 349.978 163.904C349.467 163.904 349.051 163.488 349.051 162.976ZM359.252 156.518L356.483 153.75L358.467 151.762L361.238 154.528L359.252 156.518Z" fill="#E4E4E4"/>
</g>
</g>
<defs>
<clipPath id="clip0">
<rect width="1440" height="249" fill="white"/>
</clipPath>
<clipPath id="clip1">
<rect width="25" height="25" fill="white" transform="translate(313.714 36)"/>
</clipPath>
<clipPath id="clip2">
<rect width="25" height="25" fill="white" transform="translate(1237 28)"/>
</clipPath>
<clipPath id="clip3">
<rect width="25" height="25" fill="white" transform="translate(711.143 38)"/>
</clipPath>
<clipPath id="clip4">
<rect width="25" height="25" fill="white" transform="translate(1378.29 22)"/>
</clipPath>
<clipPath id="clip5">
<rect width="25" height="25" fill="white" transform="translate(69 78.8999)"/>
</clipPath>
<clipPath id="clip6">
<rect width="25" height="25" fill="white" transform="translate(504.429 118.9)"/>
</clipPath>
<clipPath id="clip7">
<rect width="25" height="25" fill="white" transform="translate(780.143 77.8999)"/>
</clipPath>
<clipPath id="clip8">
<rect width="25" height="25" fill="white" transform="translate(828.857 88.8999)"/>
</clipPath>
<clipPath id="clip9">
<rect width="25" height="25" fill="white" transform="translate(1151.57 118.9)"/>
</clipPath>
<clipPath id="clip10">
<rect width="25" height="25" fill="white" transform="translate(604.429 142.8)"/>
</clipPath>
<clipPath id="clip11">
<rect width="25" height="25" fill="white" transform="translate(618.143 207.8)"/>
</clipPath>
<clipPath id="clip12">
<rect width="25" height="25" fill="white" transform="translate(967.857 146.8)"/>
</clipPath>
<clipPath id="clip13">
<rect width="25" height="25" fill="white" transform="translate(132 30)"/>
</clipPath>
<clipPath id="clip14">
<rect width="25" height="25" fill="white" transform="translate(1104.57 199.8)"/>
</clipPath>
<clipPath id="clip15">
<rect width="25" height="25" fill="white" transform="translate(1253.29 172.8)"/>
</clipPath>
<clipPath id="clip16">
<rect width="25" height="25" fill="white" transform="translate(79 220.7)"/>
</clipPath>
<clipPath id="clip17">
<rect width="25" height="25" fill="white" transform="translate(643.143 212.7)"/>
</clipPath>
<clipPath id="clip18">
<rect width="25" height="25" fill="white" transform="translate(971.857 231.7)"/>
</clipPath>
<clipPath id="clip19">
<rect width="25" height="25" fill="white" transform="translate(1415.29 234.7)"/>
</clipPath>
</defs>
</svg>
