<svg width="23" height="23" viewBox="0 0 23 23" fill="none" xmlns="http://www.w3.org/2000/svg">
<path d="M22.0417 0H8.625C8.096 0 7.66667 0.429331 7.66667 0.958333V7.66667H0.958333C0.429331 7.66667 0 8.096 0 8.625V22.0417C0 22.5707 0.429331 23 0.958333 23H14.375C14.904 23 15.3333 22.5707 15.3333 22.0417V15.3333H22.0417C22.5707 15.3333 23 14.904 23 14.375V0.958333C23 0.429331 22.5707 0 22.0417 0ZM21.0833 13.4167H15.3333V11.5C15.3333 10.971 14.904 10.5417 14.375 10.5417C13.846 10.5417 13.4167 10.971 13.4167 11.5V13.4167H11.5C10.971 13.4167 10.5417 13.846 10.5417 14.375C10.5417 14.904 10.971 15.3333 11.5 15.3333H13.4167V21.0833H1.91667V9.58333H7.66667V11.5C7.66667 12.029 8.096 12.4583 8.625 12.4583C9.154 12.4583 9.58333 12.029 9.58333 11.5V9.58333H11.5C12.029 9.58333 12.4583 9.154 12.4583 8.625C12.4583 8.096 12.029 7.66667 11.5 7.66667H9.58333V1.91667H21.0833V13.4167Z" fill="#0C3E70"/>
</svg>
