<svg width="23" height="23" viewBox="0 0 23 23" fill="none" xmlns="http://www.w3.org/2000/svg">
<path d="M18.1882 16.1345C18.3635 16.3092 18.5929 16.3965 18.8223 16.3965C19.0528 16.3965 19.2833 16.3083 19.4588 16.1321L22.2105 13.3698C22.7196 12.8607 23 12.1839 23 11.4639C23 10.744 22.7196 10.0671 22.2086 9.55614L19.4556 6.81981C19.1037 6.47005 18.5348 6.47176 18.185 6.82367C17.8352 7.17559 17.837 7.74448 18.1889 8.09425L20.7115 10.6016H15.1387C14.6425 10.6016 14.2402 11.0038 14.2402 11.5C14.2402 11.9962 14.6425 12.3984 15.1387 12.3984H20.6419L18.1858 14.864C17.8356 15.2155 17.8367 15.7844 18.1882 16.1345Z" fill="#0C3E70"/>
<path d="M20.3047 0H2.69531C1.20912 0 0 1.20912 0 2.69531V5.12109C0 5.6173 0.402231 6.01953 0.898438 6.01953C1.39464 6.01953 1.79688 5.6173 1.79688 5.12109V2.69531C1.79688 2.19991 2.19991 1.79688 2.69531 1.79688H10.6016V21.2031H2.69531C2.19991 21.2031 1.79688 20.8001 1.79688 20.3047V17.7891C1.79688 17.2929 1.39464 16.8906 0.898438 16.8906C0.402231 16.8906 0 17.2929 0 17.7891V20.3047C0 21.7909 1.20912 23 2.69531 23H20.3047C21.7909 23 23 21.7909 23 20.3047V17.7891C23 17.2929 22.5978 16.8906 22.1016 16.8906C21.6054 16.8906 21.2031 17.2929 21.2031 17.7891V20.3047C21.2031 20.8001 20.8001 21.2031 20.3047 21.2031H12.3984V1.79688H20.3047C20.8001 1.79688 21.2031 2.19991 21.2031 2.69531V5.12109C21.2031 5.6173 21.6054 6.01953 22.1016 6.01953C22.5978 6.01953 23 5.6173 23 5.12109V2.69531C23 1.20912 21.7909 0 20.3047 0Z" fill="#0C3E70"/>
<path d="M4.85987 6.82368C4.51007 6.47171 3.94122 6.47001 3.5893 6.81981L0.834379 9.55807C0.325279 10.0672 0.0449219 10.744 0.0449219 11.4639C0.0449219 12.1839 0.325279 12.8607 0.833166 13.3686L3.58616 16.1321C3.76171 16.3083 3.99216 16.3965 4.22266 16.3965C4.45198 16.3965 4.6814 16.3092 4.85673 16.1345C5.20824 15.7844 5.20937 15.2155 4.85915 14.864L2.40301 12.3984H7.90625C8.40246 12.3984 8.80469 11.9962 8.80469 11.5C8.80469 11.0038 8.40246 10.6016 7.90625 10.6016H2.33342L4.85601 8.09425C5.20793 7.74444 5.20968 7.1756 4.85987 6.82368Z" fill="#0C3E70"/>
</svg>
