<svg width="16" height="16" viewBox="0 0 16 16" fill="none" xmlns="http://www.w3.org/2000/svg">
<g clip-path="url(#clip0)">
<path d="M0.191926 7.1956L6.19096 1.19656C6.61086 0.776662 7.32884 1.07405 7.32884 1.66789V4.33718C11.1467 4.49587 14.5142 7.09542 15.5814 10.795C15.9378 12.0299 16.0267 13.0462 15.9986 14.1401C15.9951 14.2685 15.9942 14.3055 15.9942 14.3325C15.9942 15.0098 15.1012 15.2554 14.7548 14.6734C14.0122 13.4257 13.1688 12.4616 12.2448 11.7489C10.5744 10.4606 8.83528 10.0875 7.32887 10.2382V13.666C7.32887 14.2598 6.61089 14.5572 6.19099 14.1373L0.191957 8.13826C-0.068376 7.87795 -0.0683762 7.4559 0.191926 7.1956ZM5.99574 12.0567V9.6666C5.99574 9.36125 6.20324 9.09495 6.49931 9.02027C6.58043 8.99981 6.71515 8.973 6.89794 8.94744C8.78607 8.68326 10.9796 9.08954 13.0589 10.6933C13.5705 11.0878 14.0576 11.5462 14.5177 12.0713L14.5075 12.018C14.4544 11.7443 14.3863 11.4617 14.3006 11.1645C13.3491 7.86636 10.2376 5.59014 6.79202 5.6644C6.73378 5.66544 6.71228 5.6659 6.68532 5.66684C6.30841 5.67984 5.99577 5.37783 5.99577 5.00067V3.2771L1.60595 7.66693L5.99574 12.0567Z" fill="black"/>
</g>
<defs>
<clipPath id="clip0">
<rect width="16" height="16" fill="white"/>
</clipPath>
</defs>
</svg>
