<svg width="28" height="32" viewBox="0 0 28 32" fill="none" xmlns="http://www.w3.org/2000/svg">
<g clip-path="url(#clip0)">
<path d="M6 0C4.9 0 4 0.9 4 2V30C4 31.1 4.9 32 6 32H26C27.1 32 28 31.1 28 30V8L20 0H6Z" fill="#E2E5E7"/>
<path d="M22 8H28L20 0V6C20 7.1 20.9 8 22 8Z" fill="#B0B7BD"/>
<path d="M28 14L22 8H28V14Z" fill="#CAD1D8"/>
<path d="M26 26C26 26.55 25.5125 27 24.9167 27H1.08333C0.4875 27 0 26.55 0 26V16C0 15.45 0.4875 15 1.08333 15H24.9167C25.5125 15 26 15.45 26 16V26Z" fill="#285192"/>
<path d="M26 26C26 26.55 25.5125 27 24.9167 27H1.08333C0.4875 27 0 26.55 0 26V16C0 15.45 0.4875 15 1.08333 15H24.9167C25.5125 15 26 15.45 26 16V26Z" fill="url(#paint0_linear)"/>
<path d="M24.9 27H4V28H24.9C25.505 28 26 27.55 26 27V26C26 26.55 25.505 27 24.9 27Z" fill="#CAD1D8"/>
<path d="M3.42375 24C3.30108 24 3.19442 23.9547 3.10375 23.864C3.01842 23.7733 2.97575 23.6667 2.97575 23.544V18.616C2.97575 18.4933 3.01842 18.3867 3.10375 18.296C3.19442 18.2053 3.30108 18.16 3.42375 18.16H3.63975C3.76242 18.16 3.86908 18.2053 3.95975 18.296C4.05042 18.3867 4.09575 18.4933 4.09575 18.616V20.432C4.09575 20.4747 4.11708 20.496 4.15975 20.496H6.15975C6.20242 20.496 6.22375 20.4747 6.22375 20.432V18.616C6.22375 18.4933 6.26908 18.3867 6.35975 18.296C6.45042 18.2053 6.55708 18.16 6.67975 18.16H6.89575C7.01842 18.16 7.12242 18.2053 7.20775 18.296C7.29842 18.3867 7.34375 18.4933 7.34375 18.616V23.544C7.34375 23.6667 7.29842 23.7733 7.20775 23.864C7.12242 23.9547 7.01842 24 6.89575 24H6.67975C6.55708 24 6.45042 23.9547 6.35975 23.864C6.26908 23.7733 6.22375 23.6667 6.22375 23.544V21.424C6.22375 21.376 6.20242 21.352 6.15975 21.352H4.15975C4.11708 21.352 4.09575 21.376 4.09575 21.424V23.544C4.09575 23.6667 4.05042 23.7733 3.95975 23.864C3.86908 23.9547 3.76242 24 3.63975 24H3.42375ZM8.86456 19.088C8.7419 19.088 8.63523 19.0453 8.54456 18.96C8.4539 18.8693 8.40856 18.7627 8.40856 18.64V18.616C8.40856 18.4933 8.4539 18.3867 8.54456 18.296C8.63523 18.2053 8.7419 18.16 8.86456 18.16H12.2726C12.3952 18.16 12.5019 18.2053 12.5926 18.296C12.6832 18.3867 12.7286 18.4933 12.7286 18.616V18.64C12.7286 18.7627 12.6832 18.8693 12.5926 18.96C12.5019 19.0453 12.3952 19.088 12.2726 19.088H11.2006C11.1579 19.088 11.1366 19.112 11.1366 19.16V23.544C11.1366 23.6667 11.0912 23.7733 11.0006 23.864C10.9099 23.9547 10.8032 24 10.6806 24H10.4566C10.3339 24 10.2272 23.9547 10.1366 23.864C10.0459 23.7733 10.0006 23.6667 10.0006 23.544V19.16C10.0006 19.112 9.97923 19.088 9.93656 19.088H8.86456ZM14.2521 24C14.1294 24 14.0227 23.9547 13.9321 23.864C13.8414 23.7733 13.7961 23.6667 13.7961 23.544V18.616C13.7961 18.4933 13.8414 18.3867 13.9321 18.296C14.0227 18.2053 14.1294 18.16 14.2521 18.16H14.4521C14.5907 18.16 14.7187 18.1973 14.8361 18.272C14.9534 18.3467 15.0387 18.4453 15.0921 18.568L16.4921 21.592C16.4921 21.5973 16.4947 21.6 16.5001 21.6C16.5054 21.6 16.5081 21.5973 16.5081 21.592L17.9081 18.568C17.9614 18.4453 18.0467 18.3467 18.1641 18.272C18.2814 18.1973 18.4094 18.16 18.5481 18.16H18.7801C18.9027 18.16 19.0094 18.2053 19.1001 18.296C19.1907 18.3867 19.2361 18.4933 19.2361 18.616V23.544C19.2361 23.6667 19.1907 23.7733 19.1001 23.864C19.0094 23.9547 18.9027 24 18.7801 24H18.6041C18.4814 24 18.3747 23.9547 18.2841 23.864C18.1934 23.7733 18.1481 23.6667 18.1481 23.544V20.064C18.1481 20.0587 18.1454 20.056 18.1401 20.056C18.1347 20.056 18.1321 20.0587 18.1321 20.064L17.1721 22.12C17.1134 22.2427 17.0227 22.344 16.9001 22.424C16.7827 22.4987 16.6574 22.536 16.5241 22.536H16.4761C16.3427 22.536 16.2147 22.4987 16.0921 22.424C15.9747 22.344 15.8867 22.2427 15.8281 22.12L14.8681 20.064C14.8681 20.0587 14.8654 20.056 14.8601 20.056C14.8547 20.056 14.8521 20.0587 14.8521 20.064V23.544C14.8521 23.6667 14.8067 23.7733 14.7161 23.864C14.6254 23.9547 14.5187 24 14.3961 24H14.2521ZM20.9472 24C20.8245 24 20.7179 23.9547 20.6272 23.864C20.5419 23.7733 20.4992 23.6667 20.4992 23.544V18.616C20.4992 18.4933 20.5419 18.3867 20.6272 18.296C20.7179 18.2053 20.8245 18.16 20.9472 18.16H21.2032C21.3259 18.16 21.4325 18.2053 21.5232 18.296C21.6139 18.3867 21.6592 18.4933 21.6592 18.616V23C21.6592 23.048 21.6805 23.072 21.7232 23.072H23.7792C23.9019 23.072 24.0059 23.1173 24.0912 23.208C24.1819 23.2933 24.2272 23.3973 24.2272 23.52V23.544C24.2272 23.6667 24.1819 23.7733 24.0912 23.864C24.0059 23.9547 23.9019 24 23.7792 24H20.9472Z" fill="white"/>
</g>
<defs>
<linearGradient id="paint0_linear" x1="0" y1="27" x2="26.6738" y2="16.7541" gradientUnits="userSpaceOnUse">
<stop stop-color="#4298E8"/>
<stop offset="1" stop-color="#8044DB"/>
</linearGradient>
<clipPath id="clip0">
<rect width="28" height="32" fill="white"/>
</clipPath>
</defs>
</svg>
