<svg width="28" height="32" viewBox="0 0 28 32" fill="none" xmlns="http://www.w3.org/2000/svg">
<g clip-path="url(#clip0)">
<path d="M6 0C4.9 0 4 0.9 4 2V30C4 31.1 4.9 32 6 32H26C27.1 32 28 31.1 28 30V8L20 0H6Z" fill="#E2E5E7"/>
<path d="M22 8H28L20 0V6C20 7.1 20.9 8 22 8Z" fill="#B0B7BD"/>
<path d="M28 14L22 8H28V14Z" fill="#CAD1D8"/>
<path d="M26 26C26 26.55 25.5125 27 24.9167 27H1.08333C0.4875 27 0 26.55 0 26V16C0 15.45 0.4875 15 1.08333 15H24.9167C25.5125 15 26 15.45 26 16V26Z" fill="#285192"/>
<path d="M26 26C26 26.55 25.5125 27 24.9167 27H1.08333C0.4875 27 0 26.55 0 26V16C0 15.45 0.4875 15 1.08333 15H24.9167C25.5125 15 26 15.45 26 16V26Z" fill="url(#paint0_linear)"/>
<path d="M24.9 27H4V28H24.9C25.505 28 26 27.55 26 27V26C26 26.55 25.505 27 24.9 27Z" fill="#CAD1D8"/>
<path d="M3.78213 23.96C3.65413 23.928 3.55013 23.8587 3.47013 23.752C3.39013 23.64 3.35013 23.5147 3.35013 23.376V23.288C3.35013 23.1813 3.39279 23.0987 3.47813 23.04C3.56879 22.9813 3.66479 22.968 3.76613 23C4.11813 23.1173 4.46479 23.176 4.80613 23.176C5.15279 23.176 5.40613 23.0693 5.56613 22.856C5.73146 22.6373 5.81413 22.272 5.81413 21.76V18.616C5.81413 18.4933 5.85946 18.3867 5.95013 18.296C6.04079 18.2053 6.14746 18.16 6.27013 18.16H6.52613C6.64879 18.16 6.75279 18.2053 6.83813 18.296C6.92879 18.3867 6.97413 18.4933 6.97413 18.616V21.976C6.97413 22.7227 6.80879 23.2613 6.47813 23.592C6.14746 23.9173 5.61946 24.08 4.89413 24.08C4.49413 24.08 4.12346 24.04 3.78213 23.96ZM9.25944 19.072V21C9.25944 21.0373 9.28077 21.0613 9.32344 21.072C9.5261 21.0987 9.72344 21.112 9.91544 21.112C10.3474 21.112 10.6754 21.0187 10.8994 20.832C11.1288 20.64 11.2434 20.368 11.2434 20.016C11.2434 19.3067 10.8008 18.952 9.91544 18.952C9.72344 18.952 9.5261 18.9653 9.32344 18.992C9.28077 19.0027 9.25944 19.0293 9.25944 19.072ZM8.60344 24C8.48077 24 8.3741 23.9547 8.28344 23.864C8.1981 23.7733 8.15544 23.6667 8.15544 23.544V18.656C8.15544 18.528 8.1981 18.4133 8.28344 18.312C8.36877 18.2107 8.47544 18.1547 8.60344 18.144C9.05677 18.1013 9.4941 18.08 9.91544 18.08C10.7154 18.08 11.3154 18.24 11.7154 18.56C12.1154 18.8747 12.3154 19.3333 12.3154 19.936C12.3154 20.6027 12.1208 21.1067 11.7314 21.448C11.3474 21.7893 10.7768 21.96 10.0194 21.96C9.84344 21.96 9.61144 21.9493 9.32344 21.928C9.28077 21.928 9.25944 21.9493 9.25944 21.992V23.544C9.25944 23.6667 9.2141 23.7733 9.12344 23.864C9.03277 23.9547 8.9261 24 8.80344 24H8.60344ZM13.6349 24C13.5122 24 13.4055 23.9547 13.3149 23.864C13.2242 23.7733 13.1789 23.6667 13.1789 23.544V18.616C13.1789 18.4933 13.2242 18.3867 13.3149 18.296C13.4055 18.2053 13.5122 18.16 13.6349 18.16H16.3549C16.4775 18.16 16.5842 18.2053 16.6749 18.296C16.7655 18.3867 16.8109 18.4933 16.8109 18.616C16.8109 18.7387 16.7655 18.8453 16.6749 18.936C16.5842 19.0213 16.4775 19.064 16.3549 19.064H14.3709C14.3229 19.064 14.2989 19.088 14.2989 19.136V20.424C14.2989 20.472 14.3229 20.496 14.3709 20.496H16.2189C16.3415 20.496 16.4429 20.5387 16.5229 20.624C16.6082 20.7093 16.6509 20.8107 16.6509 20.928C16.6509 21.0453 16.6082 21.1467 16.5229 21.232C16.4429 21.312 16.3415 21.352 16.2189 21.352H14.3709C14.3229 21.352 14.2989 21.376 14.2989 21.424V23.024C14.2989 23.072 14.3229 23.096 14.3709 23.096H16.3549C16.4775 23.096 16.5842 23.1413 16.6749 23.232C16.7655 23.3173 16.8109 23.4213 16.8109 23.544C16.8109 23.6667 16.7655 23.7733 16.6749 23.864C16.5842 23.9547 16.4775 24 16.3549 24H13.6349ZM20.4333 24.08C19.5746 24.08 18.8786 23.8133 18.3453 23.28C17.8173 22.7413 17.5533 22.008 17.5533 21.08C17.5533 20.1413 17.8173 19.408 18.3453 18.88C18.8733 18.3467 19.6039 18.08 20.5373 18.08C20.9213 18.08 21.2706 18.1067 21.5853 18.16C21.7133 18.1813 21.8199 18.2453 21.9053 18.352C21.9906 18.4533 22.0333 18.5707 22.0333 18.704V18.736C22.0333 18.848 21.9879 18.9387 21.8973 19.008C21.8066 19.0773 21.7053 19.0987 21.5933 19.072C21.2786 19.0027 20.9666 18.968 20.6573 18.968C20.0119 18.968 19.5213 19.1467 19.1853 19.504C18.8546 19.856 18.6893 20.3813 18.6893 21.08C18.6893 21.7573 18.8519 22.28 19.1773 22.648C19.5079 23.0107 19.9533 23.192 20.5133 23.192C20.7426 23.192 20.9693 23.16 21.1933 23.096C21.2359 23.0853 21.2573 23.056 21.2573 23.008V21.424C21.2573 21.376 21.2359 21.352 21.1933 21.352H20.1933C20.0759 21.352 19.9746 21.312 19.8893 21.232C19.8093 21.1467 19.7693 21.0453 19.7693 20.928C19.7693 20.8053 19.8093 20.704 19.8893 20.624C19.9746 20.5387 20.0759 20.496 20.1933 20.496H21.8733C21.9959 20.496 22.1026 20.5413 22.1933 20.632C22.2839 20.7227 22.3293 20.8293 22.3293 20.952V23.28C22.3293 23.4187 22.2893 23.544 22.2093 23.656C22.1293 23.768 22.0253 23.8427 21.8973 23.88C21.4439 24.0133 20.9559 24.08 20.4333 24.08Z" fill="white"/>
</g>
<defs>
<linearGradient id="paint0_linear" x1="0" y1="27" x2="26.6738" y2="16.7541" gradientUnits="userSpaceOnUse">
<stop stop-color="#4298E8"/>
<stop offset="1" stop-color="#8044DB"/>
</linearGradient>
<clipPath id="clip0">
<rect width="28" height="32" fill="white"/>
</clipPath>
</defs>
</svg>
