<svg width="28" height="32" viewBox="0 0 28 32" fill="none" xmlns="http://www.w3.org/2000/svg">
<g clip-path="url(#clip0)">
<path d="M6 0C4.9 0 4 0.9 4 2V30C4 31.1 4.9 32 6 32H26C27.1 32 28 31.1 28 30V8L20 0H6Z" fill="#E2E5E7"/>
<path d="M22 8H28L20 0V6C20 7.1 20.9 8 22 8Z" fill="#B0B7BD"/>
<path d="M28 14L22 8H28V14Z" fill="#CAD1D8"/>
<path d="M26 26C26 26.55 25.5125 27 24.9167 27H1.08333C0.4875 27 0 26.55 0 26V16C0 15.45 0.4875 15 1.08333 15H24.9167C25.5125 15 26 15.45 26 16V26Z" fill="#CB4A32"/>
<path d="M24.9 27H4V28H24.9C25.505 28 26 27.55 26 27V26C26 26.55 25.505 27 24.9 27Z" fill="#CAD1D8"/>
<path d="M7.17741 19.072V21C7.17741 21.0373 7.19874 21.0613 7.24141 21.072C7.44407 21.0987 7.64141 21.112 7.83341 21.112C8.26541 21.112 8.59341 21.0187 8.81741 20.832C9.04674 20.64 9.16141 20.368 9.16141 20.016C9.16141 19.3067 8.71874 18.952 7.83341 18.952C7.64141 18.952 7.44407 18.9653 7.24141 18.992C7.19874 19.0027 7.17741 19.0293 7.17741 19.072ZM6.52141 24C6.39874 24 6.29207 23.9547 6.20141 23.864C6.11607 23.7733 6.07341 23.6667 6.07341 23.544V18.656C6.07341 18.528 6.11607 18.4133 6.20141 18.312C6.28674 18.2107 6.39341 18.1547 6.52141 18.144C6.97474 18.1013 7.41207 18.08 7.83341 18.08C8.63341 18.08 9.23341 18.24 9.63341 18.56C10.0334 18.8747 10.2334 19.3333 10.2334 19.936C10.2334 20.6027 10.0387 21.1067 9.64941 21.448C9.26541 21.7893 8.69474 21.96 7.93741 21.96C7.76141 21.96 7.52941 21.9493 7.24141 21.928C7.19874 21.928 7.17741 21.9493 7.17741 21.992V23.544C7.17741 23.6667 7.13207 23.7733 7.04141 23.864C6.95074 23.9547 6.84407 24 6.72141 24H6.52141ZM12.2008 19.072V21C12.2008 21.0373 12.2222 21.0613 12.2648 21.072C12.4675 21.0987 12.6648 21.112 12.8568 21.112C13.2888 21.112 13.6168 21.0187 13.8408 20.832C14.0702 20.64 14.1848 20.368 14.1848 20.016C14.1848 19.3067 13.7422 18.952 12.8568 18.952C12.6648 18.952 12.4675 18.9653 12.2648 18.992C12.2222 19.0027 12.2008 19.0293 12.2008 19.072ZM11.5448 24C11.4222 24 11.3155 23.9547 11.2248 23.864C11.1395 23.7733 11.0968 23.6667 11.0968 23.544V18.656C11.0968 18.528 11.1395 18.4133 11.2248 18.312C11.3102 18.2107 11.4168 18.1547 11.5448 18.144C11.9982 18.1013 12.4355 18.08 12.8568 18.08C13.6568 18.08 14.2568 18.24 14.6568 18.56C15.0568 18.8747 15.2568 19.3333 15.2568 19.936C15.2568 20.6027 15.0622 21.1067 14.6728 21.448C14.2888 21.7893 13.7182 21.96 12.9608 21.96C12.7848 21.96 12.5528 21.9493 12.2648 21.928C12.2222 21.928 12.2008 21.9493 12.2008 21.992V23.544C12.2008 23.6667 12.1555 23.7733 12.0648 23.864C11.9742 23.9547 11.8675 24 11.7448 24H11.5448ZM16.2591 19.088C16.1364 19.088 16.0298 19.0453 15.9391 18.96C15.8484 18.8693 15.8031 18.7627 15.8031 18.64V18.616C15.8031 18.4933 15.8484 18.3867 15.9391 18.296C16.0298 18.2053 16.1364 18.16 16.2591 18.16H19.6671C19.7898 18.16 19.8964 18.2053 19.9871 18.296C20.0778 18.3867 20.1231 18.4933 20.1231 18.616V18.64C20.1231 18.7627 20.0778 18.8693 19.9871 18.96C19.8964 19.0453 19.7898 19.088 19.6671 19.088H18.5951C18.5524 19.088 18.5311 19.112 18.5311 19.16V23.544C18.5311 23.6667 18.4858 23.7733 18.3951 23.864C18.3044 23.9547 18.1978 24 18.0751 24H17.8511C17.7284 24 17.6218 23.9547 17.5311 23.864C17.4404 23.7733 17.3951 23.6667 17.3951 23.544V19.16C17.3951 19.112 17.3738 19.088 17.3311 19.088H16.2591Z" fill="white"/>
</g>
<defs>
<clipPath id="clip0">
<rect width="28" height="32" fill="white"/>
</clipPath>
</defs>
</svg>
