<svg width="28" height="32" viewBox="0 0 28 32" fill="none" xmlns="http://www.w3.org/2000/svg">
<g clip-path="url(#clip0)">
<path d="M6 0C4.9 0 4 0.9 4 2V30C4 31.1 4.9 32 6 32H26C27.1 32 28 31.1 28 30V8L20 0H6Z" fill="#E2E5E7"/>
<path d="M22 8H28L20 0V6C20 7.1 20.9 8 22 8Z" fill="#B0B7BD"/>
<path d="M28 14L22 8H28V14Z" fill="#CAD1D8"/>
<path d="M26 26C26 26.55 25.5125 27 24.9167 27H1.08333C0.4875 27 0 26.55 0 26V16C0 15.45 0.4875 15 1.08333 15H24.9167C25.5125 15 26 15.45 26 16V26Z" fill="#285192"/>
<path d="M26 26C26 26.55 25.5125 27 24.9167 27H1.08333C0.4875 27 0 26.55 0 26V16C0 15.45 0.4875 15 1.08333 15H24.9167C25.5125 15 26 15.45 26 16V26Z" fill="url(#paint0_linear)"/>
<path d="M24.9 27H4V28H24.9C25.505 28 26 27.55 26 27V26C26 26.55 25.505 27 24.9 27Z" fill="#CAD1D8"/>
<path d="M6.32941 19.088C6.20674 19.088 6.10007 19.0453 6.00941 18.96C5.91874 18.8693 5.87341 18.7627 5.87341 18.64V18.616C5.87341 18.4933 5.91874 18.3867 6.00941 18.296C6.10007 18.2053 6.20674 18.16 6.32941 18.16H9.73741C9.86007 18.16 9.96674 18.2053 10.0574 18.296C10.1481 18.3867 10.1934 18.4933 10.1934 18.616V18.64C10.1934 18.7627 10.1481 18.8693 10.0574 18.96C9.96674 19.0453 9.86007 19.088 9.73741 19.088H8.66541C8.62274 19.088 8.60141 19.112 8.60141 19.16V23.544C8.60141 23.6667 8.55607 23.7733 8.46541 23.864C8.37474 23.9547 8.26807 24 8.14541 24H7.92141C7.79874 24 7.69207 23.9547 7.60141 23.864C7.51074 23.7733 7.46541 23.6667 7.46541 23.544V19.16C7.46541 19.112 7.44407 19.088 7.40141 19.088H6.32941ZM11.2087 24C11.1073 24 11.03 23.9573 10.9767 23.872C10.9233 23.7813 10.9207 23.6907 10.9687 23.6L12.3047 21.104C12.326 21.072 12.326 21.032 12.3047 20.984L11.0087 18.56C10.9607 18.4693 10.9633 18.3813 11.0167 18.296C11.07 18.2053 11.1473 18.16 11.2487 18.16H11.5927C11.7313 18.16 11.8593 18.1973 11.9767 18.272C12.094 18.3467 12.182 18.4453 12.2407 18.568L13.0807 20.336C13.0807 20.3413 13.0833 20.344 13.0887 20.344C13.094 20.344 13.0967 20.3413 13.0967 20.336L13.9367 18.568C13.9953 18.4453 14.0833 18.3467 14.2007 18.272C14.318 18.1973 14.446 18.16 14.5847 18.16H14.8967C15.0033 18.16 15.0807 18.2053 15.1287 18.296C15.182 18.3813 15.1847 18.4693 15.1367 18.56L13.8407 20.984C13.8247 21.0213 13.8247 21.0613 13.8407 21.104L15.1767 23.6C15.2247 23.6907 15.222 23.7813 15.1687 23.872C15.1207 23.9573 15.0433 24 14.9367 24H14.5687C14.43 24 14.2993 23.9627 14.1767 23.888C14.0593 23.8133 13.974 23.7147 13.9207 23.592L13.0647 21.744C13.0647 21.7387 13.062 21.736 13.0567 21.736C13.0513 21.736 13.0487 21.7387 13.0487 21.744L12.1927 23.592C12.1393 23.7147 12.0513 23.8133 11.9287 23.888C11.8113 23.9627 11.6833 24 11.5447 24H11.2087ZM16.2591 19.088C16.1364 19.088 16.0298 19.0453 15.9391 18.96C15.8484 18.8693 15.8031 18.7627 15.8031 18.64V18.616C15.8031 18.4933 15.8484 18.3867 15.9391 18.296C16.0298 18.2053 16.1364 18.16 16.2591 18.16H19.6671C19.7898 18.16 19.8964 18.2053 19.9871 18.296C20.0778 18.3867 20.1231 18.4933 20.1231 18.616V18.64C20.1231 18.7627 20.0778 18.8693 19.9871 18.96C19.8964 19.0453 19.7898 19.088 19.6671 19.088H18.5951C18.5524 19.088 18.5311 19.112 18.5311 19.16V23.544C18.5311 23.6667 18.4858 23.7733 18.3951 23.864C18.3044 23.9547 18.1978 24 18.0751 24H17.8511C17.7284 24 17.6218 23.9547 17.5311 23.864C17.4404 23.7733 17.3951 23.6667 17.3951 23.544V19.16C17.3951 19.112 17.3738 19.088 17.3311 19.088H16.2591Z" fill="white"/>
</g>
<defs>
<linearGradient id="paint0_linear" x1="0" y1="27" x2="26.6738" y2="16.7541" gradientUnits="userSpaceOnUse">
<stop stop-color="#4298E8"/>
<stop offset="1" stop-color="#8044DB"/>
</linearGradient>
<clipPath id="clip0">
<rect width="28" height="32" fill="white"/>
</clipPath>
</defs>
</svg>
