<svg width="28" height="32" viewBox="0 0 28 32" fill="none" xmlns="http://www.w3.org/2000/svg">
<g clip-path="url(#clip0)">
<path d="M6 0C4.9 0 4 0.9 4 2V30C4 31.1 4.9 32 6 32H26C27.1 32 28 31.1 28 30V8L20 0H6Z" fill="#E2E5E7"/>
<path d="M22 8H28L20 0V6C20 7.1 20.9 8 22 8Z" fill="#B0B7BD"/>
<path d="M28 14L22 8H28V14Z" fill="#CAD1D8"/>
<path d="M26 26C26 26.55 25.5125 27 24.9167 27H1.08333C0.4875 27 0 26.55 0 26V16C0 15.45 0.4875 15 1.08333 15H24.9167C25.5125 15 26 15.45 26 16V26Z" fill="#207245"/>
<path d="M24.9 27H4V28H24.9C25.505 28 26 27.55 26 27V26C26 26.55 25.505 27 24.9 27Z" fill="#CAD1D8"/>
<path d="M6.12385 23C6.04718 23 5.98051 22.9717 5.92385 22.915C5.86718 22.8583 5.83885 22.7917 5.83885 22.715V19.635C5.83885 19.5583 5.86718 19.4917 5.92385 19.435C5.98051 19.3783 6.04718 19.35 6.12385 19.35H7.82385C7.90051 19.35 7.96718 19.3783 8.02385 19.435C8.08051 19.4917 8.10885 19.5583 8.10885 19.635C8.10885 19.7117 8.08051 19.7783 8.02385 19.835C7.96718 19.8883 7.90051 19.915 7.82385 19.915H6.58385C6.55385 19.915 6.53885 19.93 6.53885 19.96V20.765C6.53885 20.795 6.55385 20.81 6.58385 20.81H7.73885C7.81551 20.81 7.87885 20.8367 7.92885 20.89C7.98218 20.9433 8.00885 21.0067 8.00885 21.08C8.00885 21.1533 7.98218 21.2167 7.92885 21.27C7.87885 21.32 7.81551 21.345 7.73885 21.345H6.58385C6.55385 21.345 6.53885 21.36 6.53885 21.39V22.39C6.53885 22.42 6.55385 22.435 6.58385 22.435H7.82385C7.90051 22.435 7.96718 22.4633 8.02385 22.52C8.08051 22.5733 8.10885 22.6383 8.10885 22.715C8.10885 22.7917 8.08051 22.8583 8.02385 22.915C7.96718 22.9717 7.90051 23 7.82385 23H6.12385ZM8.91166 23C8.84833 23 8.79999 22.9733 8.76666 22.92C8.73333 22.8633 8.73166 22.8067 8.76166 22.75L9.59666 21.19C9.60999 21.17 9.60999 21.145 9.59666 21.115L8.78666 19.6C8.75666 19.5433 8.75833 19.4883 8.79166 19.435C8.82499 19.3783 8.87333 19.35 8.93666 19.35H9.15166C9.23833 19.35 9.31833 19.3733 9.39166 19.42C9.46499 19.4667 9.51999 19.5283 9.55666 19.605L10.0817 20.71C10.0817 20.7133 10.0833 20.715 10.0867 20.715C10.09 20.715 10.0917 20.7133 10.0917 20.71L10.6167 19.605C10.6533 19.5283 10.7083 19.4667 10.7817 19.42C10.855 19.3733 10.935 19.35 11.0217 19.35H11.2167C11.2833 19.35 11.3317 19.3783 11.3617 19.435C11.395 19.4883 11.3967 19.5433 11.3667 19.6L10.5567 21.115C10.5467 21.1383 10.5467 21.1633 10.5567 21.19L11.3917 22.75C11.4217 22.8067 11.42 22.8633 11.3867 22.92C11.3567 22.9733 11.3083 23 11.2417 23H11.0117C10.925 23 10.8433 22.9767 10.7667 22.93C10.6933 22.8833 10.64 22.8217 10.6067 22.745L10.0717 21.59C10.0717 21.5867 10.07 21.585 10.0667 21.585C10.0633 21.585 10.0617 21.5867 10.0617 21.59L9.52666 22.745C9.49333 22.8217 9.43833 22.8833 9.36166 22.93C9.28833 22.9767 9.20833 23 9.12166 23H8.91166ZM13.2712 23.05C12.7446 23.05 12.3262 22.8883 12.0162 22.565C11.7096 22.2383 11.5562 21.775 11.5562 21.175C11.5562 20.5817 11.7046 20.1217 12.0012 19.795C12.3012 19.465 12.7196 19.3 13.2562 19.3C13.5029 19.3 13.7096 19.315 13.8762 19.345C13.9562 19.3583 14.0229 19.3983 14.0762 19.465C14.1296 19.5317 14.1562 19.6067 14.1562 19.69V19.73C14.1562 19.8 14.1262 19.855 14.0662 19.895C14.0096 19.935 13.9479 19.9467 13.8812 19.93C13.7179 19.8867 13.5346 19.865 13.3312 19.865C13.0012 19.865 12.7412 19.9783 12.5512 20.205C12.3646 20.4317 12.2712 20.755 12.2712 21.175C12.2712 21.5917 12.3679 21.915 12.5612 22.145C12.7579 22.3717 13.0196 22.485 13.3462 22.485C13.5662 22.485 13.7546 22.465 13.9112 22.425C13.9779 22.4083 14.0396 22.42 14.0962 22.46C14.1562 22.5 14.1862 22.555 14.1862 22.625V22.66C14.1862 22.7433 14.1596 22.8183 14.1062 22.885C14.0562 22.9483 13.9896 22.9867 13.9062 23C13.7162 23.0333 13.5046 23.05 13.2712 23.05ZM15.2352 23C15.1585 23 15.0918 22.9717 15.0352 22.915C14.9785 22.8583 14.9502 22.7917 14.9502 22.715V19.635C14.9502 19.5583 14.9785 19.4917 15.0352 19.435C15.0918 19.3783 15.1585 19.35 15.2352 19.35H16.9352C17.0118 19.35 17.0785 19.3783 17.1352 19.435C17.1918 19.4917 17.2202 19.5583 17.2202 19.635C17.2202 19.7117 17.1918 19.7783 17.1352 19.835C17.0785 19.8883 17.0118 19.915 16.9352 19.915H15.6952C15.6652 19.915 15.6502 19.93 15.6502 19.96V20.765C15.6502 20.795 15.6652 20.81 15.6952 20.81H16.8502C16.9268 20.81 16.9902 20.8367 17.0402 20.89C17.0935 20.9433 17.1202 21.0067 17.1202 21.08C17.1202 21.1533 17.0935 21.2167 17.0402 21.27C16.9902 21.32 16.9268 21.345 16.8502 21.345H15.6952C15.6652 21.345 15.6502 21.36 15.6502 21.39V22.39C15.6502 22.42 15.6652 22.435 15.6952 22.435H16.9352C17.0118 22.435 17.0785 22.4633 17.1352 22.52C17.1918 22.5733 17.2202 22.6383 17.2202 22.715C17.2202 22.7917 17.1918 22.8583 17.1352 22.915C17.0785 22.9717 17.0118 23 16.9352 23H15.2352ZM18.238 23C18.1613 23 18.0947 22.9717 18.038 22.915C17.9847 22.8583 17.958 22.7917 17.958 22.715V19.635C17.958 19.5583 17.9847 19.4917 18.038 19.435C18.0947 19.3783 18.1613 19.35 18.238 19.35H18.398C18.4747 19.35 18.5413 19.3783 18.598 19.435C18.6547 19.4917 18.683 19.5583 18.683 19.635V22.375C18.683 22.405 18.6963 22.42 18.723 22.42H20.008C20.0847 22.42 20.1497 22.4483 20.203 22.505C20.2597 22.5583 20.288 22.6233 20.288 22.7V22.715C20.288 22.7917 20.2597 22.8583 20.203 22.915C20.1497 22.9717 20.0847 23 20.008 23H18.238Z" fill="white"/>
</g>
<defs>
<clipPath id="clip0">
<rect width="28" height="32" fill="white"/>
</clipPath>
</defs>
</svg>
