<svg width="22" height="22" viewBox="0 0 22 22" fill="none" xmlns="http://www.w3.org/2000/svg">
<g clip-path="url(#clip0)">
<path d="M2.9385 8.08706C1.07859 11.3146 2.26097 16.2125 4.31772 19.1823C5.34436 20.667 6.38377 21.9998 7.80742 21.9998C7.83425 21.9998 7.86116 21.9993 7.88871 21.9982C8.55758 21.9715 9.04094 21.7656 9.50827 21.5666C10.033 21.343 10.5756 21.1118 11.4267 21.1118C12.2365 21.1118 12.7532 21.3355 13.253 21.5517C13.7455 21.7648 14.2528 21.9852 15.0024 21.9711C16.606 21.9413 17.5906 20.5031 18.4592 19.2344C19.3657 17.9097 19.8204 16.6236 19.9739 16.1321L19.9801 16.1125C20.0093 16.0252 19.968 15.9298 19.8843 15.8914C19.882 15.8903 19.8734 15.8867 19.8711 15.8857C19.5887 15.7702 17.1115 14.6713 17.0855 11.6762C17.0613 9.24274 18.9438 7.95412 19.3214 7.72056L19.339 7.70959C19.3799 7.68327 19.4083 7.6415 19.418 7.59375C19.4277 7.54607 19.4176 7.49645 19.3902 7.45634C18.0908 5.55482 16.0993 5.26824 15.2974 5.23376C15.1811 5.22215 15.061 5.21631 14.9404 5.21631C13.9987 5.21631 13.0965 5.57199 12.3717 5.85777C11.8714 6.05505 11.4393 6.22542 11.1413 6.22542C10.8063 6.22542 10.3718 6.05296 9.8685 5.8533C9.19551 5.5862 8.43273 5.28353 7.62522 5.28353C7.60596 5.28353 7.58699 5.28375 7.56831 5.28411C5.69073 5.31174 3.91659 6.38592 2.9385 8.08706Z" fill="#333333"/>
<path d="M15.2991 0.000138595C14.1621 0.0464468 12.7982 0.746335 11.9829 1.70121C11.2901 2.50381 10.6133 3.84199 10.7916 5.19084C10.8028 5.27523 10.8715 5.34037 10.9564 5.34693C11.0331 5.35292 11.1114 5.35595 11.1895 5.35602C12.3012 5.35602 13.5006 4.74096 14.3196 3.7506C15.1816 2.70484 15.6175 1.36277 15.4857 0.16063C15.4753 0.0664271 15.3924 -0.00354009 15.2991 0.000138595Z" fill="#333333"/>
</g>
<defs>
<clipPath id="clip0">
<rect width="22" height="22" fill="white"/>
</clipPath>
</defs>
</svg>
