<svg width="18" height="18" viewBox="0 0 18 18" fill="none" xmlns="http://www.w3.org/2000/svg">
<g clip-path="url(#clip0)">
<path d="M15.4285 0C15.0735 0 14.7857 0.287816 14.7857 0.642869V2.9912C11.476 -0.213047 6.19542 -0.127542 2.99117 3.1821C1.48109 4.74187 0.638657 6.82898 0.642838 8.99998C0.642838 9.35503 0.930654 9.64285 1.28571 9.64285C1.64076 9.64285 1.92854 9.35503 1.92854 8.99998C1.92933 5.09455 5.09591 1.92917 9.00138 1.92996C10.9848 1.93034 12.8769 2.76373 14.2161 4.22677L11.3683 5.17625C11.031 5.28846 10.8485 5.65282 10.9607 5.99009C11.0729 6.32737 11.4373 6.50987 11.7746 6.39765L15.6317 5.11195C15.895 5.02426 16.0723 4.77747 16.0714 4.49997V0.642832C16.0714 0.287816 15.7836 0 15.4285 0Z" fill="#E0EDED"/>
<path d="M16.7143 8.35693C16.3592 8.35693 16.0714 8.64475 16.0714 8.9998C16.0706 12.9052 12.9041 16.0706 8.99859 16.0698C7.01513 16.0694 5.12306 15.236 3.78384 13.773L6.63168 12.8235C6.96895 12.7113 7.15145 12.347 7.03924 12.0097C6.92703 11.6724 6.56267 11.4899 6.2254 11.6021L2.36826 12.8878C2.10497 12.9755 1.92766 13.2223 1.92853 13.4998V17.3569C1.92853 17.712 2.21635 17.9998 2.5714 17.9998C2.92645 17.9998 3.21427 17.712 3.21427 17.3569V15.0086C6.52395 18.2128 11.8045 18.1273 15.0088 14.8177C16.5188 13.2579 17.3613 11.1708 17.3571 8.9998C17.3572 8.64475 17.0693 8.35693 16.7143 8.35693Z" fill="#E0EDED"/>
</g>
<defs>
<clipPath id="clip0">
<rect width="18" height="18" fill="white"/>
</clipPath>
</defs>
</svg>
