<svg width="20" height="20" viewBox="0 0 20 20" fill="none" xmlns="http://www.w3.org/2000/svg">
<g clip-path="url(#clip0)">
<path d="M11.51 0.508331C11.4112 0.428018 11.281 0.397315 11.1567 0.42501L0.323378 2.92501C0.132714 2.96884 -0.00181737 3.13939 1.85627e-05 3.33501V17.5017C9.66877e-05 17.7073 0.150136 17.8821 0.353339 17.9134L11.1867 19.58C11.4141 19.615 11.6269 19.459 11.6618 19.2316C11.665 19.2107 11.6667 19.1895 11.6667 19.1684V0.83501C11.667 0.70794 11.6094 0.587667 11.51 0.508331Z" fill="#1565C0"/>
<path d="M19.5834 17.9183H11.2501C11.0199 17.9183 10.8334 17.7317 10.8334 17.5016C10.8334 17.2715 11.0199 17.0849 11.2501 17.0849H19.1667V2.91828H11.2501C11.0199 2.91828 10.8334 2.73172 10.8334 2.5016C10.8334 2.27148 11.0199 2.08496 11.2501 2.08496H19.5834C19.8135 2.08496 20 2.27152 20 2.50164V17.5016C20 17.7318 19.8135 17.9183 19.5834 17.9183Z" fill="#1565C0"/>
<path d="M7.08336 13.7518C6.89769 13.7516 6.73461 13.6286 6.68336 13.4501L5.41668 9.01845L4.15 13.4501C4.05851 13.6713 3.80508 13.7764 3.58391 13.6849C3.47758 13.6409 3.39312 13.5565 3.34914 13.4501L1.6825 7.61681C1.61273 7.39751 1.73398 7.16321 1.95328 7.09345C2.17258 7.02368 2.40687 7.14493 2.47664 7.36423C2.4791 7.37196 2.48133 7.37978 2.48336 7.38763L3.75 11.8184L5.01668 7.38681C5.10816 7.16568 5.3616 7.06056 5.58277 7.15204C5.6891 7.19603 5.77355 7.28048 5.81754 7.38681L7.08336 11.8185L8.35004 7.38767C8.41 7.16837 8.63641 7.03919 8.8557 7.09915C8.85883 7.10001 8.86191 7.10091 8.86504 7.10181C9.08613 7.16517 9.21406 7.39568 9.15086 7.61681L7.48418 13.4501C7.43285 13.6289 7.2693 13.752 7.08336 13.7518Z" fill="#FAFAFA"/>
<path d="M17.9167 5.41832H11.25C11.0199 5.41832 10.8333 5.23175 10.8333 5.00164C10.8333 4.77152 11.0199 4.58496 11.25 4.58496H17.9167C18.1468 4.58496 18.3334 4.77152 18.3334 5.00164C18.3334 5.23179 18.1468 5.41832 17.9167 5.41832Z" fill="#1565C0"/>
<path d="M17.9167 7.91832H11.25C11.0199 7.91832 10.8333 7.73176 10.8333 7.50164C10.8333 7.27152 11.0199 7.08496 11.25 7.08496H17.9167C18.1468 7.08496 18.3334 7.27152 18.3334 7.50164C18.3334 7.73176 18.1468 7.91832 17.9167 7.91832Z" fill="#1565C0"/>
<path d="M17.9167 10.4183H11.25C11.0199 10.4183 10.8333 10.2318 10.8333 10.0016C10.8333 9.77152 11.0199 9.58496 11.25 9.58496H17.9167C18.1468 9.58496 18.3334 9.77152 18.3334 10.0016C18.3334 10.2318 18.1468 10.4183 17.9167 10.4183Z" fill="#1565C0"/>
<path d="M17.9167 12.9183H11.25C11.0199 12.9183 10.8333 12.7318 10.8333 12.5016C10.8333 12.2715 11.0199 12.085 11.25 12.085H17.9167C18.1468 12.085 18.3334 12.2715 18.3334 12.5016C18.3334 12.7318 18.1468 12.9183 17.9167 12.9183Z" fill="#1565C0"/>
<path d="M17.9167 15.4183H11.25C11.0199 15.4183 10.8333 15.2318 10.8333 15.0016C10.8333 14.7715 11.0199 14.585 11.25 14.585H17.9167C18.1468 14.585 18.3334 14.7715 18.3334 15.0016C18.3334 15.2318 18.1468 15.4183 17.9167 15.4183Z" fill="#1565C0"/>
</g>
<defs>
<clipPath id="clip0">
<rect width="20" height="20" fill="white"/>
</clipPath>
</defs>
</svg>
