<svg width="16" height="16" viewBox="0 0 16 16" fill="none" xmlns="http://www.w3.org/2000/svg">
<g clip-path="url(#clip0)">
<path d="M13.2326 1.88398H11.0963V0.495768C11.0963 0.216339 10.871 0 10.5915 0C10.5644 0 10.5464 0.00905115 10.5375 0.0180816C10.5285 0.00905115 10.5104 0 10.5014 0H5.48052H5.44456H5.4084C5.12899 0 4.91265 0.216339 4.91265 0.495768V1.884H2.76732C2.15426 1.884 1.67657 2.36169 1.67657 2.97475V3.76801V4.75952H2.62308V14.9183C2.62308 15.5314 3.09174 16 3.7048 16H12.2952C12.9082 16 13.3859 15.5314 13.3859 14.9183V4.75952H14.3234V3.76801V2.97475C14.3234 2.36169 13.8455 1.88398 13.2326 1.88398ZM5.90417 0.991515H10.0958V1.88398H5.90417V0.991515V0.991515ZM12.3854 14.9183C12.3854 14.9816 12.3583 15.0085 12.2952 15.0085H3.7048C3.64173 15.0085 3.61462 14.9816 3.61462 14.9183V4.7595H12.3854V14.9183V14.9183ZM13.3228 3.76799H2.67712V2.97473C2.67712 2.91164 2.70423 2.8755 2.7673 2.8755H13.2326C13.2957 2.8755 13.3228 2.91164 13.3228 2.97473V3.76799Z" fill="#E0EDED"/>
<path d="M10.8169 5.92236H9.81635V14.125H10.8169V5.92236Z" fill="#E0EDED"/>
<path d="M8.50933 5.92236H7.50879V14.125H8.50933V5.92236Z" fill="#E0EDED"/>
<path d="M6.20165 5.92236H5.20111V14.125H6.20165V5.92236Z" fill="#E0EDED"/>
</g>
<defs>
<clipPath id="clip0">
<rect width="16" height="16" fill="white"/>
</clipPath>
</defs>
</svg>
