<svg width="18" height="18" viewBox="0 0 18 18" fill="none" xmlns="http://www.w3.org/2000/svg">
<path d="M9.52734 2.10938H10.582V3.16406H9.52734V4.21875H10.582V5.27344H9.52734V6.32812H10.582V7.38281H9.52734V8.4375H10.582V11.0275L10.9679 13.1885C11.0723 13.7726 10.9137 14.3685 10.5327 14.8233C10.1519 15.2781 9.59326 15.5391 9 15.5391C8.40674 15.5391 7.84808 15.2781 7.46727 14.8233C7.08632 14.3685 6.9277 13.7726 7.03207 13.1885L7.41797 11.0275V8.4375H8.47266V7.38281H7.41797V6.32812H8.47266V5.27344H7.41797V4.21875H8.47266V3.16406H7.41797V2.10938H8.47266V0H5.94141V18H12.0586V0H9.52734V2.10938Z" fill="#333333"/>
<path d="M8.47266 9.49219H9.52734V10.5469H8.47266V9.49219Z" fill="#333333"/>
<path d="M8.07031 13.3739C8.02115 13.6498 8.09599 13.9314 8.27589 14.1463C8.45579 14.3611 8.71974 14.4844 9.00003 14.4844C9.28031 14.4844 9.54426 14.3611 9.72416 14.1463C9.90406 13.9314 9.97904 13.6498 9.92974 13.3739L9.6132 11.6016H8.38685L8.07031 13.3739Z" fill="#333333"/>
<path d="M0 0H4.88672V18H0V0Z" fill="#333333"/>
<path d="M13.1133 0H18V18H13.1133V0Z" fill="#333333"/>
</svg>
