<svg width="20" height="20" viewBox="0 0 20 20" fill="none" xmlns="http://www.w3.org/2000/svg">
<g clip-path="url(#clip0)">
<path d="M18.5023 3.73947V19.3141C18.5023 19.6925 18.1946 20 17.816 20H2.24884C1.87027 20 1.5625 19.6925 1.5625 19.3141V0.68634C1.5625 0.30777 1.87027 0 2.24884 0H14.7496C14.9332 0 15.1054 0.0714111 15.2348 0.201111L18.3003 3.25348C18.4308 3.3844 18.5023 3.55667 18.5023 3.73947Z" fill="#FFE8CC"/>
<path d="M18.5023 3.73947V19.3141C18.5023 19.6925 18.1946 20 17.816 20H10.0031V0H14.7496C14.9332 0 15.1054 0.0714111 15.2348 0.201111L18.3003 3.25348C18.4308 3.3844 18.5023 3.55667 18.5023 3.73947Z" fill="#F9CEA0"/>
<path d="M18.5024 3.73947V4.28284H14.8583C14.498 4.28284 14.2055 3.98987 14.2055 3.63007V0H14.7496C14.9332 0 15.1055 0.0714111 15.2349 0.201111L18.3004 3.25348C18.4308 3.3844 18.5024 3.55667 18.5024 3.73947Z" fill="#BCB200"/>
<path d="M18.5023 12.5322V19.3143C18.5023 19.6927 18.1946 20.0002 17.816 20.0002H2.24884C1.87027 20.0002 1.5625 19.6927 1.5625 19.3143V12.5322H18.5023Z" fill="#E5E023"/>
<path d="M18.5023 12.5322V19.3143C18.5023 19.6927 18.1946 20.0002 17.816 20.0002H10.0031V12.5322H18.5023Z" fill="#BCB200"/>
<path d="M5.33008 17.1537C5.33008 16.9912 5.36411 16.8806 5.43216 16.8218C5.50021 16.7632 5.61542 16.7339 5.77808 16.7339C6.05396 16.7339 6.19968 16.8229 6.21478 17.0005C6.22226 17.08 6.2308 17.1424 6.24026 17.1877C6.24957 17.2331 6.26956 17.2907 6.29977 17.3608C6.32999 17.4307 6.38004 17.4827 6.45007 17.5167C6.51996 17.5507 6.60785 17.5677 6.71375 17.5677C7.05783 17.5677 7.22995 17.3788 7.22995 17.0007V14.9305H6.73648C6.65332 14.9305 6.58801 14.8928 6.54086 14.8171C6.49356 14.7416 6.47006 14.649 6.47006 14.5393C6.47006 14.4372 6.49265 14.3484 6.53796 14.2727C6.58344 14.197 6.64951 14.1592 6.73648 14.1592H7.72891C7.83481 14.1592 7.92545 14.1828 8.00113 14.2301C8.07681 14.2774 8.11465 14.3446 8.11465 14.4314V17.0005C8.11465 17.4619 7.98892 17.8002 7.73746 18.0157C7.48599 18.2313 7.15808 18.339 6.75357 18.339C6.33762 18.339 5.99643 18.2333 5.72986 18.0215C5.46329 17.8097 5.33008 17.5204 5.33008 17.1537V17.1537Z" fill="white"/>
<path d="M11.1856 14.4741C10.9418 14.2643 10.6176 14.1592 10.2129 14.1592H9.03903C8.94061 14.1592 8.86142 14.1857 8.80084 14.239C8.74026 14.2916 8.71021 14.3542 8.71021 14.4261V18.0331C8.71021 18.1198 8.75354 18.1869 8.84067 18.2342C8.92734 18.2815 9.03125 18.305 9.1524 18.305C9.27341 18.305 9.37732 18.2815 9.46445 18.2342C9.55127 18.1869 9.59491 18.1198 9.59491 18.0331V16.8081H10.1563C10.5762 16.8081 10.9133 16.701 11.1689 16.4874C11.4238 16.274 11.5515 15.942 11.5515 15.492V15.464C11.5515 15.014 11.4293 14.6838 11.1856 14.4741ZM10.6668 15.5599C10.6668 15.9382 10.4966 16.1273 10.1563 16.1273H9.59491V14.9307H10.1563C10.4966 14.9307 10.6668 15.1197 10.6668 15.4978V15.5599Z" fill="white"/>
<path d="M11.8917 17.0005V15.4977C11.8917 15.0364 12.0174 14.698 12.2687 14.4825C12.5202 14.2671 12.8481 14.1592 13.2527 14.1592C13.6685 14.1592 14.0099 14.2594 14.2765 14.4598C14.543 14.6603 14.6762 14.9362 14.6762 15.2879C14.6762 15.4504 14.6422 15.561 14.5742 15.6196C14.5061 15.6782 14.3927 15.7075 14.2339 15.7075C13.9427 15.7075 13.7952 15.6187 13.7915 15.4409C13.7915 15.3881 13.7896 15.3437 13.7859 15.3077C13.7821 15.2717 13.7706 15.2274 13.7519 15.1743C13.7329 15.1216 13.7065 15.0799 13.6725 15.0497C13.6383 15.0195 13.5883 14.992 13.5221 14.9674C13.456 14.9429 13.3776 14.9305 13.2868 14.9305C12.9465 14.9305 12.7764 15.1197 12.7764 15.4977V17.0007C12.7764 17.3788 12.9447 17.5677 13.2811 17.5677C13.6214 17.5677 13.7915 17.3788 13.7915 17.0007V16.8078H13.4569C13.3737 16.8078 13.3084 16.7747 13.2613 16.7085C13.214 16.6424 13.1903 16.562 13.1903 16.4675C13.1903 16.3806 13.2149 16.3021 13.2642 16.2321C13.3132 16.1622 13.3776 16.1273 13.4569 16.1273H14.4098C14.493 16.1273 14.5581 16.1547 14.6054 16.2095C14.6527 16.2643 14.6764 16.3296 14.6764 16.4051V17.0007C14.6764 17.4619 14.5496 17.8002 14.2963 18.0158C14.043 18.2313 13.7046 18.339 13.2811 18.339C12.8615 18.339 12.5249 18.2313 12.2716 18.0158C12.0183 17.8002 11.8917 17.4619 11.8917 17.0005Z" fill="#FFE1CA"/>
<path d="M11.5515 15.464V15.492C11.5515 15.942 11.4238 16.274 11.1688 16.4874C10.9132 16.701 10.5762 16.8081 10.1562 16.8081H10.0031V16.1273H10.1562C10.4965 16.1273 10.6668 15.9382 10.6668 15.5599V15.4978C10.6668 15.1197 10.4965 14.9307 10.1562 14.9307H10.0031V14.1592H10.2129C10.6175 14.1592 10.9418 14.2643 11.1856 14.4741C11.4293 14.6838 11.5515 15.014 11.5515 15.464V15.464Z" fill="#FFE1CA"/>
</g>
<defs>
<clipPath id="clip0">
<rect width="20" height="20" fill="white"/>
</clipPath>
</defs>
</svg>
