<?xml version="1.0" encoding="iso-8859-1"?>
<!-- Generator: Adobe Illustrator 21.0.0, SVG Export Plug-In . SVG Version: 6.00 Build 0)  -->
<svg xmlns="http://www.w3.org/2000/svg" xmlns:xlink="http://www.w3.org/1999/xlink" version="1.1" id="Capa_1" x="0px" y="0px" viewBox="0 0 512 512" style="enable-background:new 0 0 512 512;" xml:space="preserve" width="512px" height="512px">
<g>
	<path d="M416.213,60H415V0H37v452h60v60h378V118.787L416.213,60z M405,91.213L443.787,130H405V91.213z M67,422V30h318v30H97v362H67   z M127,482V90h248v70h70v322H127z" fill="#FFFFFF"/>
	<rect x="286" y="122" width="59" height="30" fill="#FFFFFF"/>
	<rect x="286" y="182" width="89" height="30" fill="#FFFFFF"/>
	<rect x="286" y="242" width="124" height="30" fill="#FFFFFF"/>
	<rect x="286" y="302" width="89" height="30" fill="#FFFFFF"/>
	<rect x="286" y="362" width="124" height="30" fill="#FFFFFF"/>
	<rect x="286" y="422" width="89" height="30" fill="#FFFFFF"/>
	<polygon points="225.394,242.394 202,265.787 178.606,242.394 157.394,263.606 180.787,287 157.394,310.394 178.606,331.606    202,308.213 225.394,331.606 246.606,310.394 223.213,287 246.606,263.606  " fill="#FFFFFF"/>
	<polygon points="225.394,123.394 202,146.787 178.606,123.394 157.394,144.606 180.787,168 157.394,191.394 178.606,212.606    202,189.213 225.394,212.606 246.606,191.394 223.213,168 246.606,144.606  " fill="#FFFFFF"/>
	<polygon points="191,407.213 180.393,396.606 159.18,417.82 191,449.639 244.033,396.606 222.82,375.394  " fill="#FFFFFF"/>
</g>















</svg>
