<svg width="25" height="31" viewBox="0 0 25 31" fill="none" xmlns="http://www.w3.org/2000/svg">
<path d="M3.27073 9.3114V12.5482H3.05536C1.69982 12.5482 0.597656 13.6504 0.597656 15.0059V28.5423C0.597656 29.8978 1.69982 31 3.05536 31H21.9442C23.2997 31 24.4019 29.8978 24.4019 28.5423V14.9996C24.4019 13.6441 23.2997 12.5419 21.9442 12.5419H21.8809V9.30507C21.8809 4.17429 17.7066 0 12.5758 0C7.44502 0.00633429 3.27073 4.18063 3.27073 9.3114ZM13.9567 22.3727C13.7666 22.5121 13.716 22.6451 13.716 22.8668C13.7223 23.8613 13.7223 24.8494 13.7223 25.8439C13.7413 26.2556 13.5323 26.661 13.1649 26.8447C12.2971 27.2881 11.4293 26.6673 11.4293 25.8439V25.8376C11.4293 24.8431 11.4293 23.8486 11.4356 22.8541C11.4356 22.6514 11.3913 22.5184 11.2139 22.3854C10.3145 21.7203 10.0167 20.5864 10.4665 19.5919C10.9035 18.6228 11.974 18.0527 12.9812 18.2554C14.1024 18.4834 14.8815 19.3829 14.8941 20.5041C14.8941 21.2832 14.5838 21.9166 13.9567 22.3727ZM7.34367 9.3114C7.34367 6.42297 9.69369 4.07928 12.5758 4.07928C15.4642 4.07928 17.8079 6.4293 17.8079 9.3114V12.5482H7.34367V9.3114Z" fill="white"/>
<path d="M3.27073 9.3114V12.5482H3.05536C1.69982 12.5482 0.597656 13.6504 0.597656 15.0059V28.5423C0.597656 29.8978 1.69982 31 3.05536 31H21.9442C23.2997 31 24.4019 29.8978 24.4019 28.5423V14.9996C24.4019 13.6441 23.2997 12.5419 21.9442 12.5419H21.8809V9.30507C21.8809 4.17429 17.7066 0 12.5758 0C7.44502 0.00633429 3.27073 4.18063 3.27073 9.3114ZM13.9567 22.3727C13.7666 22.5121 13.716 22.6451 13.716 22.8668C13.7223 23.8613 13.7223 24.8494 13.7223 25.8439C13.7413 26.2556 13.5323 26.661 13.1649 26.8447C12.2971 27.2881 11.4293 26.6673 11.4293 25.8439V25.8376C11.4293 24.8431 11.4293 23.8486 11.4356 22.8541C11.4356 22.6514 11.3913 22.5184 11.2139 22.3854C10.3145 21.7203 10.0167 20.5864 10.4665 19.5919C10.9035 18.6228 11.974 18.0527 12.9812 18.2554C14.1024 18.4834 14.8815 19.3829 14.8941 20.5041C14.8941 21.2832 14.5838 21.9166 13.9567 22.3727ZM7.34367 9.3114C7.34367 6.42297 9.69369 4.07928 12.5758 4.07928C15.4642 4.07928 17.8079 6.4293 17.8079 9.3114V12.5482H7.34367V9.3114Z" fill="url(#paint0_linear)"/>
<defs>
<linearGradient id="paint0_linear" x1="0.597656" y1="31" x2="28.1121" y2="27.2544" gradientUnits="userSpaceOnUse">
<stop stop-color="#4298E8"/>
<stop offset="1" stop-color="#8044DB"/>
</linearGradient>
</defs>
</svg>
