<svg width="137" height="97" viewBox="0 0 137 97" fill="none" xmlns="http://www.w3.org/2000/svg">
<g clip-path="url(#clip0)">
<g opacity="0.3">
<path opacity="0.7" d="M121.836 42.9409C121.836 66.6561 102.709 85.8818 79.1147 85.8818C55.5206 85.8818 36.393 66.6561 36.393 42.9409C36.393 19.2257 55.5206 0 79.1147 0C102.709 0 121.836 19.2257 121.836 42.9409Z" fill="white"/>
<path opacity="0.7" d="M58.2268 74.8692C58.2268 86.9644 48.4529 96.7886 36.4193 96.7886C24.3858 96.7886 14.6118 86.9644 14.6118 74.8692C14.6118 62.7739 24.3858 52.9498 36.4193 52.9498C48.4529 52.9234 58.2268 62.7475 58.2268 74.8692Z" fill="white"/>
</g>
<path d="M27.9065 62.2192H24.2281V84.4292H27.9065V62.2192Z" fill="#2EB9B7"/>
<path d="M44.1176 80.7319H10.4868V84.4292H44.1176V80.7319Z" fill="#2EB9B7"/>
<path d="M42.0945 83.188H39.7561V82.2373H42.0945V83.188ZM37.4177 83.188H35.0793V82.2373H37.4177V83.188ZM32.7409 83.188H30.4025V82.2373H32.7409V83.188ZM28.0641 83.188H25.7257V82.2373H28.0641V83.188ZM23.3874 83.188H21.049V82.2373H23.3874V83.188ZM18.7368 83.188H16.3984V82.2373H18.7368V83.188ZM14.06 83.188H11.7216V82.2373H14.06V83.188Z" fill="white"/>
<path d="M26.6716 80.732H25.7257V78.3816H26.6716V80.732ZM26.6716 76.0312H25.7257V73.6808H26.6716V76.0312ZM26.6716 71.3304H25.7257V68.9801H26.6716V71.3304ZM26.6716 66.6561H25.7257V64.3057H26.6716V66.6561Z" fill="white"/>
<path d="M60.3025 26.6992H56.6241V49.1468H60.3025V26.6992Z" fill="#2EB9B7"/>
<path d="M76.5136 45.2119H42.8828V49.1469H76.5136V45.2119Z" fill="white"/>
<path d="M74.4905 47.6416H72.1521V46.6909H74.4905V47.6416ZM69.8137 47.6416H67.4753V46.6909H69.8137V47.6416ZM65.1369 47.6416H62.7985V46.6909H65.1369V47.6416ZM60.4601 47.6416H58.1217V46.6909H60.4601V47.6416ZM55.7833 47.6416H53.4449V46.6909H55.7833V47.6416ZM51.1328 47.6416H48.7944V46.6909H51.1328V47.6416ZM46.456 47.6416H44.1176V46.6909H46.456V47.6416Z" fill="#231F20"/>
<path d="M59.0676 45.212H58.1217V42.8616H59.0676V45.212ZM59.0676 40.5112H58.1217V38.1608H59.0676V40.5112ZM59.0676 35.8104H58.1217V33.46H59.0676V35.8104ZM59.0676 31.136H58.1217V28.7856H59.0676V31.136Z" fill="white"/>
<path d="M107.438 55.5645H103.523V77.7744H107.438V55.5645Z" fill="#2EB9B7"/>
<path d="M123.413 74.0771H89.782V77.7744H123.413V74.0771Z" fill="#2EB9B7"/>
<path d="M92.1467 75.5825H90.9906V76.5333H92.1467V75.5825Z" fill="#231F20"/>
<path d="M118.999 76.5069H116.766V75.5562H118.999V76.5069ZM114.532 76.5069H112.299V75.5562H114.532V76.5069ZM110.066 76.5069H107.832V75.5562H110.066V76.5069ZM105.599 76.5069H103.366V75.5562H105.599V76.5069ZM101.106 76.5069H98.8729V75.5562H101.106V76.5069ZM96.6396 76.5069H94.4063V75.5562H96.6396V76.5069Z" fill="white"/>
<path d="M122.388 75.5825H121.232V76.5333H122.388V75.5825Z" fill="white"/>
<path d="M105.941 74.0773H104.995V71.7269H105.941V74.0773ZM105.941 69.3765H104.995V67.0261H105.941V69.3765ZM105.941 64.6757H104.995V62.3253H105.941V64.6757ZM105.941 59.9749H104.995V57.6245H105.941V59.9749Z" fill="white"/>
<path d="M53.4712 52.6064C50.7912 52.6064 48.2952 53.3195 46.2195 54.7455C44.827 53.161 42.909 51.9726 40.7283 51.6029C40.8071 50.9955 40.8596 50.3353 40.8596 49.7014C40.8596 42.6238 35.1319 36.8667 28.0904 36.8667C21.0489 36.8667 15.3212 42.5974 15.3212 49.7014C15.3212 50.7578 15.4526 51.7613 15.689 52.7385C14.7432 52.5008 13.771 52.6328 12.7463 52.6328C5.70487 52.6064 0.00338745 57.7826 0.00338745 65.6788H66.2404C66.2404 57.7826 60.5389 52.6064 53.4712 52.6064Z" fill="#EDF4F7"/>
<path d="M46.2458 54.6401C46.2458 54.6401 45.5364 55.855 45.5102 56.7793Z" fill="#D1D3D4"/>
<path d="M45.9568 56.8055L45.011 56.7791C45.0372 55.7492 45.7729 54.4552 45.7992 54.4023L46.6137 54.8777C46.456 55.1946 45.9831 56.1453 45.9568 56.8055Z" fill="#231F20"/>
<path d="M78.4579 19.3052C75.7779 19.3052 73.2819 20.0182 71.2062 21.4443C69.8137 19.8597 67.8957 18.6713 65.7149 18.3016C65.7938 17.6942 65.8463 17.034 65.8463 16.4002C65.8463 9.32258 60.1186 3.56543 53.0771 3.56543C46.0356 3.56543 40.3079 9.29617 40.3079 16.4002C40.3079 17.4565 40.4393 18.4601 40.6757 19.4372C39.7299 19.1995 38.7577 19.3316 37.733 19.3316C30.6916 19.3316 24.9638 24.5077 24.9638 32.404H91.2008C91.2271 24.4813 85.5256 19.3052 78.4579 19.3052Z" fill="#EDF4F7"/>
<path d="M40.702 19.3843C40.702 19.3843 42.2522 20.6519 42.7777 20.916Z" fill="#D1D3D4"/>
<path d="M124.227 48.3546C121.547 48.3546 119.051 49.0412 116.976 50.4673C115.583 48.8828 113.665 47.668 111.484 47.3246C111.563 46.7172 111.616 46.057 111.616 45.3968C111.616 38.3192 105.888 32.5356 98.8466 32.5356C91.8052 32.5356 86.0774 38.2664 86.0774 45.344C86.0774 46.4003 86.2088 47.4039 86.4452 48.381C85.4994 48.1433 84.5272 48.3282 83.5025 48.3282C76.4611 48.3282 70.7333 53.5572 70.7333 61.4534H136.97C136.997 53.5836 131.269 48.3546 124.227 48.3546Z" fill="#EDF4F7"/>
<path d="M86.4715 48.3813C86.4715 48.3813 88.0217 49.649 88.5472 49.9131Z" fill="#D1D3D4"/>
<path d="M88.3107 50.3352C87.7852 50.0447 86.3139 48.8827 86.1562 48.7507L86.7343 48.0112C87.3386 48.513 88.3895 49.3053 88.7311 49.4901L88.3107 50.3352Z" fill="#231F20"/>
<path d="M116.976 50.3091C116.976 50.3091 116.266 51.5239 116.24 52.4482Z" fill="#D1D3D4"/>
<path d="M94.4326 54.3232H44.8533V59.024H94.4326V54.3232Z" fill="#58595B"/>
<path d="M93.9333 72.8359H44.3541V77.7744H93.9333V72.8359Z" fill="#58595B"/>
<path d="M93.6968 91.5859H44.1176V96.5244H93.6968V91.5859Z" fill="#58595B"/>
<path d="M98.3737 40.0361H40.9385V54.0857H98.3737V40.0361Z" fill="#939598"/>
<path d="M98.3737 40.0361H40.9385V54.0857H98.3737V40.0361Z" fill="url(#paint0_linear)"/>
<path d="M98.3474 54.5608H40.9384C40.6757 54.5608 40.4655 54.3495 40.4655 54.0855V40.0359C40.4655 39.7718 40.6757 39.5605 40.9384 39.5605H98.3736C98.6364 39.5605 98.8466 39.7718 98.8466 40.0359V54.0855C98.8203 54.3495 98.6101 54.5608 98.3474 54.5608ZM41.3851 53.6101H97.8744V40.4849H41.3851V53.6101Z" fill="#231F20"/>
<path d="M98.1109 59.0239H40.6757V72.8358H98.1109V59.0239Z" fill="#939598"/>
<path d="M98.1109 59.0239H40.6757V72.8358H98.1109V59.0239Z" fill="url(#paint1_linear)"/>
<path d="M98.1109 73.3114H40.6757C40.413 73.3114 40.2028 73.1001 40.2028 72.836V59.0242C40.2028 58.7601 40.413 58.5488 40.6757 58.5488H98.1109C98.3737 58.5488 98.5839 58.7601 98.5839 59.0242V72.836C98.5839 73.1001 98.3737 73.3114 98.1109 73.3114ZM41.1487 72.3607H97.638V59.4731H41.1487V72.3607Z" fill="#231F20"/>
<path d="M97.8744 77.7744H40.4392V91.5863H97.8744V77.7744Z" fill="#939598"/>
<path d="M97.8744 77.7744H40.4392V91.5863H97.8744V77.7744Z" fill="url(#paint2_linear)"/>
<path d="M97.8744 92.0614H40.4392C40.1765 92.0614 39.9663 91.8501 39.9663 91.5861V77.7742C39.9663 77.5101 40.1765 77.2988 40.4392 77.2988H97.8744C98.1372 77.2988 98.3474 77.5101 98.3474 77.7742V91.5861C98.3474 91.8501 98.1372 92.0614 97.8744 92.0614ZM40.9122 91.1107H97.4015V78.2231H40.9122V91.1107Z" fill="#231F20"/>
<path d="M101.29 96.0493H37.733V97H101.29V96.0493Z" fill="#231F20"/>
<path d="M45.3262 42.9937H44.3804V50.1505H45.3262V42.9937Z" fill="white"/>
<path d="M48.2689 42.9937H47.3231V50.1505H48.2689V42.9937Z" fill="white"/>
<path d="M51.2117 42.9937H50.2658V50.1505H51.2117V42.9937Z" fill="white"/>
<path d="M54.4171 42.9937H53.4712V50.1505H54.4171V42.9937Z" fill="white"/>
<path d="M57.3598 42.9937H56.4139V50.1505H57.3598V42.9937Z" fill="white"/>
<path d="M94.1961 42.9937H59.8295V46.6909H94.1961V42.9937Z" fill="white"/>
<path d="M88.5 51C90.433 51 92 49.433 92 47.5C92 45.567 90.433 44 88.5 44C86.567 44 85 45.567 85 47.5C85 49.433 86.567 51 88.5 51Z" fill="#231F20"/>
<path d="M90 47H87V48H90V47Z" fill="white"/>
<path d="M49 70C51.2091 70 53 68.2091 53 66C53 63.7909 51.2091 62 49 62C46.7909 62 45 63.7909 45 66C45 68.2091 46.7909 70 49 70Z" fill="white"/>
<path d="M60 70C62.2091 70 64 68.2091 64 66C64 63.7909 62.2091 62 60 62C57.7909 62 56 63.7909 56 66C56 68.2091 57.7909 70 60 70Z" fill="white"/>
<path d="M60 67C60.5523 67 61 66.5523 61 66C61 65.4477 60.5523 65 60 65C59.4477 65 59 65.4477 59 66C59 66.5523 59.4477 67 60 67Z" fill="#FFA432"/>
<path d="M49 67C49.5523 67 50 66.5523 50 66C50 65.4477 49.5523 65 49 65C48.4477 65 48 65.4477 48 66C48 66.5523 48.4477 67 49 67Z" fill="#FFA432"/>
<path d="M71 70C73.2091 70 75 68.2091 75 66C75 63.7909 73.2091 62 71 62C68.7909 62 67 63.7909 67 66C67 68.2091 68.7909 70 71 70Z" fill="white"/>
<path d="M71 67C71.5523 67 72 66.5523 72 66C72 65.4477 71.5523 65 71 65C70.4477 65 70 65.4477 70 66C70 66.5523 70.4477 67 71 67Z" fill="#FFA432"/>
<path d="M78.2477 48.6982H59.8295V49.649H78.2477V48.6982Z" fill="white"/>
<path d="M82.1625 48.6982H79.7191V49.649H82.1625V48.6982Z" fill="white"/>
<path d="M61.7738 43.7334H60.8017V45.9518H61.7738V43.7334Z" fill="#FFA432"/>
<path d="M64.2436 43.7334H63.2714V45.9518H64.2436V43.7334Z" fill="#FFA432"/>
<path d="M66.4506 43.7334H65.4785V45.9518H66.4506V43.7334Z" fill="#FFA432"/>
<path d="M68.8941 43.7334H67.922V45.9518H68.8941V43.7334Z" fill="#FFA432"/>
<path d="M71.1011 43.7334H70.129V45.9518H71.1011V43.7334Z" fill="#FFA432"/>
<path d="M73.5709 43.7334H72.5988V45.9518H73.5709V43.7334Z" fill="#231F20"/>
<path d="M75.7779 43.7334H74.8058V45.9518H75.7779V43.7334Z" fill="#231F20"/>
<path d="M78.2214 43.7334H77.2493V45.9518H78.2214V43.7334Z" fill="#231F20"/>
<path d="M80.4284 43.7334H79.4563V45.9518H80.4284V43.7334Z" fill="#231F20"/>
<path d="M83.1347 43.7334H82.1625V45.9518H83.1347V43.7334Z" fill="#231F20"/>
<path d="M80.4547 62.2192H77.7485V66.4183H80.4547V62.2192Z" fill="#231F20"/>
<path d="M85.1052 62.2192H82.399V66.4183H85.1052V62.2192Z" fill="#231F20"/>
<path d="M89.782 62.2192H87.0758V66.4183H89.782V62.2192Z" fill="#231F20"/>
<path d="M94.4326 62.2192H91.7263V66.4183H94.4326V62.2192Z" fill="#231F20"/>
<path d="M79.6928 64.2002H78.7469V69.1387H79.6928V64.2002Z" fill="white"/>
<path d="M84.3696 64.2002H83.4237V69.1387H84.3696V64.2002Z" fill="white"/>
<path d="M89.0201 64.2002H88.0742V69.1387H89.0201V64.2002Z" fill="white"/>
<path d="M93.6969 64.2002H92.751V69.1387H93.6969V64.2002Z" fill="white"/>
<path d="M80.4547 63.7246H77.7485V64.6753H80.4547V63.7246Z" fill="#FFA432"/>
<path d="M85.1052 63.7246H82.399V64.6753H85.1052V63.7246Z" fill="#FFA432"/>
<path d="M89.782 63.7246H87.0758V64.6753H89.782V63.7246Z" fill="#FFA432"/>
<path d="M94.4326 63.7246H91.7263V64.6753H94.4326V63.7246Z" fill="#FFA432"/>
<path d="M93.9596 80.7319H74.8058V88.1264H93.9596V80.7319Z" fill="white"/>
<path d="M47 89C49.2091 89 51 87.2091 51 85C51 82.7909 49.2091 81 47 81C44.7909 81 43 82.7909 43 85C43 87.2091 44.7909 89 47 89Z" fill="white"/>
<path d="M47 86C47.5523 86 48 85.5523 48 85C48 84.4477 47.5523 84 47 84C46.4477 84 46 84.4477 46 85C46 85.5523 46.4477 86 47 86Z" fill="#FFA432"/>
<path d="M78.4579 80.7319H77.512V88.1264H78.4579V80.7319Z" fill="#231F20"/>
<path d="M79.2198 80.2568H76.5136V81.2075H79.2198V80.2568Z" fill="#FFA432"/>
<path d="M82.399 80.7319H81.4531V88.1264H82.399V80.7319Z" fill="#231F20"/>
<path d="M83.3974 87.6514H80.4547V88.6021H83.3974V87.6514Z" fill="#FFA432"/>
<path d="M87.7852 80.7319H86.8393V88.1264H87.7852V80.7319Z" fill="#231F20"/>
<path d="M88.7836 80.2568H85.8409V81.2075H88.7836V80.2568Z" fill="#FFA432"/>
<path d="M91.7263 80.7319H90.7805V88.1264H91.7263V80.7319Z" fill="#231F20"/>
<path d="M92.7248 87.6514H89.782V88.6021H92.7248V87.6514Z" fill="#FFA432"/>
<path d="M72.336 81.7358H54.4171V82.6865H72.336V81.7358Z" fill="#231F20"/>
<path d="M72.336 83.9541H54.4171V84.9048H72.336V83.9541Z" fill="#231F20"/>
<path d="M72.336 86.4365H54.4171V87.3873H72.336V86.4365Z" fill="#231F20"/>
<path d="M109.172 96.0493H103.523V97H109.172V96.0493Z" fill="#231F20"/>
<path d="M35.7888 96.0493H33.0825V97H35.7888V96.0493Z" fill="#231F20"/>
</g>
<defs>
<linearGradient id="paint0_linear" x1="108.842" y1="35.2593" x2="41.0065" y2="54.3276" gradientUnits="userSpaceOnUse">
<stop stop-color="#61DFAA"/>
<stop offset="0.793217" stop-color="#2EB9B7"/>
</linearGradient>
<linearGradient id="paint1_linear" x1="108.579" y1="54.3279" x2="40.9157" y2="73.6751" gradientUnits="userSpaceOnUse">
<stop stop-color="#61DFAA"/>
<stop offset="0.793217" stop-color="#2EB9B7"/>
</linearGradient>
<linearGradient id="paint2_linear" x1="108.343" y1="73.0784" x2="40.6792" y2="92.4256" gradientUnits="userSpaceOnUse">
<stop stop-color="#61DFAA"/>
<stop offset="0.793217" stop-color="#2EB9B7"/>
</linearGradient>
<clipPath id="clip0">
<rect width="137" height="97" fill="white"/>
</clipPath>
</defs>
</svg>
