<svg width="28" height="32" viewBox="0 0 28 32" fill="none" xmlns="http://www.w3.org/2000/svg">
<g clip-path="url(#clip0)">
<path d="M6 0C4.9 0 4 0.9 4 2V30C4 31.1 4.9 32 6 32H26C27.1 32 28 31.1 28 30V8L20 0H6Z" fill="#E2E5E7"/>
<path d="M22 8H28L20 0V6C20 7.1 20.9 8 22 8Z" fill="#B0B7BD"/>
<path d="M28 14L22 8H28V14Z" fill="#CAD1D8"/>
<path d="M25 26C25 26.55 24.5312 27 23.9583 27H1.04167C0.46875 27 0 26.55 0 26V16C0 15.45 0.46875 15 1.04167 15H23.9583C24.5312 15 25 15.45 25 16V26Z" fill="#285192"/>
<path d="M23.95 27H4V28H23.95C24.5275 28 25 27.55 25 27V26C25 26.55 24.5275 27 23.95 27Z" fill="#CAD1D8"/>
<path d="M4.02727 19.008V22.992C4.02727 23.0293 4.04698 23.0533 4.0864 23.064C4.24406 23.0907 4.39187 23.104 4.52983 23.104C5.10628 23.104 5.53 22.936 5.80099 22.6C6.07197 22.2587 6.20746 21.6987 6.20746 20.92C6.20746 20.2213 6.06951 19.7093 5.7936 19.384C5.51769 19.0587 5.09643 18.896 4.52983 18.896C4.39187 18.896 4.24406 18.9093 4.0864 18.936C4.04698 18.9467 4.02727 18.9707 4.02727 19.008ZM3.42126 23.944C3.29808 23.928 3.19708 23.872 3.11825 23.776C3.03942 23.6747 3 23.5573 3 23.424V18.576C3 18.4427 3.03942 18.328 3.11825 18.232C3.19708 18.1307 3.29808 18.072 3.42126 18.056C3.73658 18.0187 4.08886 18 4.47809 18C5.35509 18 6.02516 18.248 6.4883 18.744C6.95636 19.24 7.19039 19.9653 7.19039 20.92C7.19039 21.944 6.95636 22.7147 6.4883 23.232C6.02516 23.744 5.35509 24 4.47809 24C4.08886 24 3.73658 23.9813 3.42126 23.944Z" fill="white"/>
<path d="M11.628 21C11.628 19.6133 11.16 18.92 10.2238 18.92C9.28771 18.92 8.81964 19.6133 8.81964 21C8.81964 22.3867 9.28771 23.08 10.2238 23.08C11.16 23.08 11.628 22.3867 11.628 21ZM12.0197 23.208C11.5812 23.736 10.9826 24 10.2238 24C9.46508 24 8.86399 23.736 8.42056 23.208C7.98206 22.68 7.76281 21.944 7.76281 21C7.76281 20.056 7.98206 19.32 8.42056 18.792C8.86399 18.264 9.46508 18 10.2238 18C10.9826 18 11.5812 18.264 12.0197 18.792C12.4631 19.32 12.6849 20.056 12.6849 21C12.6849 21.944 12.4631 22.68 12.0197 23.208Z" fill="white"/>
<path d="M15.7973 24C15.0188 24 14.4005 23.7413 13.9423 23.224C13.489 22.7013 13.2624 21.96 13.2624 21C13.2624 20.0507 13.4816 19.3147 13.9201 18.792C14.3635 18.264 14.9819 18 15.7751 18C16.1397 18 16.4452 18.024 16.6915 18.072C16.8098 18.0933 16.9083 18.1573 16.9871 18.264C17.066 18.3707 17.1054 18.4907 17.1054 18.624V18.688C17.1054 18.8 17.0611 18.888 16.9724 18.952C16.8886 19.016 16.7975 19.0347 16.6989 19.008C16.4575 18.9387 16.1865 18.904 15.886 18.904C15.3982 18.904 15.0139 19.0853 14.7331 19.448C14.4571 19.8107 14.3192 20.328 14.3192 21C14.3192 21.6667 14.4621 22.184 14.7478 22.552C15.0385 22.9147 15.4253 23.096 15.9081 23.096C16.2333 23.096 16.5117 23.064 16.7433 23C16.8418 22.9733 16.933 22.992 17.0167 23.056C17.1054 23.12 17.1497 23.208 17.1497 23.32V23.376C17.1497 23.5093 17.1103 23.6293 17.0315 23.736C16.9576 23.8373 16.859 23.8987 16.7359 23.92C16.455 23.9733 16.1422 24 15.7973 24Z" fill="white"/>
<path d="M18.3028 23.92C18.2092 23.92 18.1378 23.8773 18.0885 23.792C18.0392 23.7013 18.0368 23.6107 18.0811 23.52L19.3153 21.024C19.335 20.992 19.335 20.952 19.3153 20.904L18.1181 18.48C18.0737 18.3893 18.0762 18.3013 18.1255 18.216C18.1747 18.1253 18.2462 18.08 18.3398 18.08H18.6576C18.7857 18.08 18.9039 18.1173 19.0123 18.192C19.1207 18.2667 19.202 18.3653 19.2562 18.488L20.0322 20.256C20.0322 20.2613 20.0347 20.264 20.0396 20.264C20.0445 20.264 20.047 20.2613 20.047 20.256L20.823 18.488C20.8772 18.3653 20.9585 18.2667 21.0669 18.192C21.1753 18.1173 21.2935 18.08 21.4216 18.08H21.7098C21.8084 18.08 21.8798 18.1253 21.9242 18.216C21.9734 18.3013 21.9759 18.3893 21.9315 18.48L20.7343 20.904C20.7195 20.9413 20.7195 20.9813 20.7343 21.024L21.9685 23.52C22.0128 23.6107 22.0104 23.7013 21.9611 23.792C21.9168 23.8773 21.8453 23.92 21.7468 23.92H21.4068C21.2787 23.92 21.158 23.8827 21.0447 23.808C20.9363 23.7333 20.8575 23.6347 20.8082 23.512L20.0174 21.664C20.0174 21.6587 20.0149 21.656 20.01 21.656C20.0051 21.656 20.0026 21.6587 20.0026 21.664L19.2118 23.512C19.1626 23.6347 19.0813 23.7333 18.968 23.808C18.8596 23.8827 18.7413 23.92 18.6132 23.92H18.3028Z" fill="white"/>
</g>
<defs>
<clipPath id="clip0">
<rect width="28" height="32" fill="white"/>
</clipPath>
</defs>
</svg>
