<svg width="1317" height="171" viewBox="0 0 1317 171" fill="none" xmlns="http://www.w3.org/2000/svg">
<circle cx="247" cy="142" r="19.5" fill="white" stroke="#EAEBF2"/>
<path d="M241 149C241 150.1 241.9 151 243 151H251C252.1 151 253 150.1 253 149V137H241V149ZM243.46 141.88L244.87 140.47L247 142.59L249.12 140.47L250.53 141.88L248.41 144L250.53 146.12L249.12 147.53L247 145.41L244.88 147.53L243.47 146.12L245.59 144L243.46 141.88ZM250.5 134L249.5 133H244.5L243.5 134H240V136H254V134H250.5Z" fill="#EAEBF2"/>
<circle cx="1160" cy="70" r="19.5" fill="white" stroke="#EAEBF2"/>
<path d="M1165 78.41L1166.41 77L1163 73.59L1161.59 75L1165 78.41ZM1155.5 66H1159V71.59L1153.59 77L1155 78.41L1161 72.41V66H1164.5L1160 61.5L1155.5 66Z" fill="#EAEBF2"/>
<circle cx="220" cy="30" r="19.5" fill="white" stroke="#EAEBF2"/>
<path d="M226.375 29.25H225.25V26.25C225.25 25.425 224.575 24.75 223.75 24.75H220.75V23.625C220.75 22.59 219.91 21.75 218.875 21.75C217.84 21.75 217 22.59 217 23.625V24.75H214C213.175 24.75 212.507 25.425 212.507 26.25V29.1H213.625C214.743 29.1 215.65 30.0075 215.65 31.125C215.65 32.2425 214.743 33.15 213.625 33.15H212.5V36C212.5 36.825 213.175 37.5 214 37.5H216.85V36.375C216.85 35.2575 217.758 34.35 218.875 34.35C219.992 34.35 220.9 35.2575 220.9 36.375V37.5H223.75C224.575 37.5 225.25 36.825 225.25 36V33H226.375C227.41 33 228.25 32.16 228.25 31.125C228.25 30.09 227.41 29.25 226.375 29.25Z" fill="#EAEBF2"/>
<circle cx="1231" cy="143" r="19.5" fill="white" stroke="#EAEBF2"/>
<path d="M1237.38 142.25H1236.25V139.25C1236.25 138.425 1235.57 137.75 1234.75 137.75H1231.75V136.625C1231.75 135.59 1230.91 134.75 1229.88 134.75C1228.84 134.75 1228 135.59 1228 136.625V137.75H1225C1224.17 137.75 1223.51 138.425 1223.51 139.25V142.1H1224.62C1225.74 142.1 1226.65 143.007 1226.65 144.125C1226.65 145.243 1225.74 146.15 1224.62 146.15H1223.5V149C1223.5 149.825 1224.17 150.5 1225 150.5H1227.85V149.375C1227.85 148.257 1228.76 147.35 1229.88 147.35C1230.99 147.35 1231.9 148.257 1231.9 149.375V150.5H1234.75C1235.57 150.5 1236.25 149.825 1236.25 149V146H1237.38C1238.41 146 1239.25 145.16 1239.25 144.125C1239.25 143.09 1238.41 142.25 1237.38 142.25Z" fill="#EAEBF2"/>
<circle cx="20" cy="90" r="19.5" fill="white" stroke="#EAEBF2"/>
<path d="M13 95V97H27V95H13ZM17.5 90.8H22.5L23.4 93H25.5L20.75 82H19.25L14.5 93H16.6L17.5 90.8ZM20 83.98L21.87 89H18.13L20 83.98Z" fill="#EAEBF2"/>
<circle cx="1243" cy="30" r="19.5" fill="white" stroke="#EAEBF2"/>
<path d="M1250.5 26.19L1249.44 25.1325L1247.31 27.54C1245.76 25.8 1243.62 24.75 1241.21 24.75C1239.04 24.75 1237.05 25.62 1235.5 27L1236.57 28.065C1237.84 26.9475 1239.45 26.25 1241.21 26.25C1243.26 26.25 1245.02 27.195 1246.28 28.68L1244.12 31.11L1241.12 28.11L1235.5 33.7425L1236.62 34.8675L1241.12 30.36L1244.12 33.36L1247.16 29.9475C1247.72 30.96 1248.1 32.1225 1248.24 33.36H1249.75C1249.59 31.635 1249.04 30.0675 1248.22 28.755L1250.5 26.19Z" fill="#EAEBF2"/>
<circle cx="316" cy="70" r="19.5" fill="white" stroke="#EAEBF2"/>
<path d="M311 74.1668H313.5L315.167 70.8335V65.8335H310.167V70.8335H312.667L311 74.1668ZM317.667 74.1668H320.167L321.833 70.8335V65.8335H316.833V70.8335H319.333L317.667 74.1668Z" fill="#EAEBF2"/>
<circle cx="1297" cy="84" r="19.5" fill="white" stroke="#EAEBF2"/>
<path d="M1292 88.1668H1294.5L1296.17 84.8335V79.8335H1291.17V84.8335H1293.67L1292 88.1668ZM1298.67 88.1668H1301.17L1302.83 84.8335V79.8335H1297.83V84.8335H1300.33L1298.67 88.1668Z" fill="#EAEBF2"/>
<circle cx="1019" cy="77" r="19.5" fill="white" stroke="#EAEBF2"/>
<path d="M1011.9 82.7375L1012.9 83.1575V76.385L1011.08 80.78C1010.77 81.545 1011.14 82.4225 1011.9 82.7375ZM1026.52 79.9625L1022.8 70.985C1022.57 70.4225 1022.02 70.0775 1021.44 70.0625C1021.25 70.0625 1021.05 70.0925 1020.85 70.175L1015.32 72.4625C1014.76 72.695 1014.42 73.235 1014.4 73.8125C1014.39 74.015 1014.43 74.2175 1014.51 74.4125L1018.23 83.39C1018.47 83.96 1019.02 84.305 1019.61 84.3125C1019.8 84.3125 1020 84.275 1020.18 84.2L1025.7 81.9125C1026.47 81.5975 1026.84 80.72 1026.52 79.9625ZM1015.91 74.5625C1015.5 74.5625 1015.16 74.225 1015.16 73.8125C1015.16 73.4 1015.5 73.0625 1015.91 73.0625C1016.32 73.0625 1016.66 73.4 1016.66 73.8125C1016.66 74.225 1016.32 74.5625 1015.91 74.5625ZM1014.41 82.8125C1014.41 83.6375 1015.08 84.3125 1015.91 84.3125H1017L1014.41 78.0575V82.8125Z" fill="#EAEBF2"/>
<circle cx="917" cy="43" r="19.5" fill="white" stroke="#EAEBF2"/>
<path d="M922.632 36.31L910.31 48.6325C910.377 48.8875 910.512 49.12 910.692 49.3075C910.88 49.4875 911.112 49.6225 911.367 49.69L923.698 37.3675C923.555 36.85 923.15 36.445 922.632 36.31ZM916.91 36.25L910.25 42.91V45.0325L919.033 36.25H916.91ZM911.75 36.25C910.925 36.25 910.25 36.925 910.25 37.75V39.25L913.25 36.25H911.75ZM922.25 49.75C922.663 49.75 923.037 49.585 923.307 49.3075C923.585 49.0375 923.75 48.6625 923.75 48.25V46.75L920.75 49.75H922.25ZM914.967 49.75H917.09L923.75 43.09V40.9675L914.967 49.75Z" fill="#EAEBF2"/>
<circle cx="965" cy="143" r="19.5" fill="white" stroke="#EAEBF2"/>
<path d="M971.125 141.367C970.558 138.492 968.033 136.333 965 136.333C962.592 136.333 960.508 137.7 959.467 139.7C956.958 139.967 955 142.083 955 144.667C955 147.425 957.242 149.667 960 149.667H970.833C973.133 149.667 975 147.8 975 145.5C975 143.3 973.292 141.517 971.125 141.367ZM970.833 148H960C958.158 148 956.667 146.508 956.667 144.667C956.667 142.825 958.158 141.333 960 141.333C961.842 141.333 963.333 142.825 963.333 144.667H965C965 142.367 963.45 140.433 961.333 139.85C962.175 138.733 963.5 138 965 138C967.525 138 969.583 140.058 969.583 142.583V143H970.833C972.208 143 973.333 144.125 973.333 145.5C973.333 146.875 972.208 148 970.833 148Z" fill="#EAEBF2"/>
<circle cx="92" cy="151" r="19.5" fill="white" stroke="#EAEBF2"/>
<path d="M100.25 147.25V142.75H95.75V144.25H88.25V142.75H83.75V147.25H85.25V154.75H83.75V159.25H88.25V157.75H95.75V159.25H100.25V154.75H98.75V147.25H100.25ZM85.25 144.25H86.75V145.75H85.25V144.25ZM86.75 157.75H85.25V156.25H86.75V157.75ZM95.75 156.25H88.25V154.75H86.75V147.25H88.25V145.75H95.75V147.25H97.25V154.75H95.75V156.25ZM98.75 157.75H97.25V156.25H98.75V157.75ZM97.25 145.75V144.25H98.75V145.75H97.25ZM93.2975 152.5H90.68L90.1325 154H88.9175L91.4675 147.25H92.5175L95.075 154H93.8525L93.2975 152.5ZM91.0175 151.555H92.975L92 148.682L91.0175 151.555Z" fill="#EAEBF2"/>
<circle cx="1079" cy="20" r="19.5" fill="white" stroke="#EAEBF2"/>
<path d="M1086.49 14C1086.49 13.175 1085.83 12.5 1085 12.5H1073C1072.18 12.5 1071.5 13.175 1071.5 14V23C1071.5 23.825 1072.18 24.5 1073 24.5H1083.5L1086.5 27.5L1086.49 14ZM1082.75 19.25H1079.75V22.25H1078.25V19.25H1075.25V17.75H1078.25V14.75H1079.75V17.75H1082.75V19.25Z" fill="#EAEBF2"/>
<circle cx="409" cy="40" r="19.5" fill="white" stroke="#EAEBF2"/>
<path d="M416.493 34C416.493 33.175 415.825 32.5 415 32.5H403C402.175 32.5 401.5 33.175 401.5 34V43C401.5 43.825 402.175 44.5 403 44.5H413.5L416.5 47.5L416.493 34ZM412.75 39.25H409.75V42.25H408.25V39.25H405.25V37.75H408.25V34.75H409.75V37.75H412.75V39.25Z" fill="#EAEBF2"/>
<circle cx="1100" cy="136" r="19.5" fill="white" stroke="#EAEBF2"/>
<path d="M1093.25 129.25V142.75H1106.75V129.25H1093.25ZM1099.25 141.25H1094.75V136.75H1099.25V141.25ZM1099.25 135.25H1094.75V130.75H1099.25V135.25ZM1105.25 141.25H1100.75V136.75H1105.25V141.25ZM1105.25 135.25H1100.75V130.75H1105.25V135.25Z" fill="#EAEBF2"/>
<circle cx="168" cy="90" r="19.5" fill="white" stroke="#EAEBF2"/>
<path d="M161.25 83.25V96.75H174.75V83.25H161.25ZM167.25 95.25H162.75V90.75H167.25V95.25ZM167.25 89.25H162.75V84.75H167.25V89.25ZM173.25 95.25H168.75V90.75H173.25V95.25ZM173.25 89.25H168.75V84.75H173.25V89.25Z" fill="#EAEBF2"/>
<circle cx="84" cy="25" r="19.5" fill="white" stroke="#EAEBF2"/>
<path d="M87.75 18.25H80.25C79.425 18.25 78.7575 18.925 78.7575 19.75L78.75 31.75L84 29.5L89.25 31.75V19.75C89.25 18.925 88.575 18.25 87.75 18.25Z" fill="#EAEBF2"/>
<circle cx="409" cy="141" r="19.5" fill="white" stroke="#EAEBF2"/>
<path d="M412.75 134.25H405.25C404.425 134.25 403.758 134.925 403.758 135.75L403.75 147.75L409 145.5L414.25 147.75V135.75C414.25 134.925 413.575 134.25 412.75 134.25Z" fill="#EAEBF2"/>
</svg>
