<svg width="1440" height="618" viewBox="0 0 1440 618" fill="none" xmlns="http://www.w3.org/2000/svg">
  <rect width="1440" height="618" fill="url(#paint0_linear)"/>
  <path d="M728.5 510.5V548" stroke="white" stroke-opacity="0.1"/>
  <path d="M711 93.5V55" stroke="white" stroke-opacity="0.1"/>
  <path d="M969 319.5L1027 274.5" stroke="white" stroke-opacity="0.1"/>
  <path d="M1103 410.5L1166.5 443.5" stroke="white" stroke-opacity="0.1"/>
  <path d="M1214 435.5L1242.5 378.5" stroke="white" stroke-opacity="0.1"/>
  <path d="M1235.5 334.5L1191.5 280" stroke="white" stroke-opacity="0.1"/>
  <path d="M1089.5 369L1158 281.5" stroke="white" stroke-opacity="0.1"/>
  <path d="M1071 369L1058 286.5" stroke="white" stroke-opacity="0.1"/>
  <path d="M1083.5 256.5H1142" stroke="white" stroke-opacity="0.1"/>
  <path d="M1061 228L1093 171" stroke="white" stroke-opacity="0.1"/>
  <path d="M1168 229L1128.5 169" stroke="white" stroke-opacity="0.1"/>
  <path d="M1194.5 233L1229 156" stroke="white" stroke-opacity="0.1"/>
  <path d="M1025.5 235L972.5 180.5" stroke="white" stroke-opacity="0.1"/>
  <path d="M1215 480L1266.5 548" stroke="white" stroke-opacity="0.1"/>
  <path d="M1282 356.5H1423" stroke="white" stroke-opacity="0.1"/>
  <path d="M1202.5 256L1427 204" stroke="white" stroke-opacity="0.1"/>
  <path d="M1269.5 128L1429.5 189" stroke="white" stroke-opacity="0.1"/>
  <path d="M965.5 130.5L1021.5 56.5" stroke="white" stroke-opacity="0.1"/>
  <path d="M1096.5 117L1036 56.5" stroke="white" stroke-opacity="0.1"/>
  <path d="M1123.5 117.5L1163 53.5" stroke="white" stroke-opacity="0.1"/>
  <path d="M1223.5 106.5L1173.5 55.5" stroke="white" stroke-opacity="0.1"/>
  <path d="M1253.5 103.5L1280.5 51.5" stroke="white" stroke-opacity="0.1"/>
  <path d="M1174 480.5L1087.5 546.5" stroke="white" stroke-opacity="0.1"/>
  <path d="M1033 518L1074.5 544" stroke="white" stroke-opacity="0.1"/>
  <path d="M179.5 516.5L193.5 548" stroke="white" stroke-opacity="0.1"/>
  <path d="M400.5 511.5L210.5 551" stroke="white" stroke-opacity="0.1"/>
  <path d="M457.5 487.5L531.5 445" stroke="white" stroke-opacity="0.1"/>
  <path d="M468.5 341L534 427.5" stroke="white" stroke-opacity="0.1"/>
  <path d="M469.5 312L534.5 238.5" stroke="white" stroke-opacity="0.1"/>
  <path d="M479.5 181L533.5 224" stroke="white" stroke-opacity="0.1"/>
  <path d="M370.5 102L479.5 51" stroke="white" stroke-opacity="0.1"/>
  <path d="M328 93.5L278 51" stroke="white" stroke-opacity="0.1"/>
  <path d="M213.5 86.5L264.5 50" stroke="white" stroke-opacity="0.1"/>
  <path d="M446 514L501.5 551" stroke="white" stroke-opacity="0.1"/>
  <path d="M522.5 548.5L715.5 505.5" stroke="white" stroke-opacity="0.1"/>
  <path d="M739.5 505.5L977 510" stroke="white" stroke-opacity="0.1"/>
  <path d="M981.5 497L908 450.5" stroke="white" stroke-opacity="0.1"/>
  <path d="M939 367.5L906.5 439" stroke="white" stroke-opacity="0.1"/>
  <path d="M938.5 321.5L901 260" stroke="white" stroke-opacity="0.1"/>
  <path d="M934.5 184L901 247.5" stroke="white" stroke-opacity="0.1"/>
  <path d="M932.5 131.5L875 53" stroke="white" stroke-opacity="0.1"/>
  <circle cx="1009" cy="502" r="20" fill="white" fill-opacity="0.15"/>
  <path d="M1003 509C1003 510.1 1003.9 511 1005 511H1013C1014.1 511 1015 510.1 1015 509V497H1003V509ZM1005.46 501.88L1006.87 500.47L1009 502.59L1011.12 500.47L1012.53 501.88L1010.41 504L1012.53 506.12L1011.12 507.53L1009 505.41L1006.88 507.53L1005.47 506.12L1007.59 504L1005.46 501.88ZM1012.5 494L1011.5 493H1006.5L1005.5 494H1002V496H1016V494H1012.5Z" fill="white"/>
  <circle cx="345" cy="118" r="20" fill="white" fill-opacity="0.15"/>
  <path d="M339 125C339 126.1 339.9 127 341 127H349C350.1 127 351 126.1 351 125V113H339V125ZM341.46 117.88L342.87 116.47L345 118.59L347.12 116.47L348.53 117.88L346.41 120L348.53 122.12L347.12 123.53L345 121.41L342.88 123.53L341.47 122.12L343.59 120L341.46 117.88ZM348.5 110L347.5 109H342.5L341.5 110H338V112H352V110H348.5Z" fill="white"/>
  <circle cx="1240" cy="130" r="20" fill="white" fill-opacity="0.15"/>
  <path d="M1245 138.41L1246.41 137L1243 133.59L1241.59 135L1245 138.41ZM1235.5 126H1239V131.59L1233.59 137L1235 138.41L1241 132.41V126H1244.5L1240 121.5L1235.5 126Z" fill="white"/>
  <circle cx="285" cy="236" r="20" fill="white" fill-opacity="0.15"/>
  <path d="M290 244.41L291.41 243L288 239.59L286.59 241L290 244.41ZM280.5 232H284V237.59L278.59 243L280 244.41L286 238.41V232H289.5L285 227.5L280.5 232Z" fill="white"/>
  <circle cx="440" cy="330" r="20" fill="white" fill-opacity="0.15"/>
  <path d="M443.75 332.25H445.25V326.25C445.25 325.425 444.575 324.75 443.75 324.75H437.75V326.25H443.75V332.25ZM436.25 333.75V321.75H434.75V324.75H431.75V326.25H434.75V333.75C434.75 334.575 435.425 335.25 436.25 335.25H443.75V338.25H445.25V335.25H448.25V333.75H436.25Z" fill="white"/>
  <circle cx="192" cy="110" r="20" fill="white" fill-opacity="0.15"/>
  <path d="M198.532 105.223L196.778 103.468C196.485 103.175 196.012 103.175 195.72 103.468L193.38 105.808L191.932 104.375L190.875 105.433L191.94 106.498L185.25 113.188V116.75H188.812L195.503 110.06L196.568 111.125L197.625 110.068L196.185 108.628L198.525 106.288C198.825 105.988 198.825 105.515 198.532 105.223ZM188.19 115.25L186.75 113.81L192.795 107.765L194.235 109.205L188.19 115.25Z" fill="white"/>
  <circle cx="296" cy="377" r="20" fill="white" fill-opacity="0.15"/>
  <path d="M289 382V384H303V382H289ZM293.5 377.8H298.5L299.4 380H301.5L296.75 369H295.25L290.5 380H292.6L293.5 377.8ZM296 370.98L297.87 376H294.13L296 370.98Z" fill="white"/>
  <circle cx="959" cy="347" r="20" fill="white" fill-opacity="0.15"/>
  <path d="M962 344H960.5V346.25H958.25V347.75H960.5V350H962V347.75H964.25V346.25H962V344ZM951.5 347C951.5 344.908 952.73 343.1 954.508 342.26V340.64C951.89 341.57 950 344.067 950 347C950 349.932 951.89 352.43 954.508 353.36V351.74C952.73 350.9 951.5 349.092 951.5 347ZM961.25 340.25C957.53 340.25 954.5 343.28 954.5 347C954.5 350.72 957.53 353.75 961.25 353.75C964.97 353.75 968 350.72 968 347C968 343.28 964.97 340.25 961.25 340.25ZM961.25 352.25C958.355 352.25 956 349.895 956 347C956 344.105 958.355 341.75 961.25 341.75C964.145 341.75 966.5 344.105 966.5 347C966.5 349.895 964.145 352.25 961.25 352.25Z" fill="white"/>
  <circle cx="1052" cy="257" r="20" fill="white" fill-opacity="0.15"/>
  <path d="M1044.9 262.737L1045.9 263.157V256.385L1044.08 260.78C1043.77 261.545 1044.14 262.422 1044.9 262.737ZM1059.52 259.962L1055.8 250.985C1055.57 250.423 1055.02 250.077 1054.45 250.062C1054.25 250.062 1054.05 250.093 1053.85 250.175L1048.33 252.462C1047.76 252.695 1047.42 253.235 1047.4 253.812C1047.4 254.015 1047.43 254.218 1047.52 254.413L1051.24 263.39C1051.47 263.96 1052.02 264.305 1052.61 264.312C1052.8 264.312 1053 264.275 1053.19 264.2L1058.71 261.912C1059.47 261.597 1059.84 260.72 1059.52 259.962ZM1048.91 254.562C1048.5 254.562 1048.16 254.225 1048.16 253.812C1048.16 253.4 1048.5 253.062 1048.91 253.062C1049.32 253.062 1049.66 253.4 1049.66 253.812C1049.66 254.225 1049.32 254.562 1048.91 254.562ZM1047.41 262.812C1047.41 263.637 1048.09 264.312 1048.91 264.312H1050L1047.41 258.057V262.812Z" fill="white"/>
  <circle cx="454" cy="165" r="20" fill="white" fill-opacity="0.15"/>
  <path d="M446.898 170.737L447.903 171.157V164.385L446.08 168.78C445.773 169.545 446.14 170.422 446.898 170.737ZM461.523 167.962L457.803 158.985C457.57 158.423 457.023 158.077 456.445 158.062C456.25 158.062 456.048 158.093 455.853 158.175L450.325 160.462C449.763 160.695 449.418 161.235 449.403 161.812C449.395 162.015 449.433 162.218 449.515 162.413L453.235 171.39C453.468 171.96 454.023 172.305 454.608 172.312C454.803 172.312 454.998 172.275 455.185 172.2L460.705 169.912C461.47 169.597 461.838 168.72 461.523 167.962ZM450.91 162.562C450.498 162.562 450.16 162.225 450.16 161.812C450.16 161.4 450.498 161.062 450.91 161.062C451.323 161.062 451.66 161.4 451.66 161.812C451.66 162.225 451.323 162.562 450.91 162.562ZM449.41 170.812C449.41 171.637 450.085 172.312 450.91 172.312H451.998L449.41 166.057V170.812Z" fill="white"/>
  <circle cx="951" cy="157" r="20" fill="white" fill-opacity="0.15"/>
  <path d="M946 149.5H943.5V152C944.883 152 946 150.883 946 149.5ZM952.667 149.5H951C951 153.642 947.642 157 943.5 157V158.667C948.567 158.667 952.667 154.558 952.667 149.5ZM949.333 149.5H947.667C947.667 151.8 945.8 153.667 943.5 153.667V155.333C946.725 155.333 949.333 152.725 949.333 149.5ZM949.333 164.5H951C951 160.358 954.358 157 958.5 157V155.333C953.442 155.333 949.333 159.442 949.333 164.5ZM956 164.5H958.5V162C957.117 162 956 163.117 956 164.5ZM952.667 164.5H954.333C954.333 162.2 956.2 160.333 958.5 160.333V158.667C955.275 158.667 952.667 161.275 952.667 164.5Z" fill="white"/>
  <circle cx="1111" cy="145" r="20" fill="white" fill-opacity="0.15"/>
  <path d="M1119.25 141.25V136.75H1114.75V138.25H1107.25V136.75H1102.75V141.25H1104.25V148.75H1102.75V153.25H1107.25V151.75H1114.75V153.25H1119.25V148.75H1117.75V141.25H1119.25ZM1104.25 138.25H1105.75V139.75H1104.25V138.25ZM1105.75 151.75H1104.25V150.25H1105.75V151.75ZM1114.75 150.25H1107.25V148.75H1105.75V141.25H1107.25V139.75H1114.75V141.25H1116.25V148.75H1114.75V150.25ZM1117.75 151.75H1116.25V150.25H1117.75V151.75ZM1116.25 139.75V138.25H1117.75V139.75H1116.25ZM1112.3 146.5H1109.68L1109.13 148H1107.92L1110.47 141.25H1111.52L1114.08 148H1112.85L1112.3 146.5ZM1110.02 145.555H1111.98L1111 142.682L1110.02 145.555Z" fill="white"/>
  <circle cx="1079" cy="396" r="20" fill="white" fill-opacity="0.15"/>
  <path d="M1086.49 390C1086.49 389.175 1085.83 388.5 1085 388.5H1073C1072.18 388.5 1071.5 389.175 1071.5 390V399C1071.5 399.825 1072.18 400.5 1073 400.5H1083.5L1086.5 403.5L1086.49 390ZM1082.75 395.25H1079.75V398.25H1078.25V395.25H1075.25V393.75H1078.25V390.75H1079.75V393.75H1082.75V395.25Z" fill="white"/>
  <circle cx="1195" cy="457" r="20" fill="white" fill-opacity="0.15"/>
  <path d="M1188.25 450.25V463.75H1201.75V450.25H1188.25ZM1194.25 462.25H1189.75V457.75H1194.25V462.25ZM1194.25 456.25H1189.75V451.75H1194.25V456.25ZM1200.25 462.25H1195.75V457.75H1200.25V462.25ZM1200.25 456.25H1195.75V451.75H1200.25V456.25Z" fill="white"/>
  <circle cx="1255" cy="356" r="20" fill="white" fill-opacity="0.15"/>
  <path d="M1258.75 349.25H1251.25C1250.42 349.25 1249.76 349.925 1249.76 350.75L1249.75 362.75L1255 360.5L1260.25 362.75V350.75C1260.25 349.925 1259.57 349.25 1258.75 349.25Z" fill="white"/>
  <circle cx="158" cy="296" r="20" fill="white" fill-opacity="0.15"/>
  <path d="M161.75 289.25H154.25C153.425 289.25 152.758 289.925 152.758 290.75L152.75 302.75L158 300.5L163.25 302.75V290.75C163.25 289.925 162.575 289.25 161.75 289.25Z" fill="white"/>
  <circle cx="169" cy="488" r="20" fill="white" fill-opacity="0.15"/>
  <path d="M172.75 481.25H165.25C164.425 481.25 163.758 481.925 163.758 482.75L163.75 494.75L169 492.5L174.25 494.75V482.75C174.25 481.925 173.575 481.25 172.75 481.25Z" fill="white"/>
  <circle cx="425" cy="495" r="20" fill="white" fill-opacity="0.15"/>
  <path d="M416.75 489.75H418.25V500.25H416.75V489.75ZM419.75 489.75H421.25V500.25H419.75V489.75ZM432.5 489.75H423.5C423.088 489.75 422.75 490.087 422.75 490.5V499.5C422.75 499.913 423.088 500.25 423.5 500.25H432.5C432.913 500.25 433.25 499.913 433.25 499.5V490.5C433.25 490.087 432.913 489.75 432.5 489.75ZM424.25 498.75L426.125 496.388L427.467 498L429.343 495.585L431.75 498.75H424.25Z" fill="white"/>
  <circle cx="1175" cy="257" r="20" fill="white" fill-opacity="0.15"/>
  <path d="M1175 250.25C1171.27 250.25 1168.25 253.273 1168.25 257C1168.25 260.727 1171.27 263.75 1175 263.75C1175.62 263.75 1176.12 263.248 1176.12 262.625C1176.12 262.333 1176.01 262.07 1175.83 261.868C1175.66 261.672 1175.55 261.41 1175.55 261.125C1175.55 260.502 1176.05 260 1176.67 260H1178C1180.07 260 1181.75 258.32 1181.75 256.25C1181.75 252.935 1178.73 250.25 1175 250.25ZM1170.88 257C1170.25 257 1169.75 256.497 1169.75 255.875C1169.75 255.253 1170.25 254.75 1170.88 254.75C1171.5 254.75 1172 255.253 1172 255.875C1172 256.497 1171.5 257 1170.88 257ZM1173.12 254C1172.5 254 1172 253.497 1172 252.875C1172 252.253 1172.5 251.75 1173.12 251.75C1173.75 251.75 1174.25 252.253 1174.25 252.875C1174.25 253.497 1173.75 254 1173.12 254ZM1176.88 254C1176.25 254 1175.75 253.497 1175.75 252.875C1175.75 252.253 1176.25 251.75 1176.88 251.75C1177.5 251.75 1178 252.253 1178 252.875C1178 253.497 1177.5 254 1176.88 254ZM1179.12 257C1178.5 257 1178 256.497 1178 255.875C1178 255.253 1178.5 254.75 1179.12 254.75C1179.75 254.75 1180.25 255.253 1180.25 255.875C1180.25 256.497 1179.75 257 1179.12 257Z" fill="white"/>
  <path d="M193 472L278 398.5" stroke="white" stroke-opacity="0.1"/>
  <path d="M401.5 473.5L316 396.5" stroke="white" stroke-opacity="0.1"/>
  <path d="M324 365L412 339.5" stroke="white" stroke-opacity="0.1"/>
  <path d="M416.5 312L310.5 253.5" stroke="white" stroke-opacity="0.1"/>
  <path d="M183.5 283L258.5 248.5" stroke="white" stroke-opacity="0.1"/>
  <path d="M269.5 367L180.5 311.5" stroke="white" stroke-opacity="0.1"/>
  <path d="M165.5 459.5L158.5 324.5" stroke="white" stroke-opacity="0.1"/>
  <path d="M198.5 493.5L396.5 497" stroke="white" stroke-opacity="0.1"/>
  <path d="M429.5 467L436 359" stroke="white" stroke-opacity="0.1"/>
  <path d="M442 302L452 192.5" stroke="white" stroke-opacity="0.1"/>
  <path d="M425.5 153L372 127.5" stroke="white" stroke-opacity="0.1"/>
  <path d="M294.5 209.5L329 143.5" stroke="white" stroke-opacity="0.1"/>
  <path d="M315 113L220 110" stroke="white" stroke-opacity="0.1"/>
  <path d="M181.5 136L163 266" stroke="white" stroke-opacity="0.1"/>
  <path d="M141.5 500.5L11 546.5" stroke="white" stroke-opacity="0.1"/>
  <path d="M138 317.5L6.5 533.5" stroke="white" stroke-opacity="0.1"/>
  <path d="M134.5 274.5L6.5 79" stroke="white" stroke-opacity="0.1"/>
  <path d="M160.5 98L8 65" stroke="white" stroke-opacity="0.1"/>
  <path d="M1029 477.5L1065.5 422" stroke="white" stroke-opacity="0.1"/>
  <path d="M999 476L966.5 374" stroke="white" stroke-opacity="0.1"/>
  <path d="M1273 382.5L1381.5 542" stroke="white" stroke-opacity="0.1"/>
  <path d="M467 136L498 53.5" stroke="white" stroke-opacity="0.1"/>
  <defs>
    <linearGradient id="paint0_linear" x1="0" y1="618" x2="1448.17" y2="19.7733" gradientUnits="userSpaceOnUse">
      <stop stop-color="#4298E8"/>
      <stop offset="1" stop-color="#8044DB"/>
    </linearGradient>
  </defs>
</svg>
