<svg width="263" height="42" viewBox="0 0 263 42" fill="none" xmlns="http://www.w3.org/2000/svg">
<rect width="42" height="42" rx="5" fill="#C4C4C4"/>
<rect width="42" height="42" rx="5" fill="url(#paint0_linear)"/>
<path d="M10.1519 20.6969H10.8847C11.5696 20.6969 12.0821 20.5654 12.4222 20.3023C12.7623 20.0346 12.9323 19.647 12.9323 19.1397C12.9323 18.6276 12.7886 18.2495 12.5012 18.0052C12.2186 17.7609 11.7732 17.6388 11.1649 17.6388H10.1519V20.6969ZM15.181 19.0622C15.181 20.1708 14.8266 21.0187 14.1177 21.6059C13.4136 22.1931 12.4102 22.4867 11.1075 22.4867H10.1519V26.1509H7.9248V15.849H11.2799C12.5539 15.849 13.5214 16.1191 14.1824 16.6593C14.8481 17.1949 15.181 17.9958 15.181 19.0622Z" fill="white"/>
<path d="M25.8784 20.9013C25.8784 22.5971 25.3851 23.896 24.3985 24.798C23.4166 25.6999 21.9965 26.1509 20.1382 26.1509H17.1639V15.849H20.4615C22.1761 15.849 23.5076 16.2929 24.4559 17.1808C25.4043 18.0686 25.8784 19.3088 25.8784 20.9013ZM23.5651 20.9577C23.5651 18.7451 22.5688 17.6388 20.5764 17.6388H19.391V24.347H20.3465C22.4922 24.347 23.5651 23.2172 23.5651 20.9577Z" fill="white"/>
<path d="M30.2465 26.1509H28.0553V15.849H34.0757V17.6388H30.2465V20.2953H33.8099V22.078H30.2465V26.1509Z" fill="white"/>
<g clip-path="url(#clip0)">
<path d="M28.2864 11.4276C27.9532 11.6293 27.5276 11.3893 27.5276 10.9999V9.36537H9.36563C8.56988 9.36537 7.9248 8.72029 7.9248 7.92454V7.92454C7.9248 7.1288 8.56988 6.48372 9.36563 6.48372H27.5276V4.84924C27.5276 4.45976 27.9532 4.21982 28.2864 4.42146L33.3688 7.49676C33.6903 7.69132 33.6903 8.15777 33.3688 8.35233L28.2864 11.4276Z" fill="white"/>
</g>
<g clip-path="url(#clip1)">
<path d="M13.7136 30.5724C14.0468 30.3707 14.4724 30.6107 14.4724 31.0001L14.4724 32.6346L32.6344 32.6346C33.4301 32.6346 34.0752 33.2797 34.0752 34.0755V34.0755C34.0752 34.8712 33.4301 35.5163 32.6344 35.5163L14.4724 35.5163L14.4724 37.1508C14.4724 37.5402 14.0468 37.7802 13.7136 37.5785L8.63122 34.5032C8.30968 34.3087 8.30968 33.8422 8.63122 33.6477L13.7136 30.5724Z" fill="white"/>
</g>
<path d="M63.1168 28.382H59.8721V12.7564H68.787V15.4711H63.1168V19.5004H68.3933V22.2044H63.1168V28.382Z" fill="white"/>
<path d="M75.1274 19.6928H76.1912C77.2338 19.6928 78.0033 19.5182 78.4997 19.1691C78.9962 18.82 79.2444 18.2713 79.2444 17.5232C79.2444 16.7822 78.9891 16.2549 78.4785 15.9414C77.9749 15.6279 77.1912 15.4711 76.1274 15.4711H75.1274V19.6928ZM75.1274 22.3861V28.382H71.8295V12.7564H76.3614C78.4749 12.7564 80.0387 13.1448 81.0529 13.9214C82.0671 14.6909 82.5742 15.863 82.5742 17.4377C82.5742 18.3568 82.3224 19.1762 81.8189 19.8959C81.3153 20.6084 80.6026 21.1677 79.6806 21.5739C82.021 25.0866 83.5458 27.3559 84.2551 28.382H80.5955L76.8827 22.3861H75.1274Z" fill="white"/>
<path d="M95.1699 28.382H86.2125V12.7564H95.1699V15.4711H89.5104V18.9019H94.7763V21.6166H89.5104V25.6459H95.1699V28.382Z" fill="white"/>
<path d="M107.383 28.382H98.4253V12.7564H107.383V15.4711H101.723V18.9019H106.989V21.6166H101.723V25.6459H107.383V28.382Z" fill="white"/>
<path d="M122.606 15.2894C121.365 15.2894 120.404 15.7597 119.723 16.7002C119.042 17.6336 118.702 18.9375 118.702 20.612C118.702 24.0962 120.003 25.8383 122.606 25.8383C123.698 25.8383 125.021 25.564 126.574 25.0153V27.7941C125.298 28.3285 123.872 28.5957 122.298 28.5957C120.035 28.5957 118.305 27.9081 117.106 26.533C115.908 25.1507 115.308 23.1699 115.308 20.5906C115.308 18.966 115.603 17.5446 116.191 16.3262C116.78 15.1006 117.624 14.1637 118.723 13.5153C119.83 12.8598 121.124 12.532 122.606 12.532C124.117 12.532 125.634 12.8989 127.159 13.6328L126.095 16.3262C125.514 16.0483 124.929 15.806 124.34 15.5994C123.752 15.3928 123.173 15.2894 122.606 15.2894Z" fill="white"/>
<path d="M144.01 20.5478C144.01 23.1343 143.372 25.1222 142.095 26.5116C140.819 27.901 138.989 28.5957 136.606 28.5957C134.223 28.5957 132.393 27.901 131.117 26.5116C129.84 25.1222 129.202 23.1271 129.202 20.5265C129.202 17.9258 129.84 15.9414 131.117 14.5734C132.4 13.1982 134.237 12.5106 136.627 12.5106C139.017 12.5106 140.844 13.2018 142.106 14.584C143.376 15.9663 144.01 17.9543 144.01 20.5478ZM132.659 20.5478C132.659 22.2935 132.989 23.6081 133.649 24.4916C134.308 25.3751 135.294 25.8169 136.606 25.8169C139.237 25.8169 140.553 24.0605 140.553 20.5478C140.553 17.028 139.244 15.2681 136.627 15.2681C135.315 15.2681 134.326 15.7134 133.659 16.604C132.993 17.4876 132.659 18.8022 132.659 20.5478Z" fill="white"/>
<path d="M161.032 28.382H156.84L150.074 16.5613H149.978C150.113 18.649 150.181 20.1381 150.181 21.0288V28.382H147.234V12.7564H151.393L158.149 24.4596H158.223C158.117 22.4289 158.064 20.9932 158.064 20.1524V12.7564H161.032V28.382Z" fill="white"/>
<path d="M173.83 12.7564H177.159L171.872 28.382H168.276L163 12.7564H166.33L169.255 22.0548C169.418 22.6034 169.585 23.2447 169.755 23.9786C169.932 24.7054 170.042 25.2113 170.085 25.4963C170.163 24.8408 170.429 23.6936 170.883 22.0548L173.83 12.7564Z" fill="white"/>
<path d="M188.085 28.382H179.127V12.7564H188.085V15.4711H182.425V18.9019H187.691V21.6166H182.425V25.6459H188.085V28.382Z" fill="white"/>
<path d="M194.638 19.6928H195.702C196.744 19.6928 197.514 19.5182 198.01 19.1691C198.507 18.82 198.755 18.2713 198.755 17.5232C198.755 16.7822 198.5 16.2549 197.989 15.9414C197.486 15.6279 196.702 15.4711 195.638 15.4711H194.638V19.6928ZM194.638 22.3861V28.382H191.34V12.7564H195.872C197.986 12.7564 199.549 13.1448 200.564 13.9214C201.578 14.6909 202.085 15.863 202.085 17.4377C202.085 18.3568 201.833 19.1762 201.33 19.8959C200.826 20.6084 200.113 21.1677 199.191 21.5739C201.532 25.0866 203.056 27.3559 203.766 28.382H200.106L196.393 22.3861H194.638Z" fill="white"/>
<path d="M211.723 28.382H208.425V15.5139H204.202V12.7564H215.947V15.5139H211.723V28.382Z" fill="white"/>
<path d="M227.298 20.1096H228.383C229.397 20.1096 230.156 19.9101 230.659 19.5111C231.163 19.105 231.415 18.5172 231.415 17.7476C231.415 16.971 231.202 16.3974 230.776 16.0269C230.358 15.6564 229.698 15.4711 228.798 15.4711H227.298V20.1096ZM234.744 17.6301C234.744 19.3116 234.22 20.5977 233.17 21.4884C232.127 22.379 230.642 22.8243 228.713 22.8243H227.298V28.382H224V12.7564H228.968C230.854 12.7564 232.287 13.1661 233.266 13.9855C234.252 14.7978 234.744 16.0126 234.744 17.6301Z" fill="white"/>
<path d="M250.585 20.4196C250.585 22.9918 249.854 24.9619 248.393 26.3299C246.939 27.698 244.837 28.382 242.085 28.382H237.681V12.7564H242.564C245.103 12.7564 247.074 13.4298 248.478 14.7764C249.883 16.1231 250.585 18.0041 250.585 20.4196ZM247.159 20.5051C247.159 17.1491 245.684 15.4711 242.734 15.4711H240.978V25.6459H242.393C245.571 25.6459 247.159 23.9323 247.159 20.5051Z" fill="white"/>
<path d="M257.053 28.382H253.808V12.7564H262.723V15.4711H257.053V19.5004H262.33V22.2044H257.053V28.382Z" fill="white"/>
<defs>
<linearGradient id="paint0_linear" x1="3.81818" y1="21" x2="42" y2="21" gradientUnits="userSpaceOnUse">
<stop stop-color="#1CD995"/>
<stop offset="1" stop-color="#42E666"/>
</linearGradient>
<clipPath id="clip0">
<rect width="26.1509" height="7.92453" fill="white" transform="translate(7.9248 3.96228)"/>
</clipPath>
<clipPath id="clip1">
<rect width="26.1509" height="7.92453" fill="white" transform="translate(34.0752 38.0377) rotate(-180)"/>
</clipPath>
</defs>
</svg>
