<svg width="1038" height="480" viewBox="0 0 1038 480" fill="none" xmlns="http://www.w3.org/2000/svg">
  <path d="M1037 432C1006 506.5 872.1 484.9 758.5 416.5C616.5 331 501.5 356.5 431 386.5C360.5 416.5 290.5 397 262 372C239.2 352 233.833 331 234 323" stroke="#EAEBF2"/>
  <path d="M859 73.0001C781.5 59.1668 530 58.0001 378 98.5001C226 139 109 131 60.5 168C12 205 9.50002 290.1 150 301" stroke="#EAEBF2"/>
  <circle cx="488" cy="103" r="19.5" fill="white" stroke="#EAEBF2"/>
  <path d="M482 110C482 111.1 482.9 112 484 112H492C493.1 112 494 111.1 494 110V98H482V110ZM484.46 102.88L485.87 101.47L488 103.59L490.12 101.47L491.53 102.88L489.41 105L491.53 107.12L490.12 108.53L488 106.41L485.88 108.53L484.47 107.12L486.59 105L484.46 102.88ZM491.5 95L490.5 94H485.5L484.5 95H481V97H495V95H491.5Z" fill="#EAEBF2"/>
  <circle cx="355" cy="40" r="19.5" fill="white" stroke="#EAEBF2"/>
  <path d="M360 48.41L361.41 47L358 43.59L356.59 45L360 48.41ZM350.5 36H354V41.59L348.59 47L350 48.41L356 42.41V36H359.5L355 31.5L350.5 36Z" fill="#EAEBF2"/>
  <circle cx="295" cy="417" r="19.5" fill="white" stroke="#EAEBF2"/>
  <path d="M300 425.41L301.41 424L298 420.59L296.59 422L300 425.41ZM290.5 413H294V418.59L288.59 424L290 425.41L296 419.41V413H299.5L295 408.5L290.5 413Z" fill="#EAEBF2"/>
  <circle cx="255" cy="99" r="19.5" fill="white" stroke="#EAEBF2"/>
  <path d="M261.375 98.25H260.25V95.25C260.25 94.425 259.575 93.75 258.75 93.75H255.75V92.625C255.75 91.59 254.91 90.75 253.875 90.75C252.84 90.75 252 91.59 252 92.625V93.75H249C248.175 93.75 247.507 94.425 247.507 95.25V98.1H248.625C249.743 98.1 250.65 99.0075 250.65 100.125C250.65 101.243 249.743 102.15 248.625 102.15H247.5V105C247.5 105.825 248.175 106.5 249 106.5H251.85V105.375C251.85 104.257 252.757 103.35 253.875 103.35C254.993 103.35 255.9 104.257 255.9 105.375V106.5H258.75C259.575 106.5 260.25 105.825 260.25 105V102H261.375C262.41 102 263.25 101.16 263.25 100.125C263.25 99.09 262.41 98.25 261.375 98.25Z" fill="#EAEBF2"/>
  <circle cx="137" cy="387" r="19.5" fill="white" stroke="#EAEBF2"/>
  <path d="M140.75 389.25H142.25V383.25C142.25 382.425 141.575 381.75 140.75 381.75H134.75V383.25H140.75V389.25ZM133.25 390.75V378.75H131.75V381.75H128.75V383.25H131.75V390.75C131.75 391.575 132.425 392.25 133.25 392.25H140.75V395.25H142.25V392.25H145.25V390.75H133.25Z" fill="#EAEBF2"/>
  <circle cx="403" cy="353" r="19.5" fill="white" stroke="#EAEBF2"/>
  <path d="M409.532 348.222L407.778 346.467C407.485 346.175 407.012 346.175 406.72 346.467L404.38 348.807L402.932 347.375L401.875 348.432L402.94 349.497L396.25 356.187V359.75H399.812L406.503 353.06L407.568 354.125L408.625 353.067L407.185 351.627L409.525 349.287C409.825 348.987 409.825 348.515 409.532 348.222V348.222ZM399.19 358.25L397.75 356.81L403.795 350.765L405.235 352.205L399.19 358.25Z" fill="#EAEBF2"/>
  <circle cx="28" cy="341" r="19.5" fill="white" stroke="#EAEBF2"/>
  <path d="M21 346V348H35V346H21ZM25.5 341.8H30.5L31.4 344H33.5L28.75 333H27.25L22.5 344H24.6L25.5 341.8ZM28 334.98L29.87 340H26.13L28 334.98Z" fill="#EAEBF2"/>
  <circle cx="20" cy="147" r="19.5" fill="white" stroke="#EAEBF2"/>
  <path d="M13 152V154H27V152H13ZM17.5 147.8H22.5L23.4 150H25.5L20.75 139H19.25L14.5 150H16.6L17.5 147.8ZM20 140.98L21.87 146H18.13L20 140.98Z" fill="#EAEBF2"/>
  <circle cx="47" cy="20" r="19.5" fill="white" stroke="#EAEBF2"/>
  <path d="M54.5 16.19L53.4425 15.1325L51.305 17.54C49.76 15.8 47.6225 14.75 45.2075 14.75C43.04 14.75 41.0525 15.62 39.5 17L40.565 18.065C41.84 16.9475 43.4525 16.25 45.2075 16.25C47.2625 16.25 49.025 17.195 50.285 18.68L48.125 21.11L45.125 18.11L39.5 23.7425L40.625 24.8675L45.125 20.36L48.125 23.36L51.1625 19.9475C51.725 20.96 52.1 22.1225 52.2425 23.36H53.75C53.585 21.635 53.0375 20.0675 52.22 18.755L54.5 16.19Z" fill="#EAEBF2"/>
  <circle cx="186" cy="27" r="19.5" fill="white" stroke="#EAEBF2"/>
  <path d="M181 31.1668H183.5L185.167 27.8335V22.8335H180.167V27.8335H182.667L181 31.1668ZM187.667 31.1668H190.167L191.833 27.8335V22.8335H186.833V27.8335H189.333L187.667 31.1668Z" fill="#EAEBF2"/>
  <circle cx="567" cy="305" r="19.5" fill="white" stroke="#EAEBF2"/>
  <path d="M559.5 309.167V310.833H564.5V309.167H559.5ZM559.5 299.167V300.833H567.833V299.167H559.5ZM567.833 312.5V310.833H574.5V309.167H567.833V307.5H566.167V312.5H567.833ZM562.833 302.5V304.167H559.5V305.833H562.833V307.5H564.5V302.5H562.833ZM574.5 305.833V304.167H566.167V305.833H574.5ZM569.5 302.5H571.167V300.833H574.5V299.167H571.167V297.5H569.5V302.5Z" fill="#EAEBF2"/>
  <circle cx="538" cy="409" r="19.5" fill="white" stroke="#EAEBF2"/>
  <path d="M541 406H539.5V408.25H537.25V409.75H539.5V412H541V409.75H543.25V408.25H541V406ZM530.5 409C530.5 406.908 531.73 405.1 533.508 404.26V402.64C530.89 403.57 529 406.067 529 409C529 411.933 530.89 414.43 533.508 415.36V413.74C531.73 412.9 530.5 411.092 530.5 409ZM540.25 402.25C536.53 402.25 533.5 405.28 533.5 409C533.5 412.72 536.53 415.75 540.25 415.75C543.97 415.75 547 412.72 547 409C547 405.28 543.97 402.25 540.25 402.25ZM540.25 414.25C537.355 414.25 535 411.895 535 409C535 406.105 537.355 403.75 540.25 403.75C543.145 403.75 545.5 406.105 545.5 409C545.5 411.895 543.145 414.25 540.25 414.25Z" fill="#EAEBF2"/>
  <circle cx="688" cy="345" r="19.5" fill="white" stroke="#EAEBF2"/>
  <path d="M680.898 350.737L681.903 351.157V344.385L680.08 348.78C679.773 349.545 680.14 350.422 680.898 350.737V350.737ZM695.523 347.962L691.803 338.985C691.57 338.423 691.023 338.077 690.445 338.062C690.25 338.062 690.048 338.093 689.853 338.175L684.325 340.462C683.763 340.695 683.418 341.235 683.403 341.812C683.395 342.015 683.433 342.218 683.515 342.413L687.235 351.39C687.468 351.96 688.023 352.305 688.608 352.312C688.803 352.312 688.998 352.275 689.185 352.2L694.705 349.912C695.47 349.597 695.838 348.72 695.523 347.962V347.962ZM684.91 342.562C684.498 342.562 684.16 342.225 684.16 341.812C684.16 341.4 684.498 341.062 684.91 341.062C685.323 341.062 685.66 341.4 685.66 341.812C685.66 342.225 685.323 342.562 684.91 342.562V342.562ZM683.41 350.812C683.41 351.638 684.085 352.312 684.91 352.312H685.998L683.41 346.057V350.812Z" fill="#EAEBF2"/>
  <circle cx="464" cy="277" r="19.5" fill="white" stroke="#EAEBF2"/>
  <path d="M469.633 270.31L457.31 282.633C457.377 282.888 457.512 283.12 457.692 283.307C457.88 283.487 458.112 283.623 458.367 283.69L470.698 271.367C470.555 270.85 470.15 270.445 469.633 270.31V270.31ZM463.91 270.25L457.25 276.91V279.033L466.033 270.25H463.91ZM458.75 270.25C457.925 270.25 457.25 270.925 457.25 271.75V273.25L460.25 270.25H458.75ZM469.25 283.75C469.663 283.75 470.037 283.585 470.307 283.307C470.585 283.037 470.75 282.663 470.75 282.25V280.75L467.75 283.75H469.25ZM461.967 283.75H464.09L470.75 277.09V274.967L461.967 283.75Z" fill="#EAEBF2"/>
  <circle cx="813" cy="282" r="19.5" fill="white" stroke="#EAEBF2"/>
  <path d="M808 274.5H805.5V277C806.883 277 808 275.883 808 274.5ZM814.667 274.5H813C813 278.642 809.642 282 805.5 282V283.667C810.567 283.667 814.667 279.558 814.667 274.5ZM811.333 274.5H809.667C809.667 276.8 807.8 278.667 805.5 278.667V280.333C808.725 280.333 811.333 277.725 811.333 274.5ZM811.333 289.5H813C813 285.358 816.358 282 820.5 282V280.333C815.442 280.333 811.333 284.442 811.333 289.5ZM818 289.5H820.5V287C819.117 287 818 288.117 818 289.5ZM814.667 289.5H816.333C816.333 287.2 818.2 285.333 820.5 285.333V283.667C817.275 283.667 814.667 286.275 814.667 289.5Z" fill="#EAEBF2"/>
  <circle cx="708" cy="247" r="19.5" fill="white" stroke="#EAEBF2"/>
  <path d="M714.125 245.367C713.558 242.492 711.033 240.333 708 240.333C705.592 240.333 703.508 241.7 702.467 243.7C699.958 243.967 698 246.083 698 248.667C698 251.425 700.242 253.667 703 253.667H713.833C716.133 253.667 718 251.8 718 249.5C718 247.3 716.292 245.517 714.125 245.367ZM713.833 252H703C701.158 252 699.667 250.508 699.667 248.667C699.667 246.825 701.158 245.333 703 245.333C704.842 245.333 706.333 246.825 706.333 248.667H708C708 246.367 706.45 244.433 704.333 243.85C705.175 242.733 706.5 242 708 242C710.525 242 712.583 244.058 712.583 246.583V247H713.833C715.208 247 716.333 248.125 716.333 249.5C716.333 250.875 715.208 252 713.833 252Z" fill="#EAEBF2"/>
  <circle cx="784" cy="126" r="19.5" fill="white" stroke="#EAEBF2"/>
  <path d="M792.25 122.25V117.75H787.75V119.25H780.25V117.75H775.75V122.25H777.25V129.75H775.75V134.25H780.25V132.75H787.75V134.25H792.25V129.75H790.75V122.25H792.25ZM777.25 119.25H778.75V120.75H777.25V119.25ZM778.75 132.75H777.25V131.25H778.75V132.75ZM787.75 131.25H780.25V129.75H778.75V122.25H780.25V120.75H787.75V122.25H789.25V129.75H787.75V131.25ZM790.75 132.75H789.25V131.25H790.75V132.75ZM789.25 120.75V119.25H790.75V120.75H789.25ZM785.297 127.5H782.68L782.133 129H780.917L783.467 122.25H784.517L787.075 129H785.853L785.297 127.5V127.5ZM783.017 126.555H784.975L784 123.682L783.017 126.555V126.555Z" fill="#EAEBF2"/>
  <circle cx="752" cy="38" r="19.5" fill="white" stroke="#EAEBF2"/>
  <path d="M759.493 32C759.493 31.175 758.825 30.5 758 30.5H746C745.175 30.5 744.5 31.175 744.5 32V41C744.5 41.825 745.175 42.5 746 42.5H756.5L759.5 45.5L759.493 32ZM755.75 37.25H752.75V40.25H751.25V37.25H748.25V35.75H751.25V32.75H752.75V35.75H755.75V37.25Z" fill="#EAEBF2"/>
  <circle cx="527" cy="20" r="19.5" fill="white" stroke="#EAEBF2"/>
  <path d="M520.25 13.25V26.75H533.75V13.25H520.25ZM526.25 25.25H521.75V20.75H526.25V25.25ZM526.25 19.25H521.75V14.75H526.25V19.25ZM532.25 25.25H527.75V20.75H532.25V25.25ZM532.25 19.25H527.75V14.75H532.25V19.25Z" fill="#EAEBF2"/>
  <circle cx="108" cy="106" r="19.5" fill="white" stroke="#EAEBF2"/>
  <path d="M111.75 99.25H104.25C103.425 99.25 102.758 99.925 102.758 100.75L102.75 112.75L108 110.5L113.25 112.75V100.75C113.25 99.925 112.575 99.25 111.75 99.25Z" fill="#EAEBF2"/>
  <circle cx="68" cy="225" r="19.5" fill="white" stroke="#EAEBF2"/>
  <path d="M59.75 219.75H61.25V230.25H59.75V219.75ZM62.75 219.75H64.25V230.25H62.75V219.75ZM75.5 219.75H66.5C66.0875 219.75 65.75 220.087 65.75 220.5V229.5C65.75 229.913 66.0875 230.25 66.5 230.25H75.5C75.9125 230.25 76.25 229.913 76.25 229.5V220.5C76.25 220.087 75.9125 219.75 75.5 219.75ZM67.25 228.75L69.125 226.388L70.4675 228L72.3425 225.585L74.75 228.75H67.25Z" fill="#EAEBF2"/>
  <circle cx="620" cy="75" r="19.5" fill="white" stroke="#EAEBF2"/>
  <path d="M620 68.25C616.273 68.25 613.25 71.2725 613.25 75C613.25 78.7275 616.273 81.75 620 81.75C620.622 81.75 621.125 81.2475 621.125 80.625C621.125 80.3325 621.012 80.07 620.832 79.8675C620.66 79.6725 620.547 79.41 620.547 79.125C620.547 78.5025 621.05 78 621.672 78H623C625.07 78 626.75 76.32 626.75 74.25C626.75 70.935 623.727 68.25 620 68.25ZM615.875 75C615.253 75 614.75 74.4975 614.75 73.875C614.75 73.2525 615.253 72.75 615.875 72.75C616.497 72.75 617 73.2525 617 73.875C617 74.4975 616.497 75 615.875 75ZM618.125 72C617.503 72 617 71.4975 617 70.875C617 70.2525 617.503 69.75 618.125 69.75C618.747 69.75 619.25 70.2525 619.25 70.875C619.25 71.4975 618.747 72 618.125 72ZM621.875 72C621.253 72 620.75 71.4975 620.75 70.875C620.75 70.2525 621.253 69.75 621.875 69.75C622.497 69.75 623 70.2525 623 70.875C623 71.4975 622.497 72 621.875 72ZM624.125 75C623.503 75 623 74.4975 623 73.875C623 73.2525 623.503 72.75 624.125 72.75C624.747 72.75 625.25 73.2525 625.25 73.875C625.25 74.4975 624.747 75 624.125 75Z" fill="#EAEBF2"/>
</svg>
