<svg width="1424" height="503" viewBox="0 0 1424 503" fill="none" xmlns="http://www.w3.org/2000/svg">
<path d="M963 270.5L1021 225.5" stroke="white" stroke-opacity="0.1"/>
<path d="M1097 361.5L1160.5 394.5" stroke="white" stroke-opacity="0.1"/>
<path d="M1208 386.5L1236.5 329.5" stroke="white" stroke-opacity="0.1"/>
<path d="M1229.5 285.5L1185.5 231" stroke="white" stroke-opacity="0.1"/>
<path d="M1083.5 320L1152 232.5" stroke="white" stroke-opacity="0.1"/>
<path d="M1065 320L1052 237.5" stroke="white" stroke-opacity="0.1"/>
<path d="M1077.5 207.5H1136" stroke="white" stroke-opacity="0.1"/>
<path d="M1055 179L1087 122" stroke="white" stroke-opacity="0.1"/>
<path d="M1162 180L1122.5 120" stroke="white" stroke-opacity="0.1"/>
<path d="M1188.5 184L1223 107" stroke="white" stroke-opacity="0.1"/>
<path d="M1019.5 186L966.5 131.5" stroke="white" stroke-opacity="0.1"/>
<path d="M1209 431L1260.5 499" stroke="white" stroke-opacity="0.1"/>
<path d="M1276 307.5H1417" stroke="white" stroke-opacity="0.1"/>
<path d="M1196.5 207L1421 155" stroke="white" stroke-opacity="0.1"/>
<path d="M1263.5 79L1423.5 140" stroke="white" stroke-opacity="0.1"/>
<path d="M959.5 81.5L1015.5 7.5" stroke="white" stroke-opacity="0.1"/>
<path d="M1090.5 68L1030 7.5" stroke="white" stroke-opacity="0.1"/>
<path d="M1117.5 68.5L1157 4.5" stroke="white" stroke-opacity="0.1"/>
<path d="M1217.5 57.5L1167.5 6.5" stroke="white" stroke-opacity="0.1"/>
<path d="M1247.5 54.5L1274.5 2.5" stroke="white" stroke-opacity="0.1"/>
<path d="M1168 431.5L1081.5 497.5" stroke="white" stroke-opacity="0.1"/>
<path d="M1027 469L1068.5 495" stroke="white" stroke-opacity="0.1"/>
<path d="M173.5 467.5L187.5 499" stroke="white" stroke-opacity="0.1"/>
<path d="M394.5 462.5L204.5 502" stroke="white" stroke-opacity="0.1"/>
<path d="M451.5 438.5L525.5 396" stroke="white" stroke-opacity="0.1"/>
<path d="M462.5 292L528 378.5" stroke="white" stroke-opacity="0.1"/>
<path d="M463.5 263L528.5 189.5" stroke="white" stroke-opacity="0.1"/>
<path d="M473.5 132L527.5 175" stroke="white" stroke-opacity="0.1"/>
<path d="M364.5 53L473.5 2" stroke="white" stroke-opacity="0.1"/>
<path d="M322 44.5L272 2" stroke="white" stroke-opacity="0.1"/>
<path d="M207.5 37.5L258.5 1" stroke="white" stroke-opacity="0.1"/>
<path d="M440 465L495.5 502" stroke="white" stroke-opacity="0.1"/>
<path d="M516.5 499.5L709.5 456.5" stroke="white" stroke-opacity="0.1"/>
<path d="M733.5 456.5L971 461" stroke="white" stroke-opacity="0.1"/>
<path d="M975.5 448L902 401.5" stroke="white" stroke-opacity="0.1"/>
<path d="M933 318.5L900.5 390" stroke="white" stroke-opacity="0.1"/>
<path d="M932.5 272.5L895 211" stroke="white" stroke-opacity="0.1"/>
<path d="M928.5 135L895 198.5" stroke="white" stroke-opacity="0.1"/>
<path d="M926.5 82.5L869 4" stroke="white" stroke-opacity="0.1"/>
<circle cx="1003" cy="453" r="20" fill="white" fill-opacity="0.15"/>
<path d="M997 460C997 461.1 997.9 462 999 462H1007C1008.1 462 1009 461.1 1009 460V448H997V460ZM999.46 452.88L1000.87 451.47L1003 453.59L1005.12 451.47L1006.53 452.88L1004.41 455L1006.53 457.12L1005.12 458.53L1003 456.41L1000.88 458.53L999.47 457.12L1001.59 455L999.46 452.88ZM1006.5 445L1005.5 444H1000.5L999.5 445H996V447H1010V445H1006.5Z" fill="white"/>
<circle cx="339" cy="69" r="20" fill="white" fill-opacity="0.15"/>
<path d="M333 76C333 77.1 333.9 78 335 78H343C344.1 78 345 77.1 345 76V64H333V76ZM335.46 68.88L336.87 67.47L339 69.59L341.12 67.47L342.53 68.88L340.41 71L342.53 73.12L341.12 74.53L339 72.41L336.88 74.53L335.47 73.12L337.59 71L335.46 68.88ZM342.5 61L341.5 60H336.5L335.5 61H332V63H346V61H342.5Z" fill="white"/>
<circle cx="1234" cy="81" r="20" fill="white" fill-opacity="0.15"/>
<path d="M1239 89.41L1240.41 88L1237 84.59L1235.59 86L1239 89.41ZM1229.5 77H1233V82.59L1227.59 88L1229 89.41L1235 83.41V77H1238.5L1234 72.5L1229.5 77Z" fill="white"/>
<circle cx="279" cy="187" r="20" fill="white" fill-opacity="0.15"/>
<path d="M284 195.41L285.41 194L282 190.59L280.59 192L284 195.41ZM274.5 183H278V188.59L272.59 194L274 195.41L280 189.41V183H283.5L279 178.5L274.5 183Z" fill="white"/>
<circle cx="434" cy="281" r="20" fill="white" fill-opacity="0.15"/>
<path d="M437.75 283.25H439.25V277.25C439.25 276.425 438.575 275.75 437.75 275.75H431.75V277.25H437.75V283.25ZM430.25 284.75V272.75H428.75V275.75H425.75V277.25H428.75V284.75C428.75 285.575 429.425 286.25 430.25 286.25H437.75V289.25H439.25V286.25H442.25V284.75H430.25Z" fill="white"/>
<circle cx="186" cy="61" r="20" fill="white" fill-opacity="0.15"/>
<path d="M192.532 56.2224L190.778 54.4674C190.485 54.1749 190.012 54.1749 189.72 54.4674L187.38 56.8074L185.932 55.3749L184.875 56.4324L185.94 57.4974L179.25 64.1874V67.7499H182.812L189.503 61.0599L190.568 62.1249L191.625 61.0674L190.185 59.6274L192.525 57.2874C192.825 56.9874 192.825 56.5149 192.532 56.2224ZM182.19 66.2499L180.75 64.8099L186.795 58.7649L188.235 60.2049L182.19 66.2499Z" fill="white"/>
<circle cx="290" cy="328" r="20" fill="white" fill-opacity="0.15"/>
<path d="M283 333V335H297V333H283ZM287.5 328.8H292.5L293.4 331H295.5L290.75 320H289.25L284.5 331H286.6L287.5 328.8ZM290 321.98L291.87 327H288.13L290 321.98Z" fill="white"/>
<circle cx="953" cy="298" r="20" fill="white" fill-opacity="0.15"/>
<path d="M956 295H954.5V297.25H952.25V298.75H954.5V301H956V298.75H958.25V297.25H956V295ZM945.5 298C945.5 295.908 946.73 294.1 948.508 293.26V291.64C945.89 292.57 944 295.067 944 298C944 300.932 945.89 303.43 948.508 304.36V302.74C946.73 301.9 945.5 300.092 945.5 298ZM955.25 291.25C951.53 291.25 948.5 294.28 948.5 298C948.5 301.72 951.53 304.75 955.25 304.75C958.97 304.75 962 301.72 962 298C962 294.28 958.97 291.25 955.25 291.25ZM955.25 303.25C952.355 303.25 950 300.895 950 298C950 295.105 952.355 292.75 955.25 292.75C958.145 292.75 960.5 295.105 960.5 298C960.5 300.895 958.145 303.25 955.25 303.25Z" fill="white"/>
<circle cx="1046" cy="208" r="20" fill="white" fill-opacity="0.15"/>
<path d="M1038.9 213.737L1039.9 214.157V207.385L1038.08 211.78C1037.77 212.545 1038.14 213.422 1038.9 213.737ZM1053.52 210.962L1049.8 201.985C1049.57 201.423 1049.02 201.077 1048.45 201.062C1048.25 201.062 1048.05 201.093 1047.85 201.175L1042.33 203.462C1041.76 203.695 1041.42 204.235 1041.4 204.812C1041.4 205.015 1041.43 205.218 1041.52 205.413L1045.24 214.39C1045.47 214.96 1046.02 215.305 1046.61 215.312C1046.8 215.312 1047 215.275 1047.19 215.2L1052.71 212.912C1053.47 212.597 1053.84 211.72 1053.52 210.962ZM1042.91 205.562C1042.5 205.562 1042.16 205.225 1042.16 204.812C1042.16 204.4 1042.5 204.062 1042.91 204.062C1043.32 204.062 1043.66 204.4 1043.66 204.812C1043.66 205.225 1043.32 205.562 1042.91 205.562ZM1041.41 213.812C1041.41 214.637 1042.09 215.312 1042.91 215.312H1044L1041.41 209.057V213.812Z" fill="white"/>
<circle cx="448" cy="116" r="20" fill="white" fill-opacity="0.15"/>
<path d="M440.897 121.737L441.902 122.157V115.385L440.08 119.78C439.772 120.545 440.14 121.422 440.897 121.737ZM455.522 118.962L451.802 109.985C451.57 109.423 451.022 109.077 450.445 109.062C450.25 109.062 450.047 109.093 449.852 109.175L444.325 111.462C443.762 111.695 443.417 112.235 443.402 112.812C443.395 113.015 443.432 113.218 443.515 113.413L447.235 122.39C447.467 122.96 448.022 123.305 448.607 123.312C448.802 123.312 448.997 123.275 449.185 123.2L454.705 120.912C455.47 120.597 455.837 119.72 455.522 118.962ZM444.91 113.562C444.497 113.562 444.16 113.225 444.16 112.812C444.16 112.4 444.497 112.062 444.91 112.062C445.322 112.062 445.66 112.4 445.66 112.812C445.66 113.225 445.322 113.562 444.91 113.562ZM443.41 121.812C443.41 122.637 444.085 123.312 444.91 123.312H445.997L443.41 117.057V121.812Z" fill="white"/>
<circle cx="945" cy="108" r="20" fill="white" fill-opacity="0.15"/>
<path d="M940 100.5H937.5V103C938.883 103 940 101.883 940 100.5ZM946.667 100.5H945C945 104.642 941.642 108 937.5 108V109.667C942.567 109.667 946.667 105.558 946.667 100.5ZM943.333 100.5H941.667C941.667 102.8 939.8 104.667 937.5 104.667V106.333C940.725 106.333 943.333 103.725 943.333 100.5ZM943.333 115.5H945C945 111.358 948.358 108 952.5 108V106.333C947.442 106.333 943.333 110.442 943.333 115.5ZM950 115.5H952.5V113C951.117 113 950 114.117 950 115.5ZM946.667 115.5H948.333C948.333 113.2 950.2 111.333 952.5 111.333V109.667C949.275 109.667 946.667 112.275 946.667 115.5Z" fill="white"/>
<circle cx="1105" cy="96" r="20" fill="white" fill-opacity="0.15"/>
<path d="M1113.25 92.25V87.75H1108.75V89.25H1101.25V87.75H1096.75V92.25H1098.25V99.75H1096.75V104.25H1101.25V102.75H1108.75V104.25H1113.25V99.75H1111.75V92.25H1113.25ZM1098.25 89.25H1099.75V90.75H1098.25V89.25ZM1099.75 102.75H1098.25V101.25H1099.75V102.75ZM1108.75 101.25H1101.25V99.75H1099.75V92.25H1101.25V90.75H1108.75V92.25H1110.25V99.75H1108.75V101.25ZM1111.75 102.75H1110.25V101.25H1111.75V102.75ZM1110.25 90.75V89.25H1111.75V90.75H1110.25ZM1106.3 97.5H1103.68L1103.13 99H1101.92L1104.47 92.25H1105.52L1108.08 99H1106.85L1106.3 97.5ZM1104.02 96.555H1105.98L1105 93.6825L1104.02 96.555Z" fill="white"/>
<circle cx="1073" cy="347" r="20" fill="white" fill-opacity="0.15"/>
<path d="M1080.49 341C1080.49 340.175 1079.83 339.5 1079 339.5H1067C1066.18 339.5 1065.5 340.175 1065.5 341V350C1065.5 350.825 1066.18 351.5 1067 351.5H1077.5L1080.5 354.5L1080.49 341ZM1076.75 346.25H1073.75V349.25H1072.25V346.25H1069.25V344.75H1072.25V341.75H1073.75V344.75H1076.75V346.25Z" fill="white"/>
<circle cx="1189" cy="408" r="20" fill="white" fill-opacity="0.15"/>
<path d="M1182.25 401.25V414.75H1195.75V401.25H1182.25ZM1188.25 413.25H1183.75V408.75H1188.25V413.25ZM1188.25 407.25H1183.75V402.75H1188.25V407.25ZM1194.25 413.25H1189.75V408.75H1194.25V413.25ZM1194.25 407.25H1189.75V402.75H1194.25V407.25Z" fill="white"/>
<circle cx="1249" cy="307" r="20" fill="white" fill-opacity="0.15"/>
<path d="M1252.75 300.25H1245.25C1244.42 300.25 1243.76 300.925 1243.76 301.75L1243.75 313.75L1249 311.5L1254.25 313.75V301.75C1254.25 300.925 1253.57 300.25 1252.75 300.25Z" fill="white"/>
<circle cx="152" cy="247" r="20" fill="white" fill-opacity="0.15"/>
<path d="M155.75 240.25H148.25C147.425 240.25 146.758 240.925 146.758 241.75L146.75 253.75L152 251.5L157.25 253.75V241.75C157.25 240.925 156.575 240.25 155.75 240.25Z" fill="white"/>
<circle cx="163" cy="439" r="20" fill="white" fill-opacity="0.15"/>
<path d="M166.75 432.25H159.25C158.425 432.25 157.758 432.925 157.758 433.75L157.75 445.75L163 443.5L168.25 445.75V433.75C168.25 432.925 167.575 432.25 166.75 432.25Z" fill="white"/>
<circle cx="419" cy="446" r="20" fill="white" fill-opacity="0.15"/>
<path d="M410.75 440.75H412.25V451.25H410.75V440.75ZM413.75 440.75H415.25V451.25H413.75V440.75ZM426.5 440.75H417.5C417.088 440.75 416.75 441.087 416.75 441.5V450.5C416.75 450.913 417.088 451.25 417.5 451.25H426.5C426.913 451.25 427.25 450.913 427.25 450.5V441.5C427.25 441.087 426.913 440.75 426.5 440.75ZM418.25 449.75L420.125 447.388L421.467 449L423.343 446.585L425.75 449.75H418.25Z" fill="white"/>
<circle cx="1169" cy="208" r="20" fill="white" fill-opacity="0.15"/>
<path d="M1169 201.25C1165.27 201.25 1162.25 204.273 1162.25 208C1162.25 211.727 1165.27 214.75 1169 214.75C1169.62 214.75 1170.12 214.248 1170.12 213.625C1170.12 213.333 1170.01 213.07 1169.83 212.868C1169.66 212.672 1169.55 212.41 1169.55 212.125C1169.55 211.502 1170.05 211 1170.67 211H1172C1174.07 211 1175.75 209.32 1175.75 207.25C1175.75 203.935 1172.73 201.25 1169 201.25ZM1164.88 208C1164.25 208 1163.75 207.497 1163.75 206.875C1163.75 206.253 1164.25 205.75 1164.88 205.75C1165.5 205.75 1166 206.253 1166 206.875C1166 207.497 1165.5 208 1164.88 208ZM1167.12 205C1166.5 205 1166 204.497 1166 203.875C1166 203.253 1166.5 202.75 1167.12 202.75C1167.75 202.75 1168.25 203.253 1168.25 203.875C1168.25 204.497 1167.75 205 1167.12 205ZM1170.88 205C1170.25 205 1169.75 204.497 1169.75 203.875C1169.75 203.253 1170.25 202.75 1170.88 202.75C1171.5 202.75 1172 203.253 1172 203.875C1172 204.497 1171.5 205 1170.88 205ZM1173.12 208C1172.5 208 1172 207.497 1172 206.875C1172 206.253 1172.5 205.75 1173.12 205.75C1173.75 205.75 1174.25 206.253 1174.25 206.875C1174.25 207.497 1173.75 208 1173.12 208Z" fill="white"/>
<path d="M187 423L272 349.5" stroke="white" stroke-opacity="0.1"/>
<path d="M395.5 424.5L310 347.5" stroke="white" stroke-opacity="0.1"/>
<path d="M318 316L406 290.5" stroke="white" stroke-opacity="0.1"/>
<path d="M410.5 263L304.5 204.5" stroke="white" stroke-opacity="0.1"/>
<path d="M177.5 234L252.5 199.5" stroke="white" stroke-opacity="0.1"/>
<path d="M263.5 318L174.5 262.5" stroke="white" stroke-opacity="0.1"/>
<path d="M159.5 410.5L152.5 275.5" stroke="white" stroke-opacity="0.1"/>
<path d="M192.5 444.5L390.5 448" stroke="white" stroke-opacity="0.1"/>
<path d="M423.5 418L430 310" stroke="white" stroke-opacity="0.1"/>
<path d="M436 253L446 143.5" stroke="white" stroke-opacity="0.1"/>
<path d="M419.5 104L366 78.5" stroke="white" stroke-opacity="0.1"/>
<path d="M288.5 160.5L323 94.5" stroke="white" stroke-opacity="0.1"/>
<path d="M309 64L214 61" stroke="white" stroke-opacity="0.1"/>
<path d="M175.5 87L157 217" stroke="white" stroke-opacity="0.1"/>
<path d="M135.5 451.5L5 497.5" stroke="white" stroke-opacity="0.1"/>
<path d="M132 268.5L0.5 484.5" stroke="white" stroke-opacity="0.1"/>
<path d="M128.5 225.5L0.5 30" stroke="white" stroke-opacity="0.1"/>
<path d="M154.5 49L2 16" stroke="white" stroke-opacity="0.1"/>
<path d="M1023 428.5L1059.5 373" stroke="white" stroke-opacity="0.1"/>
<path d="M993 427L960.5 325" stroke="white" stroke-opacity="0.1"/>
<path d="M1267 333.5L1375.5 493" stroke="white" stroke-opacity="0.1"/>
<path d="M461 87L492 4.5" stroke="white" stroke-opacity="0.1"/>
</svg>
