<svg width="42" height="40" viewBox="0 0 42 40" fill="none" xmlns="http://www.w3.org/2000/svg">
<path d="M32.1341 9.89048C32.1341 11.1629 31.2077 11.9367 30.5313 12.5045C30.2752 12.7196 29.7984 13.1121 29.7996 13.2587C29.8043 13.8337 29.3419 14.293 28.7668 14.293C28.7639 14.293 28.761 14.293 28.7581 14.293C28.187 14.293 27.7216 13.8478 27.717 13.2757C27.7079 12.1479 28.5308 11.4726 29.1922 10.9173C29.7111 10.4816 30.0514 10.175 30.0514 9.89441C30.0514 9.32643 29.5893 8.86431 29.0213 8.86431C28.4531 8.86431 27.9909 9.32643 27.9909 9.89441C27.9909 10.4696 27.5247 10.9357 26.9495 10.9357C26.3744 10.9357 25.9082 10.4696 25.9082 9.89441C25.9082 8.17808 27.3046 6.78166 29.0211 6.78166C30.7376 6.78155 32.1341 8.17403 32.1341 9.89048ZM28.7869 15.2542C28.2117 15.2542 27.7686 15.7204 27.7686 16.2955V16.3035C27.7686 16.8787 28.2119 17.3409 28.7869 17.3409C29.3619 17.3409 29.8282 16.8707 29.8282 16.2955C29.8282 15.7204 29.362 15.2542 28.7869 15.2542ZM7.79742 22.5079C7.22226 22.5079 6.7561 22.9741 6.7561 23.5493C6.7561 24.1244 7.22226 24.5906 7.79742 24.5906H7.8842C8.45936 24.5906 8.92552 24.1244 8.92552 23.5493C8.92552 22.9741 8.45936 22.5079 7.8842 22.5079H7.79742ZM11.4165 22.5079C10.8413 22.5079 10.3752 22.9741 10.3752 23.5493C10.3752 24.1244 10.8413 24.5906 11.4165 24.5906H11.5031C12.0783 24.5906 12.5445 24.1244 12.5445 23.5493C12.5445 22.9741 12.0783 22.5079 11.5031 22.5079H11.4165ZM42 5.87583V17.5966C42 20.3717 39.7748 22.6236 36.9997 22.6236H23.4952C23.2312 22.6236 23.0138 22.6221 22.8319 22.6183C22.6414 22.6144 22.4268 22.6129 22.3432 22.6221C22.2561 22.68 22.0425 22.8756 21.8366 23.0653C21.7551 23.1404 21.6627 23.223 21.5631 23.3139L17.7424 26.7963C17.4376 27.0744 16.9867 27.1463 16.6093 26.98C16.2319 26.8135 15.9669 26.4397 15.9669 26.0273V14.9873H5.05851C3.4315 14.9873 2.08264 16.3205 2.08264 17.9473V29.6681C2.08264 31.295 3.43162 32.5741 5.05851 32.5741H20.1431C20.4029 32.5741 20.6458 32.6934 20.8377 32.8685L23.9504 35.7384V25.8413C23.9504 25.2662 24.4166 24.8 24.9917 24.8C25.5669 24.8 26.0331 25.2662 26.0331 25.8413V38.0986C26.0331 38.5111 25.797 38.8793 25.4195 39.0458C25.2845 39.1054 25.1489 39.1288 25.0069 39.1288C24.7519 39.1288 24.5003 39.0241 24.3047 38.8455L19.7394 34.6566H5.05851C2.28327 34.6566 0 32.4432 0 29.668V17.9473C0 15.1722 2.28327 12.9046 5.05851 12.9046H15.9669V5.87583C15.9669 3.10059 18.2677 0.871582 21.0429 0.871582H36.9998C39.7748 0.871582 42 3.10059 42 5.87583ZM39.9174 5.87583C39.9174 4.24894 38.6265 2.95423 36.9997 2.95423H21.0429C19.416 2.95423 18.0496 4.24894 18.0496 5.87583V13.9557V23.6671L20.1432 21.775C20.2402 21.6865 20.3488 21.6055 20.4281 21.5323C21.3841 20.6514 21.6287 20.5106 22.8758 20.5363C23.0459 20.5398 23.2484 20.5411 23.4952 20.5411H36.9997C38.6265 20.5411 39.9174 19.2235 39.9174 17.5967V5.87583Z" fill="#2EB9B7"/>
<path d="M32.1341 9.89048C32.1341 11.1629 31.2077 11.9367 30.5313 12.5045C30.2752 12.7196 29.7984 13.1121 29.7996 13.2587C29.8043 13.8337 29.3419 14.293 28.7668 14.293C28.7639 14.293 28.761 14.293 28.7581 14.293C28.187 14.293 27.7216 13.8478 27.717 13.2757C27.7079 12.1479 28.5308 11.4726 29.1922 10.9173C29.7111 10.4816 30.0514 10.175 30.0514 9.89441C30.0514 9.32643 29.5893 8.86431 29.0213 8.86431C28.4531 8.86431 27.9909 9.32643 27.9909 9.89441C27.9909 10.4696 27.5247 10.9357 26.9495 10.9357C26.3744 10.9357 25.9082 10.4696 25.9082 9.89441C25.9082 8.17808 27.3046 6.78166 29.0211 6.78166C30.7376 6.78155 32.1341 8.17403 32.1341 9.89048ZM28.7869 15.2542C28.2117 15.2542 27.7686 15.7204 27.7686 16.2955V16.3035C27.7686 16.8787 28.2119 17.3409 28.7869 17.3409C29.3619 17.3409 29.8282 16.8707 29.8282 16.2955C29.8282 15.7204 29.362 15.2542 28.7869 15.2542ZM7.79742 22.5079C7.22226 22.5079 6.7561 22.9741 6.7561 23.5493C6.7561 24.1244 7.22226 24.5906 7.79742 24.5906H7.8842C8.45936 24.5906 8.92552 24.1244 8.92552 23.5493C8.92552 22.9741 8.45936 22.5079 7.8842 22.5079H7.79742ZM11.4165 22.5079C10.8413 22.5079 10.3752 22.9741 10.3752 23.5493C10.3752 24.1244 10.8413 24.5906 11.4165 24.5906H11.5031C12.0783 24.5906 12.5445 24.1244 12.5445 23.5493C12.5445 22.9741 12.0783 22.5079 11.5031 22.5079H11.4165ZM42 5.87583V17.5966C42 20.3717 39.7748 22.6236 36.9997 22.6236H23.4952C23.2312 22.6236 23.0138 22.6221 22.8319 22.6183C22.6414 22.6144 22.4268 22.6129 22.3432 22.6221C22.2561 22.68 22.0425 22.8756 21.8366 23.0653C21.7551 23.1404 21.6627 23.223 21.5631 23.3139L17.7424 26.7963C17.4376 27.0744 16.9867 27.1463 16.6093 26.98C16.2319 26.8135 15.9669 26.4397 15.9669 26.0273V14.9873H5.05851C3.4315 14.9873 2.08264 16.3205 2.08264 17.9473V29.6681C2.08264 31.295 3.43162 32.5741 5.05851 32.5741H20.1431C20.4029 32.5741 20.6458 32.6934 20.8377 32.8685L23.9504 35.7384V25.8413C23.9504 25.2662 24.4166 24.8 24.9917 24.8C25.5669 24.8 26.0331 25.2662 26.0331 25.8413V38.0986C26.0331 38.5111 25.797 38.8793 25.4195 39.0458C25.2845 39.1054 25.1489 39.1288 25.0069 39.1288C24.7519 39.1288 24.5003 39.0241 24.3047 38.8455L19.7394 34.6566H5.05851C2.28327 34.6566 0 32.4432 0 29.668V17.9473C0 15.1722 2.28327 12.9046 5.05851 12.9046H15.9669V5.87583C15.9669 3.10059 18.2677 0.871582 21.0429 0.871582H36.9998C39.7748 0.871582 42 3.10059 42 5.87583ZM39.9174 5.87583C39.9174 4.24894 38.6265 2.95423 36.9997 2.95423H21.0429C19.416 2.95423 18.0496 4.24894 18.0496 5.87583V13.9557V23.6671L20.1432 21.775C20.2402 21.6865 20.3488 21.6055 20.4281 21.5323C21.3841 20.6514 21.6287 20.5106 22.8758 20.5363C23.0459 20.5398 23.2484 20.5411 23.4952 20.5411H36.9997C38.6265 20.5411 39.9174 19.2235 39.9174 17.5967V5.87583Z" fill="url(#paint0_linear)"/>
<path d="M32.1341 9.89048C32.1341 11.1629 31.2077 11.9367 30.5313 12.5045C30.2752 12.7196 29.7984 13.1121 29.7996 13.2587C29.8043 13.8337 29.3419 14.293 28.7668 14.293C28.7639 14.293 28.761 14.293 28.7581 14.293C28.187 14.293 27.7216 13.8478 27.717 13.2757C27.7079 12.1479 28.5308 11.4726 29.1922 10.9173C29.7111 10.4816 30.0514 10.175 30.0514 9.89441C30.0514 9.32643 29.5893 8.86431 29.0213 8.86431C28.4531 8.86431 27.9909 9.32643 27.9909 9.89441C27.9909 10.4696 27.5247 10.9357 26.9495 10.9357C26.3744 10.9357 25.9082 10.4696 25.9082 9.89441C25.9082 8.17808 27.3046 6.78166 29.0211 6.78166C30.7376 6.78155 32.1341 8.17403 32.1341 9.89048ZM28.7869 15.2542C28.2117 15.2542 27.7686 15.7204 27.7686 16.2955V16.3035C27.7686 16.8787 28.2119 17.3409 28.7869 17.3409C29.3619 17.3409 29.8282 16.8707 29.8282 16.2955C29.8282 15.7204 29.362 15.2542 28.7869 15.2542ZM7.79742 22.5079C7.22226 22.5079 6.7561 22.9741 6.7561 23.5493C6.7561 24.1244 7.22226 24.5906 7.79742 24.5906H7.8842C8.45936 24.5906 8.92552 24.1244 8.92552 23.5493C8.92552 22.9741 8.45936 22.5079 7.8842 22.5079H7.79742ZM11.4165 22.5079C10.8413 22.5079 10.3752 22.9741 10.3752 23.5493C10.3752 24.1244 10.8413 24.5906 11.4165 24.5906H11.5031C12.0783 24.5906 12.5445 24.1244 12.5445 23.5493C12.5445 22.9741 12.0783 22.5079 11.5031 22.5079H11.4165ZM42 5.87583V17.5966C42 20.3717 39.7748 22.6236 36.9997 22.6236H23.4952C23.2312 22.6236 23.0138 22.6221 22.8319 22.6183C22.6414 22.6144 22.4268 22.6129 22.3432 22.6221C22.2561 22.68 22.0425 22.8756 21.8366 23.0653C21.7551 23.1404 21.6627 23.223 21.5631 23.3139L17.7424 26.7963C17.4376 27.0744 16.9867 27.1463 16.6093 26.98C16.2319 26.8135 15.9669 26.4397 15.9669 26.0273V14.9873H5.05851C3.4315 14.9873 2.08264 16.3205 2.08264 17.9473V29.6681C2.08264 31.295 3.43162 32.5741 5.05851 32.5741H20.1431C20.4029 32.5741 20.6458 32.6934 20.8377 32.8685L23.9504 35.7384V25.8413C23.9504 25.2662 24.4166 24.8 24.9917 24.8C25.5669 24.8 26.0331 25.2662 26.0331 25.8413V38.0986C26.0331 38.5111 25.797 38.8793 25.4195 39.0458C25.2845 39.1054 25.1489 39.1288 25.0069 39.1288C24.7519 39.1288 24.5003 39.0241 24.3047 38.8455L19.7394 34.6566H5.05851C2.28327 34.6566 0 32.4432 0 29.668V17.9473C0 15.1722 2.28327 12.9046 5.05851 12.9046H15.9669V5.87583C15.9669 3.10059 18.2677 0.871582 21.0429 0.871582H36.9998C39.7748 0.871582 42 3.10059 42 5.87583ZM39.9174 5.87583C39.9174 4.24894 38.6265 2.95423 36.9997 2.95423H21.0429C19.416 2.95423 18.0496 4.24894 18.0496 5.87583V13.9557V23.6671L20.1432 21.775C20.2402 21.6865 20.3488 21.6055 20.4281 21.5323C21.3841 20.6514 21.6287 20.5106 22.8758 20.5363C23.0459 20.5398 23.2484 20.5411 23.4952 20.5411H36.9997C38.6265 20.5411 39.9174 19.2235 39.9174 17.5967V5.87583Z" fill="url(#paint1_linear)"/>
<defs>
<linearGradient id="paint0_linear" x1="0" y1="39.1288" x2="47.6413" y2="29.8564" gradientUnits="userSpaceOnUse">
<stop stop-color="#ED6E76"/>
<stop offset="1" stop-color="#F2AA6F"/>
</linearGradient>
<linearGradient id="paint1_linear" x1="0" y1="39.1288" x2="47.6413" y2="29.8564" gradientUnits="userSpaceOnUse">
<stop stop-color="#4298E8"/>
<stop offset="1" stop-color="#8044DB"/>
</linearGradient>
</defs>
</svg>
