<svg width="18" height="16" viewBox="0 0 18 16" fill="none" xmlns="http://www.w3.org/2000/svg">
<path d="M17.4727 14.4958H11.1399L11.4508 14.1849C11.4509 14.1846 11.4512 14.1845 11.4513 14.1842C11.4516 14.1841 11.4518 14.1838 11.452 14.1837L16.8113 8.82425C17.5872 8.04848 17.5872 6.78587 16.8113 6.00996L11.8591 1.0576C11.4843 0.682831 10.9846 0.476562 10.4519 0.476562C9.91916 0.476562 9.41942 0.682968 9.04479 1.0576L3.68524 6.41728C3.68511 6.41742 3.68483 6.41742 3.68469 6.41769C3.68456 6.41783 3.68442 6.41797 3.68428 6.41811L0.581881 9.52051C-0.193892 10.2964 -0.194029 11.5587 0.581881 12.3348L3.64308 15.396C3.74196 15.4949 3.87613 15.5505 4.01593 15.5505H17.4727C17.7639 15.5505 18 15.3144 18 15.0231C18 14.7319 17.7639 14.4958 17.4727 14.4958ZM9.79048 1.8033C9.96599 1.62779 10.201 1.53125 10.4519 1.53125C10.7029 1.53125 10.9377 1.62779 11.1134 1.8033L16.0656 6.75566C16.4303 7.12041 16.4303 7.71381 16.0656 8.07855L11.0786 13.0657L4.80338 6.79054L9.79048 1.8033ZM1.32771 11.5891C0.962969 11.2243 0.962969 10.631 1.32758 10.2662L4.05768 7.53624L10.3328 13.8114L9.64835 14.4957H4.60109C4.60068 14.4957 4.60027 14.4958 4.59986 14.4958H4.23442L1.32771 11.5891Z" fill="#333333"/>
</svg>
