<svg width="12" height="14" viewBox="0 0 12 14" fill="none" xmlns="http://www.w3.org/2000/svg">
<path d="M5.526 13.108C4.59 13.108 3.69 12.958 2.826 12.658C1.974 12.358 1.314 11.962 0.846 11.47L1.368 10.444C1.824 10.9 2.43 11.272 3.186 11.56C3.942 11.836 4.722 11.974 5.526 11.974C6.654 11.974 7.5 11.77 8.064 11.362C8.628 10.942 8.91 10.402 8.91 9.742C8.91 9.238 8.754 8.836 8.442 8.536C8.142 8.236 7.77 8.008 7.326 7.852C6.882 7.684 6.264 7.504 5.472 7.312C4.524 7.072 3.768 6.844 3.204 6.628C2.64 6.4 2.154 6.058 1.746 5.602C1.35 5.146 1.152 4.528 1.152 3.748C1.152 3.112 1.32 2.536 1.656 2.02C1.992 1.492 2.508 1.072 3.204 0.76C3.9 0.448 4.764 0.291999 5.796 0.291999C6.516 0.291999 7.218 0.394 7.902 0.598C8.598 0.789999 9.198 1.06 9.702 1.408L9.252 2.47C8.724 2.122 8.16 1.864 7.56 1.696C6.96 1.516 6.372 1.426 5.796 1.426C4.692 1.426 3.858 1.642 3.294 2.074C2.742 2.494 2.466 3.04 2.466 3.712C2.466 4.216 2.616 4.624 2.916 4.936C3.228 5.236 3.612 5.47 4.068 5.638C4.536 5.794 5.16 5.968 5.94 6.16C6.864 6.388 7.608 6.616 8.172 6.844C8.748 7.06 9.234 7.396 9.63 7.852C10.026 8.296 10.224 8.902 10.224 9.67C10.224 10.306 10.05 10.888 9.702 11.416C9.366 11.932 8.844 12.346 8.136 12.658C7.428 12.958 6.558 13.108 5.526 13.108Z" fill="#333333"/>
<path d="M0 7.754H11.07V8.654H0V7.754Z" fill="#333333"/>
</svg>
