<svg width="16" height="11" viewBox="0 0 16 11" fill="none" xmlns="http://www.w3.org/2000/svg">
<path d="M14.714 0.465698H1.28601C1.0666 0.465698 0.888672 0.643624 0.888672 0.863034V9.64507C0.888672 9.86448 1.0666 10.0424 1.28601 10.0424H14.7139C14.9333 10.0424 15.1113 9.86444 15.1113 9.64503V0.863034C15.1113 0.643624 14.9334 0.465698 14.714 0.465698ZM1.68334 1.26037H14.3166V7.98696L11.8125 5.48313C11.6574 5.32802 11.4058 5.32802 11.2506 5.48313L9.72407 7.00965L6.22391 3.50949C6.06877 3.35445 5.81719 3.35438 5.66201 3.50949L1.68338 7.48777V1.26037H1.68334ZM1.68334 9.24766V8.61151L5.94295 4.35233L10.8382 9.24766H1.68334ZM14.3167 9.24769H11.9622V9.24766L10.286 7.57155L11.5316 6.32596L14.2253 9.01935C14.253 9.04706 14.2839 9.06963 14.3166 9.08742V9.24769H14.3167Z" fill="#333333"/>
</svg>
