<?xml version="1.0"?>
<svg xmlns="http://www.w3.org/2000/svg" height="512px" viewBox="0 0 512 512" width="512px"><path d="m512 256c0 50.53125-15 99.675781-43.375 142.117188-6.136719 9.179687-18.558594 11.648437-27.742188 5.511718-9.183593-6.140625-11.648437-18.5625-5.511718-27.742187 23.964844-35.84375 36.628906-77.296875 36.628906-119.886719 0-119.101562-96.898438-216-216-216s-216 96.898438-216 216 96.898438 216 216 216c39.503906 0 78.144531-10.757812 111.738281-31.105469 9.445313-5.722656 21.746094-2.703125 27.46875 6.746094 5.722657 9.445313 2.703125 21.742187-6.746093 27.464844-39.84375 24.136719-85.648438 36.894531-132.460938 36.894531-68.378906 0-132.667969-26.628906-181.019531-74.980469-48.351563-48.351562-74.980469-112.640625-74.980469-181.019531s26.628906-132.667969 74.980469-181.019531c48.351562-48.351563 112.640625-74.980469 181.019531-74.980469s132.667969 26.628906 181.019531 74.980469c48.351563 48.351562 74.980469 112.640625 74.980469 181.019531zm-245.1875 120.097656c3.910156 3.933594 9.046875 5.902344 14.1875 5.902344 5.097656 0 10.195312-1.9375 14.097656-5.8125l78.199219-77.699219c11.417969-11.339843 17.703125-26.429687 17.703125-42.488281s-6.285156-31.148438-17.703125-42.488281l-78.199219-77.699219c-7.835937-7.785156-20.5-7.742188-28.285156.089844-7.785156 7.835937-7.746094 20.5.089844 28.285156l72.277344 71.8125h-207.179688c-11.046875 0-20 8.953125-20 20s8.953125 20 20 20h207.183594l-72.28125 71.8125c-7.835938 7.785156-7.875 20.449219-.089844 28.285156zm0 0" fill="#6767e1"/></svg>
