<svg width="15" height="17" viewBox="0 0 15 17" fill="none" xmlns="http://www.w3.org/2000/svg">
<path d="M7.50007 13.108C5.86807 13.108 4.59607 12.64 3.68407 11.704C2.77207 10.768 2.31607 9.406 2.31607 7.618V0.399999H3.64807V7.564C3.64807 9.028 3.97807 10.12 4.63807 10.84C5.29807 11.56 6.25207 11.92 7.50007 11.92C8.76007 11.92 9.72007 11.56 10.3801 10.84C11.0401 10.12 11.3701 9.028 11.3701 7.564V0.399999H12.6661V7.618C12.6661 9.406 12.2101 10.768 11.2981 11.704C10.3981 12.64 9.13207 13.108 7.50007 13.108Z" fill="#333333"/>
<path d="M0.37207 15.224H14.6281V16.124H0.37207V15.224Z" fill="#333333"/>
</svg>
