<svg width="18" height="18" viewBox="0 0 18 18" fill="none" xmlns="http://www.w3.org/2000/svg">
<path d="M16.9205 1.08027C16.2003 0.360091 15.3331 0 14.319 0H3.68271C2.66862 0 1.80139 0.360091 1.08112 1.08027C0.361068 1.80055 0.000976562 2.6676 0.000976562 3.68187V14.3182C0.000976562 15.3322 0.361068 16.1994 1.08112 16.9197C1.80139 17.64 2.66862 18 3.68271 18H14.319C15.3331 18 16.2001 17.64 16.9206 16.9197C17.6408 16.1994 18.0008 15.3323 18.0008 14.3182V3.68187C18.0007 2.66777 17.6406 1.80055 16.9205 1.08027ZM16.3643 14.3182C16.3643 14.8805 16.1642 15.3621 15.7636 15.7628C15.3631 16.1634 14.8816 16.3633 14.3189 16.3633H3.68271C3.12019 16.3633 2.63866 16.1634 2.23805 15.7628C1.83752 15.3621 1.63724 14.8805 1.63724 14.3182V3.68187C1.63724 3.11939 1.83752 2.63786 2.23805 2.23721C2.63866 1.83664 3.12019 1.6364 3.68271 1.6364H14.319C14.8816 1.6364 15.3631 1.83668 15.7637 2.23721C16.1642 2.63782 16.3644 3.11934 16.3644 3.68187V14.3182H16.3643Z" fill="#333333"/>
</svg>
