<svg width="18" height="18" viewBox="0 0 18 18" fill="none" xmlns="http://www.w3.org/2000/svg">
<path d="M16.7564 1.24462C15.0969 -0.414875 12.3965 -0.41422 10.7367 1.24462L7.72679 4.2545C7.47105 4.51023 7.47105 4.92478 7.72679 5.18051C7.98252 5.43625 8.39707 5.43625 8.6528 5.18051L11.6627 2.17063C12.2164 1.61725 12.9564 1.31207 13.7462 1.31207C14.5363 1.31207 15.2764 1.61725 15.8301 2.17096C16.3838 2.72467 16.689 3.4647 16.689 4.25482C16.689 5.04462 16.3838 5.78465 15.8301 6.33836L11.8945 10.2749C10.7452 11.4236 8.87579 11.4236 7.72646 10.2749C7.47072 10.0192 7.05618 10.0192 6.80044 10.2749C6.54471 10.5306 6.54471 10.9455 6.80044 11.2009C7.63019 12.0307 8.72026 12.4455 9.81032 12.4455C10.9004 12.4455 11.9905 12.0307 12.8202 11.2009L16.7564 7.2647C17.5577 6.46377 17.9991 5.39466 17.9991 4.25482C17.9991 3.11466 17.5577 2.04588 16.7564 1.24462Z" fill="#333333"/>
<path d="M8.88424 13.2845L6.33737 15.8313C5.78366 16.3851 5.04364 16.6902 4.25351 16.6902C3.46371 16.6902 2.72336 16.3851 2.16965 15.8313C1.02064 14.6823 1.02064 12.8126 2.16965 11.6636L5.87436 7.9589C6.42807 7.40552 7.1681 7.10034 7.95823 7.10034C8.74802 7.10034 9.48805 7.40552 10.0418 7.9589C10.2975 8.21464 10.712 8.21464 10.9678 7.9589C11.2235 7.70317 11.2235 7.28862 10.9678 7.03289C9.30861 5.37372 6.60817 5.37339 4.94802 7.03289L1.2433 10.7379C0.442373 11.5389 0.000976562 12.608 0.000976562 13.7478C0.000976562 14.8873 0.442373 15.9564 1.24363 16.7574C2.04456 17.5586 3.11367 18 4.25318 18C5.39302 18 6.46213 17.5586 7.26306 16.7574L9.80993 14.2105C10.0657 13.9548 10.0657 13.5402 9.80993 13.2845C9.5542 13.0287 9.13998 13.0287 8.88424 13.2845Z" fill="#333333"/>
</svg>
