<svg width="18" height="18" viewBox="0 0 18 18" fill="none" xmlns="http://www.w3.org/2000/svg">
<g clip-path="url(#clip0)">
<path d="M9.00183 2.17169L5.13137 0.568425C5.00218 0.514952 4.85698 0.514952 4.72778 0.568425C4.59858 0.621933 4.49589 0.724589 4.44238 0.853823L2.8697 4.65063L0.121434 7.96425C0.0105156 8.09801 -0.0273829 8.2778 0.0200429 8.44494L1.51193 13.6993C1.55595 13.8544 1.66848 13.9808 1.81741 14.0425C1.8822 14.0693 1.95079 14.0826 2.0192 14.0826C2.10801 14.0826 2.19653 14.0602 2.27609 14.0159L7.04637 11.3555C7.1981 11.2708 7.29844 11.1169 7.31458 10.9439L7.71452 6.65742L9.28723 2.86072C9.39868 2.59167 9.27092 2.28317 9.00183 2.17169ZM6.2902 10.5695L3.08676 12.356L4.4518 9.06049C4.56325 8.79144 4.43549 8.48291 4.16641 8.37146C3.89736 8.26001 3.58882 8.38777 3.47738 8.65686L2.1123 11.9525L1.11045 8.42388L3.48399 5.56212L5.0598 6.2148L6.63561 6.86751L6.2902 10.5695ZM6.91141 5.84014L4.85034 4.98648L4.01537 4.64064L5.21494 1.74465L8.11097 2.94425L6.91141 5.84014Z" fill="#333333"/>
<path d="M17.4727 9.63885H11.8242C10.5991 9.63885 9.60233 10.6356 9.60233 11.8608C9.60233 13.0859 10.5991 14.0826 11.8242 14.0826C12.4678 14.0826 12.9914 14.6062 12.9914 15.2498C12.9914 15.8934 12.4678 16.417 11.8242 16.417H0.527344C0.236109 16.417 0 16.6531 0 16.9443C0 17.2356 0.236109 17.4717 0.527344 17.4717H11.8242C13.0494 17.4717 14.0461 16.4749 14.0461 15.2498C14.0461 14.0246 13.0494 13.0279 11.8242 13.0279C11.1806 13.0279 10.657 12.5043 10.657 11.8608C10.657 11.2171 11.1806 10.6935 11.8242 10.6935H17.4727C17.7639 10.6935 18 10.4574 18 10.1662C18 9.87496 17.7639 9.63885 17.4727 9.63885Z" fill="#333333"/>
</g>
<defs>
<clipPath id="clip0">
<rect width="18" height="18" fill="white"/>
</clipPath>
</defs>
</svg>
