<svg width="18" height="18" viewBox="0 0 18 18" fill="none" xmlns="http://www.w3.org/2000/svg">
<path d="M14 0.792969V0.5C14 0.223877 13.7761 0 13.5 0H3.5C3.22388 0 3 0.223877 3 0.5H1.5C0.671631 0.5 0 1.17163 0 2V16.5C0 17.3284 0.671631 18 1.5 18H16.5C17.3284 18 18 17.3284 18 16.5V5C18 4.86743 17.9473 4.74023 17.8535 4.64648L14 0.792969ZM13 1V5H4V1H13ZM3 17V10.5C3 10.2239 3.22388 10 3.5 10H14.5C14.7761 10 15 10.2239 15 10.5V17H3ZM17 16.5C17 16.7761 16.7761 17 16.5 17H16V10.5C16 9.67163 15.3284 9 14.5 9H3.5C2.67163 9 2 9.67163 2 10.5V17H1.5C1.22388 17 1 16.7761 1 16.5V2C1 1.72388 1.22388 1.5 1.5 1.5H3V5.5C3 5.77612 3.22388 6 3.5 6H13.5C13.7761 6 14 5.77612 14 5.5V2.20703L17 5.20703V16.5Z" fill="white"/>
</svg>
