<svg width="18" height="18" viewBox="0 0 18 18" fill="none" xmlns="http://www.w3.org/2000/svg">
<g clip-path="url(#clip0)">
<path d="M3.42852 3.42852H0V0H3.42852V3.42852ZM0.857091 2.57143H2.57143V0.857091H0.857091V2.57143Z" fill="#333333"/>
<path d="M18.0001 3.42852H14.5715V0H18.0001V3.42852ZM15.4286 2.57143H17.143V0.857091H15.4286V2.57143Z" fill="#333333"/>
<path d="M18.0001 18H14.5715V14.5715H18.0001V18ZM15.4286 17.1429H17.143V15.4286H15.4286V17.1429Z" fill="#333333"/>
<path d="M3.42852 18H0V14.5715H3.42852V18ZM0.857091 17.1429H2.57143V15.4286H0.857091V17.1429Z" fill="#333333"/>
<path d="M3 1.28571H14.9999V2.1428H3V1.28571Z" fill="#333333"/>
<path d="M15.8572 3.00006H16.7143V15H15.8572V3.00006Z" fill="#333333"/>
<path d="M1.28564 3.00006H2.14274V15H1.28564V3.00006Z" fill="#333333"/>
<path d="M3 15.8572H14.9999V16.7143H3V15.8572Z" fill="#333333"/>
<path d="M8.57129 5.14285H9.42854V13.2858H8.57129V5.14285Z" fill="#333333"/>
<path d="M12.8571 6.42857H12V5.57148H5.99991V6.42857H5.14282V4.71423H12.8571V6.42857Z" fill="#333333"/>
<path d="M7.28564 12.8571H10.7143V13.7142H7.28564V12.8571Z" fill="#333333"/>
</g>
<defs>
<clipPath id="clip0">
<rect width="18" height="18" fill="white"/>
</clipPath>
</defs>
</svg>
