<svg width="18" height="18" viewBox="0 0 18 18" fill="none" xmlns="http://www.w3.org/2000/svg">
<path d="M15.1875 9.59766H2.8125V5.38316H15.1875V9.59766ZM4.21875 8.19141H13.7812V6.78941H4.21875V8.19141ZM15.1875 2.67613H2.8125V4.08238H15.1875V2.67613ZM15.1875 12.3004H8.4375V13.7067H15.1875V12.3004ZM7.03125 15.1129H2.8125V10.8984H7.03125V15.1129ZM4.21875 13.7067H5.625V12.3047H4.21875V13.7067ZM15.8906 18H2.10938C0.946198 18 0 17.0538 0 15.8906V2.10938C0 0.946198 0.946198 0 2.10938 0H15.8906C17.0538 0 18 0.946198 18 2.10938V15.8906C18 17.0538 17.0538 18 15.8906 18ZM2.10938 1.40625C1.72169 1.40625 1.40625 1.72169 1.40625 2.10938V15.8906C1.40625 16.2783 1.72169 16.5938 2.10938 16.5938H15.8906C16.2783 16.5938 16.5938 16.2783 16.5938 15.8906V2.10938C16.5938 1.72169 16.2783 1.40625 15.8906 1.40625H2.10938Z" fill="#333333"/>
</svg>
