<svg width="900" height="500" viewBox="0 0 900 500" fill="none" xmlns="http://www.w3.org/2000/svg">
<style>
    #loading-animation path {
        animation: loading infinite 1s;
        transform: rotate(360deg);
        transform-origin: center;
    }
    @keyframes loading {
        from {
            transform: rotate(0);
        }
        top {
            transform: rotate(360deg);
        }
    }
</style>
<rect width="900" height="500" fill="#E8E8E8"/>
<g clip-path="url(#clip0)" id="loading-animation">
<path d="M435.681 262.469C434.255 262.469 433.044 262.968 432.047 263.965C431.049 264.964 430.55 266.174 430.55 267.6C430.55 269.025 431.049 270.236 432.047 271.235C433.044 272.232 434.256 272.731 435.681 272.731C437.082 272.731 438.287 272.232 439.297 271.235C440.306 270.237 440.81 269.025 440.81 267.6C440.81 266.174 440.306 264.964 439.297 263.965C438.287 262.969 437.082 262.469 435.681 262.469Z" fill="#D6D6D6"/>
<path d="M434.541 251.64C434.541 250.072 433.983 248.731 432.866 247.613C431.75 246.497 430.408 245.939 428.841 245.939C427.273 245.939 425.931 246.497 424.815 247.613C423.699 248.73 423.141 250.072 423.141 251.64C423.141 253.207 423.699 254.548 424.815 255.665C425.931 256.781 427.273 257.339 428.841 257.339C430.408 257.339 431.75 256.781 432.866 255.665C433.983 254.549 434.541 253.207 434.541 251.64Z" fill="#D6D6D6"/>
<path d="M467.6 238.53C468.383 238.53 469.055 238.251 469.613 237.693C470.171 237.135 470.45 236.463 470.45 235.68C470.45 234.896 470.171 234.225 469.613 233.667C469.055 233.109 468.383 232.83 467.6 232.83C466.816 232.83 466.145 233.109 465.587 233.667C465.029 234.225 464.75 234.896 464.75 235.68C464.75 236.464 465.029 237.135 465.587 237.693C466.145 238.251 466.816 238.53 467.6 238.53Z" fill="#D6D6D6"/>
<path d="M435.681 229.41C433.947 229.41 432.469 230.022 431.245 231.245C430.022 232.468 429.411 233.946 429.411 235.68C429.411 237.414 430.022 238.892 431.245 240.115C432.469 241.339 433.947 241.95 435.681 241.95C437.415 241.95 438.893 241.338 440.116 240.115C441.339 238.892 441.951 237.414 441.951 235.68C441.951 233.946 441.339 232.468 440.116 231.245C438.893 230.022 437.415 229.41 435.681 229.41Z" fill="#D6D6D6"/>
<path d="M476.862 249.217C476.197 248.552 475.39 248.22 474.44 248.22C473.49 248.22 472.682 248.552 472.018 249.217C471.353 249.882 471.021 250.69 471.021 251.64C471.021 252.59 471.353 253.398 472.018 254.062C472.683 254.727 473.49 255.06 474.44 255.06C475.39 255.06 476.198 254.727 476.862 254.062C477.528 253.398 477.859 252.59 477.859 251.64C477.859 250.69 477.528 249.882 476.862 249.217Z" fill="#D6D6D6"/>
<path d="M467.6 263.61C466.507 263.61 465.569 264.001 464.785 264.785C464.002 265.568 463.61 266.507 463.61 267.6C463.61 268.692 464.002 269.631 464.785 270.415C465.569 271.199 466.507 271.59 467.6 271.59C468.692 271.59 469.63 271.198 470.414 270.415C471.198 269.631 471.59 268.693 471.59 267.6C471.59 266.507 471.198 265.569 470.414 264.785C469.631 264.001 468.692 263.61 467.6 263.61Z" fill="#D6D6D6"/>
<path d="M451.64 269.879C450.382 269.879 449.307 270.325 448.416 271.216C447.525 272.107 447.08 273.181 447.08 274.44C447.08 275.699 447.525 276.773 448.416 277.664C449.307 278.554 450.381 279 451.64 279C452.899 279 453.973 278.554 454.864 277.664C455.755 276.773 456.2 275.699 456.2 274.44C456.2 273.181 455.755 272.107 454.864 271.216C453.973 270.325 452.899 269.879 451.64 269.879Z" fill="#D6D6D6"/>
<path d="M451.64 222C449.741 222 448.125 222.665 446.795 223.995C445.465 225.325 444.8 226.94 444.8 228.84C444.8 230.74 445.465 232.355 446.795 233.685C448.125 235.015 449.74 235.68 451.64 235.68C453.541 235.68 455.155 235.015 456.485 233.685C457.815 232.355 458.48 230.74 458.48 228.84C458.48 226.94 457.815 225.325 456.485 223.995C455.155 222.665 453.541 222 451.64 222Z" fill="#D6D6D6"/>
</g>
<defs>
<clipPath id="clip0">
<rect width="57" height="57" fill="white" transform="translate(422 222)"/>
</clipPath>
</defs>
</svg>
