<svg width="1440" height="744" viewBox="0 0 1440 744" fill="none" xmlns="http://www.w3.org/2000/svg">
  <path d="M165 1H1275" stroke="#EAEBF2"/>
  <rect width="1440" height="744" fill="url(#paint0_linear)"/>
  <path d="M728.5 467.5V505" stroke="white" stroke-opacity="0.1"/>
  <path d="M711 50.5V12" stroke="white" stroke-opacity="0.1"/>
  <path d="M969 276.5L1027 231.5" stroke="white" stroke-opacity="0.1"/>
  <path d="M1103 367.5L1166.5 400.5" stroke="white" stroke-opacity="0.1"/>
  <path d="M1214 392.5L1242.5 335.5" stroke="white" stroke-opacity="0.1"/>
  <path d="M1235.5 291.5L1191.5 237" stroke="white" stroke-opacity="0.1"/>
  <path d="M1089.5 326L1158 238.5" stroke="white" stroke-opacity="0.1"/>
  <path d="M1071 326L1058 243.5" stroke="white" stroke-opacity="0.1"/>
  <path d="M1083.5 213.5H1142" stroke="white" stroke-opacity="0.1"/>
  <path d="M1061 185L1093 128" stroke="white" stroke-opacity="0.1"/>
  <path d="M1168 186L1128.5 126" stroke="white" stroke-opacity="0.1"/>
  <path d="M1194.5 190L1229 113" stroke="white" stroke-opacity="0.1"/>
  <path d="M1025.5 192L972.5 137.5" stroke="white" stroke-opacity="0.1"/>
  <path d="M1215 437L1266.5 505" stroke="white" stroke-opacity="0.1"/>
  <path d="M1282 313.5H1423" stroke="white" stroke-opacity="0.1"/>
  <path d="M1202.5 213L1427 161" stroke="white" stroke-opacity="0.1"/>
  <path d="M1269.5 85L1429.5 146" stroke="white" stroke-opacity="0.1"/>
  <path d="M965.5 87.5L1021.5 13.5" stroke="white" stroke-opacity="0.1"/>
  <path d="M1096.5 74L1036 13.5" stroke="white" stroke-opacity="0.1"/>
  <path d="M1123.5 74.5L1163 10.5" stroke="white" stroke-opacity="0.1"/>
  <path d="M1223.5 63.5L1173.5 12.5" stroke="white" stroke-opacity="0.1"/>
  <path d="M1253.5 60.5L1280.5 8.5" stroke="white" stroke-opacity="0.1"/>
  <path d="M1174 437.5L1087.5 503.5" stroke="white" stroke-opacity="0.1"/>
  <path d="M1033 475L1074.5 501" stroke="white" stroke-opacity="0.1"/>
  <path d="M179.5 473.5L193.5 505" stroke="white" stroke-opacity="0.1"/>
  <path d="M400.5 468.5L210.5 508" stroke="white" stroke-opacity="0.1"/>
  <path d="M457.5 444.5L531.5 402" stroke="white" stroke-opacity="0.1"/>
  <path d="M468.5 298L534 384.5" stroke="white" stroke-opacity="0.1"/>
  <path d="M469.5 269L534.5 195.5" stroke="white" stroke-opacity="0.1"/>
  <path d="M479.5 138L533.5 181" stroke="white" stroke-opacity="0.1"/>
  <path d="M370.5 59L479.5 8" stroke="white" stroke-opacity="0.1"/>
  <path d="M328 50.5L278 8" stroke="white" stroke-opacity="0.1"/>
  <path d="M213.5 43.5L264.5 7" stroke="white" stroke-opacity="0.1"/>
  <path d="M446 471L501.5 508" stroke="white" stroke-opacity="0.1"/>
  <path d="M522.5 505.5L715.5 462.5" stroke="white" stroke-opacity="0.1"/>
  <path d="M739.5 462.5L977 467" stroke="white" stroke-opacity="0.1"/>
  <path d="M981.5 454L908 407.5" stroke="white" stroke-opacity="0.1"/>
  <path d="M939 324.5L906.5 396" stroke="white" stroke-opacity="0.1"/>
  <path d="M938.5 278.5L901 217" stroke="white" stroke-opacity="0.1"/>
  <path d="M934.5 141L901 204.5" stroke="white" stroke-opacity="0.1"/>
  <path d="M932.5 88.5L875 10" stroke="white" stroke-opacity="0.1"/>
  <circle cx="1009" cy="459" r="20" fill="white" fill-opacity="0.15"/>
  <path d="M1003 466C1003 467.1 1003.9 468 1005 468H1013C1014.1 468 1015 467.1 1015 466V454H1003V466ZM1005.46 458.88L1006.87 457.47L1009 459.59L1011.12 457.47L1012.53 458.88L1010.41 461L1012.53 463.12L1011.12 464.53L1009 462.41L1006.88 464.53L1005.47 463.12L1007.59 461L1005.46 458.88ZM1012.5 451L1011.5 450H1006.5L1005.5 451H1002V453H1016V451H1012.5Z" fill="white"/>
  <circle cx="345" cy="75" r="20" fill="white" fill-opacity="0.15"/>
  <path d="M339 82C339 83.1 339.9 84 341 84H349C350.1 84 351 83.1 351 82V70H339V82ZM341.46 74.88L342.87 73.47L345 75.59L347.12 73.47L348.53 74.88L346.41 77L348.53 79.12L347.12 80.53L345 78.41L342.88 80.53L341.47 79.12L343.59 77L341.46 74.88ZM348.5 67L347.5 66H342.5L341.5 67H338V69H352V67H348.5Z" fill="white"/>
  <circle cx="1240" cy="87" r="20" fill="white" fill-opacity="0.15"/>
  <path d="M1245 95.41L1246.41 94L1243 90.59L1241.59 92L1245 95.41ZM1235.5 83H1239V88.59L1233.59 94L1235 95.41L1241 89.41V83H1244.5L1240 78.5L1235.5 83Z" fill="white"/>
  <circle cx="285" cy="193" r="20" fill="white" fill-opacity="0.15"/>
  <path d="M290 201.41L291.41 200L288 196.59L286.59 198L290 201.41ZM280.5 189H284V194.59L278.59 200L280 201.41L286 195.41V189H289.5L285 184.5L280.5 189Z" fill="white"/>
  <circle cx="440" cy="287" r="20" fill="white" fill-opacity="0.15"/>
  <path d="M443.75 289.25H445.25V283.25C445.25 282.425 444.575 281.75 443.75 281.75H437.75V283.25H443.75V289.25ZM436.25 290.75V278.75H434.75V281.75H431.75V283.25H434.75V290.75C434.75 291.575 435.425 292.25 436.25 292.25H443.75V295.25H445.25V292.25H448.25V290.75H436.25Z" fill="white"/>
  <circle cx="192" cy="67" r="20" fill="white" fill-opacity="0.15"/>
  <path d="M198.532 62.2225L196.778 60.4675C196.485 60.175 196.012 60.175 195.72 60.4675L193.38 62.8075L191.932 61.375L190.875 62.4325L191.94 63.4975L185.25 70.1875V73.75H188.812L195.503 67.06L196.568 68.125L197.625 67.0675L196.185 65.6275L198.525 63.2875C198.825 62.9875 198.825 62.515 198.532 62.2225ZM188.19 72.25L186.75 70.81L192.795 64.765L194.235 66.205L188.19 72.25Z" fill="white"/>
  <circle cx="296" cy="334" r="20" fill="white" fill-opacity="0.15"/>
  <path d="M289 339V341H303V339H289ZM293.5 334.8H298.5L299.4 337H301.5L296.75 326H295.25L290.5 337H292.6L293.5 334.8ZM296 327.98L297.87 333H294.13L296 327.98Z" fill="white"/>
  <circle cx="959" cy="304" r="20" fill="white" fill-opacity="0.15"/>
  <path d="M962 301H960.5V303.25H958.25V304.75H960.5V307H962V304.75H964.25V303.25H962V301ZM951.5 304C951.5 301.908 952.73 300.1 954.508 299.26V297.64C951.89 298.57 950 301.067 950 304C950 306.932 951.89 309.43 954.508 310.36V308.74C952.73 307.9 951.5 306.092 951.5 304ZM961.25 297.25C957.53 297.25 954.5 300.28 954.5 304C954.5 307.72 957.53 310.75 961.25 310.75C964.97 310.75 968 307.72 968 304C968 300.28 964.97 297.25 961.25 297.25ZM961.25 309.25C958.355 309.25 956 306.895 956 304C956 301.105 958.355 298.75 961.25 298.75C964.145 298.75 966.5 301.105 966.5 304C966.5 306.895 964.145 309.25 961.25 309.25Z" fill="white"/>
  <circle cx="1399" cy="518" r="20" fill="white" fill-opacity="0.15"/>
  <path d="M1391.9 523.737L1392.9 524.157V517.385L1391.08 521.78C1390.77 522.545 1391.14 523.422 1391.9 523.737ZM1406.52 520.962L1402.8 511.985C1402.57 511.423 1402.02 511.077 1401.45 511.062C1401.25 511.062 1401.05 511.093 1400.85 511.175L1395.33 513.462C1394.76 513.695 1394.42 514.235 1394.4 514.812C1394.4 515.015 1394.43 515.218 1394.52 515.413L1398.24 524.39C1398.47 524.96 1399.02 525.305 1399.61 525.312C1399.8 525.312 1400 525.275 1400.19 525.2L1405.71 522.912C1406.47 522.597 1406.84 521.72 1406.52 520.962ZM1395.91 515.562C1395.5 515.562 1395.16 515.225 1395.16 514.812C1395.16 514.4 1395.5 514.062 1395.91 514.062C1396.32 514.062 1396.66 514.4 1396.66 514.812C1396.66 515.225 1396.32 515.562 1395.91 515.562ZM1394.41 523.812C1394.41 524.637 1395.09 525.312 1395.91 525.312H1397L1394.41 519.057V523.812Z" fill="white"/>
  <circle cx="454" cy="122" r="20" fill="white" fill-opacity="0.15"/>
  <path d="M446.898 127.737L447.903 128.157V121.385L446.08 125.78C445.773 126.545 446.14 127.422 446.898 127.737ZM461.523 124.962L457.803 115.985C457.57 115.423 457.023 115.077 456.445 115.062C456.25 115.062 456.048 115.093 455.853 115.175L450.325 117.462C449.763 117.695 449.418 118.235 449.403 118.812C449.395 119.015 449.433 119.218 449.515 119.413L453.235 128.39C453.468 128.96 454.023 129.305 454.608 129.312C454.803 129.312 454.998 129.275 455.185 129.2L460.705 126.912C461.47 126.597 461.838 125.72 461.523 124.962ZM450.91 119.562C450.498 119.562 450.16 119.225 450.16 118.812C450.16 118.4 450.498 118.062 450.91 118.062C451.323 118.062 451.66 118.4 451.66 118.812C451.66 119.225 451.323 119.562 450.91 119.562ZM449.41 127.812C449.41 128.637 450.085 129.312 450.91 129.312H451.998L449.41 123.057V127.812Z" fill="white"/>
  <circle cx="951" cy="114" r="20" fill="white" fill-opacity="0.15"/>
  <path d="M946 106.5H943.5V109C944.883 109 946 107.883 946 106.5ZM952.667 106.5H951C951 110.642 947.642 114 943.5 114V115.667C948.567 115.667 952.667 111.558 952.667 106.5ZM949.333 106.5H947.667C947.667 108.8 945.8 110.667 943.5 110.667V112.333C946.725 112.333 949.333 109.725 949.333 106.5ZM949.333 121.5H951C951 117.358 954.358 114 958.5 114V112.333C953.442 112.333 949.333 116.442 949.333 121.5ZM956 121.5H958.5V119C957.117 119 956 120.117 956 121.5ZM952.667 121.5H954.333C954.333 119.2 956.2 117.333 958.5 117.333V115.667C955.275 115.667 952.667 118.275 952.667 121.5Z" fill="white"/>
  <circle cx="1111" cy="102" r="20" fill="white" fill-opacity="0.15"/>
  <path d="M1119.25 98.25V93.75H1114.75V95.25H1107.25V93.75H1102.75V98.25H1104.25V105.75H1102.75V110.25H1107.25V108.75H1114.75V110.25H1119.25V105.75H1117.75V98.25H1119.25ZM1104.25 95.25H1105.75V96.75H1104.25V95.25ZM1105.75 108.75H1104.25V107.25H1105.75V108.75ZM1114.75 107.25H1107.25V105.75H1105.75V98.25H1107.25V96.75H1114.75V98.25H1116.25V105.75H1114.75V107.25ZM1117.75 108.75H1116.25V107.25H1117.75V108.75ZM1116.25 96.75V95.25H1117.75V96.75H1116.25ZM1112.3 103.5H1109.68L1109.13 105H1107.92L1110.47 98.25H1111.52L1114.08 105H1112.85L1112.3 103.5ZM1110.02 102.555H1111.98L1111 99.6825L1110.02 102.555Z" fill="white"/>
  <circle cx="1450" cy="316" r="20" fill="white" fill-opacity="0.15"/>
  <circle cx="1195" cy="414" r="20" fill="white" fill-opacity="0.15"/>
  <path d="M1188.25 407.25V420.75H1201.75V407.25H1188.25ZM1194.25 419.25H1189.75V414.75H1194.25V419.25ZM1194.25 413.25H1189.75V408.75H1194.25V413.25ZM1200.25 419.25H1195.75V414.75H1200.25V419.25ZM1200.25 413.25H1195.75V408.75H1200.25V413.25Z" fill="white"/>
  <circle cx="1255" cy="313" r="20" fill="white" fill-opacity="0.15"/>
  <path d="M1258.75 306.25H1251.25C1250.42 306.25 1249.76 306.925 1249.76 307.75L1249.75 319.75L1255 317.5L1260.25 319.75V307.75C1260.25 306.925 1259.57 306.25 1258.75 306.25Z" fill="white"/>
  <circle cx="158" cy="253" r="20" fill="white" fill-opacity="0.15"/>
  <path d="M161.75 246.25H154.25C153.425 246.25 152.758 246.925 152.758 247.75L152.75 259.75L158 257.5L163.25 259.75V247.75C163.25 246.925 162.575 246.25 161.75 246.25Z" fill="white"/>
  <circle cx="169" cy="445" r="20" fill="white" fill-opacity="0.15"/>
  <path d="M172.75 438.25H165.25C164.425 438.25 163.758 438.925 163.758 439.75L163.75 451.75L169 449.5L174.25 451.75V439.75C174.25 438.925 173.575 438.25 172.75 438.25Z" fill="white"/>
  <circle cx="425" cy="452" r="20" fill="white" fill-opacity="0.15"/>
  <path d="M416.75 446.75H418.25V457.25H416.75V446.75ZM419.75 446.75H421.25V457.25H419.75V446.75ZM432.5 446.75H423.5C423.088 446.75 422.75 447.087 422.75 447.5V456.5C422.75 456.913 423.088 457.25 423.5 457.25H432.5C432.913 457.25 433.25 456.913 433.25 456.5V447.5C433.25 447.087 432.913 446.75 432.5 446.75ZM424.25 455.75L426.125 453.388L427.467 455L429.343 452.585L431.75 455.75H424.25Z" fill="white"/>
  <circle cx="1175" cy="214" r="20" fill="white" fill-opacity="0.15"/>
  <path d="M1175 207.25C1171.27 207.25 1168.25 210.273 1168.25 214C1168.25 217.727 1171.27 220.75 1175 220.75C1175.62 220.75 1176.12 220.248 1176.12 219.625C1176.12 219.333 1176.01 219.07 1175.83 218.868C1175.66 218.672 1175.55 218.41 1175.55 218.125C1175.55 217.502 1176.05 217 1176.67 217H1178C1180.07 217 1181.75 215.32 1181.75 213.25C1181.75 209.935 1178.73 207.25 1175 207.25ZM1170.88 214C1170.25 214 1169.75 213.497 1169.75 212.875C1169.75 212.253 1170.25 211.75 1170.88 211.75C1171.5 211.75 1172 212.253 1172 212.875C1172 213.497 1171.5 214 1170.88 214ZM1173.12 211C1172.5 211 1172 210.497 1172 209.875C1172 209.253 1172.5 208.75 1173.12 208.75C1173.75 208.75 1174.25 209.253 1174.25 209.875C1174.25 210.497 1173.75 211 1173.12 211ZM1176.88 211C1176.25 211 1175.75 210.497 1175.75 209.875C1175.75 209.253 1176.25 208.75 1176.88 208.75C1177.5 208.75 1178 209.253 1178 209.875C1178 210.497 1177.5 211 1176.88 211ZM1179.12 214C1178.5 214 1178 213.497 1178 212.875C1178 212.253 1178.5 211.75 1179.12 211.75C1179.75 211.75 1180.25 212.253 1180.25 212.875C1180.25 213.497 1179.75 214 1179.12 214Z" fill="white"/>
  <path d="M193 429L278 355.5" stroke="white" stroke-opacity="0.1"/>
  <path d="M401.5 430.5L316 353.5" stroke="white" stroke-opacity="0.1"/>
  <path d="M324 322L412 296.5" stroke="white" stroke-opacity="0.1"/>
  <path d="M416.5 269L310.5 210.5" stroke="white" stroke-opacity="0.1"/>
  <path d="M183.5 240L258.5 205.5" stroke="white" stroke-opacity="0.1"/>
  <path d="M269.5 324L180.5 268.5" stroke="white" stroke-opacity="0.1"/>
  <path d="M165.5 416.5L158.5 281.5" stroke="white" stroke-opacity="0.1"/>
  <path d="M198.5 450.5L396.5 454" stroke="white" stroke-opacity="0.1"/>
  <path d="M429.5 424L436 316" stroke="white" stroke-opacity="0.1"/>
  <path d="M442 259L452 149.5" stroke="white" stroke-opacity="0.1"/>
  <path d="M425.5 110L372 84.5" stroke="white" stroke-opacity="0.1"/>
  <path d="M294.5 166.5L329 100.5" stroke="white" stroke-opacity="0.1"/>
  <path d="M315 70L220 67" stroke="white" stroke-opacity="0.1"/>
  <path d="M181.5 93L163 223" stroke="white" stroke-opacity="0.1"/>
  <path d="M141.5 457.5L11 503.5" stroke="white" stroke-opacity="0.1"/>
  <path d="M138 274.5L6.5 490.5" stroke="white" stroke-opacity="0.1"/>
  <path d="M134.5 231.5L6.5 36" stroke="white" stroke-opacity="0.1"/>
  <path d="M160.5 55L8 22" stroke="white" stroke-opacity="0.1"/>
  <path d="M1029 434.5L1065.5 379" stroke="white" stroke-opacity="0.1"/>
  <path d="M999 433L966.5 331" stroke="white" stroke-opacity="0.1"/>
  <path d="M1273 339.5L1381.5 499" stroke="white" stroke-opacity="0.1"/>
  <path d="M467 93L498 10.5" stroke="white" stroke-opacity="0.1"/>
  <defs>
    <linearGradient id="paint0_linear" x1="0" y1="744" x2="1516.71" y2="223.566" gradientUnits="userSpaceOnUse">
      <stop stop-color="#4298E8"/>
      <stop offset="1" stop-color="#8044DB"/>
    </linearGradient>
  </defs>
</svg>
