<svg width="16" height="14" viewBox="0 0 16 14" fill="none" xmlns="http://www.w3.org/2000/svg">
<path d="M15.35 10.3186C15.389 10.7695 15.233 11.2159 14.9204 11.5402C13.5887 12.5776 13.0383 12.1267 11.3728 10.7745L1.61073 3.88522C-0.12797 2.83848 0.670273 1.51636 2.41642 2.56776L14.6038 9.11427C15.0084 9.35811 15.2807 9.7772 15.3426 10.2506C15.3455 10.2735 15.348 10.296 15.35 10.3186Z" fill="#EA5454"/>
<path d="M14.5987 1.63667C14.5597 1.18587 14.3292 0.772836 13.9657 0.507051C12.4755 -0.286112 12.0107 0.252587 10.6023 1.87082L2.16885 10.3347C0.635823 11.6646 1.64932 12.8299 3.18889 11.4942L14.0705 2.95134C14.4272 2.64161 14.6235 2.18196 14.603 1.70494C14.602 1.68192 14.6006 1.65929 14.5987 1.63667Z" fill="#EA5454"/>
</svg>
