<svg xmlns="http://www.w3.org/2000/svg" xmlns:xlink="http://www.w3.org/1999/xlink" version="1.1" x="0" y="0" width="800.03" height="465.68" viewBox="0 0 800.03 465.68" enable-background="new 0 0 800.031 465.676" xml:space="preserve"><g id="Background"><path fill="#6A9A2F" d="M0 318.02c0 0 14.33-12.87 33.16 0 0 0 18.6-40.24 60.06-22.18s5.38 102.52 5.38 102.52L0 427.75V318.02z"/><path fill="#6A9A2F" d="M800.03 318.02c0 0-14.32-12.87-33.16 0 0 0-18.59-40.24-60.06-22.18s-5.38 102.52-5.38 102.52l98.6 29.4V318.02z"/><path fill="#72A433" d="M745.79 392.35L59 399.89c0 0-12 0.65-14.67 9.65 -2.67 9.01 232 3.01 232 3.01s-24.23 11.69-23.12 26.18c1.12 14.49 283.31 9.92 295.99 4.38 12.68-5.54-19.54-25.11-19.54-25.11s217.14-1.45 231.9-4.78C776.33 409.89 745.79 392.35 745.79 392.35z"/><polygon fill="#F26522" points="699.94 107.27 517.39 107.27 476.37 160.6 740.96 160.6 "/><polygon fill="#F26522" points="108.2 107.27 290.75 107.27 331.77 160.6 67.18 160.6 "/><polygon fill="#F47D20" points="313.65 69.32 496.2 69.32 537.22 122.65 272.63 122.65 "/><rect x="67.18" y="160.6" fill="#D13C1E" width="214.68" height="239.29"/><rect x="52.82" y="388.61" fill="#726658" width="278.95" height="19.49"/><rect x="52.82" y="150.85" fill="#726658" width="278.95" height="19.49"/><rect x="110.76" y="300.58" fill="#FFFFFF" width="43.76" height="43.76"/><rect x="115.21" y="305.03" fill="#9BCEE5" width="34.87" height="34.87"/><rect x="110.76" y="320.41" fill="#FFFFFF" width="43.76" height="4.1"/><rect x="130.59" y="300.58" fill="#FFFFFF" width="4.1" height="43.76"/><rect x="203.75" y="300.58" fill="#FFFFFF" width="43.76" height="43.76"/><rect x="208.19" y="305.03" fill="#9BCEE5" width="34.87" height="34.87"/><rect x="203.75" y="320.41" fill="#FFFFFF" width="43.76" height="4.1"/><rect x="223.57" y="300.58" fill="#FFFFFF" width="4.1" height="43.76"/><rect x="110.76" y="210.68" fill="#FFFFFF" width="43.76" height="43.76"/><rect x="115.21" y="215.12" fill="#9BCEE5" width="34.87" height="34.87"/><rect x="110.76" y="230.51" fill="#FFFFFF" width="43.76" height="4.1"/><rect x="130.59" y="210.68" fill="#FFFFFF" width="4.1" height="43.76"/><rect x="203.75" y="210.68" fill="#FFFFFF" width="43.76" height="43.76"/><rect x="208.19" y="215.12" fill="#9BCEE5" width="34.87" height="34.87"/><rect x="203.75" y="230.51" fill="#FFFFFF" width="43.76" height="4.1"/><rect x="223.57" y="210.68" fill="#FFFFFF" width="4.1" height="43.76"/><rect x="526.28" y="160.6" fill="#D13C1E" width="214.68" height="239.29"/><rect x="476.37" y="388.61" fill="#726658" width="278.95" height="19.49"/><rect x="476.37" y="150.85" fill="#726658" width="278.95" height="19.49"/><rect x="653.62" y="300.58" fill="#FFFFFF" width="43.76" height="43.76"/><rect x="658.06" y="305.03" fill="#9BCEE5" width="34.87" height="34.87"/><rect x="653.62" y="320.41" fill="#FFFFFF" width="43.76" height="4.1"/><rect x="673.45" y="300.58" fill="#FFFFFF" width="4.1" height="43.76"/><rect x="560.64" y="300.58" fill="#FFFFFF" width="43.76" height="43.76"/><rect x="565.08" y="305.03" fill="#9BCEE5" width="34.87" height="34.87"/><rect x="560.64" y="320.41" fill="#FFFFFF" width="43.76" height="4.1"/><rect x="580.46" y="300.58" fill="#FFFFFF" width="4.1" height="43.76"/><rect x="653.62" y="210.68" fill="#FFFFFF" width="43.76" height="43.76"/><rect x="658.06" y="215.12" fill="#9BCEE5" width="34.87" height="34.87"/><rect x="653.62" y="230.51" fill="#FFFFFF" width="43.76" height="4.1"/><rect x="673.45" y="210.68" fill="#FFFFFF" width="4.1" height="43.76"/><rect x="560.64" y="210.68" fill="#FFFFFF" width="43.76" height="43.76"/><rect x="565.08" y="215.12" fill="#9BCEE5" width="34.87" height="34.87"/><rect x="560.64" y="230.51" fill="#FFFFFF" width="43.76" height="4.1"/><rect x="580.46" y="210.68" fill="#FFFFFF" width="4.1" height="43.76"/><rect x="272.63" y="128.29" fill="#EF4523" width="264.59" height="299.46"/><rect x="293.82" y="318.02" fill="#FFFFFF" width="43.76" height="43.76"/><rect x="298.27" y="322.46" fill="#9BCEE5" width="34.87" height="34.87"/><rect x="293.82" y="337.85" fill="#FFFFFF" width="43.76" height="4.1"/><rect x="313.65" y="318.02" fill="#FFFFFF" width="4.1" height="43.76"/><rect x="293.82" y="232.56" fill="#FFFFFF" width="43.76" height="43.76"/><rect x="298.27" y="237" fill="#9BCEE5" width="34.87" height="34.87"/><rect x="293.82" y="252.38" fill="#FFFFFF" width="43.76" height="4.1"/><rect x="313.65" y="232.56" fill="#FFFFFF" width="4.1" height="43.76"/><rect x="471.93" y="232.56" fill="#FFFFFF" width="43.76" height="43.76"/><rect x="476.37" y="237" fill="#9BCEE5" width="34.87" height="34.87"/><rect x="471.93" y="252.38" fill="#FFFFFF" width="43.76" height="4.1"/><rect x="491.75" y="232.56" fill="#FFFFFF" width="4.1" height="43.76"/><rect x="293.82" y="152.05" fill="#FFFFFF" width="43.76" height="43.76"/><rect x="298.27" y="156.5" fill="#9BCEE5" width="34.87" height="34.87"/><rect x="293.82" y="171.88" fill="#FFFFFF" width="43.76" height="4.1"/><rect x="313.65" y="152.05" fill="#FFFFFF" width="4.1" height="43.76"/><rect x="471.93" y="152.05" fill="#FFFFFF" width="43.76" height="43.76"/><rect x="476.37" y="156.5" fill="#9BCEE5" width="34.87" height="34.87"/><rect x="471.93" y="171.88" fill="#FFFFFF" width="43.76" height="4.1"/><rect x="491.75" y="152.05" fill="#FFFFFF" width="4.1" height="43.76"/><rect x="471.93" y="318.02" fill="#FFFFFF" width="43.76" height="43.76"/><rect x="476.37" y="322.46" fill="#9BCEE5" width="34.87" height="34.87"/><rect x="471.93" y="337.85" fill="#FFFFFF" width="43.76" height="4.1"/><rect x="491.75" y="318.02" fill="#FFFFFF" width="4.1" height="43.76"/><rect x="265.45" y="118.55" fill="#726658" width="278.95" height="19.49"/><rect x="357.75" y="306.23" fill="#882102" width="94.35" height="116.91"/><rect x="265.45" y="418.01" fill="#726658" width="278.95" height="19.49"/><rect x="349.96" y="296.31" fill="#726658" width="110.56" height="13.67"/><rect x="357.75" y="309.99" fill="#908070" width="10.26" height="108.02"/><rect x="441.84" y="309.99" fill="#908070" width="10.26" height="108.02"/><circle fill="#882102" cx="404.58" cy="182.65" r="35.07"/><circle fill="#FFFFFF" cx="404.58" cy="182.65" r="31.07"/><circle fill="#882102" cx="404.58" cy="182.65" r="6.13"/><polygon fill="#882102" points="402.53 180.54 391.15 199.04 408.65 182.65 406.63 156.5 "/><rect x="349.96" y="243.47" fill="#882102" width="110.56" height="32.84"/><text transform="matrix(0.88 0 0 1 356.0234 272.3984)" fill="#FFFFFF" font-family="system" font-size="33.87">School</text><path fill="#72A433" d="M64.5 431.02c-3.08 0.83-5.49 3.15-7.82 5.23 -2 1.8-4.21 3.95-5.76 6.33 0.02-0.23 0.04-0.46 0.08-0.7 0.33-2.14 1.31-3.95 2.15-5.9 0.61-1.41-1.01-2.94-2.24-1.73 -1.55 1.53-2.49 3.65-3.09 5.73 -0.19-0.31-0.37-0.63-0.56-0.94 -1.11-1.88-2.35-3.69-3.65-5.44 -0.81-1.09-2.65-0.07-1.85 1.09 1.1 1.6 2.13 3.24 3.11 4.92 0.79 1.37 1.4 2.94 2.36 4.23 0.06 0.92 0.35 1.77 1.09 2.35 0.47 0.36 1.03 0.43 1.49 0 0.06-0.06 0.11-0.12 0.16-0.18 0.27 0.31 0.69 0.44 1.14 0.12 2.67-1.94 4.82-4.6 7.3-6.78 2.46-2.18 5.4-4.01 7.37-6.68C66.36 431.84 65.36 430.79 64.5 431.02z"/><path fill="#72A433" d="M39.51 398.45c-1.34 0.34-2.53 1.34-3.48 2.58 -0.02-0.49-0.01-0.98 0.03-1.49 0.13-1.79 1.21-3.36 0.74-5.17 -0.13-0.5-0.73-0.9-1.25-0.71 -2.83 1.02-3.51 4.7-3.07 8.05 -0.39-0.35-0.76-0.69-1.02-1 -1.28-1.53-2.18-4.47-4.18-5.12 -0.45-0.15-0.87 0.11-1.12 0.46 -1.61 2.22 1.14 5.8 2.63 7.34 1.06 1.09 2.31 2.03 3.73 2.58 0.28 0.11 0.76 0.22 1.23 0.22 -0.13 0.91 0.7 1.4 1.38 1.06 0.84 0.17 1.71-0.48 1.52-1.57 -0.02-0.09-0.03-0.18-0.05-0.27 0.54-0.8 1.07-1.6 1.67-2.36 0.9-1.14 1.86-2.11 2.36-3.5C40.86 398.89 40.13 398.29 39.51 398.45z"/><path fill="#72A433" d="M125.24 430.9c-2.47-0.48-4.26 2.17-5.65 3.87 -0.54 0.67-1.08 1.38-1.6 2.12 -0.35-1.53-0.81-3.02-1.46-4.45 -0.35-0.77-1.67-0.4-1.6 0.43 0.14 1.67 0.43 3.33 0.74 4.98 0.15 0.81 0.19 1.73 0.34 2.61 -0.06 0.14-0.1 0.28-0.15 0.43 -0.74-0.87-1.53-1.71-2.27-2.56 -1.05-1.2-2.08-3.11-3.88-3.1 -0.35 0-0.71 0.19-0.88 0.5 -1.04 1.95 0.79 3.98 1.97 5.39 1.36 1.61 3.2 3.09 5.26 3.64 0.54 0.14 1.05-0.12 1.33-0.53 0.31-0.1 0.61-0.3 0.85-0.62 1.47-1.96 2.54-4.18 4.07-6.11 1.25-1.58 3.92-3.23 3.81-5.43C126.09 431.55 125.78 431.01 125.24 430.9z"/><path fill="#72A433" d="M250.28 425.48c0.24-0.68-0.57-1.13-1.12-0.86 -4.37 2.14-7.02 8.25-8.51 13.3 -0.22-0.35-0.45-0.7-0.65-1.03 -1.11-1.77-2.44-3.36-3.89-4.87 -0.55-0.57-1.54 0.17-1.1 0.85 0.97 1.52 1.82 3.1 2.64 4.7 0.69 1.36 1.09 3.24 2.35 4.18 -0.17 0.84 0.58 1.78 1.48 1.18 1.49-0.98 2.79-2.29 4.14-3.46 1.54-1.34 2.91-2.66 3.89-4.47 0.34-0.62-0.32-1.17-0.91-0.91 -1.73 0.77-2.96 1.86-4.33 3.12 -0.3 0.28-0.62 0.56-0.93 0.85 0.68-1.77 1.46-3.5 2.38-5.18C247.11 430.31 249.3 428.25 250.28 425.48z"/><path fill="#72A433" d="M188.39 442.92c-3.66 1.89-6.43 5.69-9.23 8.64 -1.99 2.09-4.04 4.14-5.95 6.31 0.34-1.34 0.69-2.69 1.15-4.01 0.94-2.7 2.54-5.11 3.41-7.83 0.33-1.03-0.93-1.5-1.63-0.95 -3.36 2.63-5.67 7.79-6.31 12.52l-0.94-1.78c-1.09-2.05-2.04-4.32-3.62-6.04 -1.51-1.65-4.45 0.6-3.47 2.5 0.31 0.61 1.1 0.39 1.32-0.13 0.37 0.56 0.7 1.14 0.96 1.76 0.59 1.23 1.22 2.43 1.84 3.64 1.24 2.42 2.48 4.84 3.73 7.26 0.63 1.23 2.4 1.07 3.07 0 1.01-1.62 2.07-3.26 2.9-5 2.02-1.92 3.92-3.98 5.87-5.95 2.86-2.9 6.58-5.81 8.35-9.53C190.25 443.4 189.35 442.42 188.39 442.92z"/><path fill="#72A433" d="M735.04 431.02c3.08 0.83 5.49 3.15 7.82 5.23 2 1.8 4.21 3.95 5.76 6.33 -0.02-0.23-0.04-0.46-0.08-0.7 -0.33-2.14-1.3-3.95-2.15-5.9 -0.61-1.41 1.01-2.94 2.24-1.73 1.55 1.53 2.49 3.65 3.1 5.73 0.19-0.31 0.38-0.63 0.56-0.94 1.11-1.88 2.35-3.69 3.65-5.44 0.81-1.09 2.65-0.07 1.86 1.09 -1.1 1.6-2.13 3.24-3.1 4.92 -0.79 1.37-1.4 2.94-2.35 4.23 -0.06 0.92-0.35 1.77-1.09 2.35 -0.47 0.36-1.03 0.43-1.49 0 -0.06-0.06-0.11-0.12-0.16-0.18 -0.27 0.31-0.69 0.44-1.13 0.12 -2.67-1.94-4.82-4.6-7.29-6.78 -2.46-2.18-5.4-4.01-7.37-6.68C733.18 431.84 734.17 430.79 735.04 431.02z"/><path fill="#72A433" d="M760.03 398.45c1.34 0.34 2.53 1.34 3.48 2.58 0.02-0.49 0.01-0.98-0.02-1.49 -0.13-1.79-1.2-3.36-0.74-5.17 0.13-0.5 0.73-0.9 1.25-0.71 2.83 1.02 3.51 4.7 3.07 8.05 0.4-0.35 0.76-0.69 1.02-1 1.28-1.53 2.18-4.47 4.18-5.12 0.45-0.15 0.87 0.11 1.13 0.46 1.61 2.22-1.14 5.8-2.63 7.34 -1.06 1.09-2.31 2.03-3.73 2.58 -0.28 0.11-0.76 0.22-1.23 0.22 0.14 0.91-0.7 1.4-1.37 1.06 -0.84 0.17-1.71-0.48-1.52-1.57 0.02-0.09 0.03-0.18 0.05-0.27 -0.54-0.8-1.07-1.6-1.66-2.36 -0.9-1.14-1.86-2.11-2.36-3.5C758.68 398.89 759.41 398.29 760.03 398.45z"/><path fill="#72A433" d="M674.29 430.9c2.47-0.48 4.26 2.17 5.65 3.87 0.54 0.67 1.08 1.38 1.6 2.12 0.35-1.53 0.81-3.02 1.46-4.45 0.35-0.77 1.67-0.4 1.6 0.43 -0.14 1.67-0.43 3.33-0.74 4.98 -0.15 0.81-0.19 1.73-0.34 2.61 0.06 0.14 0.1 0.28 0.15 0.43 0.74-0.87 1.53-1.71 2.27-2.56 1.05-1.2 2.08-3.11 3.88-3.1 0.35 0 0.71 0.19 0.88 0.5 1.04 1.95-0.79 3.98-1.97 5.39 -1.35 1.61-3.2 3.09-5.26 3.64 -0.54 0.14-1.05-0.12-1.33-0.53 -0.31-0.1-0.61-0.3-0.85-0.62 -1.46-1.96-2.54-4.18-4.07-6.11 -1.25-1.58-3.92-3.23-3.81-5.43C673.44 431.55 673.76 431.01 674.29 430.9z"/><path fill="#72A433" d="M549.26 425.48c-0.24-0.68 0.57-1.13 1.12-0.86 4.38 2.14 7.02 8.25 8.51 13.3 0.22-0.35 0.45-0.7 0.65-1.03 1.11-1.77 2.44-3.36 3.89-4.87 0.55-0.57 1.54 0.17 1.1 0.85 -0.97 1.52-1.82 3.1-2.64 4.7 -0.69 1.36-1.09 3.24-2.35 4.18 0.17 0.84-0.58 1.78-1.48 1.18 -1.49-0.98-2.79-2.29-4.14-3.46 -1.54-1.34-2.91-2.66-3.89-4.47 -0.34-0.62 0.32-1.17 0.91-0.91 1.73 0.77 2.96 1.86 4.33 3.12 0.31 0.28 0.62 0.56 0.93 0.85 -0.68-1.77-1.46-3.5-2.38-5.18C552.42 430.31 550.24 428.25 549.26 425.48z"/><path fill="#72A433" d="M611.15 442.92c3.66 1.89 6.43 5.69 9.23 8.64 1.99 2.09 4.05 4.14 5.95 6.31 -0.34-1.34-0.69-2.69-1.15-4.01 -0.94-2.7-2.54-5.11-3.41-7.83 -0.33-1.03 0.93-1.5 1.63-0.95 3.36 2.63 5.68 7.79 6.31 12.52l0.94-1.78c1.09-2.05 2.04-4.32 3.62-6.04 1.51-1.65 4.45 0.6 3.47 2.5 -0.31 0.61-1.1 0.39-1.32-0.13 -0.37 0.56-0.7 1.14-0.95 1.76 -0.59 1.23-1.22 2.43-1.84 3.64 -1.24 2.42-2.48 4.84-3.72 7.26 -0.63 1.23-2.4 1.07-3.06 0 -1.01-1.62-2.07-3.26-2.9-5 -2.02-1.92-3.92-3.98-5.87-5.95 -2.86-2.9-6.58-5.81-8.35-9.53C609.28 443.4 610.19 442.42 611.15 442.92z"/><path fill="#FFFFFF" d="M98.61 22.5c-3.92 0-7.61 1-10.82 2.77 -4.96-3.62-11.07-5.77-17.68-5.77 -14.04 0-25.83 9.65-29.09 22.68 -6.46 1.01-11.4 6.58-11.4 13.32 0 7.46 6.04 13.5 13.5 13.5 1.3 0 2.56-0.19 3.75-0.54 5.5 6.74 13.87 11.04 23.25 11.04 9.99 0 18.84-4.89 24.29-12.4 1.37 0.26 2.77 0.4 4.21 0.4 12.43 0 22.5-10.07 22.5-22.5S111.03 22.5 98.61 22.5z"/><path fill="#FFFFFF" d="M275.68 32.55c-3.83-0.46-7.49 0.57-10.42 2.61 -2.92-2.77-6.71-4.67-11.01-5.19 -7.42-0.89-14.36 2.53-18.33 8.29 -1.32-0.61-2.74-1.04-4.27-1.23 -7.69-0.92-14.68 4.56-15.61 12.26 -0.92 7.7 4.56 14.68 12.26 15.61 3.48 0.42 6.81-0.48 9.51-2.3 3.01 3.19 7.11 5.39 11.8 5.95 7.04 0.85 13.63-2.19 17.68-7.42 1.47 0.71 3.08 1.21 4.79 1.42 8.29 1 15.81-4.91 16.81-13.2C289.88 41.07 283.96 33.55 275.68 32.55z"/><path fill="#FFFFFF" d="M566.58 24c-1.87 0-3.66 0.33-5.34 0.9 -3.61-2.46-7.96-3.9-12.66-3.9 -7.88 0-14.81 4.05-18.83 10.18 -1.57-0.75-3.32-1.18-5.17-1.18 -6.63 0-12 5.37-12 12 0 6.63 5.37 12 12 12 1.32 0 2.59-0.22 3.78-0.62 3.66 7.47 11.34 12.62 20.22 12.62 7.36 0 13.9-3.53 18-9 9.11 0 16.5-7.39 16.5-16.5S575.69 24 566.58 24z"/><path fill="#FFFFFF" d="M752.57 48c10.77 0 19.5-8.73 19.5-19.5S763.34 9 752.57 9c-2.34 0-4.58 0.44-6.66 1.19C740.68 3.96 732.84 0 724.07 0c-9.34 0-17.62 4.49-22.82 11.43 -1.79-0.59-3.69-0.93-5.68-0.93 -9.94 0-18 8.06-18 18s8.06 18 18 18c1.99 0 3.89-0.33 5.68-0.93 5.2 6.94 13.49 11.43 22.82 11.43 8.77 0 16.61-3.96 21.84-10.19C747.99 47.56 750.23 48 752.57 48z"/><path fill="#FFFFFF" d="M385.09 0c-2.08 0-4.06 0.43-5.86 1.19C377.33 0.43 375.26 0 373.09 0c-5.77 0-10.83 2.96-13.78 7.45C357.61 6.52 355.66 6 353.59 6c-6.63 0-12 5.37-12 12s5.37 12 12 12c2.73 0 5.24-0.92 7.26-2.46 3.02 3.35 7.38 5.46 12.24 5.46 3.64 0 7-1.19 9.72-3.19 0.74 0.11 1.5 0.19 2.28 0.19 8.28 0 15-6.71 15-15C400.09 6.72 393.38 0 385.09 0z"/><path fill="#FFFFFF" d="M776.57 205.49c-5.48 0-10.26 2.95-12.88 7.34 -1.52-0.85-3.26-1.34-5.12-1.34 -5.8 0-10.5 4.7-10.5 10.5 0 5.8 4.7 10.5 10.5 10.5 2.48 0 4.76-0.87 6.56-2.31 2.75 3.24 6.85 5.31 11.44 5.31 8.28 0 15-6.71 15-15C791.57 212.21 784.86 205.49 776.57 205.49z"/><path fill="#FFFFFF" d="M41.77 206.83c-1.97 0-3.84 0.43-5.53 1.2 -2.92-2.6-6.75-4.19-10.96-4.19 -9.11 0-16.5 7.39-16.5 16.5 0 9.11 7.39 16.5 16.5 16.5 4.22 0 8.05-1.59 10.97-4.19 1.69 0.76 3.56 1.2 5.53 1.2 7.46 0 13.5-6.04 13.5-13.5C55.27 212.87 49.23 206.83 41.77 206.83z"/></g><g id="Object"/></svg>