<svg width="142" height="72" viewBox="0 0 142 72" fill="none" xmlns="http://www.w3.org/2000/svg">
<path d="M47.4787 25.9129C47.4787 17.3825 46.955 8.9785 37.2898 6.83068C32.2756 5.71641 24.8703 4.00197 19.9156 6.00614C16.6594 7.32325 14.0215 10.3952 11.4346 12.6614C6.67973 16.8268 4.39651 20.9207 2.74746 27.0319C0.604941 34.9718 -0.191989 42.0653 4.04316 49.265C7.45196 55.06 12.6633 61.0941 19.945 61.3975C31.4326 61.8762 45.3585 54.9513 45.3585 41.8147" stroke="black" stroke-linecap="round" stroke-linejoin="round"/>
<path d="M48.0091 1C41.9629 13.9882 40.571 29.0583 35.9944 42.6098C33.3673 50.3889 30.0749 58.0156 25.5699 64.9018C25.4594 65.0707 23.2841 68.5174 23.1846 67.5227C22.808 63.7567 24.8672 58.8632 25.8644 55.3607C28.3239 46.7215 31.4927 38.3924 35.4644 30.3301C39.1546 22.8388 43.2211 14.5784 49.6582 9.00982C51.0396 7.81479 53.545 5.58199 53.1036 8.89202C52.433 13.9219 51.1018 19.0096 49.4226 23.7926C48.7412 25.7336 46.8246 31.5 46.949 29.4466C47.0509 27.7662 53.7525 16.5281 55.3122 19.2577C55.9701 20.4089 51.8208 30.3536 55.0177 29.2699C56.1453 28.8877 58.4723 26.8428 59.0226 28.9755C59.4837 30.7622 59.0497 32.6595 59.6705 34.4528C60.9348 38.1053 64.8006 30.4177 67.3269 31.8613C67.9982 32.2449 67.7008 35.1892 67.857 35.8663C68.1477 37.1259 68.8782 38.889 69.7711 39.8712C71.572 41.8522 76.2024 38.7913 77.8987 38.1926C79.4851 37.6327 81.7139 38.2962 83.2877 38.5166C84.1306 38.6346 84.5002 38.5757 84.8484 37.8098C84.9214 37.6492 85.0751 36.5844 85.1134 37.0442C85.199 38.0709 86.7339 35.4818 87.7637 35.454C91.7446 35.3464 95.5346 35.6804 99.4251 36.5141" stroke="black" stroke-linecap="round" stroke-linejoin="round"/>
<path d="M93.0645 21.6724C90.397 33.6761 88.3724 46.0082 83.4939 57.3632C81.6539 61.6459 75.6827 74.1508 76.7504 69.6135C78.6607 61.4947 84.5371 52.999 89.1774 46.2319C91.2064 43.2729 94.1246 38.8117 94.1246 44.4061C94.1246 47.9083 99.3175 42.0137 100.25 41.8442C102.72 41.3951 102.665 39.302 105.079 40.1068C106.358 40.5331 108.75 40.4001 109.997 40.1068C111.779 39.6874 112.393 38.1549 114.267 38.1043C115.757 38.064 116.865 37.3797 118.242 37.0736C119.205 36.8597 120.634 37.5742 121.688 37.5742C123.354 37.5742 129.074 37.1106 130.11 38.6638C132.317 41.975 139.239 35.7186 141.3 34.3939" stroke="black" stroke-linecap="round" stroke-linejoin="round"/>
</svg>
