<svg width="23" height="23" viewBox="0 0 23 23" fill="none" xmlns="http://www.w3.org/2000/svg">
<g clip-path="url(#clip0)">
<path d="M21.2501 7.27654L22.3261 6.20051C22.7606 5.76597 23 5.18817 23 4.5736C23 3.95904 22.7606 3.38124 22.3261 2.9467L20.0532 0.673753C19.1562 -0.223231 17.6966 -0.223334 16.7994 0.673753L2.43771 15.0355C2.35328 15.1199 2.28969 15.2229 2.25201 15.3362L0.0392707 21.9896C-0.0524809 22.2654 0.0194048 22.5694 0.224975 22.775C0.371358 22.9214 0.56761 23 0.768112 23C0.849163 23 0.930981 22.9871 1.01034 22.9607L7.66366 20.7479C7.77697 20.7102 7.87999 20.6466 7.96436 20.5622L20.1639 8.36266L20.3253 8.52409C20.8148 9.01352 21.0488 9.68845 20.9675 10.3759C20.8862 11.0633 20.5011 11.665 19.9109 12.0267L16.2516 14.2695C14.7432 15.194 13.8004 16.8013 13.7297 18.5691C13.7127 18.9929 14.0425 19.3503 14.4664 19.3672C14.4768 19.3676 14.4872 19.3679 14.4976 19.3679C14.9076 19.3679 15.2479 19.0439 15.2645 18.6305C15.3147 17.376 15.9838 16.2352 17.0543 15.5791L20.7136 13.3363C21.7074 12.7272 22.3559 11.7139 22.4929 10.5564C22.6299 9.39881 22.2357 8.2622 21.4114 7.43797L21.2501 7.27654ZM17.8855 1.75992C18.1837 1.46168 18.6689 1.46173 18.9671 1.75992L21.24 4.03287C21.3845 4.17731 21.464 4.36937 21.464 4.57366C21.464 4.77795 21.3845 4.97 21.24 5.11449L19.4037 6.9508L16.0493 3.59629L17.8855 1.75992ZM3.4074 16.7293L6.27059 19.5925L1.9807 21.0193L3.4074 16.7293ZM7.24034 19.114L3.88587 15.7596L15.3252 4.32026L18.6796 7.67478L7.24034 19.114Z" fill="#0C3E70"/>
</g>
<defs>
<clipPath id="clip0">
<rect width="23" height="23" fill="white"/>
</clipPath>
</defs>
</svg>
