<svg width="71" height="73" viewBox="0 0 71 73" fill="none" xmlns="http://www.w3.org/2000/svg">
<path d="M16.5206 51.8291C14.6952 51.8291 13.144 52.4678 11.8664 53.7453C10.5892 55.0238 9.9502 56.5747 9.9502 58.4001C9.9502 60.2257 10.5888 61.7766 11.8664 63.0551C13.1445 64.3326 14.6957 64.9713 16.5206 64.9713C18.3153 64.9713 19.8587 64.3326 21.1516 63.0551C22.4441 61.7782 23.0904 60.2257 23.0904 58.4001C23.0904 56.5747 22.4443 55.025 21.1516 53.7453C19.8585 52.4689 18.3153 51.8291 16.5206 51.8291Z" fill="#F1F3F8"/>
<path d="M15.0609 37.9587C15.0609 35.9513 14.3464 34.2333 12.9167 32.8024C11.4871 31.3728 9.76825 30.6582 7.76083 30.6582C5.75324 30.6582 4.03474 31.373 2.60499 32.8024C1.17557 34.2322 0.460938 35.9507 0.460938 37.9587C0.460938 39.9658 1.17541 41.6835 2.60499 43.1136C4.03474 44.5437 5.75324 45.2585 7.76083 45.2585C9.76825 45.2585 11.4871 44.5437 12.9167 43.1136C14.3464 41.6845 15.0609 39.9658 15.0609 37.9587Z" fill="#F1F3F8"/>
<path d="M57.4003 21.1708C58.4033 21.1708 59.264 20.8128 59.9778 20.0984C60.6926 19.3833 61.0507 18.5237 61.0507 17.5201C61.0507 16.5161 60.6926 15.6572 59.9778 14.9425C59.2635 14.2274 58.4033 13.8701 57.4003 13.8701C56.3963 13.8701 55.5366 14.2281 54.8218 14.9425C54.1075 15.6573 53.75 16.5161 53.75 17.5201C53.75 18.5242 54.1075 19.3833 54.8218 20.0984C55.5366 20.8135 56.3963 21.1708 57.4003 21.1708Z" fill="#F1F3F8"/>
<path d="M16.5214 9.49023C14.3006 9.49023 12.4073 10.2736 10.8408 11.8398C9.27408 13.406 8.49121 15.2995 8.49121 17.5198C8.49121 19.7409 9.27408 21.6335 10.8408 23.2004C12.4078 24.7671 14.3011 25.5503 16.5214 25.5503C18.7417 25.5503 20.6352 24.7666 22.2014 23.2004C23.7676 21.6335 24.5509 19.7404 24.5509 17.5198C24.5509 15.2995 23.7676 13.406 22.2014 11.8398C20.6352 10.2736 18.7417 9.49023 16.5214 9.49023Z" fill="#F1F3F8"/>
<path d="M69.2622 34.8572C68.4108 34.0055 67.3767 33.5801 66.1604 33.5801C64.9431 33.5801 63.909 34.0055 63.0576 34.8572C62.2066 35.709 61.7812 36.7433 61.7812 37.9607C61.7812 39.1768 62.2066 40.2126 63.0576 41.0625C63.9095 41.9145 64.9431 42.3399 66.1604 42.3399C67.3767 42.3399 68.4114 41.9145 69.2622 41.0625C70.1143 40.2117 70.5392 39.1768 70.5392 37.9607C70.5392 36.744 70.1149 35.7094 69.2622 34.8572Z" fill="#F1F3F8"/>
<path d="M57.4005 53.29C56.0005 53.29 54.7991 53.7915 53.795 54.7955C52.7921 55.7984 52.29 57.0005 52.29 58.4005C52.29 59.7994 52.7921 61.0014 53.795 62.0056C54.7991 63.0095 56.0006 63.5105 57.4005 63.5105C58.7994 63.5105 60.0008 63.0085 61.0048 62.0056C62.0088 61.0016 62.5105 59.8 62.5105 58.4005C62.5105 57.0005 62.0088 55.7997 61.0048 54.7955C60.0009 53.7913 58.7994 53.29 57.4005 53.29Z" fill="#F1F3F8"/>
<path d="M36.9597 61.3184C35.3476 61.3184 33.9711 61.8898 32.8298 63.0306C31.6896 64.1714 31.1191 65.5472 31.1191 67.1594C31.1191 68.7716 31.689 70.1475 32.8298 71.2882C33.9711 72.429 35.347 73 36.9597 73C38.5719 73 39.9478 72.429 41.0887 71.2882C42.2295 70.1475 42.7998 68.7716 42.7998 67.1594C42.7998 65.5472 42.2295 64.1714 41.0887 63.0306C39.9478 61.8898 38.5719 61.3184 36.9597 61.3184Z" fill="#F1F3F8"/>
<path d="M36.9605 0C34.5275 0 32.4583 0.851262 30.7548 2.55459C29.0518 4.25807 28.2002 6.32686 28.2002 8.75999C28.2002 11.1933 29.0515 13.2611 30.7548 14.9648C32.4583 16.6678 34.5271 17.5195 36.9605 17.5195C39.3946 17.5195 41.4624 16.6682 43.1653 14.9648C44.8681 13.2619 45.7197 11.1933 45.7197 8.75999C45.7197 6.32702 44.8681 4.25871 43.1653 2.55459C41.4624 0.851741 39.3946 0 36.9605 0Z" fill="#F1F3F8"/>
</svg>
