<svg width="56" height="56" viewBox="0 0 56 56" fill="none" xmlns="http://www.w3.org/2000/svg">
<g opacity="0.1">
<path d="M39.8075 26.6992L37.9414 31.3435H41.6734L39.8075 26.6992Z" fill="black"/>
<path d="M0 16.8076V51.8076H56V16.8076H0ZM47.8333 41.5264V44.8076H38.5918V41.5264H47.8333ZM35.3105 44.8076H31.8653V41.5264H35.3105V44.8076ZM37.8175 22.6773H41.8604L48.2879 37.1909H44.0169L42.8765 34.3712H36.7393L35.599 37.1909H31.4109L37.8175 22.6773ZM24.1347 44.8076H14.8932V41.5264H24.1347V44.8076ZM8.56734 24.9013H14.51V21.5106H17.7913V24.9013H23.7339V28.1825H20.9801C20.3905 29.5794 19.5806 30.8758 18.5852 32.0359C19.4086 32.6074 20.3048 33.0899 21.261 33.4754L22.7258 34.0658L21.4991 37.109L20.0342 36.5186C18.6302 35.9527 17.327 35.2147 16.1515 34.3222C14.9874 35.2051 13.6838 35.9475 12.2671 36.5186L10.8021 37.1091L9.57545 34.0658L11.0403 33.4754C13.7685 32.3757 15.966 30.5036 17.3188 28.1826H8.56734V24.9013ZM8.16659 41.5264H11.6118V44.8076H8.16659V41.5264Z" fill="black"/>
<path d="M12.6143 4.19238H55.9997V13.5258H12.6143V4.19238Z" fill="black"/>
<path d="M0 4.19238H9.3333V13.5258H0V4.19238Z" fill="black"/>
</g>
</svg>
