<svg width="18" height="16" viewBox="0 0 18 16" fill="none" xmlns="http://www.w3.org/2000/svg">
<path d="M18 2.41936C17.3375 2.71292 16.6266 2.91201 15.8797 3.00089C16.6424 2.54422 17.2261 1.81986 17.5028 0.959394C16.7874 1.38231 15.9978 1.68939 15.1565 1.85586C14.4827 1.13713 13.5244 0.689453 12.4615 0.689453C10.4222 0.689453 8.76879 2.34289 8.76879 4.38101C8.76879 4.67007 8.80141 4.95239 8.86441 5.22236C5.796 5.06824 3.07515 3.59816 1.25412 1.36431C0.935794 1.90872 0.754706 2.54307 0.754706 3.22022C0.754706 4.50136 1.40709 5.63177 2.39691 6.29312C1.79176 6.27289 1.22262 6.10642 0.724353 5.82971V5.87583C0.724353 7.66424 1.99762 9.15683 3.68591 9.49653C3.37659 9.57977 3.05041 9.62588 2.71297 9.62588C2.47453 9.62588 2.24394 9.60227 2.01785 9.55727C2.488 11.0251 3.85126 12.0925 5.46647 12.1218C4.20332 13.1116 2.61062 13.6999 0.880706 13.6999C0.582647 13.6999 0.289059 13.6819 0 13.6493C1.63432 14.6987 3.57459 15.3106 5.65994 15.3106C12.4525 15.3106 16.1655 9.68438 16.1655 4.80507L16.1531 4.32704C16.8786 3.8096 17.5062 3.15948 18 2.41936Z" fill="#ffffff"/>
</svg>
