<svg width="1407" height="644" viewBox="0 0 1407 644" fill="none" xmlns="http://www.w3.org/2000/svg">
<circle cx="444" cy="82" r="19.5" fill="white" stroke="#EAEBF2"/>
<path d="M438 89C438 90.1 438.9 91 440 91H448C449.1 91 450 90.1 450 89V77H438V89ZM440.46 81.88L441.87 80.47L444 82.59L446.12 80.47L447.53 81.88L445.41 84L447.53 86.12L446.12 87.53L444 85.41L441.88 87.53L440.47 86.12L442.59 84L440.46 81.88ZM447.5 74L446.5 73H441.5L440.5 74H437V76H451V74H447.5Z" fill="#EAEBF2"/>
<circle cx="313" cy="47" r="19.5" fill="white" stroke="#EAEBF2"/>
<path d="M318 55.41L319.41 54L316 50.59L314.59 52L318 55.41ZM308.5 43H312V48.59L306.59 54L308 55.41L314 49.41V43H317.5L313 38.5L308.5 43Z" fill="#EAEBF2"/>
<circle cx="170" cy="552" r="19.5" fill="white" stroke="#EAEBF2"/>
<path d="M175 560.41L176.41 559L173 555.59L171.59 557L175 560.41ZM165.5 548H169V553.59L163.59 559L165 560.41L171 554.41V548H174.5L170 543.5L165.5 548Z" fill="#EAEBF2"/>
<circle cx="1342" cy="561" r="19.5" fill="white" stroke="#EAEBF2"/>
<path d="M1347 569.41L1348.41 568L1345 564.59L1343.59 566L1347 569.41ZM1337.5 557H1341V562.59L1335.59 568L1337 569.41L1343 563.41V557H1346.5L1342 552.5L1337.5 557Z" fill="#EAEBF2"/>
<circle cx="192" cy="263" r="19.5" fill="white" stroke="#EAEBF2"/>
<path d="M197 271.41L198.41 270L195 266.59L193.59 268L197 271.41ZM187.5 259H191V264.59L185.59 270L187 271.41L193 265.41V259H196.5L192 254.5L187.5 259Z" fill="#EAEBF2"/>
<circle cx="227" cy="135" r="19.5" fill="white" stroke="#EAEBF2"/>
<path d="M233.375 134.25H232.25V131.25C232.25 130.425 231.575 129.75 230.75 129.75H227.75V128.625C227.75 127.59 226.91 126.75 225.875 126.75C224.84 126.75 224 127.59 224 128.625V129.75H221C220.175 129.75 219.507 130.425 219.507 131.25V134.1H220.625C221.743 134.1 222.65 135.007 222.65 136.125C222.65 137.243 221.743 138.15 220.625 138.15H219.5V141C219.5 141.825 220.175 142.5 221 142.5H223.85V141.375C223.85 140.257 224.758 139.35 225.875 139.35C226.992 139.35 227.9 140.257 227.9 141.375V142.5H230.75C231.575 142.5 232.25 141.825 232.25 141V138H233.375C234.41 138 235.25 137.16 235.25 136.125C235.25 135.09 234.41 134.25 233.375 134.25Z" fill="#EAEBF2"/>
<circle cx="1356" cy="40" r="19.5" fill="white" stroke="#EAEBF2"/>
<path d="M1362.38 39.25H1361.25V36.25C1361.25 35.425 1360.57 34.75 1359.75 34.75H1356.75V33.625C1356.75 32.59 1355.91 31.75 1354.88 31.75C1353.84 31.75 1353 32.59 1353 33.625V34.75H1350C1349.17 34.75 1348.51 35.425 1348.51 36.25V39.1H1349.62C1350.74 39.1 1351.65 40.0075 1351.65 41.125C1351.65 42.2425 1350.74 43.15 1349.62 43.15H1348.5V46C1348.5 46.825 1349.17 47.5 1350 47.5H1352.85V46.375C1352.85 45.2575 1353.76 44.35 1354.88 44.35C1355.99 44.35 1356.9 45.2575 1356.9 46.375V47.5H1359.75C1360.57 47.5 1361.25 46.825 1361.25 46V43H1362.38C1363.41 43 1364.25 42.16 1364.25 41.125C1364.25 40.09 1363.41 39.25 1362.38 39.25Z" fill="#EAEBF2"/>
<circle cx="1374" cy="265" r="19.5" fill="white" stroke="#EAEBF2"/>
<path d="M1380.38 264.25H1379.25V261.25C1379.25 260.425 1378.57 259.75 1377.75 259.75H1374.75V258.625C1374.75 257.59 1373.91 256.75 1372.88 256.75C1371.84 256.75 1371 257.59 1371 258.625V259.75H1368C1367.17 259.75 1366.51 260.425 1366.51 261.25V264.1H1367.62C1368.74 264.1 1369.65 265.007 1369.65 266.125C1369.65 267.243 1368.74 268.15 1367.62 268.15H1366.5V271C1366.5 271.825 1367.17 272.5 1368 272.5H1370.85V271.375C1370.85 270.257 1371.76 269.35 1372.88 269.35C1373.99 269.35 1374.9 270.257 1374.9 271.375V272.5H1377.75C1378.57 272.5 1379.25 271.825 1379.25 271V268H1380.38C1381.41 268 1382.25 267.16 1382.25 266.125C1382.25 265.09 1381.41 264.25 1380.38 264.25Z" fill="#EAEBF2"/>
<circle cx="137" cy="394" r="19.5" fill="white" stroke="#EAEBF2"/>
<path d="M140.75 396.25H142.25V390.25C142.25 389.425 141.575 388.75 140.75 388.75H134.75V390.25H140.75V396.25ZM133.25 397.75V385.75H131.75V388.75H128.75V390.25H131.75V397.75C131.75 398.575 132.425 399.25 133.25 399.25H140.75V402.25H142.25V399.25H145.25V397.75H133.25Z" fill="#EAEBF2"/>
<circle cx="1183" cy="423" r="19.5" fill="white" stroke="#EAEBF2"/>
<path d="M1189.53 418.222L1187.78 416.467C1187.49 416.175 1187.01 416.175 1186.72 416.467L1184.38 418.807L1182.93 417.375L1181.88 418.432L1182.94 419.497L1176.25 426.187V429.75H1179.81L1186.5 423.06L1187.57 424.125L1188.62 423.067L1187.18 421.627L1189.53 419.287C1189.83 418.987 1189.82 418.515 1189.53 418.222ZM1179.19 428.25L1177.75 426.81L1183.8 420.765L1185.23 422.205L1179.19 428.25Z" fill="#EAEBF2"/>
<circle cx="28" cy="348" r="19.5" fill="white" stroke="#EAEBF2"/>
<path d="M21 353V355H35V353H21ZM25.5 348.8H30.5L31.4 351H33.5L28.75 340H27.25L22.5 351H24.6L25.5 348.8ZM28 341.98L29.87 347H26.13L28 341.98Z" fill="#EAEBF2"/>
<circle cx="20" cy="154" r="19.5" fill="white" stroke="#EAEBF2"/>
<path d="M13 159V161H27V159H13ZM17.5 154.8H22.5L23.4 157H25.5L20.75 146H19.25L14.5 157H16.6L17.5 154.8ZM20 147.98L21.87 153H18.13L20 147.98Z" fill="#EAEBF2"/>
<circle cx="1273" cy="469" r="19.5" fill="white" stroke="#EAEBF2"/>
<path d="M1266 474V476H1280V474H1266ZM1270.5 469.8H1275.5L1276.4 472H1278.5L1273.75 461H1272.25L1267.5 472H1269.6L1270.5 469.8ZM1273 462.98L1274.87 468H1271.13L1273 462.98Z" fill="#EAEBF2"/>
<circle cx="47" cy="27" r="19.5" fill="white" stroke="#EAEBF2"/>
<path d="M54.5 23.19L53.4425 22.1325L51.305 24.54C49.76 22.8 47.6225 21.75 45.2075 21.75C43.04 21.75 41.0525 22.62 39.5 24L40.565 25.065C41.84 23.9475 43.4525 23.25 45.2075 23.25C47.2625 23.25 49.025 24.195 50.285 25.68L48.125 28.11L45.125 25.11L39.5 30.7425L40.625 31.8675L45.125 27.36L48.125 30.36L51.1625 26.9475C51.725 27.96 52.1 29.1225 52.2425 30.36H53.75C53.585 28.635 53.0375 27.0675 52.22 25.755L54.5 23.19Z" fill="#EAEBF2"/>
<circle cx="1313" cy="138" r="19.5" fill="white" stroke="#EAEBF2"/>
<path d="M1320.5 134.19L1319.44 133.133L1317.31 135.54C1315.76 133.8 1313.62 132.75 1311.21 132.75C1309.04 132.75 1307.05 133.62 1305.5 135L1306.57 136.065C1307.84 134.948 1309.45 134.25 1311.21 134.25C1313.26 134.25 1315.02 135.195 1316.28 136.68L1314.12 139.11L1311.12 136.11L1305.5 141.743L1306.62 142.868L1311.12 138.36L1314.12 141.36L1317.16 137.948C1317.72 138.96 1318.1 140.123 1318.24 141.36H1319.75C1319.59 139.635 1319.04 138.068 1318.22 136.755L1320.5 134.19Z" fill="#EAEBF2"/>
<circle cx="186" cy="34" r="19.5" fill="white" stroke="#EAEBF2"/>
<path d="M181 38.1668H183.5L185.167 34.8335V29.8335H180.167V34.8335H182.667L181 38.1668ZM187.667 38.1668H190.167L191.833 34.8335V29.8335H186.833V34.8335H189.333L187.667 38.1668Z" fill="#EAEBF2"/>
<circle cx="273" cy="586" r="19.5" fill="white" stroke="#EAEBF2"/>
<path d="M268 590.167H270.5L272.167 586.833V581.833H267.167V586.833H269.667L268 590.167ZM274.667 590.167H277.167L278.833 586.833V581.833H273.833V586.833H276.333L274.667 590.167Z" fill="#EAEBF2"/>
<circle cx="1194" cy="323" r="19.5" fill="white" stroke="#EAEBF2"/>
<path d="M1186.5 327.167V328.833H1191.5V327.167H1186.5ZM1186.5 317.167V318.833H1194.83V317.167H1186.5ZM1194.83 330.5V328.833H1201.5V327.167H1194.83V325.5H1193.17V330.5H1194.83ZM1189.83 320.5V322.167H1186.5V323.833H1189.83V325.5H1191.5V320.5H1189.83ZM1201.5 323.833V322.167H1193.17V323.833H1201.5ZM1196.5 320.5H1198.17V318.833H1201.5V317.167H1198.17V315.5H1196.5V320.5Z" fill="#EAEBF2"/>
<circle cx="1265" cy="248" r="19.5" fill="white" stroke="#EAEBF2"/>
<path d="M1268 245H1266.5V247.25H1264.25V248.75H1266.5V251H1268V248.75H1270.25V247.25H1268V245ZM1257.5 248C1257.5 245.908 1258.73 244.1 1260.51 243.26V241.64C1257.89 242.57 1256 245.067 1256 248C1256 250.932 1257.89 253.43 1260.51 254.36V252.74C1258.73 251.9 1257.5 250.092 1257.5 248ZM1267.25 241.25C1263.53 241.25 1260.5 244.28 1260.5 248C1260.5 251.72 1263.53 254.75 1267.25 254.75C1270.97 254.75 1274 251.72 1274 248C1274 244.28 1270.97 241.25 1267.25 241.25ZM1267.25 253.25C1264.36 253.25 1262 250.895 1262 248C1262 245.105 1264.36 242.75 1267.25 242.75C1270.14 242.75 1272.5 245.105 1272.5 248C1272.5 250.895 1270.14 253.25 1267.25 253.25Z" fill="#EAEBF2"/>
<circle cx="349" cy="427" r="19.5" fill="white" stroke="#EAEBF2"/>
<path d="M352 424H350.5V426.25H348.25V427.75H350.5V430H352V427.75H354.25V426.25H352V424ZM341.5 427C341.5 424.908 342.73 423.1 344.508 422.26V420.64C341.89 421.57 340 424.067 340 427C340 429.932 341.89 432.43 344.508 433.36V431.74C342.73 430.9 341.5 429.092 341.5 427ZM351.25 420.25C347.53 420.25 344.5 423.28 344.5 427C344.5 430.72 347.53 433.75 351.25 433.75C354.97 433.75 358 430.72 358 427C358 423.28 354.97 420.25 351.25 420.25ZM351.25 432.25C348.355 432.25 346 429.895 346 427C346 424.105 348.355 421.75 351.25 421.75C354.145 421.75 356.5 424.105 356.5 427C356.5 429.895 354.145 432.25 351.25 432.25Z" fill="#EAEBF2"/>
<circle cx="1069" cy="142" r="19.5" fill="white" stroke="#EAEBF2"/>
<path d="M1061.9 147.737L1062.9 148.157V141.385L1061.08 145.78C1060.77 146.545 1061.14 147.422 1061.9 147.737ZM1076.52 144.962L1072.8 135.985C1072.57 135.423 1072.02 135.077 1071.44 135.062C1071.25 135.062 1071.05 135.093 1070.85 135.175L1065.32 137.462C1064.76 137.695 1064.42 138.235 1064.4 138.812C1064.39 139.015 1064.43 139.218 1064.51 139.413L1068.23 148.39C1068.47 148.96 1069.02 149.305 1069.61 149.312C1069.8 149.312 1070 149.275 1070.18 149.2L1075.7 146.912C1076.47 146.597 1076.84 145.72 1076.52 144.962ZM1065.91 139.562C1065.5 139.562 1065.16 139.225 1065.16 138.812C1065.16 138.4 1065.5 138.062 1065.91 138.062C1066.32 138.062 1066.66 138.4 1066.66 138.812C1066.66 139.225 1066.32 139.562 1065.91 139.562ZM1064.41 147.812C1064.41 148.637 1065.08 149.312 1065.91 149.312H1067L1064.41 143.057V147.812Z" fill="#EAEBF2"/>
<circle cx="347" cy="521" r="19.5" fill="white" stroke="#EAEBF2"/>
<path d="M339.898 526.737L340.903 527.157V520.385L339.08 524.78C338.773 525.545 339.14 526.422 339.898 526.737ZM354.523 523.962L350.803 514.985C350.57 514.423 350.023 514.077 349.445 514.062C349.25 514.062 349.048 514.093 348.853 514.175L343.325 516.462C342.763 516.695 342.418 517.235 342.403 517.812C342.395 518.015 342.433 518.218 342.515 518.413L346.235 527.39C346.468 527.96 347.023 528.305 347.608 528.312C347.803 528.312 347.998 528.275 348.185 528.2L353.705 525.912C354.47 525.597 354.838 524.72 354.523 523.962ZM343.91 518.562C343.498 518.562 343.16 518.225 343.16 517.812C343.16 517.4 343.498 517.062 343.91 517.062C344.323 517.062 344.66 517.4 344.66 517.812C344.66 518.225 344.323 518.562 343.91 518.562ZM342.41 526.812C342.41 527.637 343.085 528.312 343.91 528.312H344.998L342.41 522.057V526.812Z" fill="#EAEBF2"/>
<circle cx="1069" cy="383" r="19.5" fill="white" stroke="#EAEBF2"/>
<path d="M1074.63 376.31L1062.31 388.632C1062.38 388.887 1062.51 389.12 1062.69 389.307C1062.88 389.488 1063.11 389.623 1063.37 389.69L1075.7 377.367C1075.56 376.85 1075.15 376.445 1074.63 376.31ZM1068.91 376.25L1062.25 382.91V385.033L1071.03 376.25H1068.91ZM1063.75 376.25C1062.92 376.25 1062.25 376.925 1062.25 377.75V379.25L1065.25 376.25H1063.75ZM1074.25 389.75C1074.66 389.75 1075.04 389.585 1075.31 389.307C1075.59 389.037 1075.75 388.663 1075.75 388.25V386.75L1072.75 389.75H1074.25ZM1066.97 389.75H1069.09L1075.75 383.09V380.967L1066.97 389.75Z" fill="#EAEBF2"/>
<circle cx="238" cy="463" r="19.5" fill="white" stroke="#EAEBF2"/>
<path d="M243.632 456.31L231.31 468.632C231.377 468.887 231.512 469.12 231.692 469.307C231.88 469.488 232.112 469.623 232.367 469.69L244.698 457.367C244.555 456.85 244.15 456.445 243.632 456.31ZM237.91 456.25L231.25 462.91V465.033L240.033 456.25H237.91ZM232.75 456.25C231.925 456.25 231.25 456.925 231.25 457.75V459.25L234.25 456.25H232.75ZM243.25 469.75C243.663 469.75 244.037 469.585 244.307 469.307C244.585 469.037 244.75 468.663 244.75 468.25V466.75L241.75 469.75H243.25ZM235.967 469.75H238.09L244.75 463.09V460.967L235.967 469.75Z" fill="#EAEBF2"/>
<circle cx="1198" cy="557" r="19.5" fill="white" stroke="#EAEBF2"/>
<path d="M1203.63 550.31L1191.31 562.632C1191.38 562.887 1191.51 563.12 1191.69 563.307C1191.88 563.488 1192.11 563.623 1192.37 563.69L1204.7 551.367C1204.56 550.85 1204.15 550.445 1203.63 550.31ZM1197.91 550.25L1191.25 556.91V559.033L1200.03 550.25H1197.91ZM1192.75 550.25C1191.92 550.25 1191.25 550.925 1191.25 551.75V553.25L1194.25 550.25H1192.75ZM1203.25 563.75C1203.66 563.75 1204.04 563.585 1204.31 563.307C1204.59 563.037 1204.75 562.663 1204.75 562.25V560.75L1201.75 563.75H1203.25ZM1195.97 563.75H1198.09L1204.75 557.09V554.967L1195.97 563.75Z" fill="#EAEBF2"/>
<circle cx="705" cy="20" r="19.5" fill="white" stroke="#EAEBF2"/>
<path d="M710.632 13.31L698.31 25.6325C698.377 25.8875 698.512 26.12 698.692 26.3075C698.88 26.4875 699.112 26.6225 699.367 26.69L711.698 14.3675C711.555 13.85 711.15 13.445 710.632 13.31ZM704.91 13.25L698.25 19.91V22.0325L707.033 13.25H704.91ZM699.75 13.25C698.925 13.25 698.25 13.925 698.25 14.75V16.25L701.25 13.25H699.75ZM710.25 26.75C710.663 26.75 711.037 26.585 711.307 26.3075C711.585 26.0375 711.75 25.6625 711.75 25.25V23.75L708.75 26.75H710.25ZM702.967 26.75H705.09L711.75 20.09V17.9675L702.967 26.75Z" fill="#EAEBF2"/>
<circle cx="1178" cy="205" r="19.5" fill="white" stroke="#EAEBF2"/>
<path d="M1173 197.5H1170.5V200C1171.88 200 1173 198.883 1173 197.5ZM1179.67 197.5H1178C1178 201.642 1174.64 205 1170.5 205V206.667C1175.57 206.667 1179.67 202.558 1179.67 197.5ZM1176.33 197.5H1174.67C1174.67 199.8 1172.8 201.667 1170.5 201.667V203.333C1173.72 203.333 1176.33 200.725 1176.33 197.5ZM1176.33 212.5H1178C1178 208.358 1181.36 205 1185.5 205V203.333C1180.44 203.333 1176.33 207.442 1176.33 212.5ZM1183 212.5H1185.5V210C1184.12 210 1183 211.117 1183 212.5ZM1179.67 212.5H1181.33C1181.33 210.2 1183.2 208.333 1185.5 208.333V206.667C1182.27 206.667 1179.67 209.275 1179.67 212.5Z" fill="#EAEBF2"/>
<circle cx="985" cy="60" r="19.5" fill="white" stroke="#EAEBF2"/>
<path d="M991.125 58.3668C990.558 55.4918 988.033 53.3335 985 53.3335C982.592 53.3335 980.508 54.7002 979.467 56.7002C976.958 56.9668 975 59.0835 975 61.6668C975 64.4252 977.242 66.6668 980 66.6668H990.833C993.133 66.6668 995 64.8002 995 62.5002C995 60.3002 993.292 58.5168 991.125 58.3668ZM990.833 65.0002H980C978.158 65.0002 976.667 63.5085 976.667 61.6668C976.667 59.8252 978.158 58.3335 980 58.3335C981.842 58.3335 983.333 59.8252 983.333 61.6668H985C985 59.3668 983.45 57.4335 981.333 56.8502C982.175 55.7335 983.5 55.0002 985 55.0002C987.525 55.0002 989.583 57.0585 989.583 59.5835V60.0002H990.833C992.208 60.0002 993.333 61.1252 993.333 62.5002C993.333 63.8752 992.208 65.0002 990.833 65.0002Z" fill="#EAEBF2"/>
<circle cx="60" cy="508" r="19.5" fill="white" stroke="#EAEBF2"/>
<path d="M66.125 506.367C65.5583 503.492 63.0333 501.333 60 501.333C57.5917 501.333 55.5083 502.7 54.4667 504.7C51.9583 504.967 50 507.083 50 509.667C50 512.425 52.2417 514.667 55 514.667H65.8333C68.1333 514.667 70 512.8 70 510.5C70 508.3 68.2917 506.517 66.125 506.367ZM65.8333 513H55C53.1583 513 51.6667 511.508 51.6667 509.667C51.6667 507.825 53.1583 506.333 55 506.333C56.8417 506.333 58.3333 507.825 58.3333 509.667H60C60 507.367 58.45 505.433 56.3333 504.85C57.175 503.733 58.5 503 60 503C62.525 503 64.5833 505.058 64.5833 507.583V508H65.8333C67.2083 508 68.3333 509.125 68.3333 510.5C68.3333 511.875 67.2083 513 65.8333 513Z" fill="#EAEBF2"/>
<circle cx="1080" cy="268" r="19.5" fill="white" stroke="#EAEBF2"/>
<path d="M1088.25 264.25V259.75H1083.75V261.25H1076.25V259.75H1071.75V264.25H1073.25V271.75H1071.75V276.25H1076.25V274.75H1083.75V276.25H1088.25V271.75H1086.75V264.25H1088.25ZM1073.25 261.25H1074.75V262.75H1073.25V261.25ZM1074.75 274.75H1073.25V273.25H1074.75V274.75ZM1083.75 273.25H1076.25V271.75H1074.75V264.25H1076.25V262.75H1083.75V264.25H1085.25V271.75H1083.75V273.25ZM1086.75 274.75H1085.25V273.25H1086.75V274.75ZM1085.25 262.75V261.25H1086.75V262.75H1085.25ZM1081.3 269.5H1078.68L1078.13 271H1076.92L1079.47 264.25H1080.52L1083.08 271H1081.85L1081.3 269.5ZM1079.02 268.555H1080.98L1080 265.682L1079.02 268.555Z" fill="#EAEBF2"/>
<circle cx="263" cy="343" r="19.5" fill="white" stroke="#EAEBF2"/>
<path d="M271.25 339.25V334.75H266.75V336.25H259.25V334.75H254.75V339.25H256.25V346.75H254.75V351.25H259.25V349.75H266.75V351.25H271.25V346.75H269.75V339.25H271.25ZM256.25 336.25H257.75V337.75H256.25V336.25ZM257.75 349.75H256.25V348.25H257.75V349.75ZM266.75 348.25H259.25V346.75H257.75V339.25H259.25V337.75H266.75V339.25H268.25V346.75H266.75V348.25ZM269.75 349.75H268.25V348.25H269.75V349.75ZM268.25 337.75V336.25H269.75V337.75H268.25ZM264.297 344.5H261.68L261.133 346H259.918L262.467 339.25H263.517L266.075 346H264.852L264.297 344.5ZM262.017 343.555H263.975L263 340.682L262.017 343.555Z" fill="#EAEBF2"/>
<circle cx="1183" cy="89" r="19.5" fill="white" stroke="#EAEBF2"/>
<path d="M1190.49 83C1190.49 82.175 1189.83 81.5 1189 81.5H1177C1176.18 81.5 1175.5 82.175 1175.5 83V92C1175.5 92.825 1176.18 93.5 1177 93.5H1187.5L1190.5 96.5L1190.49 83ZM1186.75 88.25H1183.75V91.25H1182.25V88.25H1179.25V86.75H1182.25V83.75H1183.75V86.75H1186.75V88.25Z" fill="#EAEBF2"/>
<circle cx="334" cy="147" r="19.5" fill="white" stroke="#EAEBF2"/>
<path d="M341.493 141C341.493 140.175 340.825 139.5 340 139.5H328C327.175 139.5 326.5 140.175 326.5 141V150C326.5 150.825 327.175 151.5 328 151.5H338.5L341.5 154.5L341.493 141ZM337.75 146.25H334.75V149.25H333.25V146.25H330.25V144.75H333.25V141.75H334.75V144.75H337.75V146.25Z" fill="#EAEBF2"/>
<circle cx="30" cy="624" r="19.5" fill="white" stroke="#EAEBF2"/>
<path d="M37.4925 618C37.4925 617.175 36.825 616.5 36 616.5H24C23.175 616.5 22.5 617.175 22.5 618V627C22.5 627.825 23.175 628.5 24 628.5H34.5L37.5 631.5L37.4925 618ZM33.75 623.25H30.75V626.25H29.25V623.25H26.25V621.75H29.25V618.75H30.75V621.75H33.75V623.25Z" fill="#EAEBF2"/>
<circle cx="550" cy="22" r="19.5" fill="white" stroke="#EAEBF2"/>
<path d="M543.25 15.25V28.75H556.75V15.25H543.25ZM549.25 27.25H544.75V22.75H549.25V27.25ZM549.25 21.25H544.75V16.75H549.25V21.25ZM555.25 27.25H550.75V22.75H555.25V27.25ZM555.25 21.25H550.75V16.75H555.25V21.25Z" fill="#EAEBF2"/>
<circle cx="1387" cy="441" r="19.5" fill="white" stroke="#EAEBF2"/>
<path d="M1380.25 434.25V447.75H1393.75V434.25H1380.25ZM1386.25 446.25H1381.75V441.75H1386.25V446.25ZM1386.25 440.25H1381.75V435.75H1386.25V440.25ZM1392.25 446.25H1387.75V441.75H1392.25V446.25ZM1392.25 440.25H1387.75V435.75H1392.25V440.25Z" fill="#EAEBF2"/>
<circle cx="108" cy="113" r="19.5" fill="white" stroke="#EAEBF2"/>
<path d="M111.75 106.25H104.25C103.425 106.25 102.758 106.925 102.758 107.75L102.75 119.75L108 117.5L113.25 119.75V107.75C113.25 106.925 112.575 106.25 111.75 106.25Z" fill="#EAEBF2"/>
<circle cx="1306" cy="360" r="19.5" fill="white" stroke="#EAEBF2"/>
<path d="M1309.75 353.25H1302.25C1301.42 353.25 1300.76 353.925 1300.76 354.75L1300.75 366.75L1306 364.5L1311.25 366.75V354.75C1311.25 353.925 1310.57 353.25 1309.75 353.25Z" fill="#EAEBF2"/>
<circle cx="860" cy="20" r="19.5" fill="white" stroke="#EAEBF2"/>
<path d="M863.75 13.25H856.25C855.425 13.25 854.758 13.925 854.758 14.75L854.75 26.75L860 24.5L865.25 26.75V14.75C865.25 13.925 864.575 13.25 863.75 13.25Z" fill="#EAEBF2"/>
<circle cx="68" cy="232" r="19.5" fill="white" stroke="#EAEBF2"/>
<path d="M59.75 226.75H61.25V237.25H59.75V226.75ZM62.75 226.75H64.25V237.25H62.75V226.75ZM75.5 226.75H66.5C66.0875 226.75 65.75 227.087 65.75 227.5V236.5C65.75 236.913 66.0875 237.25 66.5 237.25H75.5C75.9125 237.25 76.25 236.913 76.25 236.5V227.5C76.25 227.087 75.9125 226.75 75.5 226.75ZM67.25 235.75L69.125 233.388L70.4675 235L72.3425 232.585L74.75 235.75H67.25Z" fill="#EAEBF2"/>
<circle cx="1082" cy="503" r="19.5" fill="white" stroke="#EAEBF2"/>
<path d="M1073.75 497.75H1075.25V508.25H1073.75V497.75ZM1076.75 497.75H1078.25V508.25H1076.75V497.75ZM1089.5 497.75H1080.5C1080.09 497.75 1079.75 498.087 1079.75 498.5V507.5C1079.75 507.913 1080.09 508.25 1080.5 508.25H1089.5C1089.91 508.25 1090.25 507.913 1090.25 507.5V498.5C1090.25 498.087 1089.91 497.75 1089.5 497.75ZM1081.25 506.75L1083.12 504.388L1084.47 506L1086.34 503.585L1088.75 506.75H1081.25Z" fill="#EAEBF2"/>
<circle cx="347" cy="256" r="19.5" fill="white" stroke="#EAEBF2"/>
<path d="M347 249.25C343.273 249.25 340.25 252.273 340.25 256C340.25 259.727 343.273 262.75 347 262.75C347.622 262.75 348.125 262.248 348.125 261.625C348.125 261.333 348.012 261.07 347.832 260.868C347.66 260.672 347.547 260.41 347.547 260.125C347.547 259.502 348.05 259 348.672 259H350C352.07 259 353.75 257.32 353.75 255.25C353.75 251.935 350.727 249.25 347 249.25ZM342.875 256C342.253 256 341.75 255.497 341.75 254.875C341.75 254.253 342.253 253.75 342.875 253.75C343.497 253.75 344 254.253 344 254.875C344 255.497 343.497 256 342.875 256ZM345.125 253C344.503 253 344 252.497 344 251.875C344 251.253 344.503 250.75 345.125 250.75C345.747 250.75 346.25 251.253 346.25 251.875C346.25 252.497 345.747 253 345.125 253ZM348.875 253C348.252 253 347.75 252.497 347.75 251.875C347.75 251.253 348.252 250.75 348.875 250.75C349.498 250.75 350 251.253 350 251.875C350 252.497 349.498 253 348.875 253ZM351.125 256C350.502 256 350 255.497 350 254.875C350 254.253 350.502 253.75 351.125 253.75C351.748 253.75 352.25 254.253 352.25 254.875C352.25 255.497 351.748 256 351.125 256Z" fill="#EAEBF2"/>
</svg>
