<svg width="12" height="12" viewBox="0 0 12 12" fill="none" xmlns="http://www.w3.org/2000/svg">
<path d="M6 6C7.6575 6 9 4.6575 9 3C9 1.3425 7.6575 0 6 0C4.3425 0 3 1.3425 3 3C3 4.6575 4.3425 6 6 6ZM6 7.5C3.9975 7.5 0 8.505 0 10.5V12H12V10.5C12 8.505 8.0025 7.5 6 7.5Z" fill="#2EB9B7"/>
<path d="M6 6C7.6575 6 9 4.6575 9 3C9 1.3425 7.6575 0 6 0C4.3425 0 3 1.3425 3 3C3 4.6575 4.3425 6 6 6ZM6 7.5C3.9975 7.5 0 8.505 0 10.5V12H12V10.5C12 8.505 8.0025 7.5 6 7.5Z" fill="url(#paint0_linear)"/>
<path d="M6 6C7.6575 6 9 4.6575 9 3C9 1.3425 7.6575 0 6 0C4.3425 0 3 1.3425 3 3C3 4.6575 4.3425 6 6 6ZM6 7.5C3.9975 7.5 0 8.505 0 10.5V12H12V10.5C12 8.505 8.0025 7.5 6 7.5Z" fill="url(#paint1_linear)"/>
<defs>
<linearGradient id="paint0_linear" x1="0" y1="12" x2="13.6969" y2="9.57174" gradientUnits="userSpaceOnUse">
<stop stop-color="#ED6E76"/>
<stop offset="1" stop-color="#F2AA6F"/>
</linearGradient>
<linearGradient id="paint1_linear" x1="0" y1="12" x2="13.6969" y2="9.57174" gradientUnits="userSpaceOnUse">
<stop stop-color="#4298E8"/>
<stop offset="1" stop-color="#8044DB"/>
</linearGradient>
</defs>
</svg>
