<svg width="18" height="12" viewBox="0 0 18 12" fill="none" xmlns="http://www.w3.org/2000/svg">
<path d="M9 0.635132C5.56091 0.635132 2.44216 2.51669 0.140841 5.57284C-0.0469469 5.82323 -0.0469469 6.17303 0.140841 6.42341C2.44216 9.48324 5.56091 11.3648 9 11.3648C12.4391 11.3648 15.5578 9.48324 17.8592 6.42709C18.0469 6.17671 18.0469 5.82691 17.8592 5.57653C15.5578 2.51669 12.4391 0.635132 9 0.635132ZM9.2467 9.77781C6.96379 9.92142 5.07855 8.03986 5.22215 5.75327C5.33998 3.86803 6.86806 2.33995 8.7533 2.22212C11.0362 2.07852 12.9214 3.96008 12.7778 6.24667C12.6563 8.12823 11.1283 9.6563 9.2467 9.77781ZM9.13256 8.03249C7.90273 8.10982 6.88647 7.09724 6.96747 5.86741C7.03007 4.85115 7.85486 4.03004 8.87113 3.96376C10.101 3.88644 11.1172 4.89902 11.0362 6.12884C10.9699 7.14879 10.1451 7.9699 9.13256 8.03249Z" fill="#ffffff"/>
</svg>
