<svg width="46" height="46" viewBox="0 0 46 46" fill="none" xmlns="http://www.w3.org/2000/svg">
<path d="M44.5297 41.8987L33.5816 30.5122C36.3966 27.1659 37.9389 22.9556 37.9389 18.5725C37.9389 8.33178 29.6071 0 19.3664 0C9.12572 0 0.793945 8.33178 0.793945 18.5725C0.793945 28.8132 9.12572 37.145 19.3664 37.145C23.2109 37.145 26.8746 35.9854 30.0068 33.7842L41.0381 45.2571C41.4992 45.736 42.1193 46 42.7839 46C43.4129 46 44.0097 45.7602 44.4627 45.3241C45.4252 44.3979 45.4559 42.8621 44.5297 41.8987ZM19.3664 4.845C26.9359 4.845 33.0939 11.003 33.0939 18.5725C33.0939 26.142 26.9359 32.3 19.3664 32.3C11.7969 32.3 5.63894 26.142 5.63894 18.5725C5.63894 11.003 11.7969 4.845 19.3664 4.845Z" fill="black"/>
<path d="M44.5297 41.8987L33.5816 30.5122C36.3966 27.1659 37.9389 22.9556 37.9389 18.5725C37.9389 8.33178 29.6071 0 19.3664 0C9.12572 0 0.793945 8.33178 0.793945 18.5725C0.793945 28.8132 9.12572 37.145 19.3664 37.145C23.2109 37.145 26.8746 35.9854 30.0068 33.7842L41.0381 45.2571C41.4992 45.736 42.1193 46 42.7839 46C43.4129 46 44.0097 45.7602 44.4627 45.3241C45.4252 44.3979 45.4559 42.8621 44.5297 41.8987ZM19.3664 4.845C26.9359 4.845 33.0939 11.003 33.0939 18.5725C33.0939 26.142 26.9359 32.3 19.3664 32.3C11.7969 32.3 5.63894 26.142 5.63894 18.5725C5.63894 11.003 11.7969 4.845 19.3664 4.845Z" fill="url(#paint0_linear)"/>
<defs>
<linearGradient id="paint0_linear" x1="0.793945" y1="46" x2="51.5902" y2="37.3056" gradientUnits="userSpaceOnUse">
<stop stop-color="#4298E8"/>
<stop offset="1" stop-color="#8044DB"/>
</linearGradient>
</defs>
</svg>
