<svg width="13" height="20" viewBox="0 0 13 20" fill="none" xmlns="http://www.w3.org/2000/svg">
<path d="M1.25747 16.79L8.04747 9.99998L1.25747 3.20998C1.09545 3.04796 0.966928 2.85562 0.879245 2.64393C0.791561 2.43225 0.746429 2.20536 0.746429 1.97623C0.746429 1.7471 0.791561 1.52022 0.879245 1.30853C0.966928 1.09684 1.09545 0.9045 1.25747 0.742482C1.41948 0.580463 1.61183 0.451943 1.82352 0.36426C2.0352 0.276576 2.26209 0.231445 2.49122 0.231445C2.72034 0.231445 2.94723 0.276576 3.15892 0.36426C3.3706 0.451943 3.56295 0.580463 3.72497 0.742482L11.7575 8.77498C12.44 9.45748 12.44 10.56 11.7575 11.2425L3.72497 19.275C3.56307 19.4372 3.37076 19.5659 3.15906 19.6537C2.94735 19.7416 2.72041 19.7868 2.49122 19.7868C2.26202 19.7868 2.03508 19.7416 1.82337 19.6537C1.61167 19.5659 1.41936 19.4372 1.25747 19.275C0.592466 18.5925 0.574966 17.4725 1.25747 16.79Z" fill="url(#paint0_linear)"/>
<defs>
<linearGradient id="paint0_linear" x1="0.746429" y1="10.0091" x2="12.2693" y2="10.0091" gradientUnits="userSpaceOnUse">
<stop stop-color="#1CD995"/>
<stop offset="1" stop-color="#42E666"/>
</linearGradient>
</defs>
</svg>
