<svg width="35" height="27" viewBox="0 0 35 27" fill="none" xmlns="http://www.w3.org/2000/svg">
<path d="M8.76665 12.5835C7.53376 12.5876 6.32269 12.909 5.24999 13.5168C6.76024 9.60763 9.26509 6.16059 12.5167 3.51679C12.7027 3.36358 12.8567 3.17523 12.97 2.96248C13.0832 2.74974 13.1535 2.51678 13.1767 2.2769C13.1999 2.03701 13.1756 1.7949 13.1053 1.56439C13.0349 1.33389 12.9199 1.11949 12.7667 0.933453C12.6134 0.747414 12.4251 0.593372 12.2124 0.480124C11.9996 0.366877 11.7666 0.296641 11.5268 0.273426C11.2869 0.250212 11.0448 0.274474 10.8143 0.344826C10.5838 0.415179 10.3694 0.530243 10.1833 0.683452C3.51665 6.10012 0.549988 13.6001 0.549988 18.2501C0.561475 19.8943 1.05144 21.4995 1.96005 22.8698C2.86867 24.2402 4.15662 25.3163 5.66665 25.9668C6.64392 26.4402 7.71413 26.6907 8.79999 26.7001C9.75576 26.7466 10.711 26.5984 11.6078 26.2647C12.5046 25.9309 13.3243 25.4185 14.0172 24.7585C14.71 24.0985 15.2616 23.3047 15.6385 22.4252C16.0154 21.5456 16.2097 20.5987 16.2097 19.6418C16.2097 18.6849 16.0154 17.738 15.6385 16.8584C15.2616 15.9789 14.71 15.185 14.0172 14.525C13.3243 13.865 12.5046 13.3526 11.6078 13.0189C10.711 12.6851 9.75576 12.537 8.79999 12.5835H8.76665Z" fill="#EBEBEB"/>
<path d="M27.3333 12.5833C26.1002 12.5859 24.8888 12.9075 23.8167 13.5166C25.3263 9.61155 27.8246 6.16567 31.0667 3.51662C31.2696 3.37035 31.4404 3.1841 31.5687 2.96933C31.6969 2.75456 31.7799 2.51582 31.8124 2.2678C31.8449 2.01977 31.8264 1.76771 31.7578 1.52714C31.6893 1.28656 31.5723 1.06255 31.4139 0.868897C31.2556 0.675243 31.0593 0.51604 30.8371 0.401088C30.615 0.286135 30.3716 0.217866 30.1221 0.200479C29.8725 0.183092 29.6221 0.216956 29.3861 0.299987C29.1501 0.383018 28.9337 0.51346 28.75 0.683285C22.0833 6.09995 19.1167 13.6 19.1167 18.25C19.1246 19.8755 19.6002 21.4644 20.4869 22.8268C21.3735 24.1893 22.6336 25.2677 24.1167 25.9333C25.1187 26.4206 26.2191 26.6714 27.3333 26.6666C28.2891 26.7131 29.2443 26.5649 30.1412 26.2312C31.038 25.8974 31.8576 25.385 32.5505 24.725C33.2434 24.065 33.795 23.2712 34.1719 22.3917C34.5487 21.5121 34.7431 20.5652 34.7431 19.6083C34.7431 18.6514 34.5487 17.7045 34.1719 16.8249C33.795 15.9454 33.2434 15.1515 32.5505 14.4915C31.8576 13.8315 31.038 13.3191 30.1412 12.9854C29.2443 12.6516 28.2891 12.5035 27.3333 12.55V12.5833Z" fill="#EBEBEB"/>
</svg>
