<svg width="20" height="21" viewBox="0 0 20 21" fill="none" xmlns="http://www.w3.org/2000/svg">
<path fill-rule="evenodd" clip-rule="evenodd" d="M0.487487 1.49075C0.799719 1.1783 1.22314 1.00277 1.66464 1.00277C2.10613 1.00277 2.52955 1.1783 2.84178 1.49075L9.98959 8.64575L17.1374 1.49075C17.291 1.33156 17.4747 1.20459 17.6778 1.11725C17.881 1.0299 18.0995 0.98392 18.3205 0.981997C18.5416 0.980073 18.7609 1.02224 18.9655 1.10604C19.1701 1.18985 19.356 1.3136 19.5123 1.47009C19.6687 1.62658 19.7923 1.81266 19.876 2.01749C19.9597 2.22232 20.0019 2.44178 19.9999 2.66308C19.998 2.88438 19.9521 3.10308 19.8648 3.30642C19.7776 3.50976 19.6507 3.69367 19.4917 3.84741L12.3439 11.0024L19.4917 18.1574C19.795 18.4718 19.9628 18.8928 19.959 19.3297C19.9552 19.7667 19.7801 20.1848 19.4714 20.4938C19.1627 20.8028 18.7451 20.9781 18.3086 20.9819C17.872 20.9857 17.4514 20.8177 17.1374 20.5141L9.98959 13.3591L2.84178 20.5141C2.52776 20.8177 2.10718 20.9857 1.67063 20.9819C1.23407 20.9781 0.816472 20.8028 0.507769 20.4938C0.199066 20.1848 0.0239602 19.7667 0.0201666 19.3297C0.0163731 18.8928 0.184196 18.4718 0.487487 18.1574L7.63529 11.0024L0.487487 3.84741C0.175349 3.53487 0 3.11102 0 2.66908C0 2.22714 0.175349 1.80329 0.487487 1.49075Z" fill="#0C3E70"/>
</svg>
