<svg width="25" height="23" viewBox="0 0 25 23" fill="none" xmlns="http://www.w3.org/2000/svg">
<path d="M22.7566 0H1.33862C0.983599 0 0.643115 0.142542 0.392074 0.396268C0.141033 0.649993 0 0.994119 0 1.35294V5.41176C0 5.77059 0.141033 6.11471 0.392074 6.36844C0.643115 6.62216 0.983599 6.76471 1.33862 6.76471C1.69365 6.76471 2.03413 6.62216 2.28517 6.36844C2.53622 6.11471 2.67725 5.77059 2.67725 5.41176V2.70588H10.709V20.2941H8.03175C7.67672 20.2941 7.33624 20.4367 7.0852 20.6904C6.83416 20.9441 6.69312 21.2882 6.69312 21.6471C6.69312 22.0059 6.83416 22.35 7.0852 22.6037C7.33624 22.8575 7.67672 23 8.03175 23H16.0635C16.4185 23 16.759 22.8575 17.01 22.6037C17.2611 22.35 17.4021 22.0059 17.4021 21.6471C17.4021 21.2882 17.2611 20.9441 17.01 20.6904C16.759 20.4367 16.4185 20.2941 16.0635 20.2941H13.3862V2.70588H21.418V5.41176C21.418 5.77059 21.559 6.11471 21.8101 6.36844C22.0611 6.62216 22.4016 6.76471 22.7566 6.76471C23.1116 6.76471 23.4521 6.62216 23.7032 6.36844C23.9542 6.11471 24.0952 5.77059 24.0952 5.41176V1.35294C24.0952 0.994119 23.9542 0.649993 23.7032 0.396268C23.4521 0.142542 23.1116 0 22.7566 0Z" fill="#0C3E70"/>
</svg>
