<svg width="1440" height="609" viewBox="0 0 1440 609" fill="none" xmlns="http://www.w3.org/2000/svg">
<g clip-path="url(#clip0)">
<rect width="1440" height="699" fill="#F5F5F5"/>
<g opacity="0.7">
<path d="M14.8652 51.5198H13.0692V53.43H14.8652V51.5198Z" fill="#E4E4E4"/>
<path d="M25.6714 27H22.3624H11.6376H8.32864C4.87813 27 2.07098 29.8071 2.07098 33.2577V50.7423C2.07098 54.1929 4.87813 57 8.32864 57H12.7849H21.453H25.6713C29.1217 57 31.9289 54.1929 31.9289 50.7423V33.2577C31.929 29.8071 29.1218 27 25.6714 27ZM22.3624 29.2923C23.4592 29.2923 24.3514 30.0214 24.3514 30.9175V40.3205C24.3514 41.2167 23.4591 41.9458 22.3624 41.9458H11.6376C10.5409 41.9458 9.64862 41.2167 9.64862 40.3205V30.9175C9.64862 30.0214 10.5409 29.2923 11.6376 29.2923H22.3624ZM12.7849 54.7077C12.3067 54.7077 11.9175 54.3186 11.9175 53.8404V51.543C11.9175 51.0648 12.3067 50.6757 12.7849 50.6757H21.4531C21.9313 50.6757 22.3204 51.0648 22.3204 51.543V53.8404C22.3204 54.3186 21.9313 54.7077 21.4531 54.7077H12.7849ZM29.6367 50.7423C29.6367 52.9289 27.8579 54.7077 25.6714 54.7077H24.4907C24.5695 54.4319 24.6127 54.1412 24.6127 53.8404V51.543C24.6127 49.8008 23.1953 48.3834 21.4531 48.3834H12.7849C11.0426 48.3834 9.62524 49.8008 9.62524 51.543V53.8404C9.62524 54.1412 9.66841 54.4319 9.74726 54.7077H8.32864C6.1421 54.7077 4.36328 52.9289 4.36328 50.7423V33.2577C4.36328 31.2779 5.82171 29.6325 7.72057 29.339C7.48706 29.8222 7.35632 30.356 7.35632 30.9175V40.3205C7.35632 42.4807 9.27696 44.2381 11.6376 44.2381H22.3624C24.7232 44.2381 26.6437 42.4807 26.6437 40.3205V30.9175C26.6437 30.3561 26.5129 29.8223 26.2794 29.339C28.1783 29.6325 29.6367 31.2779 29.6367 33.2577V50.7423Z" fill="#E4E4E4"/>
</g>
<g opacity="0.7" clip-path="url(#clip1)">
<path d="M333.964 44.625H322.714C322.093 44.625 321.589 45.1286 321.589 45.75C321.589 46.3714 322.093 46.875 322.714 46.875H333.964C334.586 46.875 335.089 46.3714 335.089 45.75C335.089 45.1286 334.586 44.625 333.964 44.625Z" fill="#E4E4E4"/>
<path d="M333.964 50.25H322.714C322.093 50.25 321.589 50.7536 321.589 51.375C321.589 51.9964 322.093 52.5 322.714 52.5H333.964C334.586 52.5 335.089 51.9964 335.089 51.375C335.089 50.7536 334.586 50.25 333.964 50.25Z" fill="#E4E4E4"/>
<path d="M342.589 37.125H314.839C314.218 37.125 313.714 37.6286 313.714 38.25V58.5C313.714 59.1214 314.218 59.625 314.839 59.625H325.72L332.547 64.6556C332.744 64.8011 332.978 64.875 333.214 64.875C333.388 64.875 333.562 64.8353 333.722 64.7542C334.1 64.5626 334.339 64.1745 334.339 63.75V59.625H342.589C343.211 59.625 343.714 59.1214 343.714 58.5V38.25C343.714 37.6286 343.211 37.125 342.589 37.125ZM341.464 57.375H333.214C332.593 57.375 332.089 57.8786 332.089 58.5V61.5236L326.757 57.5944C326.563 57.4519 326.33 57.375 326.089 57.375H315.964V39.375H341.464V57.375Z" fill="#E4E4E4"/>
</g>
<g opacity="0.7">
<path d="M530.266 56.3012C530.266 55.803 529.92 55.5059 529.31 55.5059C529.061 55.5059 528.892 55.5304 528.804 55.554V57.1525C528.908 57.176 529.037 57.1838 529.214 57.1838C529.864 57.1838 530.266 56.8553 530.266 56.3012Z" fill="#E4E4E4"/>
<path d="M534.042 55.5225C533.768 55.5225 533.592 55.546 533.488 55.5705V59.1107C533.592 59.1352 533.761 59.1352 533.913 59.1352C535.021 59.1431 535.744 58.5331 535.744 57.2406C535.752 56.1167 535.093 55.5225 534.042 55.5225Z" fill="#E4E4E4"/>
<path d="M541.057 37H529.008C527.248 37 525.815 38.4337 525.815 40.193V51.9999H525.503C524.793 51.9999 524.217 52.5756 524.217 53.2866V61.0896C524.217 61.8006 524.793 62.3762 525.503 62.3762H525.815V63.807C525.815 65.5682 527.248 66.9999 529.008 66.9999H545.449C547.208 66.9999 548.641 65.5681 548.641 63.807V44.5569L541.057 37ZM527.592 54.6948C527.969 54.6311 528.499 54.583 529.246 54.583C530 54.583 530.538 54.7271 530.9 55.0164C531.245 55.2891 531.478 55.7391 531.478 56.2688C531.478 56.7983 531.301 57.2485 530.98 57.5534C530.562 57.9467 529.944 58.1232 529.222 58.1232C529.061 58.1232 528.917 58.1152 528.804 58.0996V60.0345H527.592V54.6948ZM545.449 65.0445H529.008C528.326 65.0445 527.771 64.4895 527.771 63.807V62.3762H543.097C543.808 62.3762 544.384 61.8006 544.384 61.0896V53.2866C544.384 52.5756 543.808 51.9999 543.097 51.9999H527.771V40.193C527.771 39.5124 528.326 38.9573 529.008 38.9573L540.326 38.9455V43.1289C540.326 44.3509 541.317 45.3432 542.54 45.3432L546.638 45.3315L546.684 63.8069C546.684 64.4895 546.13 65.0445 545.449 65.0445ZM532.259 60.01V54.6948C532.709 54.6232 533.295 54.583 533.913 54.583C534.941 54.583 535.607 54.7674 536.129 55.1606C536.691 55.5784 537.044 56.2443 537.044 57.2003C537.044 58.2359 536.667 58.9508 536.145 59.392C535.575 59.8657 534.708 60.0903 533.648 60.0903C533.014 60.0903 532.564 60.0501 532.259 60.01ZM541.022 56.8631V57.8584H539.079V60.0345H537.85V54.6232H541.158V55.6264H539.079V56.8631H541.022Z" fill="#E4E4E4"/>
</g>
<g opacity="0.7" clip-path="url(#clip2)">
<path d="M731.393 46.625H720.143C719.521 46.625 719.018 47.1286 719.018 47.75C719.018 48.3714 719.521 48.875 720.143 48.875H731.393C732.014 48.875 732.518 48.3714 732.518 47.75C732.518 47.1286 732.014 46.625 731.393 46.625Z" fill="#E4E4E4"/>
<path d="M731.393 52.25H720.143C719.521 52.25 719.018 52.7536 719.018 53.375C719.018 53.9964 719.521 54.5 720.143 54.5H731.393C732.014 54.5 732.518 53.9964 732.518 53.375C732.518 52.7536 732.014 52.25 731.393 52.25Z" fill="#E4E4E4"/>
<path d="M740.018 39.125H712.268C711.646 39.125 711.143 39.6286 711.143 40.25V60.5C711.143 61.1214 711.646 61.625 712.268 61.625H723.148L729.976 66.6556C730.173 66.8011 730.407 66.875 730.643 66.875C730.816 66.875 730.99 66.8353 731.15 66.7542C731.529 66.5626 731.768 66.1745 731.768 65.75V61.625H740.018C740.639 61.625 741.143 61.1214 741.143 60.5V40.25C741.143 39.6286 740.639 39.125 740.018 39.125ZM738.893 59.375H730.643C730.021 59.375 729.518 59.8786 729.518 60.5V63.5236L724.185 59.5944C723.992 59.4519 723.758 59.375 723.518 59.375H713.393V41.375H738.893V59.375Z" fill="#E4E4E4"/>
</g>
<g opacity="0.7">
<path d="M999.694 83.3012C999.694 82.803 999.348 82.5059 998.739 82.5059C998.489 82.5059 998.321 82.5304 998.233 82.554V84.1525C998.337 84.176 998.465 84.1838 998.642 84.1838C999.293 84.1838 999.694 83.8553 999.694 83.3012Z" fill="#E4E4E4"/>
<path d="M1003.47 82.5225C1003.2 82.5225 1003.02 82.546 1002.92 82.5705V86.1107C1003.02 86.1352 1003.19 86.1352 1003.34 86.1352C1004.45 86.1431 1005.17 85.5331 1005.17 84.2406C1005.18 83.1167 1004.52 82.5225 1003.47 82.5225Z" fill="#E4E4E4"/>
<path d="M1010.49 64H998.436C996.676 64 995.244 65.4337 995.244 67.193V78.9999H994.932C994.221 78.9999 993.645 79.5756 993.645 80.2866V88.0896C993.645 88.8006 994.221 89.3762 994.932 89.3762H995.244V90.807C995.244 92.5682 996.676 93.9999 998.436 93.9999H1014.88C1016.64 93.9999 1018.07 92.5681 1018.07 90.807V71.5569L1010.49 64ZM997.02 81.6948C997.397 81.6311 997.927 81.583 998.674 81.583C999.429 81.583 999.967 81.7271 1000.33 82.0164C1000.67 82.2891 1000.91 82.7391 1000.91 83.2688C1000.91 83.7983 1000.73 84.2485 1000.41 84.5534C999.991 84.9467 999.373 85.1232 998.65 85.1232C998.489 85.1232 998.345 85.1152 998.233 85.0996V87.0345H997.02V81.6948ZM1014.88 92.0445H998.436C997.755 92.0445 997.2 91.4895 997.2 90.807V89.3762H1012.53C1013.24 89.3762 1013.81 88.8006 1013.81 88.0896V80.2866C1013.81 79.5756 1013.24 78.9999 1012.53 78.9999H997.2V67.193C997.2 66.5124 997.755 65.9573 998.436 65.9573L1009.75 65.9455V70.1289C1009.75 71.3509 1010.75 72.3432 1011.97 72.3432L1016.07 72.3315L1016.11 90.8069C1016.11 91.4895 1015.56 92.0445 1014.88 92.0445ZM1001.69 87.01V81.6948C1002.14 81.6232 1002.72 81.583 1003.34 81.583C1004.37 81.583 1005.04 81.7674 1005.56 82.1606C1006.12 82.5784 1006.47 83.2443 1006.47 84.2003C1006.47 85.2359 1006.1 85.9508 1005.57 86.392C1005 86.8657 1004.14 87.0903 1003.08 87.0903C1002.44 87.0903 1001.99 87.0501 1001.69 87.01ZM1010.45 83.8631V84.8584H1008.51V87.0345H1007.28V81.6232H1010.59V82.6264H1008.51V83.8631H1010.45Z" fill="#E4E4E4"/>
</g>
<g opacity="0.7">
<path d="M1111.41 77.3012C1111.41 76.803 1111.06 76.5059 1110.45 76.5059C1110.2 76.5059 1110.04 76.5304 1109.95 76.554V78.1525C1110.05 78.176 1110.18 78.1838 1110.36 78.1838C1111.01 78.1838 1111.41 77.8553 1111.41 77.3012Z" fill="#E4E4E4"/>
<path d="M1115.18 76.5225C1114.91 76.5225 1114.73 76.546 1114.63 76.5705V80.1107C1114.73 80.1352 1114.9 80.1352 1115.06 80.1352C1116.16 80.1431 1116.89 79.5331 1116.89 78.2406C1116.89 77.1167 1116.24 76.5225 1115.18 76.5225Z" fill="#E4E4E4"/>
<path d="M1122.2 58H1110.15C1108.39 58 1106.96 59.4337 1106.96 61.193V72.9999H1106.65C1105.94 72.9999 1105.36 73.5756 1105.36 74.2866V82.0896C1105.36 82.8006 1105.94 83.3762 1106.65 83.3762H1106.96V84.807C1106.96 86.5682 1108.39 87.9999 1110.15 87.9999H1126.59C1128.35 87.9999 1129.78 86.5681 1129.78 84.807V65.5569L1122.2 58ZM1108.73 75.6948C1109.11 75.6311 1109.64 75.583 1110.39 75.583C1111.14 75.583 1111.68 75.7271 1112.04 76.0164C1112.39 76.2891 1112.62 76.7391 1112.62 77.2688C1112.62 77.7983 1112.44 78.2485 1112.12 78.5534C1111.71 78.9467 1111.09 79.1232 1110.36 79.1232C1110.2 79.1232 1110.06 79.1152 1109.95 79.0996V81.0345H1108.73V75.6948ZM1126.59 86.0445H1110.15C1109.47 86.0445 1108.91 85.4895 1108.91 84.807V83.3762H1124.24C1124.95 83.3762 1125.53 82.8006 1125.53 82.0896V74.2866C1125.53 73.5756 1124.95 72.9999 1124.24 72.9999H1108.91V61.193C1108.91 60.5124 1109.47 59.9573 1110.15 59.9573L1121.47 59.9455V64.1289C1121.47 65.3509 1122.46 66.3432 1123.68 66.3432L1127.78 66.3315L1127.83 84.8069C1127.83 85.4895 1127.27 86.0445 1126.59 86.0445ZM1113.4 81.01V75.6948C1113.85 75.6232 1114.44 75.583 1115.06 75.583C1116.08 75.583 1116.75 75.7674 1117.27 76.1606C1117.83 76.5784 1118.19 77.2443 1118.19 78.2003C1118.19 79.2359 1117.81 79.9508 1117.29 80.392C1116.72 80.8657 1115.85 81.0903 1114.79 81.0903C1114.16 81.0903 1113.71 81.0501 1113.4 81.01ZM1122.16 77.8631V78.8584H1120.22V81.0345H1118.99V75.6232H1122.3V76.6264H1120.22V77.8631H1122.16Z" fill="#E4E4E4"/>
</g>
<g opacity="0.7" clip-path="url(#clip3)">
<path d="M1378.29 29.9688V44.0312H1408.29V29.9688H1378.29ZM1405.94 41.6875H1380.63V32.3125H1382.86V35.125H1385.2V32.3125H1387.54V37.4688H1389.89V32.3125H1392.11V35.125H1394.46V32.3125H1396.68V37.4688H1399.03V32.3125H1401.37V35.125H1403.72V32.3125H1405.94V41.6875Z" fill="#E4E4E4"/>
</g>
<g opacity="0.7" clip-path="url(#clip4)">
<path d="M96.627 106.527H71.3145V108.871H96.627V106.527Z" fill="#E4E4E4"/>
<path d="M88.5103 94.5402H88.5102C87.9339 94.4519 87.5156 93.9648 87.5156 93.3818V90.1303C89.1206 89.0112 90.1137 87.1808 90.1512 85.1995C90.215 81.8226 87.522 79.0105 84.1479 78.9309C82.477 78.8923 80.8966 79.5126 79.7015 80.6799C78.506 81.8475 77.8477 83.4107 77.8477 85.0815C77.8477 87.1124 78.8422 88.988 80.4844 90.1307V93.3818C80.4844 93.9648 80.0661 94.4519 79.4897 94.5402L69 96.1457V104.183H99V96.1457L88.5103 94.5402ZM96.6562 101.839H71.3438V98.158L79.8444 96.8569C80.6745 96.7299 81.4328 96.309 81.9799 95.6719C82.5268 95.0348 82.8281 94.2215 82.8281 93.3818V88.7739L82.2086 88.4428C80.9643 87.7779 80.1914 86.4899 80.1914 85.0815C80.1914 84.0472 80.599 83.0795 81.3391 82.3566C82.0789 81.6341 83.0587 81.2489 84.0926 81.274C86.1807 81.3232 87.8474 83.0643 87.8079 85.1552C87.7819 86.5323 87.0092 87.792 85.7914 88.4428L85.1719 88.7739V93.3817C85.1719 94.2214 85.4732 95.0347 86.0201 95.6719C86.5672 96.309 87.3255 96.7299 88.1556 96.8569L96.6562 98.158V101.839Z" fill="#E4E4E4"/>
</g>
<g opacity="0.7">
<path d="M397.719 250.011L397.683 249.978C396.993 249.347 396.098 249 395.163 249C394.115 249 393.109 249.444 392.402 250.217L379.044 264.842C378.922 264.975 378.83 265.132 378.773 265.304L377.202 270.013C377.02 270.557 377.111 271.159 377.446 271.623C377.782 272.091 378.325 272.37 378.898 272.37H378.898C379.145 272.37 379.387 272.319 379.617 272.218L384.165 270.229C384.33 270.157 384.478 270.05 384.6 269.917L397.959 255.292C399.349 253.771 399.241 251.402 397.719 250.011ZM380.211 269.143L381.133 266.379L381.211 266.294L382.958 267.89L382.88 267.975L380.211 269.143ZM396.054 253.553L384.698 265.985L382.951 264.39L394.307 251.957C394.529 251.714 394.833 251.58 395.163 251.58C395.452 251.58 395.729 251.687 395.944 251.883L395.98 251.916C396.451 252.347 396.485 253.081 396.054 253.553Z" fill="#E4E4E4"/>
<path d="M395.128 260.9C394.415 260.9 393.838 261.477 393.838 262.19V273.14C393.838 274.949 392.366 276.42 390.558 276.42H374.925C373.116 276.42 371.645 274.949 371.645 273.14V257.634C371.645 255.826 373.116 254.354 374.925 254.354H386.24C386.952 254.354 387.53 253.777 387.53 253.064C387.53 252.352 386.952 251.774 386.24 251.774H374.925C371.694 251.774 369.065 254.403 369.065 257.634V273.14C369.065 276.371 371.694 279 374.925 279H390.558C393.789 279 396.417 276.371 396.417 273.14V262.19C396.418 261.477 395.84 260.9 395.128 260.9Z" fill="#E4E4E4"/>
</g>
<g opacity="0.7" clip-path="url(#clip5)">
<path d="M513.804 127.689V130.033H518.315V140.111H520.659V130.033H525.054V127.689H513.804Z" fill="#E4E4E4"/>
<path d="M509.116 118.9H504.429V123.587H509.116V118.9Z" fill="#E4E4E4"/>
<path d="M534.429 118.9H529.741V123.587H534.429V118.9Z" fill="#E4E4E4"/>
<path d="M522.944 121.244H520.6V123.587H522.944V121.244Z" fill="#E4E4E4"/>
<path d="M527.514 121.244H525.171V123.587H527.514V121.244Z" fill="#E4E4E4"/>
<path d="M518.374 121.244H516.03V123.587H518.374V121.244Z" fill="#E4E4E4"/>
<path d="M513.804 121.244H511.46V123.587H513.804V121.244Z" fill="#E4E4E4"/>
<path d="M534.429 144.212H529.741V148.9H534.429V144.212Z" fill="#E4E4E4"/>
<path d="M532.085 135.072H529.741V137.416H532.085V135.072Z" fill="#E4E4E4"/>
<path d="M532.085 139.642H529.741V141.986H532.085V139.642Z" fill="#E4E4E4"/>
<path d="M532.085 130.501H529.741V132.845H532.085V130.501Z" fill="#E4E4E4"/>
<path d="M532.085 125.931H529.741V128.275H532.085V125.931Z" fill="#E4E4E4"/>
<path d="M509.116 144.212H504.429V148.9H509.116V144.212Z" fill="#E4E4E4"/>
<path d="M509.116 135.072H506.772V137.416H509.116V135.072Z" fill="#E4E4E4"/>
<path d="M509.116 139.642H506.772V141.986H509.116V139.642Z" fill="#E4E4E4"/>
<path d="M509.116 130.501H506.772V132.845H509.116V130.501Z" fill="#E4E4E4"/>
<path d="M509.116 125.931H506.772V128.275H509.116V125.931Z" fill="#E4E4E4"/>
<path d="M522.944 144.212H520.6V146.556H522.944V144.212Z" fill="#E4E4E4"/>
<path d="M527.514 144.212H525.171V146.556H527.514V144.212Z" fill="#E4E4E4"/>
<path d="M518.374 144.212H516.03V146.556H518.374V144.212Z" fill="#E4E4E4"/>
<path d="M513.804 144.212H511.46V146.556H513.804V144.212Z" fill="#E4E4E4"/>
</g>
<g opacity="0.7">
<path d="M832.186 104.392H805.814C804.814 104.392 804 105.206 804 106.206V125.795C804 126.795 804.814 127.608 805.814 127.608H832.186C833.186 127.608 834 126.795 834 125.795V106.206C834 105.206 833.186 104.392 832.186 104.392ZM831.823 125.432H806.177V106.568H831.823V125.432H831.823Z" fill="#E4E4E4"/>
<path d="M811.872 108.781C809.532 108.781 807.628 110.685 807.628 113.025C807.628 115.366 809.531 117.27 811.872 117.27C814.212 117.27 816.116 115.366 816.116 113.025C816.116 110.685 814.212 108.781 811.872 108.781ZM811.872 115.093C810.732 115.093 809.804 114.166 809.804 113.025C809.804 111.885 810.732 110.958 811.872 110.958C813.012 110.958 813.94 111.885 813.94 113.025C813.94 114.166 813.012 115.093 811.872 115.093Z" fill="#E4E4E4"/>
<path d="M818.108 116.637C817.684 116.372 817.135 116.43 816.775 116.777L807.489 125.737L809 127.303L817.675 118.933L821.597 121.385L822.751 119.539L818.108 116.637Z" fill="#E4E4E4"/>
<path d="M826.788 115.667C826.35 115.269 825.675 115.293 825.268 115.721L815.619 125.842L817.194 127.344L826.11 117.992L832.143 123.48L833.608 121.87L826.788 115.667Z" fill="#E4E4E4"/>
</g>
<g opacity="0.7">
<path d="M909.312 24.3945V22.9297C909.312 21.3143 907.998 20 906.383 20H886.93C885.314 20 884 21.3143 884 22.9297V28.2031C884 29.8186 885.314 31.1328 886.93 31.1328H906.383C907.998 31.1328 909.312 29.8186 909.312 28.2031V26.7383H911.656V32.5228L895.454 39.3464L895.447 39.3492C894.153 39.904 893.316 41.1724 893.316 42.5806V50H899.996V39.9765L914 34.0788V24.3945H909.312ZM906.969 28.2031C906.969 28.5262 906.706 28.7891 906.383 28.7891H886.93C886.607 28.7891 886.344 28.5262 886.344 28.2031V22.9297C886.344 22.6066 886.607 22.3438 886.93 22.3438H906.383C906.706 22.3438 906.969 22.6066 906.969 22.9297V28.2031ZM897.652 47.6562H895.66V42.5806C895.66 42.1121 895.938 41.6899 896.368 41.5045L897.652 40.9637V47.6562Z" fill="#E4E4E4"/>
</g>
<g opacity="0.7" clip-path="url(#clip6)">
<path d="M1181.57 131.556V126.869H1176.88V129.212H1172.2V123.587H1174.54V118.9H1169.85V121.244H1156.26V118.9H1151.57V123.587H1153.92V136.244H1151.57V140.931H1156.26V138.587H1160.95V144.212H1158.6V148.9H1163.29V146.556H1176.88V148.9H1181.57V144.212H1179.17V131.556H1181.57ZM1158.66 126.869V131.556H1160.95V136.244H1156.26V123.587H1169.85V129.212H1163.35V126.869H1158.66ZM1176.83 144.212H1163.29V131.556H1163.35H1176.83V144.212Z" fill="#E4E4E4"/>
</g>
<g opacity="0.7">
<path d="M1242.84 84.3012C1242.84 83.803 1242.5 83.5059 1241.89 83.5059C1241.64 83.5059 1241.47 83.5304 1241.38 83.554V85.1525C1241.48 85.176 1241.61 85.1838 1241.79 85.1838C1242.44 85.1838 1242.84 84.8553 1242.84 84.3012Z" fill="#E4E4E4"/>
<path d="M1254.63 65H1242.58C1240.82 65 1239.39 66.4337 1239.39 68.193V79.9999H1239.07C1238.36 79.9999 1237.79 80.5756 1237.79 81.2866V89.0896C1237.79 89.8006 1238.36 90.3762 1239.07 90.3762H1239.39V91.807C1239.39 93.5682 1240.82 94.9999 1242.58 94.9999H1259.02C1260.78 94.9999 1262.21 93.5681 1262.21 91.807V72.5569L1254.63 65ZM1240.17 82.6948C1240.54 82.6311 1241.07 82.583 1241.82 82.583C1242.58 82.583 1243.11 82.7271 1243.48 83.0164C1243.82 83.2891 1244.05 83.7391 1244.05 84.2688C1244.05 84.7983 1243.88 85.2485 1243.56 85.5534C1243.14 85.9467 1242.52 86.1232 1241.8 86.1232C1241.64 86.1232 1241.49 86.1152 1241.38 86.0996V88.0345H1240.17V82.6948ZM1259.02 93.0445H1242.58C1241.9 93.0445 1241.34 92.4895 1241.34 91.807V90.3762H1256.67C1257.38 90.3762 1257.95 89.8006 1257.95 89.0896V81.2866C1257.95 80.5756 1257.38 79.9999 1256.67 79.9999H1241.34V68.193C1241.34 67.5124 1241.9 66.9573 1242.58 66.9573L1253.9 66.9455V71.1289C1253.9 72.3509 1254.89 73.3432 1256.11 73.3432L1260.21 73.3315L1260.26 91.8069C1260.26 92.4895 1259.7 93.0445 1259.02 93.0445ZM1248.19 84.2049V82.6232H1249.32V88.0344H1248.03L1246.87 85.9466C1246.55 85.369 1246.2 84.6697 1245.94 84.0363L1245.91 84.0441C1245.94 84.7581 1245.96 85.5209 1245.96 86.4046V88.0344H1244.83V82.6232H1246.26L1247.39 84.606C1247.71 85.1758 1248.03 85.8505 1248.27 86.4604H1248.3C1248.22 85.7466 1248.19 85.015 1248.19 84.2049ZM1253.12 87.1028C1253.4 87.1028 1253.62 87.0704 1253.72 87.0224V85.8907H1252.88V84.9355H1254.9V87.7853C1254.52 87.9138 1253.81 88.0902 1253.09 88.0902C1252.1 88.0902 1251.39 87.8412 1250.89 87.3597C1250.39 86.8939 1250.12 86.1878 1250.13 85.3925C1250.14 83.594 1251.45 82.5663 1253.22 82.5663C1253.92 82.5663 1254.46 82.7026 1254.72 82.8321L1254.46 83.8107C1254.17 83.6823 1253.8 83.5784 1253.2 83.5784C1252.18 83.5784 1251.41 84.156 1251.41 85.3288C1251.41 86.4448 1252.11 87.1028 1253.12 87.1028Z" fill="#E4E4E4"/>
</g>
<g opacity="0.7">
<path d="M200 195.769V209.831H230V195.769H200ZM227.656 207.488H202.344V198.113H204.57V200.925H206.914V198.113H209.258V203.269H211.602V198.113H213.828V200.925H216.172V198.113H218.398V203.269H220.742V198.113H223.086V200.925H225.43V198.113H227.656V207.488Z" fill="#E4E4E4"/>
</g>
<g opacity="0.7">
<path d="M476.837 480.301C476.837 479.803 476.491 479.506 475.881 479.506C475.632 479.506 475.464 479.53 475.375 479.554V481.152C475.48 481.176 475.608 481.184 475.785 481.184C476.435 481.184 476.837 480.855 476.837 480.301Z" fill="#E4E4E4"/>
<path d="M480.613 479.522C480.34 479.522 480.163 479.546 480.059 479.57V483.111C480.163 483.135 480.332 483.135 480.485 483.135C481.593 483.143 482.315 482.533 482.315 481.241C482.323 480.117 481.665 479.522 480.613 479.522Z" fill="#E4E4E4"/>
<path d="M487.629 461H475.579C473.819 461 472.386 462.434 472.386 464.193V476H472.075C471.364 476 470.788 476.576 470.788 477.287V485.09C470.788 485.801 471.364 486.376 472.075 486.376H472.386V487.807C472.386 489.568 473.819 491 475.579 491H492.02C493.779 491 495.212 489.568 495.212 487.807V468.557L487.629 461ZM474.163 478.695C474.54 478.631 475.07 478.583 475.817 478.583C476.572 478.583 477.11 478.727 477.471 479.016C477.816 479.289 478.049 479.739 478.049 480.269C478.049 480.798 477.873 481.248 477.551 481.553C477.134 481.947 476.516 482.123 475.793 482.123C475.632 482.123 475.488 482.115 475.375 482.1V484.034H474.163V478.695ZM492.02 489.045H475.579C474.898 489.045 474.343 488.49 474.343 487.807V486.376H489.669C490.379 486.376 490.956 485.801 490.956 485.09V477.287C490.956 476.576 490.379 476 489.669 476H474.343V464.193C474.343 463.512 474.898 462.957 475.579 462.957L486.897 462.946V467.129C486.897 468.351 487.888 469.343 489.111 469.343L493.209 469.331L493.256 487.807C493.256 488.49 492.702 489.045 492.02 489.045ZM478.831 484.01V478.695C479.28 478.623 479.866 478.583 480.485 478.583C481.512 478.583 482.179 478.767 482.701 479.161C483.263 479.578 483.616 480.244 483.616 481.2C483.616 482.236 483.239 482.951 482.716 483.392C482.147 483.866 481.279 484.09 480.22 484.09C479.585 484.09 479.136 484.05 478.831 484.01ZM487.593 480.863V481.858H485.65V484.034H484.422V478.623H487.73V479.626H485.65V480.863H487.593Z" fill="#E4E4E4"/>
</g>
<g opacity="0.7" clip-path="url(#clip7)">
<path d="M612.27 162.101C612.27 161.603 611.925 161.306 611.315 161.306C611.066 161.306 610.897 161.33 610.809 161.354V162.953C610.913 162.976 611.041 162.984 611.218 162.984C611.868 162.984 612.27 162.655 612.27 162.101Z" fill="#E4E4E4"/>
<path d="M624.057 142.8H612.008C610.248 142.8 608.815 144.234 608.815 145.993V157.8H608.503C607.792 157.8 607.217 158.376 607.217 159.087V166.89C607.217 167.601 607.792 168.176 608.503 168.176H608.815V169.607C608.815 171.368 610.248 172.8 612.008 172.8H628.448C630.208 172.8 631.641 171.368 631.641 169.607V150.357L624.057 142.8ZM609.597 160.495C609.973 160.431 610.503 160.383 611.25 160.383C612.005 160.383 612.542 160.527 612.904 160.816C613.249 161.089 613.482 161.539 613.482 162.069C613.482 162.598 613.305 163.049 612.985 163.353C612.567 163.747 611.948 163.923 611.226 163.923C611.066 163.923 610.92 163.915 610.809 163.9V165.835H609.597V160.495ZM628.448 170.845H612.008C611.326 170.845 610.771 170.29 610.771 169.607V168.176H626.097C626.808 168.176 627.384 167.601 627.384 166.89V159.087C627.384 158.376 626.808 157.8 626.097 157.8H610.771V145.993C610.771 145.312 611.326 144.757 612.008 144.757L623.326 144.746V148.929C623.326 150.151 624.317 151.143 625.54 151.143L629.638 151.132L629.684 169.607C629.684 170.29 629.13 170.845 628.448 170.845ZM617.62 162.005V160.423H618.744V165.834H617.459L616.303 163.747C615.982 163.169 615.629 162.47 615.364 161.836L615.34 161.844C615.372 162.558 615.388 163.321 615.388 164.205V165.834H614.263V160.423H615.693L616.817 162.406C617.139 162.976 617.459 163.651 617.701 164.26H617.724C617.644 163.547 617.62 162.815 617.62 162.005ZM622.544 164.903C622.825 164.903 623.05 164.87 623.146 164.822V163.691H622.312V162.736H624.327V165.585C623.949 165.714 623.234 165.89 622.521 165.89C621.533 165.89 620.818 165.641 620.32 165.16C619.823 164.694 619.549 163.988 619.558 163.193C619.566 161.394 620.874 160.366 622.649 160.366C623.347 160.366 623.886 160.503 624.15 160.632L623.894 161.611C623.596 161.482 623.227 161.378 622.632 161.378C621.614 161.378 620.843 161.956 620.843 163.129C620.843 164.245 621.541 164.903 622.544 164.903Z" fill="#E4E4E4"/>
</g>
<g opacity="0.7">
<path d="M728.841 317.301C728.841 316.803 728.496 316.506 727.886 316.506C727.637 316.506 727.468 316.53 727.38 316.554V318.152C727.484 318.176 727.612 318.184 727.789 318.184C728.439 318.184 728.841 317.855 728.841 317.301Z" fill="#E4E4E4"/>
<path d="M740.629 298H728.579C726.819 298 725.386 299.434 725.386 301.193V313H725.074C724.364 313 723.788 313.576 723.788 314.287V322.09C723.788 322.801 724.364 323.376 725.074 323.376H725.386V324.807C725.386 326.568 726.819 328 728.579 328H745.02C746.779 328 748.212 326.568 748.212 324.807V305.557L740.629 298ZM726.168 315.695C726.545 315.631 727.074 315.583 727.821 315.583C728.576 315.583 729.114 315.727 729.476 316.016C729.821 316.289 730.053 316.739 730.053 317.269C730.053 317.798 729.877 318.248 729.556 318.553C729.138 318.947 728.52 319.123 727.798 319.123C727.637 319.123 727.492 319.115 727.38 319.1V321.034H726.168V315.695ZM745.02 326.045H728.579C727.898 326.045 727.343 325.49 727.343 324.807V323.376H742.668C743.379 323.376 743.955 322.801 743.955 322.09V314.287C743.955 313.576 743.379 313 742.668 313H727.343V301.193C727.343 300.512 727.898 299.957 728.579 299.957L739.897 299.946V304.129C739.897 305.351 740.889 306.343 742.111 306.343L746.209 306.331L746.256 324.807C746.256 325.49 745.702 326.045 745.02 326.045ZM734.192 317.205V315.623H735.315V321.034H734.031L732.875 318.947C732.553 318.369 732.2 317.67 731.935 317.036L731.912 317.044C731.943 317.758 731.96 318.521 731.96 319.405V321.034H730.835V315.623H732.265L733.388 317.606C733.71 318.176 734.031 318.85 734.272 319.46H734.296C734.215 318.747 734.192 318.015 734.192 317.205ZM739.116 320.103C739.397 320.103 739.622 320.07 739.718 320.022V318.891H738.883V317.935H740.898V320.785C740.521 320.914 739.806 321.09 739.092 321.09C738.104 321.09 737.39 320.841 736.891 320.36C736.394 319.894 736.121 319.188 736.129 318.393C736.137 316.594 737.446 315.566 739.22 315.566C739.919 315.566 740.457 315.703 740.722 315.832L740.465 316.811C740.168 316.682 739.798 316.578 739.204 316.578C738.185 316.578 737.414 317.156 737.414 318.329C737.414 319.445 738.112 320.103 739.116 320.103Z" fill="#E4E4E4"/>
</g>
<g opacity="0.7" clip-path="url(#clip8)">
<path d="M996.826 154.541L990.104 147.828C988.734 146.46 986.505 146.46 985.135 147.829L968.888 164.088C968.223 164.753 967.857 165.636 967.857 166.576C967.857 167.517 968.224 168.4 968.89 169.064L975.613 175.774C976.298 176.456 977.197 176.798 978.096 176.798C978.996 176.798 979.896 176.456 980.581 175.771L996.826 159.516C997.491 158.852 997.857 157.968 997.857 157.028C997.857 156.088 997.491 155.205 996.826 154.541ZM978.924 174.114C978.468 174.569 977.725 174.57 977.269 174.114L970.545 167.405C970.323 167.184 970.201 166.889 970.201 166.576C970.201 166.262 970.323 165.968 970.545 165.746L971.43 164.861L979.809 173.228L978.924 174.114ZM981.466 171.571L973.086 163.203L978.26 158.024L986.64 166.393L981.466 171.571ZM995.169 157.858L988.297 164.735L979.917 156.367L986.792 149.486C987.02 149.258 987.32 149.144 987.62 149.144C987.919 149.144 988.219 149.259 988.448 149.486L995.17 156.199C995.391 156.421 995.513 156.715 995.513 157.028C995.513 157.342 995.391 157.636 995.169 157.858Z" fill="#E4E4E4"/>
</g>
<g opacity="0.7" clip-path="url(#clip9)">
<path d="M1132.76 203.192H1106.39C1105.39 203.192 1104.57 204.006 1104.57 205.006V224.595C1104.57 225.595 1105.39 226.408 1106.39 226.408H1132.76C1133.76 226.408 1134.57 225.595 1134.57 224.595V205.006C1134.57 204.006 1133.76 203.192 1132.76 203.192ZM1132.39 224.232H1106.75V205.368H1132.39V224.232H1132.39Z" fill="#E4E4E4"/>
<path d="M1112.44 207.581C1110.1 207.581 1108.2 209.485 1108.2 211.826C1108.2 214.166 1110.1 216.07 1112.44 216.07C1114.78 216.07 1116.69 214.166 1116.69 211.826C1116.69 209.485 1114.78 207.581 1112.44 207.581ZM1112.44 213.893C1111.3 213.893 1110.38 212.966 1110.38 211.826C1110.38 210.685 1111.3 209.758 1112.44 209.758C1113.58 209.758 1114.51 210.685 1114.51 211.826C1114.51 212.966 1113.58 213.893 1112.44 213.893Z" fill="#E4E4E4"/>
<path d="M1118.68 215.437C1118.26 215.172 1117.71 215.23 1117.35 215.577L1108.06 224.537L1109.57 226.103L1118.25 217.733L1122.17 220.185L1123.32 218.339L1118.68 215.437Z" fill="#E4E4E4"/>
<path d="M1127.36 214.467C1126.92 214.069 1126.25 214.093 1125.84 214.521L1116.19 224.642L1117.77 226.144L1126.68 216.792L1132.71 222.28L1134.18 220.67L1127.36 214.467Z" fill="#E4E4E4"/>
</g>
<g opacity="0.7">
<path d="M1320.38 150.789V153.133H1324.89V163.211H1327.23V153.133H1331.62V150.789H1320.38Z" fill="#E4E4E4"/>
<path d="M1315.69 142H1311V146.688H1315.69V142Z" fill="#E4E4E4"/>
<path d="M1341 142H1336.31V146.688H1341V142Z" fill="#E4E4E4"/>
<path d="M1329.52 144.344H1327.17V146.688H1329.52V144.344Z" fill="#E4E4E4"/>
<path d="M1334.09 144.344H1331.74V146.688H1334.09V144.344Z" fill="#E4E4E4"/>
<path d="M1324.95 144.344H1322.6V146.688H1324.95V144.344Z" fill="#E4E4E4"/>
<path d="M1320.38 144.344H1318.03V146.688H1320.38V144.344Z" fill="#E4E4E4"/>
<path d="M1341 167.312H1336.31V172H1341V167.312Z" fill="#E4E4E4"/>
<path d="M1338.66 158.172H1336.31V160.516H1338.66V158.172Z" fill="#E4E4E4"/>
<path d="M1338.66 162.742H1336.31V165.086H1338.66V162.742Z" fill="#E4E4E4"/>
<path d="M1338.66 153.602H1336.31V155.945H1338.66V153.602Z" fill="#E4E4E4"/>
<path d="M1338.66 149.031H1336.31V151.375H1338.66V149.031Z" fill="#E4E4E4"/>
<path d="M1315.69 167.312H1311V172H1315.69V167.312Z" fill="#E4E4E4"/>
<path d="M1315.69 158.172H1313.34V160.516H1315.69V158.172Z" fill="#E4E4E4"/>
<path d="M1315.69 162.742H1313.34V165.086H1315.69V162.742Z" fill="#E4E4E4"/>
<path d="M1315.69 153.602H1313.34V155.945H1315.69V153.602Z" fill="#E4E4E4"/>
<path d="M1315.69 149.031H1313.34V151.375H1315.69V149.031Z" fill="#E4E4E4"/>
<path d="M1329.52 167.312H1327.17V169.656H1329.52V167.312Z" fill="#E4E4E4"/>
<path d="M1334.09 167.312H1331.74V169.656H1334.09V167.312Z" fill="#E4E4E4"/>
<path d="M1324.95 167.312H1322.6V169.656H1324.95V167.312Z" fill="#E4E4E4"/>
<path d="M1320.38 167.312H1318.03V169.656H1320.38V167.312Z" fill="#E4E4E4"/>
</g>
<g opacity="0.7" clip-path="url(#clip10)">
<path d="M86.8412 240.001C86.8412 239.503 86.496 239.206 85.886 239.206C85.6369 239.206 85.4682 239.23 85.3799 239.254V240.852C85.484 240.876 85.6124 240.884 85.7889 240.884C86.4391 240.884 86.8412 240.555 86.8412 240.001Z" fill="#E4E4E4"/>
<path d="M98.6286 220.7H86.5794C84.8191 220.7 83.3864 222.134 83.3864 223.893V235.7H83.0745C82.3635 235.7 81.7879 236.276 81.7879 236.987V244.79C81.7879 245.501 82.3635 246.076 83.0745 246.076H83.3864V247.507C83.3864 249.268 84.8191 250.7 86.5794 250.7H103.02C104.779 250.7 106.212 249.268 106.212 247.507V228.257L98.6286 220.7ZM84.1679 238.395C84.5445 238.331 85.0741 238.283 85.8213 238.283C86.5764 238.283 87.1138 238.427 87.4757 238.716C87.8208 238.989 88.0533 239.439 88.0533 239.969C88.0533 240.498 87.8768 240.948 87.5561 241.253C87.1383 241.647 86.5195 241.823 85.7978 241.823C85.6369 241.823 85.4918 241.815 85.38 241.8V243.734H84.1679V238.395ZM103.02 248.744H86.5794C85.8978 248.744 85.3427 248.189 85.3427 247.507V246.076H100.668C101.379 246.076 101.955 245.501 101.955 244.79V236.987C101.955 236.276 101.379 235.7 100.668 235.7H85.3427V223.893C85.3427 223.212 85.8978 222.657 86.5794 222.657L97.8971 222.645V226.829C97.8971 228.051 98.8885 229.043 100.111 229.043L104.209 229.031L104.256 247.507C104.256 248.189 103.702 248.744 103.02 248.744ZM92.1915 239.905V238.323H93.3154V243.734H92.0309L90.8746 241.647C90.553 241.069 90.1999 240.37 89.9352 239.736L89.9116 239.744C89.943 240.458 89.9597 241.221 89.9597 242.105V243.734H88.8349V238.323H90.2647L91.3885 240.306C91.7102 240.876 92.0309 241.55 92.272 242.16H92.2956C92.2152 241.447 92.1915 240.715 92.1915 239.905ZM97.1155 242.803C97.3968 242.803 97.6215 242.77 97.7176 242.722V241.591H96.883V240.635H98.8984V243.485C98.5208 243.614 97.8059 243.79 97.0919 243.79C96.1045 243.79 95.3896 243.541 94.8914 243.06C94.3942 242.594 94.1205 241.888 94.1294 241.092C94.1372 239.294 95.4455 238.266 97.2205 238.266C97.9187 238.266 98.457 238.403 98.7218 238.532L98.4649 239.511C98.1678 239.382 97.7981 239.278 97.2038 239.278C96.1849 239.278 95.414 239.856 95.414 241.029C95.414 242.145 96.1122 242.803 97.1155 242.803Z" fill="#E4E4E4"/>
</g>
<g opacity="0.7">
<path d="M196.837 111.301C196.837 110.803 196.491 110.506 195.881 110.506C195.632 110.506 195.464 110.53 195.375 110.554V112.152C195.48 112.176 195.608 112.184 195.785 112.184C196.435 112.184 196.837 111.855 196.837 111.301Z" fill="#E4E4E4"/>
<path d="M200.613 110.522C200.34 110.522 200.163 110.546 200.059 110.57V114.111C200.163 114.135 200.332 114.135 200.485 114.135C201.593 114.143 202.315 113.533 202.315 112.241C202.323 111.117 201.665 110.522 200.613 110.522Z" fill="#E4E4E4"/>
<path d="M207.629 92H195.579C193.819 92 192.386 93.4337 192.386 95.193V107H192.075C191.364 107 190.788 107.576 190.788 108.287V116.09C190.788 116.801 191.364 117.376 192.075 117.376H192.386V118.807C192.386 120.568 193.819 122 195.579 122H212.02C213.779 122 215.212 120.568 215.212 118.807V99.5569L207.629 92ZM194.163 109.695C194.54 109.631 195.07 109.583 195.817 109.583C196.572 109.583 197.11 109.727 197.471 110.016C197.816 110.289 198.049 110.739 198.049 111.269C198.049 111.798 197.873 112.248 197.551 112.553C197.134 112.947 196.516 113.123 195.793 113.123C195.632 113.123 195.488 113.115 195.375 113.1V115.034H194.163V109.695ZM212.02 120.045H195.579C194.898 120.045 194.343 119.49 194.343 118.807V117.376H209.669C210.379 117.376 210.955 116.801 210.955 116.09V108.287C210.955 107.576 210.379 107 209.669 107H194.343V95.193C194.343 94.5124 194.898 93.9573 195.579 93.9573L206.897 93.9455V98.1289C206.897 99.3509 207.888 100.343 209.111 100.343L213.209 100.331L213.256 118.807C213.256 119.49 212.702 120.045 212.02 120.045ZM198.831 115.01V109.695C199.28 109.623 199.866 109.583 200.485 109.583C201.512 109.583 202.179 109.767 202.701 110.161C203.263 110.578 203.616 111.244 203.616 112.2C203.616 113.236 203.239 113.951 202.716 114.392C202.147 114.866 201.279 115.09 200.22 115.09C199.585 115.09 199.136 115.05 198.831 115.01ZM207.593 111.863V112.858H205.65V115.034H204.422V109.623H207.73V110.626H205.65V111.863H207.593Z" fill="#E4E4E4"/>
</g>
<g opacity="0.7" clip-path="url(#clip11)">
<path d="M496.294 279.22H494.498V281.13H496.294V279.22Z" fill="#E4E4E4"/>
<path d="M507.1 254.7H503.791H493.066H489.757C486.307 254.7 483.5 257.507 483.5 260.958V278.442C483.5 281.893 486.307 284.7 489.757 284.7H494.213H502.882H507.1C510.55 284.7 513.357 281.893 513.357 278.442V260.958C513.358 257.507 510.55 254.7 507.1 254.7ZM503.791 256.992C504.888 256.992 505.78 257.721 505.78 258.617V268.02C505.78 268.917 504.888 269.646 503.791 269.646H493.066C491.969 269.646 491.077 268.917 491.077 268.02V258.617C491.077 257.721 491.969 256.992 493.066 256.992H503.791ZM494.213 282.408C493.735 282.408 493.346 282.019 493.346 281.54V279.243C493.346 278.765 493.735 278.376 494.213 278.376H502.882C503.36 278.376 503.749 278.765 503.749 279.243V281.54C503.749 282.019 503.36 282.408 502.882 282.408H494.213ZM511.065 278.442C511.065 280.629 509.286 282.408 507.1 282.408H505.919C505.998 282.132 506.041 281.841 506.041 281.54V279.243C506.041 277.501 504.624 276.083 502.882 276.083H494.213C492.471 276.083 491.054 277.501 491.054 279.243V281.54C491.054 281.841 491.097 282.132 491.176 282.408H489.757C487.571 282.408 485.792 280.629 485.792 278.442V260.958C485.792 258.978 487.25 257.332 489.149 257.039C488.916 257.522 488.785 258.056 488.785 258.617V268.02C488.785 270.181 490.706 271.938 493.066 271.938H503.791C506.152 271.938 508.072 270.181 508.072 268.02V258.617C508.072 258.056 507.941 257.522 507.708 257.039C509.607 257.332 511.065 258.978 511.065 260.958V278.442Z" fill="#E4E4E4"/>
</g>
<g opacity="0.7">
<path d="M832.719 191.011L832.683 190.978C831.993 190.347 831.098 190 830.163 190C829.115 190 828.109 190.444 827.402 191.217L814.044 205.842C813.922 205.975 813.83 206.132 813.773 206.304L812.202 211.013C812.02 211.557 812.111 212.159 812.446 212.623C812.782 213.091 813.325 213.37 813.898 213.37H813.898C814.145 213.37 814.387 213.319 814.617 213.218L819.165 211.229C819.33 211.157 819.478 211.05 819.6 210.917L832.959 196.292C834.349 194.771 834.241 192.402 832.719 191.011ZM815.211 210.143L816.133 207.379L816.211 207.294L817.958 208.89L817.88 208.975L815.211 210.143ZM831.054 194.553L819.698 206.985L817.951 205.39L829.307 192.957C829.529 192.714 829.833 192.58 830.163 192.58C830.452 192.58 830.729 192.687 830.944 192.883L830.98 192.916C831.451 193.347 831.485 194.081 831.054 194.553Z" fill="#E4E4E4"/>
<path d="M830.128 201.9C829.415 201.9 828.838 202.477 828.838 203.19V214.14C828.838 215.949 827.366 217.42 825.558 217.42H809.925C808.116 217.42 806.645 215.949 806.645 214.14V198.634C806.645 196.826 808.116 195.354 809.925 195.354H821.24C821.952 195.354 822.53 194.777 822.53 194.064C822.53 193.352 821.952 192.774 821.24 192.774H809.925C806.694 192.774 804.065 195.403 804.065 198.634V214.14C804.065 217.371 806.694 220 809.925 220H825.558C828.789 220 831.417 217.371 831.417 214.14V203.19C831.418 202.477 830.84 201.9 830.128 201.9Z" fill="#E4E4E4"/>
</g>
<g opacity="0.7" clip-path="url(#clip12)">
<path d="M1000.04 235.092H973.671C972.671 235.092 971.857 235.905 971.857 236.906V256.495C971.857 257.495 972.671 258.308 973.671 258.308H1000.04C1001.04 258.308 1001.86 257.495 1001.86 256.495V236.906C1001.86 235.905 1001.04 235.092 1000.04 235.092ZM999.681 256.132H974.034V237.268H999.681V256.132H999.681Z" fill="#E4E4E4"/>
<path d="M979.729 239.481C977.389 239.481 975.485 241.385 975.485 243.725C975.485 246.066 977.388 247.97 979.729 247.97C982.069 247.97 983.973 246.066 983.973 243.725C983.973 241.385 982.069 239.481 979.729 239.481ZM979.729 245.793C978.589 245.793 977.661 244.866 977.661 243.725C977.661 242.585 978.589 241.658 979.729 241.658C980.869 241.658 981.797 242.585 981.797 243.725C981.797 244.866 980.869 245.793 979.729 245.793Z" fill="#E4E4E4"/>
<path d="M985.965 247.337C985.541 247.072 984.992 247.13 984.632 247.477L975.346 256.437L976.857 258.003L985.532 249.633L989.454 252.085L990.608 250.239L985.965 247.337Z" fill="#E4E4E4"/>
<path d="M994.645 246.367C994.207 245.969 993.532 245.993 993.125 246.421L983.476 256.542L985.051 258.044L993.967 248.692L1000 254.18L1001.46 252.57L994.645 246.367Z" fill="#E4E4E4"/>
</g>
<g opacity="0.7" clip-path="url(#clip13)">
<path d="M1202.57 270.356V265.669H1197.88V268.012H1193.2V262.387H1195.54V257.7H1190.85V260.044H1177.26V257.7H1172.57V262.387H1174.92V275.044H1172.57V279.731H1177.26V277.387H1181.95V283.012H1179.6V287.7H1184.29V285.356H1197.88V287.7H1202.57V283.012H1200.17V270.356H1202.57ZM1179.66 265.669V270.356H1181.95V275.044H1177.26V262.387H1190.85V268.012H1184.35V265.669H1179.66ZM1197.83 283.012H1184.29V270.356H1184.35H1197.83V283.012Z" fill="#E4E4E4"/>
</g>
<g opacity="0.7" clip-path="url(#clip14)">
<path d="M1443.47 238.092H1417.1C1416.1 238.092 1415.29 238.905 1415.29 239.906V259.495C1415.29 260.495 1416.1 261.308 1417.1 261.308H1443.47C1444.47 261.308 1445.29 260.495 1445.29 259.495V239.906C1445.29 238.905 1444.47 238.092 1443.47 238.092ZM1443.11 259.132H1417.46V240.268H1443.11V259.132H1443.11Z" fill="#E4E4E4"/>
<path d="M1423.16 242.481C1420.82 242.481 1418.91 244.385 1418.91 246.725C1418.91 249.066 1420.82 250.97 1423.16 250.97C1425.5 250.97 1427.4 249.066 1427.4 246.725C1427.4 244.385 1425.5 242.481 1423.16 242.481ZM1423.16 248.793C1422.02 248.793 1421.09 247.866 1421.09 246.725C1421.09 245.585 1422.02 244.658 1423.16 244.658C1424.3 244.658 1425.23 245.585 1425.23 246.725C1425.23 247.866 1424.3 248.793 1423.16 248.793Z" fill="#E4E4E4"/>
<path d="M1429.39 250.337C1428.97 250.072 1428.42 250.13 1428.06 250.477L1418.77 259.437L1420.29 261.003L1428.96 252.633L1432.88 255.085L1434.04 253.239L1429.39 250.337Z" fill="#E4E4E4"/>
<path d="M1438.07 249.367C1437.64 248.969 1436.96 248.993 1436.55 249.421L1426.9 259.542L1428.48 261.044L1437.4 251.692L1443.43 257.18L1444.89 255.57L1438.07 249.367Z" fill="#E4E4E4"/>
</g>
<g opacity="0.7" clip-path="url(#clip15)">
<path d="M112.841 316.901C112.841 316.403 112.496 316.106 111.886 316.106C111.637 316.106 111.468 316.131 111.38 316.154V317.753C111.484 317.776 111.612 317.784 111.789 317.784C112.439 317.784 112.841 317.455 112.841 316.901Z" fill="#E4E4E4"/>
<path d="M124.629 297.6H112.579C110.819 297.6 109.386 299.034 109.386 300.793V312.6H109.074C108.364 312.6 107.788 313.176 107.788 313.887V321.69C107.788 322.401 108.364 322.976 109.074 322.976H109.386V324.407C109.386 326.168 110.819 327.6 112.579 327.6H129.02C130.779 327.6 132.212 326.168 132.212 324.407V305.157L124.629 297.6ZM110.168 315.295C110.544 315.231 111.074 315.183 111.821 315.183C112.576 315.183 113.114 315.327 113.476 315.617C113.821 315.889 114.053 316.339 114.053 316.869C114.053 317.398 113.877 317.849 113.556 318.154C113.138 318.547 112.519 318.723 111.798 318.723C111.637 318.723 111.492 318.715 111.38 318.7V320.635H110.168V315.295ZM129.02 325.645H112.579C111.898 325.645 111.343 325.09 111.343 324.407V322.976H126.668C127.379 322.976 127.955 322.401 127.955 321.69V313.887C127.955 313.176 127.379 312.6 126.668 312.6H111.343V300.793C111.343 300.112 111.898 299.557 112.579 299.557L123.897 299.546V303.729C123.897 304.951 124.889 305.943 126.111 305.943L130.209 305.932L130.256 324.407C130.256 325.09 129.702 325.645 129.02 325.645ZM118.192 316.805V315.223H119.315V320.635H118.031L116.875 318.547C116.553 317.969 116.2 317.27 115.935 316.636L115.912 316.644C115.943 317.358 115.96 318.121 115.96 319.005V320.635H114.835V315.223H116.265L117.388 317.206C117.71 317.776 118.031 318.451 118.272 319.061H118.296C118.215 318.347 118.192 317.615 118.192 316.805ZM123.116 319.703C123.397 319.703 123.621 319.671 123.718 319.623V318.491H122.883V317.536H124.898V320.385C124.521 320.514 123.806 320.69 123.092 320.69C122.104 320.69 121.39 320.441 120.891 319.96C120.394 319.494 120.121 318.788 120.129 317.993C120.137 316.194 121.446 315.166 123.22 315.166C123.919 315.166 124.457 315.303 124.722 315.432L124.465 316.411C124.168 316.282 123.798 316.178 123.204 316.178C122.185 316.178 121.414 316.756 121.414 317.929C121.414 319.045 122.112 319.703 123.116 319.703Z" fill="#E4E4E4"/>
</g>
<g opacity="0.7">
<path d="M234.732 301.954C234.034 301.954 233.458 302.462 233.458 303.167C233.396 307.755 230.75 311.903 226.7 314.127C220.599 317.478 213.468 314.47 210.736 310.39L214.589 311.192C215.226 311.321 215.924 310.935 216.053 310.236C216.182 309.599 215.796 308.901 215.097 308.772L207.519 307.18C207.078 307.075 205.92 307.394 206.055 308.582L207.011 316.228C207.072 316.865 207.587 317.312 208.224 317.312C209.173 317.312 209.559 316.614 209.498 315.909L209.051 312.178C215.244 319.61 223.104 318.574 227.846 316.424C232.753 313.808 235.878 308.778 235.939 303.228C235.945 302.53 235.43 301.954 234.732 301.954Z" fill="#E4E4E4"/>
<path d="M207.262 304.043C207.96 304.043 208.536 303.535 208.536 302.83C208.598 298.241 211.244 294.094 215.293 291.87C221.395 288.519 228.526 291.527 231.258 295.607L227.405 294.805C226.768 294.676 226.07 295.062 225.941 295.76C225.812 296.397 226.198 297.096 226.897 297.224L234.481 298.817C234.922 298.921 236.08 298.603 235.945 297.414L234.989 289.769C234.928 289.132 234.413 288.685 233.776 288.685C232.827 288.685 232.441 289.383 232.502 290.087L232.943 293.818C226.75 286.393 218.89 287.423 214.148 289.579C209.241 292.189 206.116 297.224 206.049 302.769C206.049 303.473 206.564 304.043 207.262 304.043Z" fill="#E4E4E4"/>
</g>
<g opacity="0.7">
<path d="M499.836 357.32C497.897 357.32 496.32 358.897 496.32 360.836V361.422H498.664V360.836C498.664 360.19 499.19 359.664 499.836 359.664H500.305V357.32H499.836Z" fill="#E4E4E4"/>
<path d="M514.484 357.32H509.68V352.516C509.68 350.577 508.103 349 506.164 349H491.516C489.577 349 488 350.577 488 352.516V367.164C488 369.103 489.577 370.68 491.516 370.68H496.32V375.484C496.32 377.423 497.897 379 499.836 379H514.484C516.423 379 518 377.423 518 375.484V360.836C518 358.897 516.423 357.32 514.484 357.32ZM515.656 375.484C515.656 376.131 515.131 376.656 514.484 376.656H499.836C499.19 376.656 498.664 376.131 498.664 375.484V368.336H491.516C490.869 368.336 490.344 367.81 490.344 367.164V352.516C490.344 351.869 490.869 351.344 491.516 351.344H506.164C506.81 351.344 507.336 351.869 507.336 352.516V359.664H514.484C515.131 359.664 515.656 360.19 515.656 360.836V375.484Z" fill="#E4E4E4"/>
<path d="M498.664 363.707H496.32V366.051H498.664V363.707Z" fill="#E4E4E4"/>
<path d="M504.992 357.32H502.648V359.664H504.992V357.32Z" fill="#E4E4E4"/>
<path d="M507.336 366.578V367.164C507.336 367.81 506.81 368.336 506.164 368.336H505.695V370.68H506.164C508.103 370.68 509.68 369.103 509.68 367.164V366.578H507.336Z" fill="#E4E4E4"/>
<path d="M509.68 361.949H507.336V364.293H509.68V361.949Z" fill="#E4E4E4"/>
<path d="M503.352 368.336H501.008V370.68H503.352V368.336Z" fill="#E4E4E4"/>
</g>
<g opacity="0.7">
<path d="M611 258.969V273.031H641V258.969H611ZM638.656 270.688H613.344V261.312H615.57V264.125H617.914V261.312H620.258V266.469H622.602V261.312H624.828V264.125H627.172V261.312H629.398V266.469H631.742V261.312H634.086V264.125H636.43V261.312H638.656V270.688Z" fill="#E4E4E4"/>
</g>
<g opacity="0.7" clip-path="url(#clip16)">
<path d="M855.722 338.12H853.926V340.03H855.722V338.12Z" fill="#E4E4E4"/>
<path d="M866.528 313.6H863.22H852.495H849.186C845.735 313.6 842.928 316.407 842.928 319.858V337.342C842.928 340.793 845.735 343.6 849.186 343.6H853.642H862.31H866.528C869.979 343.6 872.786 340.793 872.786 337.342V319.858C872.786 316.407 869.979 313.6 866.528 313.6ZM863.22 315.892C864.316 315.892 865.208 316.621 865.208 317.518V326.921C865.208 327.817 864.316 328.546 863.22 328.546H852.495C851.398 328.546 850.506 327.817 850.506 326.921V317.518C850.506 316.621 851.398 315.892 852.495 315.892H863.22ZM853.642 341.308C853.164 341.308 852.775 340.919 852.775 340.44V338.143C852.775 337.665 853.164 337.276 853.642 337.276H862.31C862.788 337.276 863.178 337.665 863.178 338.143V340.44C863.178 340.919 862.788 341.308 862.31 341.308H853.642ZM870.494 337.342C870.494 339.529 868.715 341.308 866.528 341.308H865.348C865.427 341.032 865.47 340.741 865.47 340.44V338.143C865.47 336.401 864.052 334.984 862.31 334.984H853.642C851.9 334.984 850.482 336.401 850.482 338.143V340.44C850.482 340.741 850.526 341.032 850.604 341.308H849.186C846.999 341.308 845.22 339.529 845.22 337.342V319.858C845.22 317.878 846.679 316.233 848.578 315.939C848.344 316.422 848.213 316.956 848.213 317.518V326.921C848.213 329.081 850.134 330.838 852.495 330.838H863.22C865.58 330.838 867.501 329.081 867.501 326.921V317.518C867.501 316.956 867.37 316.422 867.137 315.939C869.035 316.233 870.494 317.878 870.494 319.858V337.342Z" fill="#E4E4E4"/>
</g>
<g opacity="0.7">
<path d="M1086.84 347.32C1084.9 347.32 1083.32 348.897 1083.32 350.836V351.422H1085.66V350.836C1085.66 350.19 1086.19 349.664 1086.84 349.664H1087.3V347.32H1086.84Z" fill="#E4E4E4"/>
<path d="M1101.48 347.32H1096.68V342.516C1096.68 340.577 1095.1 339 1093.16 339H1078.52C1076.58 339 1075 340.577 1075 342.516V357.164C1075 359.103 1076.58 360.68 1078.52 360.68H1083.32V365.484C1083.32 367.423 1084.9 369 1086.84 369H1101.48C1103.42 369 1105 367.423 1105 365.484V350.836C1105 348.897 1103.42 347.32 1101.48 347.32ZM1102.66 365.484C1102.66 366.131 1102.13 366.656 1101.48 366.656H1086.84C1086.19 366.656 1085.66 366.131 1085.66 365.484V358.336H1078.52C1077.87 358.336 1077.34 357.81 1077.34 357.164V342.516C1077.34 341.869 1077.87 341.344 1078.52 341.344H1093.16C1093.81 341.344 1094.34 341.869 1094.34 342.516V349.664H1101.48C1102.13 349.664 1102.66 350.19 1102.66 350.836V365.484Z" fill="#E4E4E4"/>
<path d="M1085.66 353.707H1083.32V356.051H1085.66V353.707Z" fill="#E4E4E4"/>
<path d="M1091.99 347.32H1089.65V349.664H1091.99V347.32Z" fill="#E4E4E4"/>
<path d="M1094.34 356.578V357.164C1094.34 357.81 1093.81 358.336 1093.16 358.336H1092.7V360.68H1093.16C1095.1 360.68 1096.68 359.103 1096.68 357.164V356.578H1094.34Z" fill="#E4E4E4"/>
<path d="M1096.68 351.949H1094.34V354.293H1096.68V351.949Z" fill="#E4E4E4"/>
<path d="M1090.35 358.336H1088.01V360.68H1090.35V358.336Z" fill="#E4E4E4"/>
</g>
<g opacity="0.7">
<path d="M1334.84 530.32C1332.9 530.32 1331.32 531.897 1331.32 533.836V534.422H1333.66V533.836C1333.66 533.19 1334.19 532.664 1334.84 532.664H1335.3V530.32H1334.84Z" fill="#E4E4E4"/>
<path d="M1349.48 530.32H1344.68V525.516C1344.68 523.577 1343.1 522 1341.16 522H1326.52C1324.58 522 1323 523.577 1323 525.516V540.164C1323 542.103 1324.58 543.68 1326.52 543.68H1331.32V548.484C1331.32 550.423 1332.9 552 1334.84 552H1349.48C1351.42 552 1353 550.423 1353 548.484V533.836C1353 531.897 1351.42 530.32 1349.48 530.32ZM1350.66 548.484C1350.66 549.131 1350.13 549.656 1349.48 549.656H1334.84C1334.19 549.656 1333.66 549.131 1333.66 548.484V541.336H1326.52C1325.87 541.336 1325.34 540.81 1325.34 540.164V525.516C1325.34 524.869 1325.87 524.344 1326.52 524.344H1341.16C1341.81 524.344 1342.34 524.869 1342.34 525.516V532.664H1349.48C1350.13 532.664 1350.66 533.19 1350.66 533.836V548.484Z" fill="#E4E4E4"/>
<path d="M1333.66 536.707H1331.32V539.051H1333.66V536.707Z" fill="#E4E4E4"/>
<path d="M1339.99 530.32H1337.65V532.664H1339.99V530.32Z" fill="#E4E4E4"/>
<path d="M1342.34 539.578V540.164C1342.34 540.81 1341.81 541.336 1341.16 541.336H1340.7V543.68H1341.16C1343.1 543.68 1344.68 542.103 1344.68 540.164V539.578H1342.34Z" fill="#E4E4E4"/>
<path d="M1344.68 534.949H1342.34V537.293H1344.68V534.949Z" fill="#E4E4E4"/>
<path d="M1338.35 541.336H1336.01V543.68H1338.35V541.336Z" fill="#E4E4E4"/>
</g>
<g opacity="0.7" clip-path="url(#clip17)">
<path d="M30.6066 414.893C27.7735 412.06 24.0066 410.5 20 410.5C15.9934 410.5 12.2265 412.06 9.39336 414.893C6.56029 417.727 5 421.493 5 425.5C5 429.507 6.56029 433.273 9.39336 436.107C12.2265 438.94 15.9934 440.5 20 440.5C24.0066 440.5 27.7735 438.94 30.6066 436.107C33.4397 433.273 35 429.507 35 425.5C35 421.493 33.4397 417.727 30.6066 414.893ZM18.8281 438.101C12.3968 437.508 7.34375 432.084 7.34375 425.5C7.34375 418.916 12.3968 413.492 18.8281 412.898V438.101ZM21.1719 412.898C22.0552 412.98 22.9126 413.152 23.7344 413.406L21.1719 415.968V412.898ZM21.1719 419.283L26.0623 414.393C26.7695 414.78 27.436 415.233 28.0533 415.744L21.1719 422.625V419.283ZM21.1719 425.895C21.2463 425.849 21.3171 425.794 21.3818 425.73L29.7144 417.397C30.2363 418.022 30.6992 418.697 31.0944 419.415L21.1719 429.338V425.895ZM21.1719 432.652L32.0856 421.738C32.3635 422.629 32.5453 423.562 32.619 424.524L21.1719 435.972V432.652ZM22.5628 437.895L32.3953 428.063C31.3782 432.989 27.4891 436.878 22.5628 437.895Z" fill="#E4E4E4"/>
</g>
<g opacity="0.7" clip-path="url(#clip18)">
<path d="M247.551 371.801C247.551 371.303 247.206 371.006 246.596 371.006C246.347 371.006 246.178 371.03 246.09 371.054V372.652C246.194 372.676 246.323 372.684 246.5 372.684C247.15 372.684 247.551 372.355 247.551 371.801Z" fill="#E4E4E4"/>
<path d="M251.327 371.022C251.054 371.022 250.878 371.046 250.773 371.07V374.611C250.878 374.635 251.046 374.635 251.199 374.635C252.307 374.643 253.03 374.033 253.03 372.741C253.038 371.617 252.379 371.022 251.327 371.022Z" fill="#E4E4E4"/>
<path d="M258.343 352.5H246.294C244.533 352.5 243.101 353.934 243.101 355.693V367.5H242.789C242.078 367.5 241.502 368.076 241.502 368.787V376.59C241.502 377.301 242.078 377.876 242.789 377.876H243.101V379.307C243.101 381.068 244.533 382.5 246.294 382.5H262.734C264.493 382.5 265.926 381.068 265.926 379.307V360.057L258.343 352.5ZM244.878 370.195C245.255 370.131 245.785 370.083 246.531 370.083C247.286 370.083 247.824 370.227 248.185 370.516C248.53 370.789 248.763 371.239 248.763 371.769C248.763 372.298 248.587 372.748 248.266 373.053C247.848 373.447 247.23 373.623 246.507 373.623C246.347 373.623 246.202 373.615 246.09 373.6V375.534H244.878V370.195ZM262.734 380.545H246.294C245.612 380.545 245.057 379.99 245.057 379.307V377.876H260.383C261.094 377.876 261.67 377.301 261.67 376.59V368.787C261.67 368.076 261.094 367.5 260.383 367.5H245.057V355.693C245.057 355.012 245.612 354.457 246.294 354.457L257.611 354.446V358.629C257.611 359.851 258.603 360.843 259.826 360.843L263.924 360.831L263.97 379.307C263.97 379.99 263.416 380.545 262.734 380.545ZM249.545 375.51V370.195C249.995 370.123 250.581 370.083 251.199 370.083C252.227 370.083 252.893 370.267 253.415 370.661C253.977 371.078 254.33 371.744 254.33 372.7C254.33 373.736 253.953 374.451 253.431 374.892C252.861 375.366 251.994 375.59 250.934 375.59C250.3 375.59 249.85 375.55 249.545 375.51ZM258.308 372.363V373.358H256.364V375.534H255.136V370.123H258.444V371.126H256.364V372.363H258.308Z" fill="#E4E4E4"/>
</g>
<g opacity="0.7">
<path d="M568.841 442.301C568.841 441.803 568.496 441.506 567.886 441.506C567.637 441.506 567.468 441.53 567.38 441.554V443.152C567.484 443.176 567.612 443.184 567.789 443.184C568.439 443.184 568.841 442.855 568.841 442.301Z" fill="#E4E4E4"/>
<path d="M580.629 423H568.579C566.819 423 565.386 424.434 565.386 426.193V438H565.074C564.364 438 563.788 438.576 563.788 439.287V447.09C563.788 447.801 564.364 448.376 565.074 448.376H565.386V449.807C565.386 451.568 566.819 453 568.579 453H585.02C586.779 453 588.212 451.568 588.212 449.807V430.557L580.629 423ZM566.168 440.695C566.545 440.631 567.074 440.583 567.821 440.583C568.576 440.583 569.114 440.727 569.476 441.016C569.821 441.289 570.053 441.739 570.053 442.269C570.053 442.798 569.877 443.248 569.556 443.553C569.138 443.947 568.52 444.123 567.798 444.123C567.637 444.123 567.492 444.115 567.38 444.1V446.034H566.168V440.695ZM585.02 451.045H568.579C567.898 451.045 567.343 450.49 567.343 449.807V448.376H582.668C583.379 448.376 583.955 447.801 583.955 447.09V439.287C583.955 438.576 583.379 438 582.668 438H567.343V426.193C567.343 425.512 567.898 424.957 568.579 424.957L579.897 424.946V429.129C579.897 430.351 580.889 431.343 582.111 431.343L586.209 431.331L586.256 449.807C586.256 450.49 585.702 451.045 585.02 451.045ZM574.192 442.205V440.623H575.315V446.034H574.031L572.875 443.947C572.553 443.369 572.2 442.67 571.935 442.036L571.912 442.044C571.943 442.758 571.96 443.521 571.96 444.405V446.034H570.835V440.623H572.265L573.388 442.606C573.71 443.176 574.031 443.85 574.272 444.46H574.296C574.215 443.747 574.192 443.015 574.192 442.205ZM579.116 445.103C579.397 445.103 579.622 445.07 579.718 445.022V443.891H578.883V442.935H580.898V445.785C580.521 445.914 579.806 446.09 579.092 446.09C578.104 446.09 577.39 445.841 576.891 445.36C576.394 444.894 576.121 444.188 576.129 443.393C576.137 441.594 577.446 440.566 579.22 440.566C579.919 440.566 580.457 440.703 580.722 440.832L580.465 441.811C580.168 441.682 579.798 441.578 579.204 441.578C578.185 441.578 577.414 442.156 577.414 443.329C577.414 444.445 578.112 445.103 579.116 445.103Z" fill="#E4E4E4"/>
</g>
<g opacity="0.7" clip-path="url(#clip19)">
<path d="M730.111 382.241L723.39 375.528C722.02 374.16 719.791 374.16 718.42 375.529L702.174 391.788C701.509 392.453 701.143 393.336 701.143 394.276C701.143 395.217 701.51 396.1 702.175 396.764L708.899 403.474C709.584 404.156 710.482 404.498 711.381 404.498C712.281 404.498 713.182 404.155 713.867 403.471L730.111 387.216C730.777 386.552 731.143 385.668 731.143 384.728C731.143 383.788 730.777 382.905 730.111 382.241ZM712.21 401.814C711.754 402.269 711.011 402.27 710.554 401.814L703.831 395.105C703.609 394.884 703.487 394.589 703.487 394.276C703.487 393.962 703.609 393.668 703.831 393.446L704.715 392.561L713.095 400.928L712.21 401.814ZM714.751 399.271L706.372 390.903L711.546 385.724L719.926 394.092L714.751 399.271ZM728.454 385.558L721.583 392.435L713.203 384.066L720.077 377.186C720.306 376.958 720.605 376.844 720.905 376.844C721.205 376.844 721.505 376.958 721.733 377.186L728.455 383.899C728.677 384.121 728.799 384.415 728.799 384.728C728.799 385.042 728.677 385.336 728.454 385.558Z" fill="#E4E4E4"/>
</g>
<g opacity="0.7" clip-path="url(#clip20)">
<path d="M987.576 360.511L987.54 360.478C986.85 359.847 985.955 359.5 985.02 359.5C983.972 359.5 982.966 359.944 982.259 360.717L968.901 375.342C968.779 375.475 968.687 375.632 968.63 375.804L967.059 380.513C966.877 381.057 966.968 381.659 967.303 382.123C967.64 382.591 968.182 382.87 968.755 382.87H968.755C969.002 382.87 969.244 382.819 969.474 382.718L974.022 380.729C974.187 380.657 974.335 380.55 974.457 380.417L987.816 365.792C989.206 364.271 989.099 361.902 987.576 360.511ZM970.068 379.643L970.99 376.879L971.068 376.794L972.815 378.39L972.737 378.475L970.068 379.643ZM985.911 364.053L974.555 376.485L972.808 374.89L984.164 362.457C984.386 362.214 984.69 362.08 985.02 362.08C985.309 362.08 985.587 362.187 985.801 362.383L985.837 362.416C986.309 362.847 986.342 363.581 985.911 364.053Z" fill="#E4E4E4"/>
<path d="M984.985 371.4C984.273 371.4 983.695 371.977 983.695 372.69V383.64C983.695 385.449 982.223 386.92 980.415 386.92H964.782C962.973 386.92 961.502 385.449 961.502 383.64V368.134C961.502 366.326 962.973 364.854 964.782 364.854H976.097C976.809 364.854 977.387 364.277 977.387 363.564C977.387 362.852 976.809 362.274 976.097 362.274H964.782C961.551 362.274 958.922 364.903 958.922 368.134V383.64C958.922 386.871 961.551 389.5 964.782 389.5H980.415C983.646 389.5 986.275 386.871 986.275 383.64V372.69C986.275 371.977 985.697 371.4 984.985 371.4Z" fill="#E4E4E4"/>
</g>
<g opacity="0.7">
<path d="M1253.87 437.52H1252.07V439.43H1253.87V437.52Z" fill="#E4E4E4"/>
<path d="M1264.67 413H1261.36H1250.64H1247.33C1243.88 413 1241.07 415.807 1241.07 419.258V436.742C1241.07 440.193 1243.88 443 1247.33 443H1251.78H1260.45H1264.67C1268.12 443 1270.93 440.193 1270.93 436.742V419.258C1270.93 415.807 1268.12 413 1264.67 413ZM1261.36 415.292C1262.46 415.292 1263.35 416.021 1263.35 416.918V426.321C1263.35 427.217 1262.46 427.946 1261.36 427.946H1250.64C1249.54 427.946 1248.65 427.217 1248.65 426.321V416.918C1248.65 416.021 1249.54 415.292 1250.64 415.292H1261.36ZM1251.78 440.708C1251.31 440.708 1250.92 440.319 1250.92 439.84V437.543C1250.92 437.065 1251.31 436.676 1251.78 436.676H1260.45C1260.93 436.676 1261.32 437.065 1261.32 437.543V439.84C1261.32 440.319 1260.93 440.708 1260.45 440.708H1251.78ZM1268.64 436.742C1268.64 438.929 1266.86 440.708 1264.67 440.708H1263.49C1263.57 440.432 1263.61 440.141 1263.61 439.84V437.543C1263.61 435.801 1262.2 434.383 1260.45 434.383H1251.78C1250.04 434.383 1248.63 435.801 1248.63 437.543V439.84C1248.63 440.141 1248.67 440.432 1248.75 440.708H1247.33C1245.14 440.708 1243.36 438.929 1243.36 436.742V419.258C1243.36 417.278 1244.82 415.632 1246.72 415.339C1246.49 415.822 1246.36 416.356 1246.36 416.918V426.321C1246.36 428.481 1248.28 430.238 1250.64 430.238H1261.36C1263.72 430.238 1265.64 428.481 1265.64 426.321V416.918C1265.64 416.356 1265.51 415.822 1265.28 415.339C1267.18 415.632 1268.64 417.278 1268.64 419.258V436.742Z" fill="#E4E4E4"/>
</g>
<g opacity="0.7" clip-path="url(#clip21)">
<path d="M1428.29 396.156V391.469H1423.6V393.812H1418.91V388.188H1421.25V383.5H1416.57V385.844H1402.97V383.5H1398.29V388.188H1400.63V400.844H1398.29V405.531H1402.97V403.188H1407.66V408.812H1405.32V413.5H1410V411.156H1423.6V413.5H1428.29V408.812H1425.88V396.156H1428.29ZM1405.38 391.469V396.156H1407.66V400.844H1402.97V388.188H1416.57V393.812H1410.06V391.469H1405.38ZM1423.54 408.812H1410V396.156H1410.06H1423.54V408.812Z" fill="#E4E4E4"/>
</g>
<g opacity="0.7" clip-path="url(#clip22)">
<path d="M179.312 424.794V423.33C179.312 421.714 177.998 420.4 176.383 420.4H156.93C155.314 420.4 154 421.714 154 423.33V428.603C154 430.218 155.314 431.533 156.93 431.533H176.383C177.998 431.533 179.312 430.218 179.312 428.603V427.138H181.656V432.923L165.454 439.746L165.447 439.749C164.153 440.304 163.316 441.572 163.316 442.981V450.4H169.996V440.376L184 434.479V424.794H179.312ZM176.969 428.603C176.969 428.926 176.706 429.189 176.383 429.189H156.93C156.607 429.189 156.344 428.926 156.344 428.603V423.33C156.344 423.007 156.607 422.744 156.93 422.744H176.383C176.706 422.744 176.969 423.007 176.969 423.33V428.603ZM167.652 448.056H165.66V442.981C165.66 442.512 165.938 442.09 166.368 441.904L167.652 441.364V448.056Z" fill="#E4E4E4"/>
</g>
<g opacity="0.7" clip-path="url(#clip23)">
<path d="M367.25 442.625H356C355.379 442.625 354.875 443.129 354.875 443.75C354.875 444.371 355.379 444.875 356 444.875H367.25C367.871 444.875 368.375 444.371 368.375 443.75C368.375 443.129 367.871 442.625 367.25 442.625Z" fill="#E4E4E4"/>
<path d="M367.25 448.25H356C355.379 448.25 354.875 448.754 354.875 449.375C354.875 449.996 355.379 450.5 356 450.5H367.25C367.871 450.5 368.375 449.996 368.375 449.375C368.375 448.754 367.871 448.25 367.25 448.25Z" fill="#E4E4E4"/>
<path d="M375.875 435.125H348.125C347.504 435.125 347 435.629 347 436.25V456.5C347 457.121 347.504 457.625 348.125 457.625H359.005L365.833 462.656C366.03 462.801 366.264 462.875 366.5 462.875C366.673 462.875 366.847 462.835 367.007 462.754C367.386 462.563 367.625 462.175 367.625 461.75V457.625H375.875C376.496 457.625 377 457.121 377 456.5V436.25C377 435.629 376.496 435.125 375.875 435.125ZM374.75 455.375H366.5C365.879 455.375 365.375 455.879 365.375 456.5V459.524L360.042 455.594C359.849 455.452 359.615 455.375 359.375 455.375H349.25V437.375H374.75V455.375Z" fill="#E4E4E4"/>
</g>
<g opacity="0.7">
<path d="M429 528.656V523.969H424.312V526.312H419.625V520.688H421.969V516H417.281V518.344H403.688V516H399V520.688H401.344V533.344H399V538.031H403.688V535.688H408.375V541.312H406.031V546H410.719V543.656H424.312V546H429V541.312H426.598V528.656H429ZM406.09 523.969V528.656H408.375V533.344H403.688V520.688H417.281V526.312H410.777V523.969H406.09ZM424.254 541.312H410.719V528.656H410.777H424.254V541.312Z" fill="#E4E4E4"/>
</g>
<g opacity="0.7" clip-path="url(#clip24)">
<path d="M699.77 500.027H674.457V502.371H699.77V500.027Z" fill="#E4E4E4"/>
<path d="M691.653 488.04H691.653C691.077 487.952 690.659 487.465 690.659 486.882V483.63C692.264 482.511 693.257 480.681 693.294 478.7C693.358 475.323 690.665 472.51 687.291 472.431C685.62 472.392 684.039 473.013 682.844 474.18C681.649 475.348 680.991 476.911 680.991 478.582C680.991 480.612 681.985 482.488 683.627 483.631V486.882C683.627 487.465 683.209 487.952 682.633 488.04L672.143 489.646V497.683H702.143V489.646L691.653 488.04ZM699.799 495.339H674.487V491.658L682.987 490.357C683.817 490.23 684.576 489.809 685.123 489.172C685.67 488.535 685.971 487.721 685.971 486.882V482.274L685.351 481.943C684.107 481.278 683.334 479.99 683.334 478.582C683.334 477.547 683.742 476.58 684.482 475.857C685.222 475.134 686.202 474.749 687.236 474.774C689.324 474.823 690.99 476.564 690.951 478.655C690.925 480.032 690.152 481.292 688.934 481.943L688.315 482.274V486.882C688.315 487.721 688.616 488.535 689.163 489.172C689.71 489.809 690.468 490.23 691.298 490.357L699.799 491.658V495.339Z" fill="#E4E4E4"/>
</g>
<g opacity="0.7" clip-path="url(#clip25)">
<path d="M887.694 483.701C887.694 483.203 887.348 482.906 886.739 482.906C886.489 482.906 886.321 482.93 886.233 482.954V484.552C886.337 484.576 886.465 484.584 886.642 484.584C887.293 484.584 887.694 484.255 887.694 483.701Z" fill="#E4E4E4"/>
<path d="M891.47 482.922C891.197 482.922 891.021 482.946 890.916 482.97V486.511C891.021 486.535 891.189 486.535 891.342 486.535C892.45 486.543 893.173 485.933 893.173 484.641C893.18 483.517 892.522 482.922 891.47 482.922Z" fill="#E4E4E4"/>
<path d="M898.486 464.4H886.436C884.676 464.4 883.244 465.834 883.244 467.593V479.4H882.932C882.221 479.4 881.645 479.975 881.645 480.687V488.49C881.645 489.201 882.221 489.776 882.932 489.776H883.244V491.207C883.244 492.968 884.676 494.4 886.436 494.4H902.877C904.636 494.4 906.069 492.968 906.069 491.207V471.957L898.486 464.4ZM885.02 482.095C885.397 482.031 885.928 481.983 886.674 481.983C887.429 481.983 887.967 482.127 888.328 482.416C888.673 482.689 888.906 483.139 888.906 483.669C888.906 484.198 888.73 484.648 888.409 484.953C887.991 485.347 887.373 485.523 886.65 485.523C886.489 485.523 886.345 485.515 886.233 485.5V487.434H885.02V482.095ZM902.877 492.444H886.436C885.755 492.444 885.2 491.889 885.2 491.207V489.776H900.526C901.237 489.776 901.813 489.201 901.813 488.49V480.687C901.813 479.975 901.237 479.4 900.526 479.4H885.2V467.593C885.2 466.912 885.755 466.357 886.436 466.357L897.754 466.345V470.529C897.754 471.751 898.746 472.743 899.968 472.743L904.067 472.731L904.113 491.207C904.113 491.889 903.559 492.444 902.877 492.444ZM889.688 487.41V482.095C890.137 482.023 890.723 481.983 891.342 481.983C892.369 481.983 893.036 482.167 893.558 482.56C894.12 482.978 894.473 483.644 894.473 484.6C894.473 485.636 894.096 486.351 893.574 486.792C893.004 487.266 892.137 487.49 891.077 487.49C890.442 487.49 889.993 487.45 889.688 487.41ZM898.45 484.263V485.258H896.507V487.434H895.279V482.023H898.587V483.026H896.507V484.263H898.45Z" fill="#E4E4E4"/>
</g>
<g opacity="0.7" clip-path="url(#clip26)">
<path d="M1170.29 459.411L1170.25 459.378C1169.56 458.747 1168.67 458.4 1167.73 458.4C1166.69 458.4 1165.68 458.844 1164.97 459.617L1151.62 474.242C1151.49 474.375 1151.4 474.532 1151.34 474.703L1149.77 479.412C1149.59 479.957 1149.68 480.559 1150.02 481.023C1150.35 481.491 1150.9 481.77 1151.47 481.77H1151.47C1151.72 481.77 1151.96 481.719 1152.19 481.618L1156.74 479.629C1156.9 479.556 1157.05 479.45 1157.17 479.317L1170.53 464.692C1171.92 463.17 1171.81 460.801 1170.29 459.411ZM1152.78 478.543L1153.7 475.779L1153.78 475.694L1155.53 477.29L1155.45 477.375L1152.78 478.543ZM1168.63 462.952L1157.27 475.385L1155.52 473.79L1166.88 461.357C1167.1 461.114 1167.4 460.98 1167.73 460.98C1168.02 460.98 1168.3 461.087 1168.52 461.283L1168.55 461.316C1169.02 461.747 1169.06 462.481 1168.63 462.952Z" fill="#E4E4E4"/>
<path d="M1167.7 470.3C1166.99 470.3 1166.41 470.877 1166.41 471.589V482.54C1166.41 484.349 1164.94 485.82 1163.13 485.82H1147.5C1145.69 485.82 1144.22 484.349 1144.22 482.54V467.034C1144.22 465.226 1145.69 463.754 1147.5 463.754H1158.81C1159.52 463.754 1160.1 463.176 1160.1 462.464C1160.1 461.752 1159.52 461.174 1158.81 461.174H1147.5C1144.27 461.174 1141.64 463.803 1141.64 467.034V482.54C1141.64 485.771 1144.27 488.4 1147.5 488.4H1163.13C1166.36 488.4 1168.99 485.771 1168.99 482.54V471.589C1168.99 470.877 1168.41 470.3 1167.7 470.3Z" fill="#E4E4E4"/>
</g>
<g opacity="0.7" clip-path="url(#clip27)">
<path d="M1396.66 470.189V472.533H1401.17V482.611H1403.52V472.533H1407.91V470.189H1396.66Z" fill="#E4E4E4"/>
<path d="M1391.97 461.4H1387.29V466.087H1391.97V461.4Z" fill="#E4E4E4"/>
<path d="M1417.29 461.4H1412.6V466.087H1417.29V461.4Z" fill="#E4E4E4"/>
<path d="M1405.8 463.744H1403.46V466.087H1405.8V463.744Z" fill="#E4E4E4"/>
<path d="M1410.37 463.744H1408.03V466.087H1410.37V463.744Z" fill="#E4E4E4"/>
<path d="M1401.23 463.744H1398.89V466.087H1401.23V463.744Z" fill="#E4E4E4"/>
<path d="M1396.66 463.744H1394.32V466.087H1396.66V463.744Z" fill="#E4E4E4"/>
<path d="M1417.29 486.712H1412.6V491.4H1417.29V486.712Z" fill="#E4E4E4"/>
<path d="M1414.94 477.572H1412.6V479.916H1414.94V477.572Z" fill="#E4E4E4"/>
<path d="M1414.94 482.142H1412.6V484.486H1414.94V482.142Z" fill="#E4E4E4"/>
<path d="M1414.94 473.001H1412.6V475.345H1414.94V473.001Z" fill="#E4E4E4"/>
<path d="M1414.94 468.431H1412.6V470.775H1414.94V468.431Z" fill="#E4E4E4"/>
<path d="M1391.97 486.712H1387.29V491.4H1391.97V486.712Z" fill="#E4E4E4"/>
<path d="M1391.97 477.572H1389.63V479.916H1391.97V477.572Z" fill="#E4E4E4"/>
<path d="M1391.97 482.142H1389.63V484.486H1391.97V482.142Z" fill="#E4E4E4"/>
<path d="M1391.97 473.001H1389.63V475.345H1391.97V473.001Z" fill="#E4E4E4"/>
<path d="M1391.97 468.431H1389.63V470.775H1391.97V468.431Z" fill="#E4E4E4"/>
<path d="M1405.8 486.712H1403.46V489.056H1405.8V486.712Z" fill="#E4E4E4"/>
<path d="M1410.37 486.712H1408.03V489.056H1410.37V486.712Z" fill="#E4E4E4"/>
<path d="M1401.23 486.712H1398.89V489.056H1401.23V486.712Z" fill="#E4E4E4"/>
<path d="M1396.66 486.712H1394.32V489.056H1396.66V486.712Z" fill="#E4E4E4"/>
</g>
<g opacity="0.7" clip-path="url(#clip28)">
<path d="M219.719 541.311L219.683 541.278C218.993 540.647 218.098 540.3 217.163 540.3C216.115 540.3 215.109 540.744 214.402 541.517L201.044 556.142C200.922 556.275 200.83 556.432 200.773 556.604L199.202 561.313C199.02 561.857 199.111 562.459 199.446 562.923C199.782 563.391 200.325 563.67 200.898 563.67H200.898C201.145 563.67 201.387 563.619 201.617 563.519L206.165 561.529C206.33 561.457 206.478 561.35 206.6 561.217L219.959 546.592C221.349 545.071 221.241 542.702 219.719 541.311ZM202.211 560.443L203.133 557.68L203.211 557.594L204.958 559.19L204.88 559.275L202.211 560.443ZM218.054 544.853L206.697 557.285L204.951 555.69L216.307 543.257C216.529 543.014 216.833 542.88 217.163 542.88C217.452 542.88 217.729 542.987 217.944 543.183L217.98 543.216C218.451 543.647 218.485 544.381 218.054 544.853Z" fill="#E4E4E4"/>
<path d="M217.128 552.2C216.415 552.2 215.838 552.777 215.838 553.49V564.44C215.838 566.249 214.366 567.72 212.558 567.72H196.925C195.116 567.72 193.645 566.249 193.645 564.44V548.934C193.645 547.126 195.116 545.654 196.925 545.654H208.24C208.952 545.654 209.53 545.077 209.53 544.364C209.53 543.652 208.952 543.074 208.24 543.074H196.925C193.694 543.074 191.065 545.703 191.065 548.934V564.44C191.065 567.671 193.694 570.3 196.925 570.3H212.558C215.789 570.3 218.417 567.671 218.417 564.44V553.49C218.418 552.777 217.84 552.2 217.128 552.2Z" fill="#E4E4E4"/>
</g>
<g opacity="0.7" clip-path="url(#clip29)">
<path d="M319.071 509.301L314.365 514.017L299.302 519.764L295.714 539.299L315.255 535.776L320.988 520.665L325.714 515.929L319.071 509.301ZM313.534 533.705L300.633 536.031L307.421 529.2C307.867 529.409 308.364 529.527 308.888 529.527C310.794 529.527 312.344 527.977 312.344 526.071C312.344 524.165 310.794 522.615 308.888 522.615C306.983 522.615 305.432 524.165 305.432 526.071C305.432 526.598 305.551 527.097 305.763 527.544L299.007 534.344L301.369 521.483L314.712 516.393L318.623 520.295L313.534 533.705ZM307.775 526.071C307.775 525.457 308.275 524.958 308.888 524.958C309.502 524.958 310.001 525.457 310.001 526.071C310.001 526.685 309.502 527.184 308.888 527.184C308.275 527.184 307.775 526.685 307.775 526.071ZM320.017 518.321L316.694 515L319.074 512.615L322.4 515.933L320.017 518.321Z" fill="#E4E4E4"/>
</g>
<g opacity="0.7">
<path d="M362.357 149.001L357.65 153.717L342.588 159.464L339 178.999L358.541 175.476L364.274 160.365L369 155.629L362.357 149.001ZM356.82 173.405L343.919 175.731L350.707 168.9C351.153 169.109 351.65 169.227 352.174 169.227C354.08 169.227 355.63 167.677 355.63 165.771C355.63 163.865 354.08 162.315 352.174 162.315C350.268 162.315 348.718 163.865 348.718 165.771C348.718 166.298 348.837 166.797 349.048 167.244L342.293 174.044L344.655 161.183L357.998 156.093L361.909 159.995L356.82 173.405ZM351.061 165.771C351.061 165.157 351.56 164.658 352.174 164.658C352.788 164.658 353.287 165.157 353.287 165.771C353.287 166.385 352.788 166.884 352.174 166.884C351.56 166.884 351.061 166.385 351.061 165.771ZM363.303 158.021L359.98 154.7L362.36 152.315L365.686 155.633L363.303 158.021Z" fill="#E4E4E4"/>
</g>
<g opacity="0.7" clip-path="url(#clip30)">
<path d="M646.984 520.601C646.984 520.103 646.639 519.806 646.029 519.806C645.78 519.806 645.611 519.83 645.523 519.854V521.453C645.627 521.476 645.755 521.484 645.932 521.484C646.582 521.484 646.984 521.155 646.984 520.601Z" fill="#E4E4E4"/>
<path d="M658.771 501.3H646.722C644.962 501.3 643.529 502.734 643.529 504.493V516.3H643.217C642.506 516.3 641.931 516.876 641.931 517.587V525.39C641.931 526.101 642.506 526.676 643.217 526.676H643.529V528.107C643.529 529.868 644.962 531.3 646.722 531.3H663.163C664.922 531.3 666.355 529.868 666.355 528.107V508.857L658.771 501.3ZM644.311 518.995C644.687 518.931 645.217 518.883 645.964 518.883C646.719 518.883 647.257 519.027 647.619 519.316C647.964 519.589 648.196 520.039 648.196 520.569C648.196 521.098 648.02 521.549 647.699 521.853C647.281 522.247 646.662 522.423 645.941 522.423C645.78 522.423 645.635 522.415 645.523 522.4V524.335H644.311V518.995ZM663.163 529.345H646.722C646.041 529.345 645.486 528.79 645.486 528.107V526.676H660.811C661.522 526.676 662.098 526.101 662.098 525.39V517.587C662.098 516.876 661.522 516.3 660.811 516.3H645.486V504.493C645.486 503.812 646.041 503.257 646.722 503.257L658.04 503.246V507.429C658.04 508.651 659.031 509.643 660.254 509.643L664.352 509.632L664.398 528.107C664.398 528.79 663.844 529.345 663.163 529.345ZM652.334 520.505V518.923H653.458V524.334H652.174L651.018 522.247C650.696 521.669 650.343 520.97 650.078 520.336L650.054 520.344C650.086 521.058 650.103 521.821 650.103 522.705V524.334H648.978V518.923H650.408L651.531 520.906C651.853 521.476 652.174 522.151 652.415 522.76H652.439C652.358 522.047 652.334 521.315 652.334 520.505ZM657.258 523.403C657.54 523.403 657.764 523.37 657.86 523.322V522.191H657.026V521.236H659.041V524.085C658.664 524.214 657.949 524.39 657.235 524.39C656.247 524.39 655.532 524.141 655.034 523.66C654.537 523.194 654.263 522.488 654.272 521.693C654.28 519.894 655.588 518.866 657.363 518.866C658.062 518.866 658.6 519.003 658.865 519.132L658.608 520.111C658.311 519.982 657.941 519.878 657.347 519.878C656.328 519.878 655.557 520.456 655.557 521.629C655.557 522.745 656.255 523.403 657.258 523.403Z" fill="#E4E4E4"/>
</g>
<g opacity="0.7" clip-path="url(#clip31)">
<path d="M997.857 500.269V514.331H1027.86V500.269H997.857ZM1025.51 511.988H1000.2V502.613H1002.43V505.425H1004.77V502.613H1007.11V507.769H1009.46V502.613H1011.69V505.425H1014.03V502.613H1016.26V507.769H1018.6V502.613H1020.94V505.425H1023.29V502.613H1025.51V511.988Z" fill="#E4E4E4"/>
</g>
<g opacity="0.7" clip-path="url(#clip32)">
<path d="M1203.2 574.927H1177.89V577.271H1203.2V574.927Z" fill="#E4E4E4"/>
<path d="M1195.08 562.94H1195.08C1194.51 562.852 1194.09 562.365 1194.09 561.782V558.53C1195.69 557.411 1196.69 555.581 1196.72 553.6C1196.79 550.223 1194.09 547.411 1190.72 547.331C1189.05 547.292 1187.47 547.913 1186.27 549.08C1185.08 550.248 1184.42 551.811 1184.42 553.482C1184.42 555.513 1185.41 557.388 1187.06 558.531V561.782C1187.06 562.365 1186.64 562.852 1186.06 562.94L1175.57 564.546V572.583H1205.57V564.546L1195.08 562.94ZM1203.23 570.239H1177.92V566.558L1186.42 565.257C1187.25 565.13 1188 564.709 1188.55 564.072C1189.1 563.435 1189.4 562.622 1189.4 561.782V557.174L1188.78 556.843C1187.54 556.178 1186.76 554.89 1186.76 553.482C1186.76 552.447 1187.17 551.48 1187.91 550.757C1188.65 550.034 1189.63 549.649 1190.66 549.674C1192.75 549.723 1194.42 551.464 1194.38 553.555C1194.35 554.932 1193.58 556.192 1192.36 556.843L1191.74 557.174V561.782C1191.74 562.622 1192.04 563.435 1192.59 564.072C1193.14 564.709 1193.9 565.13 1194.73 565.257L1203.23 566.558V570.239Z" fill="#E4E4E4"/>
</g>
<g opacity="0.7" clip-path="url(#clip33)">
<path d="M1296.25 288.625H1285C1284.38 288.625 1283.88 289.129 1283.88 289.75C1283.88 290.371 1284.38 290.875 1285 290.875H1296.25C1296.87 290.875 1297.38 290.371 1297.38 289.75C1297.38 289.129 1296.87 288.625 1296.25 288.625Z" fill="#E4E4E4"/>
<path d="M1296.25 294.25H1285C1284.38 294.25 1283.88 294.754 1283.88 295.375C1283.88 295.996 1284.38 296.5 1285 296.5H1296.25C1296.87 296.5 1297.38 295.996 1297.38 295.375C1297.38 294.754 1296.87 294.25 1296.25 294.25Z" fill="#E4E4E4"/>
<path d="M1304.88 281.125H1277.12C1276.5 281.125 1276 281.629 1276 282.25V302.5C1276 303.121 1276.5 303.625 1277.12 303.625H1288.01L1294.83 308.656C1295.03 308.801 1295.26 308.875 1295.5 308.875C1295.67 308.875 1295.85 308.835 1296.01 308.754C1296.39 308.563 1296.63 308.175 1296.63 307.75V303.625H1304.88C1305.5 303.625 1306 303.121 1306 302.5V282.25C1306 281.629 1305.5 281.125 1304.88 281.125ZM1303.75 301.375H1295.5C1294.88 301.375 1294.38 301.879 1294.38 302.5V305.524L1289.04 301.594C1288.85 301.452 1288.62 301.375 1288.38 301.375H1278.25V283.375H1303.75V301.375Z" fill="#E4E4E4"/>
</g>
<g opacity="0.7" clip-path="url(#clip34)">
<path d="M66.375 602.989V605.333H70.8867V615.411H73.2305V605.333H77.625V602.989H66.375Z" fill="#E4E4E4"/>
<path d="M61.6875 594.2H57V598.887H61.6875V594.2Z" fill="#E4E4E4"/>
<path d="M87 594.2H82.3125V598.887H87V594.2Z" fill="#E4E4E4"/>
<path d="M75.5156 596.544H73.1719V598.887H75.5156V596.544Z" fill="#E4E4E4"/>
<path d="M80.0859 596.544H77.7422V598.887H80.0859V596.544Z" fill="#E4E4E4"/>
<path d="M70.9453 596.544H68.6016V598.887H70.9453V596.544Z" fill="#E4E4E4"/>
<path d="M66.375 596.544H64.0312V598.887H66.375V596.544Z" fill="#E4E4E4"/>
<path d="M84.6562 605.802H82.3125V608.145H84.6562V605.802Z" fill="#E4E4E4"/>
<path d="M84.6562 601.231H82.3125V603.575H84.6562V601.231Z" fill="#E4E4E4"/>
<path d="M61.6875 605.802H59.3438V608.145H61.6875V605.802Z" fill="#E4E4E4"/>
<path d="M61.6875 601.231H59.3438V603.575H61.6875V601.231Z" fill="#E4E4E4"/>
</g>
<g opacity="0.7" clip-path="url(#clip35)">
<path d="M567.804 585.989V588.333H572.315V598.411H574.659V588.333H579.054V585.989H567.804Z" fill="#E4E4E4"/>
<path d="M563.116 577.2H558.429V581.887H563.116V577.2Z" fill="#E4E4E4"/>
<path d="M588.429 577.2H583.741V581.887H588.429V577.2Z" fill="#E4E4E4"/>
<path d="M576.944 579.544H574.6V581.887H576.944V579.544Z" fill="#E4E4E4"/>
<path d="M581.515 579.544H579.171V581.887H581.515V579.544Z" fill="#E4E4E4"/>
<path d="M572.374 579.544H570.03V581.887H572.374V579.544Z" fill="#E4E4E4"/>
<path d="M567.804 579.544H565.46V581.887H567.804V579.544Z" fill="#E4E4E4"/>
<path d="M588.429 602.512H583.741V607.2H588.429V602.512Z" fill="#E4E4E4"/>
<path d="M586.085 593.372H583.741V595.716H586.085V593.372Z" fill="#E4E4E4"/>
<path d="M586.085 597.942H583.741V600.286H586.085V597.942Z" fill="#E4E4E4"/>
<path d="M586.085 588.802H583.741V591.145H586.085V588.802Z" fill="#E4E4E4"/>
<path d="M586.085 584.231H583.741V586.575H586.085V584.231Z" fill="#E4E4E4"/>
<path d="M563.116 602.512H558.429V607.2H563.116V602.512Z" fill="#E4E4E4"/>
<path d="M563.116 593.372H560.772V595.716H563.116V593.372Z" fill="#E4E4E4"/>
<path d="M563.116 597.942H560.772V600.286H563.116V597.942Z" fill="#E4E4E4"/>
<path d="M563.116 588.802H560.772V591.145H563.116V588.802Z" fill="#E4E4E4"/>
<path d="M563.116 584.231H560.772V586.575H563.116V584.231Z" fill="#E4E4E4"/>
<path d="M576.944 602.512H574.6V604.856H576.944V602.512Z" fill="#E4E4E4"/>
<path d="M581.515 602.512H579.171V604.856H581.515V602.512Z" fill="#E4E4E4"/>
<path d="M572.374 602.512H570.03V604.856H572.374V602.512Z" fill="#E4E4E4"/>
<path d="M567.804 602.512H565.46V604.856H567.804V602.512Z" fill="#E4E4E4"/>
</g>
<g opacity="0.7" clip-path="url(#clip36)">
<path d="M838.698 593.501C838.698 593.003 838.353 592.706 837.743 592.706C837.494 592.706 837.325 592.73 837.237 592.754V594.352C837.341 594.376 837.47 594.384 837.646 594.384C838.296 594.384 838.698 594.055 838.698 593.501Z" fill="#E4E4E4"/>
<path d="M850.486 574.2H838.437C836.676 574.2 835.244 575.634 835.244 577.393V589.2H834.932C834.221 589.2 833.645 589.776 833.645 590.487V598.29C833.645 599.001 834.221 599.576 834.932 599.576H835.244V601.007C835.244 602.768 836.676 604.2 838.437 604.2H854.877C856.636 604.2 858.069 602.768 858.069 601.007V581.757L850.486 574.2ZM836.025 591.895C836.402 591.831 836.931 591.783 837.678 591.783C838.433 591.783 838.971 591.927 839.333 592.216C839.678 592.489 839.91 592.939 839.91 593.469C839.91 593.998 839.734 594.448 839.413 594.753C838.995 595.147 838.377 595.323 837.655 595.323C837.494 595.323 837.349 595.315 837.237 595.3V597.234H836.025V591.895ZM854.877 602.244H838.437C837.755 602.244 837.2 601.689 837.2 601.007V599.576H852.526C853.237 599.576 853.812 599.001 853.812 598.29V590.487C853.812 589.776 853.237 589.2 852.526 589.2H837.2V577.393C837.2 576.712 837.755 576.157 838.437 576.157L849.754 576.145V580.329C849.754 581.551 850.746 582.543 851.969 582.543L856.067 582.531L856.113 601.007C856.113 601.689 855.559 602.244 854.877 602.244ZM844.049 593.405V591.823H845.173V597.234H843.888L842.732 595.147C842.41 594.569 842.057 593.87 841.792 593.236L841.769 593.244C841.8 593.958 841.817 594.721 841.817 595.605V597.234H840.692V591.823H842.122L843.246 593.806C843.567 594.376 843.888 595.05 844.129 595.66H844.153C844.072 594.947 844.049 594.215 844.049 593.405ZM848.973 596.303C849.254 596.303 849.479 596.27 849.575 596.222V595.091H848.74V594.135H850.756V596.985C850.378 597.114 849.663 597.29 848.949 597.29C847.962 597.29 847.247 597.041 846.748 596.56C846.251 596.094 845.978 595.388 845.987 594.592C845.994 592.794 847.303 591.766 849.078 591.766C849.776 591.766 850.314 591.903 850.579 592.032L850.322 593.011C850.025 592.882 849.655 592.778 849.061 592.778C848.042 592.778 847.271 593.356 847.271 594.529C847.271 595.645 847.969 596.303 848.973 596.303Z" fill="#E4E4E4"/>
</g>
<g opacity="0.7" clip-path="url(#clip37)">
<path d="M1113.41 600.52C1111.47 600.52 1109.89 602.097 1109.89 604.036V604.622H1112.24V604.036C1112.24 603.39 1112.76 602.864 1113.41 602.864H1113.88V600.52H1113.41Z" fill="#E4E4E4"/>
<path d="M1128.06 600.52H1123.25V595.716C1123.25 593.777 1121.67 592.2 1119.74 592.2H1105.09C1103.15 592.2 1101.57 593.777 1101.57 595.716V610.364C1101.57 612.303 1103.15 613.88 1105.09 613.88H1109.89V618.684C1109.89 620.623 1111.47 622.2 1113.41 622.2H1128.06C1129.99 622.2 1131.57 620.623 1131.57 618.684V604.036C1131.57 602.097 1129.99 600.52 1128.06 600.52ZM1129.23 618.684C1129.23 619.33 1128.7 619.856 1128.06 619.856H1113.41C1112.76 619.856 1112.24 619.33 1112.24 618.684V611.536H1105.09C1104.44 611.536 1103.92 611.01 1103.92 610.364V595.716C1103.92 595.069 1104.44 594.544 1105.09 594.544H1119.74C1120.38 594.544 1120.91 595.069 1120.91 595.716V602.864H1128.06C1128.7 602.864 1129.23 603.39 1129.23 604.036V618.684Z" fill="#E4E4E4"/>
<path d="M1112.24 606.907H1109.89V609.251H1112.24V606.907Z" fill="#E4E4E4"/>
<path d="M1118.56 600.52H1116.22V602.864H1118.56V600.52Z" fill="#E4E4E4"/>
<path d="M1123.25 605.149H1120.91V607.493H1123.25V605.149Z" fill="#E4E4E4"/>
</g>
<g opacity="0.7" clip-path="url(#clip38)">
<path d="M1378.29 600.169V614.231H1408.29V600.169H1378.29ZM1405.94 611.887H1380.63V602.512H1382.86V605.325H1385.2V602.512H1387.54V607.669H1389.89V602.512H1392.11V605.325H1394.46V602.512H1396.68V607.669H1399.03V602.512H1401.37V605.325H1403.72V602.512H1405.94V611.887Z" fill="#E4E4E4"/>
</g>
<g opacity="0.7" clip-path="url(#clip39)">
<path d="M386.969 356.741L380.247 350.028C378.877 348.66 376.648 348.66 375.277 350.029L359.031 366.288C358.366 366.953 358 367.836 358 368.776C358 369.717 358.367 370.6 359.032 371.264L365.756 377.974C366.441 378.656 367.339 378.998 368.239 378.998C369.138 378.998 370.039 378.655 370.724 377.971L386.969 361.716C387.634 361.052 388 360.168 388 359.228C388 358.288 387.634 357.405 386.969 356.741ZM369.067 376.314C368.611 376.769 367.868 376.77 367.412 376.314L360.688 369.605C360.466 369.384 360.344 369.089 360.344 368.776C360.344 368.462 360.466 368.168 360.688 367.946L361.572 367.061L369.952 375.428L369.067 376.314ZM371.608 373.771L363.229 365.403L368.403 360.224L376.783 368.592L371.608 373.771ZM385.312 360.058L378.44 366.935L370.06 358.566L376.934 351.686C377.163 351.458 377.463 351.344 377.763 351.344C378.062 351.344 378.362 351.458 378.59 351.686L385.312 358.399C385.534 358.621 385.656 358.915 385.656 359.228C385.656 359.542 385.534 359.836 385.312 360.058Z" fill="#E4E4E4"/>
</g>
</g>
<defs>
<clipPath id="clip0">
<rect width="1440" height="609" fill="white"/>
</clipPath>
<clipPath id="clip1">
<rect width="30" height="30" fill="white" transform="translate(313.714 36)"/>
</clipPath>
<clipPath id="clip2">
<rect width="30" height="30" fill="white" transform="translate(711.143 38)"/>
</clipPath>
<clipPath id="clip3">
<rect width="30" height="30" fill="white" transform="translate(1378.29 22)"/>
</clipPath>
<clipPath id="clip4">
<rect width="30" height="30" fill="white" transform="translate(69 78.8999)"/>
</clipPath>
<clipPath id="clip5">
<rect width="30" height="30" fill="white" transform="translate(504.429 118.9)"/>
</clipPath>
<clipPath id="clip6">
<rect width="30" height="30" fill="white" transform="translate(1151.57 118.9)"/>
</clipPath>
<clipPath id="clip7">
<rect width="30" height="30" fill="white" transform="translate(604.429 142.8)"/>
</clipPath>
<clipPath id="clip8">
<rect width="30" height="30" fill="white" transform="translate(967.857 146.8)"/>
</clipPath>
<clipPath id="clip9">
<rect width="30" height="30" fill="white" transform="translate(1104.57 199.8)"/>
</clipPath>
<clipPath id="clip10">
<rect width="30" height="30" fill="white" transform="translate(79 220.7)"/>
</clipPath>
<clipPath id="clip11">
<rect width="30" height="30" fill="white" transform="translate(483.429 254.7)"/>
</clipPath>
<clipPath id="clip12">
<rect width="30" height="30" fill="white" transform="translate(971.857 231.7)"/>
</clipPath>
<clipPath id="clip13">
<rect width="30" height="30" fill="white" transform="translate(1172.57 257.7)"/>
</clipPath>
<clipPath id="clip14">
<rect width="30" height="30" fill="white" transform="translate(1415.29 234.7)"/>
</clipPath>
<clipPath id="clip15">
<rect width="30" height="30" fill="white" transform="translate(105 297.6)"/>
</clipPath>
<clipPath id="clip16">
<rect width="30" height="30" fill="white" transform="translate(842.857 313.6)"/>
</clipPath>
<clipPath id="clip17">
<rect width="30" height="30" fill="white" transform="translate(5 410.5)"/>
</clipPath>
<clipPath id="clip18">
<rect width="30" height="30" fill="white" transform="translate(238.714 352.5)"/>
</clipPath>
<clipPath id="clip19">
<rect width="30" height="30" fill="white" transform="translate(701.143 374.5)"/>
</clipPath>
<clipPath id="clip20">
<rect width="30" height="30" fill="white" transform="translate(958.857 359.5)"/>
</clipPath>
<clipPath id="clip21">
<rect width="30" height="30" fill="white" transform="translate(1398.29 383.5)"/>
</clipPath>
<clipPath id="clip22">
<rect width="30" height="30" fill="white" transform="translate(154 420.4)"/>
</clipPath>
<clipPath id="clip23">
<rect width="30" height="30" fill="white" transform="translate(347 434)"/>
</clipPath>
<clipPath id="clip24">
<rect width="30" height="30" fill="white" transform="translate(672.143 472.4)"/>
</clipPath>
<clipPath id="clip25">
<rect width="30" height="30" fill="white" transform="translate(878.857 464.4)"/>
</clipPath>
<clipPath id="clip26">
<rect width="30" height="30" fill="white" transform="translate(1141.57 458.4)"/>
</clipPath>
<clipPath id="clip27">
<rect width="30" height="30" fill="white" transform="translate(1387.29 461.4)"/>
</clipPath>
<clipPath id="clip28">
<rect width="30" height="30" fill="white" transform="translate(191 540.3)"/>
</clipPath>
<clipPath id="clip29">
<rect width="30" height="30" fill="white" transform="translate(295.714 509.3)"/>
</clipPath>
<clipPath id="clip30">
<rect width="30" height="30" fill="white" transform="translate(639.143 501.3)"/>
</clipPath>
<clipPath id="clip31">
<rect width="30" height="30" fill="white" transform="translate(997.857 492.3)"/>
</clipPath>
<clipPath id="clip32">
<rect width="30" height="30" fill="white" transform="translate(1175.57 547.3)"/>
</clipPath>
<clipPath id="clip33">
<rect width="30" height="30" fill="white" transform="translate(1276 280)"/>
</clipPath>
<clipPath id="clip34">
<rect width="30" height="30" fill="white" transform="translate(57 594.2)"/>
</clipPath>
<clipPath id="clip35">
<rect width="30" height="30" fill="white" transform="translate(558.429 577.2)"/>
</clipPath>
<clipPath id="clip36">
<rect width="30" height="30" fill="white" transform="translate(830.857 574.2)"/>
</clipPath>
<clipPath id="clip37">
<rect width="30" height="30" fill="white" transform="translate(1101.57 592.2)"/>
</clipPath>
<clipPath id="clip38">
<rect width="30" height="30" fill="white" transform="translate(1378.29 592.2)"/>
</clipPath>
<clipPath id="clip39">
<rect width="30" height="30" fill="white" transform="translate(358 349)"/>
</clipPath>
</defs>
</svg>
