<svg width="10" height="6" viewBox="0 0 10 6" fill="none" xmlns="http://www.w3.org/2000/svg">
<path d="M1.76664 0.741665L4.99997 3.975L8.2333 0.741665C8.31046 0.664513 8.40205 0.603313 8.50285 0.561559C8.60365 0.519805 8.71169 0.498314 8.8208 0.498314C8.92991 0.498314 9.03795 0.519805 9.13876 0.561559C9.23956 0.603313 9.33115 0.664513 9.4083 0.741665C9.48546 0.818816 9.54665 0.910408 9.58841 1.01121C9.63016 1.11202 9.65165 1.22006 9.65165 1.32916C9.65165 1.43827 9.63016 1.54631 9.58841 1.64712C9.54665 1.74792 9.48546 1.83951 9.4083 1.91666L5.5833 5.74167C5.50621 5.81892 5.41463 5.88021 5.31382 5.92203C5.21301 5.96384 5.10494 5.98537 4.9958 5.98537C4.88666 5.98537 4.77859 5.96384 4.67778 5.92203C4.57697 5.88021 4.4854 5.81892 4.4083 5.74167L0.583303 1.91666C0.50605 1.83957 0.44476 1.748 0.402942 1.64718C0.361124 1.54637 0.3396 1.4383 0.3396 1.32916C0.3396 1.22002 0.361124 1.11196 0.402942 1.01114C0.44476 0.910333 0.50605 0.818759 0.583303 0.741665C0.908303 0.424998 1.44164 0.416665 1.76664 0.741665Z" fill="#979797"/>
</svg>
