<svg width="23" height="23" viewBox="0 0 23 23" fill="none" xmlns="http://www.w3.org/2000/svg">
<path d="M8.47168 16.1905V16.5521L8.47168 19.3976C8.47168 19.3977 8.47168 19.3978 8.47168 19.3979C8.47421 20.0968 9.00405 20.6461 9.63703 20.6461C10.2722 20.6461 10.8024 20.0965 10.8024 19.3981V13.4473C10.8024 12.7507 10.276 12.2024 9.64388 12.1976L9.63364 12.1992C9.62491 12.2006 9.6051 12.2037 9.58325 12.2037C9.56217 12.2037 9.54163 12.2012 9.53041 12.1999L9.52807 12.1996C9.51396 12.1979 9.50978 12.1976 9.50744 12.1976H3.6245C2.93814 12.1976 2.394 12.7236 2.3939 13.3583C2.39556 13.9922 2.9389 14.5211 3.6245 14.5211H6.49147H6.85421L6.59741 14.7773L0.491422 20.8689L0.491346 20.8689C0.0362685 21.3223 0.036137 22.0567 0.491437 22.5111C0.945973 22.9629 1.68341 22.9629 2.13795 22.5111L8.47168 16.1905ZM8.47168 16.1905L8.21572 16.4459L2.13813 22.5109L8.47168 16.1905ZM14.5283 6.44785V6.80945L14.7843 6.55402L20.8619 0.489016C21.3165 0.0369336 22.0542 0.0369335 22.5087 0.489016C22.9639 0.943387 22.9637 1.67767 22.5087 2.13096L22.5086 2.13104L16.4026 8.22262L16.1458 8.47881H16.5085H19.3755C20.0612 8.47881 20.6045 9.00784 20.6061 9.64181C20.6059 10.2764 20.0618 10.8023 19.3755 10.8023L13.4926 10.8023C13.4902 10.8023 13.486 10.802 13.4719 10.8003L13.4696 10.8C13.4584 10.7987 13.4378 10.7962 13.4167 10.7962C13.3954 10.7962 13.376 10.7992 13.367 10.8006L13.3664 10.8007L13.3561 10.8023C12.724 10.7975 12.1976 10.2492 12.1976 9.55258L12.1976 3.60176C12.1976 2.90345 12.7278 2.3538 13.363 2.3538C13.996 2.3538 14.5258 2.90307 14.5283 3.60201C14.5283 3.6021 14.5283 3.60219 14.5283 3.60228L14.5283 6.44785Z" fill="#0C3E70" stroke="#FAFAFA" stroke-width="0.3"/>
</svg>
