<svg width="23" height="23" viewBox="0 0 23 23" fill="none" xmlns="http://www.w3.org/2000/svg">
<path d="M11.5 0.287506C5.31722 0.287506 0.287476 5.31725 0.287476 11.5C0.287476 17.6828 5.31722 22.7125 11.5 22.7125C17.6827 22.7125 22.7125 17.6828 22.7125 11.5C22.7125 5.31725 17.6827 0.287506 11.5 0.287506ZM11.5 20.8438C6.34783 20.8438 2.15623 16.6521 2.15623 11.5C2.15623 6.34786 6.34783 2.15626 11.5 2.15626C16.6521 2.15626 20.8437 6.34786 20.8437 11.5C20.8437 16.6521 16.6521 20.8438 11.5 20.8438Z" fill="#0C3E70"/>
<path d="M14.9637 8.03627C14.5993 7.6714 14.0069 7.6714 13.6425 8.03627L11.5 10.1788L9.35743 8.03627C8.99303 7.6714 8.40063 7.6714 8.03623 8.03627C7.67135 8.40115 7.67135 8.99261 8.03623 9.35748L10.1788 11.5L8.03623 13.6425C7.67135 14.0074 7.67135 14.5989 8.03623 14.9637C8.21843 15.1464 8.45763 15.2375 8.69683 15.2375C8.93603 15.2375 9.17523 15.1464 9.35743 14.9637L11.5 12.8212L13.6425 14.9637C13.8247 15.1464 14.0639 15.2375 14.3031 15.2375C14.5423 15.2375 14.7815 15.1464 14.9637 14.9637C15.3286 14.5989 15.3286 14.0074 14.9637 13.6425L12.8212 11.5L14.9637 9.35748C15.3286 8.99261 15.3286 8.40115 14.9637 8.03627Z" fill="#0C3E70"/>
</svg>
