<svg width="96" height="96" viewBox="0 0 96 96" fill="none" xmlns="http://www.w3.org/2000/svg">
<path d="M96 48C96 74.5097 74.5097 96 48 96C21.4903 96 0 74.5097 0 48C0 21.4903 21.4903 0 48 0C74.5097 0 96 21.4903 96 48ZM12.8742 48C12.8742 67.3995 28.6005 83.1258 48 83.1258C67.3995 83.1258 83.1258 67.3995 83.1258 48C83.1258 28.6005 67.3995 12.8742 48 12.8742C28.6005 12.8742 12.8742 28.6005 12.8742 48Z" fill="#F2F2F2"/>
<path d="M48 6.61172C48 4.61702 46.3804 2.98492 44.3921 3.14483C35.9712 3.82205 27.884 6.8595 21.076 11.9431C13.3004 17.7492 7.61 25.9134 4.85355 35.2178C2.09709 44.5223 2.42228 54.4686 5.7806 63.5731C9.13892 72.6777 15.3504 80.4527 23.4887 85.7385C31.6269 91.0243 41.2559 93.5378 50.9393 92.9039C60.6228 92.27 69.8419 88.5229 77.2217 82.2212C84.6014 75.9196 89.7464 67.4013 91.8892 57.9366C93.7654 49.6497 93.2521 41.0262 90.4467 33.0575C89.7844 31.176 87.6347 30.3599 85.8124 31.171C83.99 31.9821 83.1881 34.113 83.8215 36.0045C86.0102 42.5402 86.3761 49.5746 84.8441 56.3416C83.0452 64.2869 78.7261 71.438 72.531 76.728C66.3358 82.0181 58.5966 85.1638 50.4675 85.6959C42.3384 86.228 34.2552 84.118 27.4233 79.6807C20.5914 75.2433 15.3769 68.7164 12.5577 61.0733C9.73845 53.4302 9.46547 45.0806 11.7795 37.2696C14.0934 29.4587 18.8704 22.6051 25.3979 17.731C30.9572 13.5798 37.5327 11.0539 44.3936 10.3959C46.3792 10.2055 48 8.60642 48 6.61172Z" fill="url(#paint0_linear)" class="loader_spinner_inner_circle"/>

<defs>
<linearGradient id="paint0_linear" x1="3" y1="48" x2="93" y2="48" gradientUnits="userSpaceOnUse">
<stop stop-color="#1CD995"/>
<stop offset="1" stop-color="#42E666"/>
</linearGradient>
</defs>
</svg>
