<svg width="26" height="23" viewBox="0 0 26 23" fill="none" xmlns="http://www.w3.org/2000/svg">
<path d="M8.46094 0H17.5L26.0008 14.95H16.9414L8.46094 0Z" fill="url(#paint0_linear)"/>
<path d="M26.0004 14.9502L21.4707 22.938H4.50977L9.04961 14.9502H26.0004Z" fill="url(#paint1_linear)"/>
<path d="M4.50938 22.9378L0 14.95L8.46016 0L13 8.00856L4.50938 22.9378Z" fill="url(#paint2_linear)"/>
<path opacity="0.1" d="M4.50977 22.938L12.9496 14.9502H9.04961L4.50977 22.938Z" fill="black"/>
<path opacity="0.1" d="M26.0008 14.95H16.9516L14.9609 11.4482L26.0008 14.95Z" fill="black"/>
<path opacity="0.1" d="M8.46094 0L11.0711 11.3964L13.0008 8.00856L8.46094 0Z" fill="black"/>
<defs>
<linearGradient id="paint0_linear" x1="8.46094" y1="0" x2="23.2222" y2="17.3183" gradientUnits="userSpaceOnUse">
<stop stop-color="#F6C338"/>
<stop offset="0.52278" stop-color="#FFD351"/>
<stop offset="1" stop-color="#F6C338"/>
</linearGradient>
<linearGradient id="paint1_linear" x1="26.0004" y1="14.9502" x2="20.7832" y2="28.9867" gradientUnits="userSpaceOnUse">
<stop stop-color="#286EE6"/>
<stop offset="0.52105" stop-color="#4286FB"/>
<stop offset="1" stop-color="#286EE6"/>
</linearGradient>
<linearGradient id="paint2_linear" x1="8.48757" y1="2.36083e-07" x2="-1.67172" y2="19.6551" gradientUnits="userSpaceOnUse">
<stop stop-color="#069B5A"/>
<stop offset="0.53103" stop-color="#11AA62"/>
<stop offset="1" stop-color="#069B5A"/>
</linearGradient>
</defs>
</svg>
