<svg width="50" height="50" viewBox="0 0 50 50" fill="none" xmlns="http://www.w3.org/2000/svg">
<path d="M42.6777 7.32227C37.9558 2.60049 31.6777 0 25 0C18.3223 0 12.0442 2.60049 7.32227 7.32227C2.60049 12.0442 0 18.3223 0 25C0 31.6777 2.60049 37.9558 7.32227 42.6777C12.0442 47.3995 18.3223 50 25 50C31.6777 50 37.9558 47.3995 42.6777 42.6777C47.3995 37.9558 50 31.6777 50 25C50 18.3223 47.3995 12.0442 42.6777 7.32227ZM25 46.0938C13.3688 46.0938 3.90625 36.6312 3.90625 25C3.90625 13.3688 13.3688 3.90625 25 3.90625C36.6312 3.90625 46.0938 13.3688 46.0938 25C46.0938 36.6312 36.6312 46.0938 25 46.0938ZM37.4572 21.0613L31.0249 17.2388C29.6109 16.3985 27.9132 16.3826 26.4832 17.1962C25.1958 17.9287 24.3818 19.1937 24.2425 20.6365L18.5249 17.2388C17.1109 16.3985 15.4131 16.3826 13.9832 17.1962C12.5652 18.003 11.7188 19.4549 11.7188 21.0798V28.7248C11.7188 30.3498 12.5652 31.8016 13.9832 32.6084C14.6855 33.008 15.4523 33.2075 16.2187 33.2075C17.0123 33.2075 17.8056 32.9934 18.5249 32.5658L24.2425 29.1681C24.3818 30.6109 25.1958 31.8759 26.4832 32.6084C27.1855 33.008 27.9523 33.2075 28.7187 33.2075C29.5123 33.2075 30.3056 32.9934 31.0249 32.5658L37.4572 28.7433C38.8293 27.9279 39.6484 26.4921 39.6484 24.9023C39.6484 23.3126 38.8293 21.8768 37.4572 21.0613ZM22.9616 25.3853L16.5293 29.2078C16.2637 29.3655 16.0304 29.279 15.9149 29.2134C15.7826 29.1381 15.6249 28.9923 15.6249 28.725V21.08C15.6249 20.8127 15.7826 20.6669 15.9149 20.5916C16.0304 20.5259 16.2637 20.4393 16.5293 20.5972L22.9616 24.4197C23.1935 24.5575 23.2422 24.7584 23.2422 24.9026C23.2422 25.0469 23.1935 25.2475 22.9616 25.3853ZM35.4616 25.3853L29.0293 29.2078C28.7637 29.3655 28.5304 29.279 28.4149 29.2134C28.2826 29.1381 28.1249 28.9923 28.1249 28.725V21.08C28.1249 20.8127 28.2826 20.6669 28.4149 20.5916C28.5303 20.5259 28.7637 20.4393 29.0293 20.5972L35.4616 24.4197C35.6935 24.5575 35.7422 24.7584 35.7422 24.9026C35.7422 25.0469 35.6935 25.2475 35.4616 25.3853Z" fill="url(#paint0_linear)"/>
<defs>
<linearGradient id="paint0_linear" x1="2.69231" y1="50" x2="50" y2="4.23077" gradientUnits="userSpaceOnUse">
<stop stop-color="#FF9933"/>
<stop offset="1" stop-color="#FFC633"/>
</linearGradient>
</defs>
</svg>
