<svg width="50" height="50" viewBox="0 0 50 50" fill="none" xmlns="http://www.w3.org/2000/svg">
<path d="M39.0625 18.3594H35.5433V10.3291C35.5433 4.63359 30.8119 0 24.9964 0C19.1809 0 14.4495 4.63359 14.4495 10.3291V18.3594H10.9375C7.70664 18.3594 5.07812 20.9879 5.07812 24.2188V44.1406C5.07812 47.3715 7.70664 50 10.9375 50H39.0625C42.2934 50 44.9219 47.3715 44.9219 44.1406V24.2188C44.9219 20.9879 42.2934 18.3594 39.0625 18.3594ZM18.3558 10.3291C18.3558 6.7875 21.3348 3.90625 24.9964 3.90625C28.658 3.90625 31.637 6.7875 31.637 10.3291V18.3594H18.3558V10.3291ZM41.0156 44.1406C41.0156 45.2176 40.1395 46.0938 39.0625 46.0938H10.9375C9.86055 46.0938 8.98438 45.2176 8.98438 44.1406V24.2188C8.98438 23.1418 9.86055 22.2656 10.9375 22.2656H39.0625C40.1395 22.2656 41.0156 23.1418 41.0156 24.2188V44.1406Z" fill="url(#paint0_linear)"/>
<path d="M25 27.9297C23.0044 27.9297 21.3867 29.5474 21.3867 31.543C21.3867 32.8172 22.0469 33.9365 23.0433 34.5799V38.8672C23.0433 39.9458 23.9177 40.8203 24.9964 40.8203C26.075 40.8203 26.9495 39.9458 26.9495 38.8672V34.5845C27.9499 33.9419 28.6133 32.8203 28.6133 31.543C28.6133 29.5474 26.9956 27.9297 25 27.9297Z" fill="url(#paint1_linear)"/>
<defs>
<linearGradient id="paint0_linear" x1="7.22356" y1="50" x2="52.9997" y2="14.7084" gradientUnits="userSpaceOnUse">
<stop stop-color="#FF9933"/>
<stop offset="1" stop-color="#FFC633"/>
</linearGradient>
<linearGradient id="paint1_linear" x1="21.7758" y1="40.8203" x2="32.0043" y2="35.2726" gradientUnits="userSpaceOnUse">
<stop stop-color="#FF9933"/>
<stop offset="1" stop-color="#FFC633"/>
</linearGradient>
</defs>
</svg>
