<svg width="10" height="6" viewBox="0 0 10 6" fill="none" xmlns="http://www.w3.org/2000/svg">
<path d="M1.76688 0.741398L5.00021 3.97473L8.23355 0.741398C8.3107 0.664246 8.40229 0.603046 8.50309 0.561292C8.6039 0.519538 8.71194 0.498047 8.82105 0.498047C8.93016 0.498047 9.0382 0.519538 9.139 0.561292C9.2398 0.603046 9.3314 0.664246 9.40855 0.741398C9.4857 0.818549 9.5469 0.910141 9.58865 1.01094C9.63041 1.11175 9.6519 1.21979 9.6519 1.3289C9.6519 1.43801 9.63041 1.54605 9.58865 1.64685C9.5469 1.74765 9.4857 1.83925 9.40855 1.9164L5.58355 5.7414C5.50645 5.81865 5.41488 5.87994 5.31407 5.92176C5.21326 5.96358 5.10519 5.9851 4.99605 5.9851C4.88691 5.9851 4.77884 5.96358 4.67803 5.92176C4.57722 5.87994 4.48564 5.81865 4.40855 5.7414L0.583547 1.9164C0.506294 1.8393 0.445004 1.74773 0.403186 1.64692C0.361369 1.54611 0.339844 1.43804 0.339844 1.3289C0.339844 1.21976 0.361369 1.11169 0.403186 1.01088C0.445004 0.910066 0.506294 0.818492 0.583547 0.741398C0.908547 0.424731 1.44188 0.416398 1.76688 0.741398Z" fill="#0C3E70"/>
</svg>
