<svg width="10" height="6" viewBox="0 0 10 6" fill="none" xmlns="http://www.w3.org/2000/svg">
<path d="M1.76664 0.741642L4.99997 3.97498L8.2333 0.741642C8.31046 0.66449 8.40205 0.60329 8.50285 0.561536C8.60365 0.519782 8.71169 0.498291 8.8208 0.498291C8.92991 0.498291 9.03795 0.519782 9.13876 0.561536C9.23956 0.60329 9.33115 0.66449 9.4083 0.741642C9.48546 0.818793 9.54665 0.910386 9.58841 1.01119C9.63016 1.11199 9.65165 1.22003 9.65165 1.32914C9.65165 1.43825 9.63016 1.54629 9.58841 1.64709C9.54665 1.7479 9.48546 1.83949 9.4083 1.91664L5.5833 5.74164C5.50621 5.8189 5.41463 5.88019 5.31382 5.922C5.21301 5.96382 5.10494 5.98535 4.9958 5.98535C4.88666 5.98535 4.77859 5.96382 4.67778 5.922C4.57697 5.88019 4.4854 5.8189 4.4083 5.74164L0.583303 1.91664C0.50605 1.83955 0.44476 1.74797 0.402942 1.64716C0.361124 1.54635 0.3396 1.43828 0.3396 1.32914C0.3396 1.22 0.361124 1.11193 0.402942 1.01112C0.44476 0.91031 0.50605 0.818736 0.583303 0.741642C0.908303 0.424975 1.44164 0.416642 1.76664 0.741642Z" fill="white" fill-opacity="0.7"/>
</svg>
