<svg width="16" height="16" viewBox="0 0 16 16" fill="none" xmlns="http://www.w3.org/2000/svg">
<g clip-path="url(#clip0)">
<path d="M15.9375 8.24689C16.0208 8.09332 16.0208 7.90757 15.9375 7.754C14.409 4.93981 11.4276 3.0293 8.00001 3.0293C4.57238 3.0293 1.59102 4.93983 0.062549 7.754C-0.0208497 7.90757 -0.0208497 8.09332 0.062549 8.24689C1.59105 11.0611 4.57233 12.9716 7.99999 12.9716C11.4276 12.9716 14.409 11.0611 15.9375 8.24689ZM7.99999 11.8137C5.894 11.8137 4.18678 10.1064 4.18678 8.00046C4.18678 5.8945 5.894 4.18723 7.99999 4.18723C10.106 4.18723 11.8132 5.89447 11.8132 8.00046C11.8132 10.1064 10.106 11.8137 7.99999 11.8137Z" fill="#0C3E70"/>
<path d="M7.99992 6.05664C7.8395 6.05664 7.68371 6.07622 7.53462 6.11285C7.68732 6.28958 7.77992 6.51973 7.77992 6.77162C7.77992 7.32849 7.3285 7.77994 6.77162 7.77994C6.51972 7.77994 6.28958 7.68737 6.11285 7.53463C6.07622 7.68373 6.05664 7.83952 6.05664 7.99994C6.05664 9.0732 6.92667 9.94322 7.99989 9.94322C9.07311 9.94322 9.94315 9.07318 9.94315 7.99994C9.94315 6.92671 9.07317 6.05664 7.99992 6.05664Z" fill="#0C3E70"/>
</g>
<defs>
<clipPath id="clip0">
<rect width="16" height="16" fill="white"/>
</clipPath>
</defs>
</svg>
