<svg width="16" height="16" viewBox="0 0 16 16" fill="none" xmlns="http://www.w3.org/2000/svg">
<path d="M2.52632 2.27632H2.27632V2.52632V4.54653C2.27632 5.10606 1.82269 5.55968 1.26316 5.55968C0.703629 5.55968 0.25 5.10606 0.25 4.54653V1.26316C0.25 0.703629 0.703629 0.25 1.26316 0.25H14.7368C15.2964 0.25 15.75 0.703629 15.75 1.26316V4.54653C15.75 5.10606 15.2964 5.55968 14.7368 5.55968C14.1773 5.55968 13.7237 5.10606 13.7237 4.54653V2.52632V2.27632H13.4737H9.26316H9.01316V2.52632V13.4737V13.7237H9.26316H11.2138C11.7733 13.7237 12.227 14.1773 12.227 14.7368C12.227 15.2964 11.7733 15.75 11.2138 15.75H4.78619C4.22666 15.75 3.77303 15.2964 3.77303 14.7368C3.77303 14.1773 4.22666 13.7237 4.78619 13.7237H6.73684H6.98684V13.4737V2.52632V2.27632H6.73684H2.52632Z" fill="#0C3E70" stroke="white" stroke-width="0.5"/>
</svg>
