<svg width="30" height="30" viewBox="0 0 30 30" fill="none" xmlns="http://www.w3.org/2000/svg">
<path d="M15 0C6.7159 0 0 6.7159 0 15C0 23.2841 6.7159 30 15 30C23.2841 30 30 23.2841 30 15C30 6.7159 23.2841 0 15 0ZM15 27.5C8.0966 27.5 2.50002 21.9034 2.50002 15C2.50002 8.0966 8.0966 2.50002 15 2.50002C21.9034 2.50002 27.5 8.0966 27.5 15C27.5 21.9034 21.9034 27.5 15 27.5Z" fill="white"/>
<path d="M19.1161 16.6161L16.25 19.4822V7.49998C16.25 6.80963 15.6903 6.25 15 6.25C14.3096 6.25 13.75 6.80963 13.75 7.49998V19.4822L10.8839 16.6161C10.3957 16.128 9.60425 16.128 9.11611 16.6161C8.62796 17.1043 8.62796 17.8957 9.11611 18.3839L14.1161 23.3839C14.1163 23.3841 14.1166 23.3842 14.1167 23.3845C14.1457 23.4133 14.176 23.4407 14.2077 23.4667C14.2221 23.4786 14.2374 23.4889 14.2523 23.5C14.27 23.5133 14.2874 23.5271 14.3059 23.5394C14.3237 23.5513 14.3421 23.5616 14.3604 23.5725C14.3771 23.5826 14.3935 23.593 14.4108 23.6023C14.4293 23.6123 14.4484 23.6206 14.4674 23.6296C14.4855 23.6381 14.5032 23.6471 14.5216 23.6548C14.54 23.6624 14.5588 23.6686 14.5775 23.6753C14.5973 23.6824 14.6168 23.69 14.6371 23.6961C14.6557 23.7017 14.6747 23.7059 14.6936 23.7106C14.7143 23.7159 14.7347 23.7217 14.7558 23.7258C14.7775 23.7302 14.7996 23.7327 14.8215 23.7358C14.8399 23.7385 14.8579 23.742 14.8766 23.7438C14.9172 23.7478 14.958 23.75 14.9987 23.75C14.9991 23.75 14.9996 23.75 15 23.75C15.0004 23.75 15.0009 23.75 15.0013 23.75C15.042 23.7499 15.0827 23.7478 15.1233 23.7438C15.1419 23.742 15.16 23.7385 15.1784 23.7358C15.2004 23.7327 15.2224 23.7302 15.2442 23.7258C15.2652 23.7217 15.2857 23.7159 15.3064 23.7106C15.3252 23.7059 15.3442 23.7017 15.3628 23.6961C15.3831 23.69 15.4027 23.6824 15.4225 23.6753C15.4411 23.6686 15.4599 23.6624 15.4783 23.6548C15.4968 23.6471 15.5145 23.6382 15.5325 23.6296C15.5515 23.6206 15.5706 23.6123 15.5892 23.6023C15.6064 23.593 15.6228 23.5826 15.6396 23.5725C15.6578 23.5616 15.6763 23.5513 15.6941 23.5394C15.7125 23.5271 15.7299 23.5133 15.7477 23.5C15.7626 23.4889 15.7778 23.4786 15.7923 23.4667C15.8239 23.4407 15.8543 23.4133 15.8832 23.3845C15.8834 23.3842 15.8837 23.3841 15.8839 23.3839L20.8838 18.3839C21.372 17.8957 21.372 17.1043 20.8838 16.6161C20.3957 16.128 19.6043 16.128 19.1161 16.6161Z" fill="white"/>
</svg>
