<svg width="180" height="180" viewBox="0 0 180 180" fill="none" xmlns="http://www.w3.org/2000/svg">
<circle cx="1.8" cy="1.8" r="1.8" fill="white" fill-opacity="0.07"/>
<circle cx="14.4" cy="1.8" r="1.8" fill="white" fill-opacity="0.07"/>
<circle cx="27" cy="1.8" r="1.8" fill="white" fill-opacity="0.07"/>
<circle cx="39.6" cy="1.8" r="1.8" fill="white" fill-opacity="0.07"/>
<circle cx="52.2" cy="1.8" r="1.8" fill="white" fill-opacity="0.07"/>
<circle cx="64.8" cy="1.8" r="1.8" fill="white" fill-opacity="0.07"/>
<circle cx="77.4" cy="1.8" r="1.8" fill="white" fill-opacity="0.07"/>
<circle cx="90" cy="1.8" r="1.8" fill="white" fill-opacity="0.07"/>
<circle cx="102.6" cy="1.8" r="1.8" fill="white" fill-opacity="0.07"/>
<circle cx="115.2" cy="1.8" r="1.8" fill="white" fill-opacity="0.07"/>
<circle cx="127.8" cy="1.8" r="1.8" fill="white" fill-opacity="0.07"/>
<circle cx="140.4" cy="1.8" r="1.8" fill="white" fill-opacity="0.07"/>
<circle cx="153" cy="1.8" r="1.8" fill="white" fill-opacity="0.07"/>
<circle cx="165.6" cy="1.8" r="1.8" fill="white" fill-opacity="0.07"/>
<circle cx="178.2" cy="1.8" r="1.8" fill="white" fill-opacity="0.07"/>
<circle cx="1.8" cy="14.4" r="1.8" fill="white" fill-opacity="0.07"/>
<circle cx="14.4" cy="14.4" r="1.8" fill="white" fill-opacity="0.07"/>
<circle cx="27" cy="14.4" r="1.8" fill="white" fill-opacity="0.07"/>
<circle cx="39.6" cy="14.4" r="1.8" fill="white" fill-opacity="0.07"/>
<circle cx="52.2" cy="14.4" r="1.8" fill="white" fill-opacity="0.07"/>
<circle cx="64.8" cy="14.4" r="1.8" fill="white" fill-opacity="0.07"/>
<circle cx="77.4" cy="14.4" r="1.8" fill="white" fill-opacity="0.07"/>
<circle cx="90" cy="14.4" r="1.8" fill="white" fill-opacity="0.07"/>
<circle cx="102.6" cy="14.4" r="1.8" fill="white" fill-opacity="0.07"/>
<circle cx="115.2" cy="14.4" r="1.8" fill="white" fill-opacity="0.07"/>
<circle cx="127.8" cy="14.4" r="1.8" fill="white" fill-opacity="0.07"/>
<circle cx="140.4" cy="14.4" r="1.8" fill="white" fill-opacity="0.07"/>
<circle cx="153" cy="14.4" r="1.8" fill="white" fill-opacity="0.07"/>
<circle cx="165.6" cy="14.4" r="1.8" fill="white" fill-opacity="0.07"/>
<circle cx="178.2" cy="14.4" r="1.8" fill="white" fill-opacity="0.07"/>
<circle cx="1.8" cy="27" r="1.8" fill="white" fill-opacity="0.07"/>
<circle cx="14.4" cy="27" r="1.8" fill="white" fill-opacity="0.07"/>
<circle cx="27" cy="27" r="1.8" fill="white" fill-opacity="0.07"/>
<circle cx="39.6" cy="27" r="1.8" fill="white" fill-opacity="0.07"/>
<circle cx="52.2" cy="27" r="1.8" fill="white" fill-opacity="0.07"/>
<circle cx="64.8" cy="27" r="1.8" fill="white" fill-opacity="0.07"/>
<circle cx="77.4" cy="27" r="1.8" fill="white" fill-opacity="0.07"/>
<circle cx="90" cy="27" r="1.8" fill="white" fill-opacity="0.07"/>
<circle cx="102.6" cy="27" r="1.8" fill="white" fill-opacity="0.07"/>
<circle cx="115.2" cy="27" r="1.8" fill="white" fill-opacity="0.07"/>
<circle cx="127.8" cy="27" r="1.8" fill="white" fill-opacity="0.07"/>
<circle cx="140.4" cy="27" r="1.8" fill="white" fill-opacity="0.07"/>
<circle cx="153" cy="27" r="1.8" fill="white" fill-opacity="0.07"/>
<circle cx="165.6" cy="27" r="1.8" fill="white" fill-opacity="0.07"/>
<circle cx="178.2" cy="27" r="1.8" fill="white" fill-opacity="0.07"/>
<circle cx="1.8" cy="39.6" r="1.8" fill="white" fill-opacity="0.07"/>
<circle cx="14.4" cy="39.6" r="1.8" fill="white" fill-opacity="0.07"/>
<circle cx="27" cy="39.6" r="1.8" fill="white" fill-opacity="0.07"/>
<circle cx="39.6" cy="39.6" r="1.8" fill="white" fill-opacity="0.07"/>
<circle cx="52.2" cy="39.6" r="1.8" fill="white" fill-opacity="0.07"/>
<circle cx="64.8" cy="39.6" r="1.8" fill="white" fill-opacity="0.07"/>
<circle cx="77.4" cy="39.6" r="1.8" fill="white" fill-opacity="0.07"/>
<circle cx="90" cy="39.6" r="1.8" fill="white" fill-opacity="0.07"/>
<circle cx="102.6" cy="39.6" r="1.8" fill="white" fill-opacity="0.07"/>
<circle cx="115.2" cy="39.6" r="1.8" fill="white" fill-opacity="0.07"/>
<circle cx="127.8" cy="39.6" r="1.8" fill="white" fill-opacity="0.07"/>
<circle cx="140.4" cy="39.6" r="1.8" fill="white" fill-opacity="0.07"/>
<circle cx="153" cy="39.6" r="1.8" fill="white" fill-opacity="0.07"/>
<circle cx="165.6" cy="39.6" r="1.8" fill="white" fill-opacity="0.07"/>
<circle cx="178.2" cy="39.6" r="1.8" fill="white" fill-opacity="0.07"/>
<circle cx="1.8" cy="52.2" r="1.8" fill="white" fill-opacity="0.07"/>
<circle cx="14.4" cy="52.2" r="1.8" fill="white" fill-opacity="0.07"/>
<circle cx="27" cy="52.2" r="1.8" fill="white" fill-opacity="0.07"/>
<circle cx="39.6" cy="52.2" r="1.8" fill="white" fill-opacity="0.07"/>
<circle cx="52.2" cy="52.2" r="1.8" fill="white" fill-opacity="0.07"/>
<circle cx="64.8" cy="52.2" r="1.8" fill="white" fill-opacity="0.07"/>
<circle cx="77.4" cy="52.2" r="1.8" fill="white" fill-opacity="0.07"/>
<circle cx="90" cy="52.2" r="1.8" fill="white" fill-opacity="0.07"/>
<circle cx="102.6" cy="52.2" r="1.8" fill="white" fill-opacity="0.07"/>
<circle cx="115.2" cy="52.2" r="1.8" fill="white" fill-opacity="0.07"/>
<circle cx="127.8" cy="52.2" r="1.8" fill="white" fill-opacity="0.07"/>
<circle cx="140.4" cy="52.2" r="1.8" fill="white" fill-opacity="0.07"/>
<circle cx="153" cy="52.2" r="1.8" fill="white" fill-opacity="0.07"/>
<circle cx="165.6" cy="52.2" r="1.8" fill="white" fill-opacity="0.07"/>
<circle cx="178.2" cy="52.2" r="1.8" fill="white" fill-opacity="0.07"/>
<circle cx="1.8" cy="64.8" r="1.8" fill="white" fill-opacity="0.07"/>
<circle cx="14.4" cy="64.8" r="1.8" fill="white" fill-opacity="0.07"/>
<circle cx="27" cy="64.8" r="1.8" fill="white" fill-opacity="0.07"/>
<circle cx="39.6" cy="64.8" r="1.8" fill="white" fill-opacity="0.07"/>
<circle cx="52.2" cy="64.8" r="1.8" fill="white" fill-opacity="0.07"/>
<circle cx="64.8" cy="64.8" r="1.8" fill="white" fill-opacity="0.07"/>
<circle cx="77.4" cy="64.8" r="1.8" fill="white" fill-opacity="0.07"/>
<circle cx="90" cy="64.8" r="1.8" fill="white" fill-opacity="0.07"/>
<circle cx="102.6" cy="64.8" r="1.8" fill="white" fill-opacity="0.07"/>
<circle cx="115.2" cy="64.8" r="1.8" fill="white" fill-opacity="0.07"/>
<circle cx="127.8" cy="64.8" r="1.8" fill="white" fill-opacity="0.07"/>
<circle cx="140.4" cy="64.8" r="1.8" fill="white" fill-opacity="0.07"/>
<circle cx="153" cy="64.8" r="1.8" fill="white" fill-opacity="0.07"/>
<circle cx="165.6" cy="64.8" r="1.8" fill="white" fill-opacity="0.07"/>
<circle cx="178.2" cy="64.8" r="1.8" fill="white" fill-opacity="0.07"/>
<circle cx="1.8" cy="77.4" r="1.8" fill="white" fill-opacity="0.07"/>
<circle cx="14.4" cy="77.4" r="1.8" fill="white" fill-opacity="0.07"/>
<circle cx="27" cy="77.4" r="1.8" fill="white" fill-opacity="0.07"/>
<circle cx="39.6" cy="77.4" r="1.8" fill="white" fill-opacity="0.07"/>
<circle cx="52.2" cy="77.4" r="1.8" fill="white" fill-opacity="0.07"/>
<circle cx="64.8" cy="77.4" r="1.8" fill="white" fill-opacity="0.07"/>
<circle cx="77.4" cy="77.4" r="1.8" fill="white" fill-opacity="0.07"/>
<circle cx="90" cy="77.4" r="1.8" fill="white" fill-opacity="0.07"/>
<circle cx="102.6" cy="77.4" r="1.8" fill="white" fill-opacity="0.07"/>
<circle cx="115.2" cy="77.4" r="1.8" fill="white" fill-opacity="0.07"/>
<circle cx="127.8" cy="77.4" r="1.8" fill="white" fill-opacity="0.07"/>
<circle cx="140.4" cy="77.4" r="1.8" fill="white" fill-opacity="0.07"/>
<circle cx="153" cy="77.4" r="1.8" fill="white" fill-opacity="0.07"/>
<circle cx="165.6" cy="77.4" r="1.8" fill="white" fill-opacity="0.07"/>
<circle cx="178.2" cy="77.4" r="1.8" fill="white" fill-opacity="0.07"/>
<circle cx="1.8" cy="90" r="1.8" fill="white" fill-opacity="0.07"/>
<circle cx="14.4" cy="90" r="1.8" fill="white" fill-opacity="0.07"/>
<circle cx="27" cy="90" r="1.8" fill="white" fill-opacity="0.07"/>
<circle cx="39.6" cy="90" r="1.8" fill="white" fill-opacity="0.07"/>
<circle cx="52.2" cy="90" r="1.8" fill="white" fill-opacity="0.07"/>
<circle cx="64.8" cy="90" r="1.8" fill="white" fill-opacity="0.07"/>
<circle cx="77.4" cy="90" r="1.8" fill="white" fill-opacity="0.07"/>
<circle cx="90" cy="90" r="1.8" fill="white" fill-opacity="0.07"/>
<circle cx="102.6" cy="90" r="1.8" fill="white" fill-opacity="0.07"/>
<circle cx="115.2" cy="90" r="1.8" fill="white" fill-opacity="0.07"/>
<circle cx="127.8" cy="90" r="1.8" fill="white" fill-opacity="0.07"/>
<circle cx="140.4" cy="90" r="1.8" fill="white" fill-opacity="0.07"/>
<circle cx="153" cy="90" r="1.8" fill="white" fill-opacity="0.07"/>
<circle cx="165.6" cy="90" r="1.8" fill="white" fill-opacity="0.07"/>
<circle cx="178.2" cy="90" r="1.8" fill="white" fill-opacity="0.07"/>
<circle cx="1.8" cy="102.6" r="1.8" fill="white" fill-opacity="0.07"/>
<circle cx="14.4" cy="102.6" r="1.8" fill="white" fill-opacity="0.07"/>
<circle cx="27" cy="102.6" r="1.8" fill="white" fill-opacity="0.07"/>
<circle cx="39.6" cy="102.6" r="1.8" fill="white" fill-opacity="0.07"/>
<circle cx="52.2" cy="102.6" r="1.8" fill="white" fill-opacity="0.07"/>
<circle cx="64.8" cy="102.6" r="1.8" fill="white" fill-opacity="0.07"/>
<circle cx="77.4" cy="102.6" r="1.8" fill="white" fill-opacity="0.07"/>
<circle cx="90" cy="102.6" r="1.8" fill="white" fill-opacity="0.07"/>
<circle cx="102.6" cy="102.6" r="1.8" fill="white" fill-opacity="0.07"/>
<circle cx="115.2" cy="102.6" r="1.8" fill="white" fill-opacity="0.07"/>
<circle cx="127.8" cy="102.6" r="1.8" fill="white" fill-opacity="0.07"/>
<circle cx="140.4" cy="102.6" r="1.8" fill="white" fill-opacity="0.07"/>
<circle cx="153" cy="102.6" r="1.8" fill="white" fill-opacity="0.07"/>
<circle cx="165.6" cy="102.6" r="1.8" fill="white" fill-opacity="0.07"/>
<circle cx="178.2" cy="102.6" r="1.8" fill="white" fill-opacity="0.07"/>
<circle cx="1.8" cy="115.2" r="1.8" fill="white" fill-opacity="0.07"/>
<circle cx="14.4" cy="115.2" r="1.8" fill="white" fill-opacity="0.07"/>
<circle cx="27" cy="115.2" r="1.8" fill="white" fill-opacity="0.07"/>
<circle cx="39.6" cy="115.2" r="1.8" fill="white" fill-opacity="0.07"/>
<circle cx="52.2" cy="115.2" r="1.8" fill="white" fill-opacity="0.07"/>
<circle cx="64.8" cy="115.2" r="1.8" fill="white" fill-opacity="0.07"/>
<circle cx="77.4" cy="115.2" r="1.8" fill="white" fill-opacity="0.07"/>
<circle cx="90" cy="115.2" r="1.8" fill="white" fill-opacity="0.07"/>
<circle cx="102.6" cy="115.2" r="1.8" fill="white" fill-opacity="0.07"/>
<circle cx="115.2" cy="115.2" r="1.8" fill="white" fill-opacity="0.07"/>
<circle cx="127.8" cy="115.2" r="1.8" fill="white" fill-opacity="0.07"/>
<circle cx="140.4" cy="115.2" r="1.8" fill="white" fill-opacity="0.07"/>
<circle cx="153" cy="115.2" r="1.8" fill="white" fill-opacity="0.07"/>
<circle cx="165.6" cy="115.2" r="1.8" fill="white" fill-opacity="0.07"/>
<circle cx="178.2" cy="115.2" r="1.8" fill="white" fill-opacity="0.07"/>
<circle cx="1.8" cy="127.8" r="1.8" fill="white" fill-opacity="0.07"/>
<circle cx="14.4" cy="127.8" r="1.8" fill="white" fill-opacity="0.07"/>
<circle cx="27" cy="127.8" r="1.8" fill="white" fill-opacity="0.07"/>
<circle cx="39.6" cy="127.8" r="1.8" fill="white" fill-opacity="0.07"/>
<circle cx="52.2" cy="127.8" r="1.8" fill="white" fill-opacity="0.07"/>
<circle cx="64.8" cy="127.8" r="1.8" fill="white" fill-opacity="0.07"/>
<circle cx="77.4" cy="127.8" r="1.8" fill="white" fill-opacity="0.07"/>
<circle cx="90" cy="127.8" r="1.8" fill="white" fill-opacity="0.07"/>
<circle cx="102.6" cy="127.8" r="1.8" fill="white" fill-opacity="0.07"/>
<circle cx="115.2" cy="127.8" r="1.8" fill="white" fill-opacity="0.07"/>
<circle cx="127.8" cy="127.8" r="1.8" fill="white" fill-opacity="0.07"/>
<circle cx="140.4" cy="127.8" r="1.8" fill="white" fill-opacity="0.07"/>
<circle cx="153" cy="127.8" r="1.8" fill="white" fill-opacity="0.07"/>
<circle cx="165.6" cy="127.8" r="1.8" fill="white" fill-opacity="0.07"/>
<circle cx="178.2" cy="127.8" r="1.8" fill="white" fill-opacity="0.07"/>
<circle cx="1.8" cy="140.4" r="1.8" fill="white" fill-opacity="0.07"/>
<circle cx="14.4" cy="140.4" r="1.8" fill="white" fill-opacity="0.07"/>
<circle cx="27" cy="140.4" r="1.8" fill="white" fill-opacity="0.07"/>
<circle cx="39.6" cy="140.4" r="1.8" fill="white" fill-opacity="0.07"/>
<circle cx="52.2" cy="140.4" r="1.8" fill="white" fill-opacity="0.07"/>
<circle cx="64.8" cy="140.4" r="1.8" fill="white" fill-opacity="0.07"/>
<circle cx="77.4" cy="140.4" r="1.8" fill="white" fill-opacity="0.07"/>
<circle cx="90" cy="140.4" r="1.8" fill="white" fill-opacity="0.07"/>
<circle cx="102.6" cy="140.4" r="1.8" fill="white" fill-opacity="0.07"/>
<circle cx="115.2" cy="140.4" r="1.8" fill="white" fill-opacity="0.07"/>
<circle cx="127.8" cy="140.4" r="1.8" fill="white" fill-opacity="0.07"/>
<circle cx="140.4" cy="140.4" r="1.8" fill="white" fill-opacity="0.07"/>
<circle cx="153" cy="140.4" r="1.8" fill="white" fill-opacity="0.07"/>
<circle cx="165.6" cy="140.4" r="1.8" fill="white" fill-opacity="0.07"/>
<circle cx="178.2" cy="140.4" r="1.8" fill="white" fill-opacity="0.07"/>
<circle cx="1.8" cy="153" r="1.8" fill="white" fill-opacity="0.07"/>
<circle cx="14.4" cy="153" r="1.8" fill="white" fill-opacity="0.07"/>
<circle cx="27" cy="153" r="1.8" fill="white" fill-opacity="0.07"/>
<circle cx="39.6" cy="153" r="1.8" fill="white" fill-opacity="0.07"/>
<circle cx="52.2" cy="153" r="1.8" fill="white" fill-opacity="0.07"/>
<circle cx="64.8" cy="153" r="1.8" fill="white" fill-opacity="0.07"/>
<circle cx="77.4" cy="153" r="1.8" fill="white" fill-opacity="0.07"/>
<circle cx="90" cy="153" r="1.8" fill="white" fill-opacity="0.07"/>
<circle cx="102.6" cy="153" r="1.8" fill="white" fill-opacity="0.07"/>
<circle cx="115.2" cy="153" r="1.8" fill="white" fill-opacity="0.07"/>
<circle cx="127.8" cy="153" r="1.8" fill="white" fill-opacity="0.07"/>
<circle cx="140.4" cy="153" r="1.8" fill="white" fill-opacity="0.07"/>
<circle cx="153" cy="153" r="1.8" fill="white" fill-opacity="0.07"/>
<circle cx="165.6" cy="153" r="1.8" fill="white" fill-opacity="0.07"/>
<circle cx="178.2" cy="153" r="1.8" fill="white" fill-opacity="0.07"/>
<circle cx="1.8" cy="165.6" r="1.8" fill="white" fill-opacity="0.07"/>
<circle cx="14.4" cy="165.6" r="1.8" fill="white" fill-opacity="0.07"/>
<circle cx="27" cy="165.6" r="1.8" fill="white" fill-opacity="0.07"/>
<circle cx="39.6" cy="165.6" r="1.8" fill="white" fill-opacity="0.07"/>
<circle cx="52.2" cy="165.6" r="1.8" fill="white" fill-opacity="0.07"/>
<circle cx="64.8" cy="165.6" r="1.8" fill="white" fill-opacity="0.07"/>
<circle cx="77.4" cy="165.6" r="1.8" fill="white" fill-opacity="0.07"/>
<circle cx="90" cy="165.6" r="1.8" fill="white" fill-opacity="0.07"/>
<circle cx="102.6" cy="165.6" r="1.8" fill="white" fill-opacity="0.07"/>
<circle cx="115.2" cy="165.6" r="1.8" fill="white" fill-opacity="0.07"/>
<circle cx="127.8" cy="165.6" r="1.8" fill="white" fill-opacity="0.07"/>
<circle cx="140.4" cy="165.6" r="1.8" fill="white" fill-opacity="0.07"/>
<circle cx="153" cy="165.6" r="1.8" fill="white" fill-opacity="0.07"/>
<circle cx="165.6" cy="165.6" r="1.8" fill="white" fill-opacity="0.07"/>
<circle cx="178.2" cy="165.6" r="1.8" fill="white" fill-opacity="0.07"/>
<circle cx="1.8" cy="178.2" r="1.8" fill="white" fill-opacity="0.07"/>
<circle cx="14.4" cy="178.2" r="1.8" fill="white" fill-opacity="0.07"/>
<circle cx="27" cy="178.2" r="1.8" fill="white" fill-opacity="0.07"/>
<circle cx="39.6" cy="178.2" r="1.8" fill="white" fill-opacity="0.07"/>
<circle cx="52.2" cy="178.2" r="1.8" fill="white" fill-opacity="0.07"/>
<circle cx="64.8" cy="178.2" r="1.8" fill="white" fill-opacity="0.07"/>
<circle cx="77.4" cy="178.2" r="1.8" fill="white" fill-opacity="0.07"/>
<circle cx="90" cy="178.2" r="1.8" fill="white" fill-opacity="0.07"/>
<circle cx="102.6" cy="178.2" r="1.8" fill="white" fill-opacity="0.07"/>
<circle cx="115.2" cy="178.2" r="1.8" fill="white" fill-opacity="0.07"/>
<circle cx="127.8" cy="178.2" r="1.8" fill="white" fill-opacity="0.07"/>
<circle cx="140.4" cy="178.2" r="1.8" fill="white" fill-opacity="0.07"/>
<circle cx="153" cy="178.2" r="1.8" fill="white" fill-opacity="0.07"/>
<circle cx="165.6" cy="178.2" r="1.8" fill="white" fill-opacity="0.07"/>
<circle cx="178.2" cy="178.2" r="1.8" fill="white" fill-opacity="0.07"/>
</svg>
