<svg width="26" height="23" viewBox="0 0 26 23" fill="none" xmlns="http://www.w3.org/2000/svg">
<path d="M8.46008 0H17.4991L25.9999 14.95H16.9405L8.46008 0Z" fill="url(#paint0_linear)"/>
<path d="M26 14.95L21.4703 22.9378H4.5094L9.04924 14.95H26Z" fill="url(#paint1_linear)"/>
<path d="M4.50938 22.9378L0 14.95L8.46016 0L13 8.00856L4.50938 22.9378Z" fill="url(#paint2_linear)"/>
<path opacity="0.1" d="M4.5094 22.9378L12.9492 14.95H9.04924L4.5094 22.9378Z" fill="black"/>
<path opacity="0.1" d="M25.9999 14.95H16.9507L14.9601 11.4482L25.9999 14.95Z" fill="black"/>
<path opacity="0.1" d="M8.46008 0L11.0702 11.3964L12.9999 8.00856L8.46008 0Z" fill="black"/>
<defs>
<linearGradient id="paint0_linear" x1="8.46008" y1="0" x2="23.2213" y2="17.3183" gradientUnits="userSpaceOnUse">
<stop stop-color="#F6C338"/>
<stop offset="0.52278" stop-color="#FFD351"/>
<stop offset="1" stop-color="#F6C338"/>
</linearGradient>
<linearGradient id="paint1_linear" x1="26" y1="14.95" x2="20.7828" y2="28.9865" gradientUnits="userSpaceOnUse">
<stop stop-color="#286EE6"/>
<stop offset="0.52105" stop-color="#4286FB"/>
<stop offset="1" stop-color="#286EE6"/>
</linearGradient>
<linearGradient id="paint2_linear" x1="8.48757" y1="2.36083e-07" x2="-1.67172" y2="19.6551" gradientUnits="userSpaceOnUse">
<stop stop-color="#069B5A"/>
<stop offset="0.53103" stop-color="#11AA62"/>
<stop offset="1" stop-color="#069B5A"/>
</linearGradient>
</defs>
</svg>
