<svg width="274" height="42" viewBox="0 0 274 42" fill="none" xmlns="http://www.w3.org/2000/svg">
<rect width="33" height="42" rx="5" fill="url(#paint0_linear)"/>
<rect x="5" y="16" width="23" height="3" rx="1.5" fill="white"/>
<rect x="5" y="8" width="23" height="3" rx="1.5" fill="white"/>
<rect x="5" y="24" width="23" height="3" rx="1.5" fill="white"/>
<rect x="5" y="32" width="23" height="3" rx="1.5" fill="white"/>
<path d="M56.631 29.7608H53V12.2751H62.9762V15.313H56.631V19.8219H62.5357V22.8478H56.631V29.7608Z" fill="#0C3E70"/>
<path d="M70.0714 20.0372H71.2619C72.4286 20.0372 73.2897 19.8419 73.8452 19.4512C74.4008 19.0605 74.6786 18.4465 74.6786 17.6093C74.6786 16.7801 74.3929 16.19 73.8214 15.8392C73.2579 15.4884 72.381 15.313 71.1905 15.313H70.0714V20.0372ZM70.0714 23.0512V29.7608H66.381V12.2751H71.4524C73.8175 12.2751 75.5675 12.7096 76.7024 13.5787C77.8373 14.4399 78.4048 15.7515 78.4048 17.5136C78.4048 18.5422 78.123 19.4591 77.5595 20.2645C76.996 21.0618 76.1984 21.6877 75.1667 22.1422C77.7857 26.0731 79.4921 28.6126 80.2857 29.7608H76.1905L72.0357 23.0512H70.0714Z" fill="#0C3E70"/>
<path d="M92.5 29.7608H82.4762V12.2751H92.5V15.313H86.1667V19.1522H92.0595V22.19H86.1667V26.699H92.5V29.7608Z" fill="#0C3E70"/>
<path d="M106.167 29.7608H96.1429V12.2751H106.167V15.313H99.8333V19.1522H105.726V22.19H99.8333V26.699H106.167V29.7608Z" fill="#0C3E70"/>
<path d="M117.202 15.1096C115.813 15.1096 114.738 15.6359 113.976 16.6884C113.214 17.7329 112.833 19.192 112.833 21.0658C112.833 24.9648 114.29 26.9143 117.202 26.9143C118.425 26.9143 119.905 26.6073 121.643 25.9934V29.103C120.214 29.701 118.619 30 116.857 30C114.325 30 112.389 29.2306 111.048 27.6917C109.706 26.1449 109.036 23.9282 109.036 21.0419C109.036 19.2239 109.365 17.6332 110.024 16.2698C110.683 14.8983 111.627 13.8498 112.857 13.1243C114.095 12.3907 115.544 12.0239 117.202 12.0239C118.893 12.0239 120.591 12.4346 122.298 13.2558L121.107 16.2698C120.456 15.9588 119.802 15.6877 119.143 15.4565C118.484 15.2252 117.837 15.1096 117.202 15.1096Z" fill="#0C3E70"/>
<path d="M141.155 20.994C141.155 23.8884 140.44 26.113 139.012 27.6678C137.583 29.2226 135.536 30 132.869 30C130.202 30 128.155 29.2226 126.726 27.6678C125.298 26.113 124.583 23.8804 124.583 20.9701C124.583 18.0598 125.298 15.8392 126.726 14.3083C128.163 12.7694 130.218 12 132.893 12C135.567 12 137.611 12.7734 139.024 14.3203C140.444 15.8671 141.155 18.0917 141.155 20.994ZM128.452 20.994C128.452 22.9475 128.821 24.4186 129.56 25.4073C130.298 26.396 131.401 26.8904 132.869 26.8904C135.813 26.8904 137.286 24.9249 137.286 20.994C137.286 17.0552 135.821 15.0857 132.893 15.0857C131.425 15.0857 130.317 15.5841 129.571 16.5807C128.825 17.5694 128.452 19.0405 128.452 20.994Z" fill="#0C3E70"/>
<path d="M160.202 29.7608H155.512L147.94 16.5329H147.833C147.984 18.8691 148.06 20.5355 148.06 21.5322V29.7608H144.762V12.2751H149.417L156.976 25.3714H157.06C156.94 23.099 156.881 21.4924 156.881 20.5515V12.2751H160.202V29.7608Z" fill="#0C3E70"/>
<path d="M174.524 12.2751H178.25L172.333 29.7608H168.31L162.405 12.2751H166.131L169.405 22.6804C169.587 23.2944 169.774 24.012 169.964 24.8332C170.163 25.6465 170.286 26.2126 170.333 26.5316C170.421 25.798 170.718 24.5143 171.226 22.6804L174.524 12.2751Z" fill="#0C3E70"/>
<path d="M190.476 29.7608H180.452V12.2751H190.476V15.313H184.143V19.1522H190.036V22.19H184.143V26.699H190.476V29.7608Z" fill="#0C3E70"/>
<path d="M197.81 20.0372H199C200.167 20.0372 201.028 19.8419 201.583 19.4512C202.139 19.0605 202.417 18.4465 202.417 17.6093C202.417 16.7801 202.131 16.19 201.56 15.8392C200.996 15.4884 200.119 15.313 198.929 15.313H197.81V20.0372ZM197.81 23.0512V29.7608H194.119V12.2751H199.19C201.556 12.2751 203.306 12.7096 204.44 13.5787C205.575 14.4399 206.143 15.7515 206.143 17.5136C206.143 18.5422 205.861 19.4591 205.298 20.2645C204.734 21.0618 203.937 21.6877 202.905 22.1422C205.524 26.0731 207.23 28.6126 208.024 29.7608H203.929L199.774 23.0512H197.81Z" fill="#0C3E70"/>
<path d="M216.929 29.7608H213.238V15.3608H208.512V12.2751H221.655V15.3608H216.929V29.7608Z" fill="#0C3E70"/>
<path d="M234.357 20.5037H235.571C236.706 20.5037 237.556 20.2804 238.119 19.8339C238.683 19.3794 238.964 18.7216 238.964 17.8605C238.964 16.9914 238.726 16.3495 238.25 15.9349C237.782 15.5203 237.044 15.313 236.036 15.313H234.357V20.5037ZM242.69 17.7289C242.69 19.6106 242.103 21.0498 240.929 22.0465C239.762 23.0432 238.099 23.5415 235.94 23.5415H234.357V29.7608H230.667V12.2751H236.226C238.337 12.2751 239.94 12.7336 241.036 13.6505C242.139 14.5595 242.69 15.9189 242.69 17.7289Z" fill="#0C3E70"/>
<path d="M260.417 20.8505C260.417 23.7289 259.599 25.9336 257.964 27.4645C256.337 28.9953 253.984 29.7608 250.905 29.7608H245.976V12.2751H251.44C254.282 12.2751 256.488 13.0286 258.06 14.5355C259.631 16.0425 260.417 18.1475 260.417 20.8505ZM256.583 20.9462C256.583 17.1907 254.933 15.313 251.631 15.313H249.667V26.699H251.25C254.806 26.699 256.583 24.7814 256.583 20.9462Z" fill="#0C3E70"/>
<path d="M267.655 29.7608H264.024V12.2751H274V15.313H267.655V19.8219H273.56V22.8478H267.655V29.7608Z" fill="#0C3E70"/>
<defs>
<linearGradient id="paint0_linear" x1="0" y1="21" x2="33" y2="21" gradientUnits="userSpaceOnUse">
<stop stop-color="#1CD995"/>
<stop offset="1" stop-color="#42E666"/>
</linearGradient>
</defs>
</svg>
